M48
; FORMAT={-:-/ absolute / metric / decimal}
; #@! TF.GenerationSoftware,Kicad,Pcbnew,9.0.9-9.0.9~ubuntu24.04.1
; #@! TF.FileFunction,Plated,1,4,PTH
FMAT,2
METRIC
; #@! TA.AperFunction,Plated,PTH,ViaDrill
T1C0.300
; #@! TA.AperFunction,Plated,PTH,ViaDrill
T2C0.500
%
G90
G05
T1
X57.48Y-59.96
X57.48Y-60.96
X57.48Y-61.96
X57.48Y-106.18
X57.48Y-107.18
X57.48Y-113.8
X57.48Y-114.8
X60.02Y-87.4
X60.02Y-88.4
X60.02Y-89.4
X60.02Y-90.4
X60.96Y-105.49
X60.96Y-113.11
X66.04Y-64.69
X67.605Y-49.53
X67.605Y-50.8
X67.605Y-52.07
X68.875Y-49.53
X68.875Y-50.8
X68.875Y-52.07
X71.12Y-95.4
X73.66Y-51.99
X73.66Y-59.77
X76.2Y-95.4
X76.2Y-105.49
X76.2Y-113.11
X79.68Y-106.18
X79.68Y-107.18
X79.68Y-113.8
X79.68Y-114.8
X81.28Y-95.4
X82.24Y-52.88
X82.24Y-54.38
X82.24Y-55.88
X82.24Y-57.38
X82.24Y-58.88
X82.24Y-60.38
X83.74Y-52.88
X83.74Y-54.38
X83.74Y-55.88
X83.74Y-57.38
X83.74Y-58.88
X83.74Y-60.38
X84.49Y-62.23
X85.24Y-52.88
X85.24Y-54.38
X85.24Y-55.88
X85.24Y-57.38
X85.24Y-58.88
X85.24Y-60.38
X86.36Y-95.4
X86.74Y-52.88
X86.74Y-54.38
X86.74Y-55.88
X86.74Y-57.38
X86.74Y-58.88
X86.74Y-60.38
X87.49Y-62.23
X87.96Y-108.72
X87.96Y-109.72
X87.96Y-121.42
X87.96Y-122.42
X88.24Y-52.88
X88.24Y-54.38
X88.24Y-55.88
X88.24Y-57.38
X88.24Y-58.88
X88.24Y-60.38
X88.99Y-62.23
X89.74Y-52.88
X89.74Y-54.38
X89.74Y-55.88
X89.74Y-57.38
X89.74Y-58.88
X89.74Y-60.38
X90.49Y-62.23
X93.98Y-105.49
X93.98Y-118.19
X95.17Y-50.3
X95.17Y-51.3
X95.17Y-68.08
X95.17Y-69.08
X97.46Y-87.4
X97.46Y-88.4
X97.46Y-89.4
X97.46Y-90.4
X101.1Y-44.37
X101.1Y-57.23
X101.1Y-62.15
X101.1Y-75.01
X102.1Y-44.37
X102.1Y-57.23
X102.1Y-62.15
X102.1Y-75.01
X104.14Y-105.49
X104.14Y-118.19
X105.74Y-81.82
X105.74Y-82.82
X105.74Y-83.82
X105.74Y-84.82
X105.74Y-85.82
X108.03Y-50.3
X108.03Y-51.3
X108.03Y-68.08
X108.03Y-69.08
X110.16Y-108.72
X110.16Y-109.72
X110.16Y-121.42
X110.16Y-122.42
X115.49Y-111.26
X115.49Y-112.26
X116.34Y-44.78
X116.84Y-48.26
X116.84Y-51.99
X116.84Y-80.09
X117.34Y-44.78
X121.42Y-105.33
X121.42Y-118.19
X122.42Y-105.33
X122.42Y-118.19
X127.34Y-90.15
X128.19Y-50.3
X128.19Y-51.3
X128.35Y-111.26
X128.35Y-112.26
X129.54Y-80.09
X129.88Y-90.15
X133.27Y-111.26
X133.27Y-112.26
X134.12Y-44.37
X134.12Y-57.23
X134.12Y-62.56
X134.62Y-69.77
X135.12Y-44.37
X135.12Y-57.23
X135.12Y-62.56
X139.2Y-105.33
X139.2Y-118.19
X140.2Y-105.33
X140.2Y-118.19
X140.64Y-81.82
X140.64Y-82.82
X140.64Y-83.82
X140.64Y-84.82
X140.64Y-85.82
X141.05Y-50.3
X141.05Y-51.3
X146.13Y-111.26
X146.13Y-112.26
T2
X67.605Y-59.69
X67.605Y-60.96
X67.605Y-62.23
X68.875Y-59.69
X68.875Y-60.96
X68.875Y-62.23
X132.42Y-90.15
X134.62Y-66.04
X134.96Y-90.15
M30
