%TF.GenerationSoftware,KiCad,Pcbnew,9.0.9-9.0.9~ubuntu24.04.1*%
%TF.ProjectId,DC-B,44432d42-2e6b-4696-9361-645f70636258,C*%
%TF.SameCoordinates,Original*%
%TF.FileFunction,Soldermask,Top*%
%TF.FilePolarity,Negative*%
%FSLAX46Y46*%
G04 Gerber Fmt 4.6, Leading zero omitted, Abs format (unit mm)*
%MOMM*%
%LPD*%
G01*
G04 APERTURE LIST*
G04 Aperture macros list*
%AMFreePoly0*
4,1,5,1.500000,-1.500000,-1.500000,-1.500000,-1.500000,1.500000,1.500000,1.500000,1.500000,-1.500000,1.500000,-1.500000,$1*%
G04 Aperture macros list end*
%ADD10R,2.000000X3.740000*%
%ADD11R,1.600000X1.600000*%
%ADD12R,2.000000X2.000000*%
%ADD13R,2.000000X4.000000*%
%ADD14R,2.000000X5.000000*%
%ADD15FreePoly0,0.000000*%
%ADD16C,3.200000*%
G04 APERTURE END LIST*
D10*
%TO.C,PDN_FP*%
X55880000Y-50800000D03*
%TD*%
%TO.C,PDN_FM*%
X55880000Y-60960000D03*
%TD*%
D11*
%TO.C,PDN_S7*%
X66040000Y-45720000D03*
%TD*%
%TO.C,PDN_S8*%
X66040000Y-66040000D03*
%TD*%
%TO.C,PDN_S1*%
X73660000Y-53340000D03*
%TD*%
%TO.C,PDN_S2*%
X73660000Y-58420000D03*
%TD*%
%TO.C,PDN_S3*%
X83820000Y-66040000D03*
%TD*%
%TO.C,PDN_S4*%
X86360000Y-66040000D03*
%TD*%
%TO.C,PDN_S6*%
X88900000Y-66040000D03*
%TD*%
%TO.C,PDN_S5*%
X91440000Y-66040000D03*
%TD*%
%TO.C,VDPI11_A*%
X106680000Y-50800000D03*
%TD*%
%TO.C,VDPI11_B*%
X101600000Y-45720000D03*
%TD*%
%TO.C,VDPI11_C*%
X96520000Y-50800000D03*
%TD*%
%TO.C,VDPI11_D*%
X101600000Y-55880000D03*
%TD*%
%TO.C,VDPI21_A*%
X106680000Y-68580000D03*
%TD*%
%TO.C,VDPI21_B*%
X101600000Y-63500000D03*
%TD*%
%TO.C,VDPI21_C*%
X96520000Y-68580000D03*
%TD*%
%TO.C,VDPI21_D*%
X101600000Y-73660000D03*
%TD*%
D12*
%TO.C,KVFB_FP*%
X111760000Y-48260000D03*
%TD*%
D11*
%TO.C,KVFB_SP*%
X121920000Y-48260000D03*
%TD*%
D12*
%TO.C,KVFB_FM*%
X116840000Y-43180000D03*
%TD*%
D11*
%TO.C,KVFB_SM*%
X116840000Y-53340000D03*
%TD*%
%TO.C,VDPF1_A*%
X121920000Y-66040000D03*
%TD*%
%TO.C,VDPF1_B*%
X116840000Y-60960000D03*
%TD*%
%TO.C,VDPF1_C*%
X111760000Y-66040000D03*
%TD*%
%TO.C,VDPF1_D*%
X116840000Y-71120000D03*
%TD*%
%TO.C,VDPB1_A*%
X139700000Y-50800000D03*
%TD*%
%TO.C,VDPB1_B*%
X134620000Y-45720000D03*
%TD*%
%TO.C,VDPB1_C*%
X129540000Y-50800000D03*
%TD*%
%TO.C,VDPB1_D*%
X134620000Y-55880000D03*
%TD*%
D12*
%TO.C,KVFB050_FP*%
X129540000Y-66040000D03*
%TD*%
D11*
%TO.C,KVFB050_SP*%
X139700000Y-66040000D03*
%TD*%
D12*
%TO.C,KVFB050_FM*%
X134620000Y-60960000D03*
%TD*%
D11*
%TO.C,KVFB050_SM*%
X134620000Y-71120000D03*
%TD*%
D13*
%TO.C,SP_FP*%
X58420000Y-88900000D03*
%TD*%
%TO.C,SP_FM*%
X99060000Y-88900000D03*
%TD*%
D11*
%TO.C,SP_S1*%
X71120000Y-99060000D03*
%TD*%
%TO.C,SP_S2*%
X76200000Y-99060000D03*
%TD*%
%TO.C,SP_S3*%
X81280000Y-99060000D03*
%TD*%
%TO.C,SP_S4*%
X86360000Y-99060000D03*
%TD*%
D14*
%TO.C,NK1I1_FP*%
X104140000Y-83820000D03*
%TD*%
%TO.C,NK1I1_FM*%
X142240000Y-83820000D03*
%TD*%
D11*
%TO.C,NK1I1_SP*%
X116840000Y-78740000D03*
%TD*%
%TO.C,NK1I1_SM*%
X129540000Y-78740000D03*
%TD*%
D12*
%TO.C,BRF025X_FP*%
X104140000Y-93980000D03*
%TD*%
%TO.C,BRF025X_FM*%
X124460000Y-93980000D03*
%TD*%
D11*
%TO.C,BRF025X_SP*%
X109220000Y-91440000D03*
%TD*%
%TO.C,BRF025X_SM*%
X119380000Y-91440000D03*
%TD*%
D15*
%TO.C,TK1_W1*%
X128495000Y-95530000D03*
%TD*%
%TO.C,TK2_W1*%
X133005000Y-95530000D03*
%TD*%
D12*
%TO.C,BRI1050X_FP*%
X55880000Y-106680000D03*
%TD*%
%TO.C,BRI1050X_FM*%
X81280000Y-106680000D03*
%TD*%
D11*
%TO.C,BRI1050X_SP*%
X60960000Y-104140000D03*
%TD*%
%TO.C,BRI1050X_SM*%
X76200000Y-104140000D03*
%TD*%
D12*
%TO.C,BRI2050X_FP*%
X55880000Y-114300000D03*
%TD*%
%TO.C,BRI2050X_FM*%
X81280000Y-114300000D03*
%TD*%
D11*
%TO.C,BRI2050X_SP*%
X60960000Y-111760000D03*
%TD*%
%TO.C,BRI2050X_SM*%
X76200000Y-111760000D03*
%TD*%
D12*
%TO.C,BRI1200X_FP*%
X86360000Y-109220000D03*
%TD*%
%TO.C,BRI1200X_FM*%
X111760000Y-109220000D03*
%TD*%
D11*
%TO.C,BRI1200X_SP*%
X93980000Y-104140000D03*
%TD*%
%TO.C,BRI1200X_SM*%
X104140000Y-104140000D03*
%TD*%
D12*
%TO.C,BRI2200X_FP*%
X86360000Y-121920000D03*
%TD*%
%TO.C,BRI2200X_FM*%
X111760000Y-121920000D03*
%TD*%
D11*
%TO.C,BRI2200X_SP*%
X93980000Y-116840000D03*
%TD*%
%TO.C,BRI2200X_SM*%
X104140000Y-116840000D03*
%TD*%
%TO.C,VDPI12_A*%
X127000000Y-111760000D03*
%TD*%
%TO.C,VDPI12_B*%
X121920000Y-106680000D03*
%TD*%
%TO.C,VDPI12_C*%
X116840000Y-111760000D03*
%TD*%
%TO.C,VDPI12_D*%
X121920000Y-116840000D03*
%TD*%
%TO.C,VDPI22_A*%
X144780000Y-111760000D03*
%TD*%
%TO.C,VDPI22_B*%
X139700000Y-106680000D03*
%TD*%
%TO.C,VDPI22_C*%
X134620000Y-111760000D03*
%TD*%
%TO.C,VDPI22_D*%
X139700000Y-116840000D03*
%TD*%
D15*
%TO.C,TK3_W1*%
X61300000Y-131400000D03*
%TD*%
D16*
%TO.C,H1*%
X54800000Y-42100000D03*
%TD*%
%TO.C,H2*%
X145860000Y-42100000D03*
%TD*%
%TO.C,H3*%
X54800000Y-133160000D03*
%TD*%
%TO.C,H4*%
X145860000Y-133160000D03*
%TD*%
M02*
