%TF.GenerationSoftware,KiCad,Pcbnew,9.0.9-9.0.9~ubuntu24.04.1*%
%TF.ProjectId,DC-B,44432d42-2e6b-4696-9361-645f70636258,C*%
%TF.SameCoordinates,Original*%
%TF.FileFunction,Legend,Bot*%
%TF.FilePolarity,Positive*%
%FSLAX46Y46*%
G04 Gerber Fmt 4.6, Leading zero omitted, Abs format (unit mm)*
%MOMM*%
%LPD*%
G01*
G04 APERTURE LIST*
G04 Aperture macros list*
%AMFreePoly0*
4,1,5,1.500000,-1.500000,-1.500000,-1.500000,-1.500000,1.500000,1.500000,1.500000,1.500000,-1.500000,1.500000,-1.500000,$1*%
G04 Aperture macros list end*
%ADD10C,0.160000*%
%ADD11FreePoly0,0.000000*%
%ADD12C,3.200000*%
G04 APERTURE END LIST*
D10*
X129756904Y-97384299D02*
X129185476Y-97384299D01*
X129471190Y-98384299D02*
X129471190Y-97384299D01*
X128852142Y-98384299D02*
X128852142Y-97384299D01*
X128280714Y-98384299D02*
X128709285Y-97812870D01*
X128280714Y-97384299D02*
X128852142Y-97955727D01*
X127328333Y-98384299D02*
X127899761Y-98384299D01*
X127614047Y-98384299D02*
X127614047Y-97384299D01*
X127614047Y-97384299D02*
X127709285Y-97527156D01*
X127709285Y-97527156D02*
X127804523Y-97622394D01*
X127804523Y-97622394D02*
X127899761Y-97670013D01*
X134266904Y-97384299D02*
X133695476Y-97384299D01*
X133981190Y-98384299D02*
X133981190Y-97384299D01*
X133362142Y-98384299D02*
X133362142Y-97384299D01*
X132790714Y-98384299D02*
X133219285Y-97812870D01*
X132790714Y-97384299D02*
X133362142Y-97955727D01*
X132409761Y-97479537D02*
X132362142Y-97431918D01*
X132362142Y-97431918D02*
X132266904Y-97384299D01*
X132266904Y-97384299D02*
X132028809Y-97384299D01*
X132028809Y-97384299D02*
X131933571Y-97431918D01*
X131933571Y-97431918D02*
X131885952Y-97479537D01*
X131885952Y-97479537D02*
X131838333Y-97574775D01*
X131838333Y-97574775D02*
X131838333Y-97670013D01*
X131838333Y-97670013D02*
X131885952Y-97812870D01*
X131885952Y-97812870D02*
X132457380Y-98384299D01*
X132457380Y-98384299D02*
X131838333Y-98384299D01*
X62561904Y-128454299D02*
X61990476Y-128454299D01*
X62276190Y-129454299D02*
X62276190Y-128454299D01*
X61657142Y-129454299D02*
X61657142Y-128454299D01*
X61085714Y-129454299D02*
X61514285Y-128882870D01*
X61085714Y-128454299D02*
X61657142Y-129025727D01*
X60752380Y-128454299D02*
X60133333Y-128454299D01*
X60133333Y-128454299D02*
X60466666Y-128835251D01*
X60466666Y-128835251D02*
X60323809Y-128835251D01*
X60323809Y-128835251D02*
X60228571Y-128882870D01*
X60228571Y-128882870D02*
X60180952Y-128930489D01*
X60180952Y-128930489D02*
X60133333Y-129025727D01*
X60133333Y-129025727D02*
X60133333Y-129263822D01*
X60133333Y-129263822D02*
X60180952Y-129359060D01*
X60180952Y-129359060D02*
X60228571Y-129406680D01*
X60228571Y-129406680D02*
X60323809Y-129454299D01*
X60323809Y-129454299D02*
X60609523Y-129454299D01*
X60609523Y-129454299D02*
X60704761Y-129406680D01*
X60704761Y-129406680D02*
X60752380Y-129359060D01*
X148814299Y-70725237D02*
X147814299Y-70725237D01*
X147814299Y-70725237D02*
X147814299Y-71106189D01*
X147814299Y-71106189D02*
X147861918Y-71201427D01*
X147861918Y-71201427D02*
X147909537Y-71249046D01*
X147909537Y-71249046D02*
X148004775Y-71296665D01*
X148004775Y-71296665D02*
X148147632Y-71296665D01*
X148147632Y-71296665D02*
X148242870Y-71249046D01*
X148242870Y-71249046D02*
X148290489Y-71201427D01*
X148290489Y-71201427D02*
X148338108Y-71106189D01*
X148338108Y-71106189D02*
X148338108Y-70725237D01*
X148814299Y-71725237D02*
X147814299Y-71725237D01*
X147814299Y-71725237D02*
X147814299Y-71963332D01*
X147814299Y-71963332D02*
X147861918Y-72106189D01*
X147861918Y-72106189D02*
X147957156Y-72201427D01*
X147957156Y-72201427D02*
X148052394Y-72249046D01*
X148052394Y-72249046D02*
X148242870Y-72296665D01*
X148242870Y-72296665D02*
X148385727Y-72296665D01*
X148385727Y-72296665D02*
X148576203Y-72249046D01*
X148576203Y-72249046D02*
X148671441Y-72201427D01*
X148671441Y-72201427D02*
X148766680Y-72106189D01*
X148766680Y-72106189D02*
X148814299Y-71963332D01*
X148814299Y-71963332D02*
X148814299Y-71725237D01*
X148814299Y-72725237D02*
X147814299Y-72725237D01*
X147814299Y-72725237D02*
X148814299Y-73296665D01*
X148814299Y-73296665D02*
X147814299Y-73296665D01*
X148766680Y-73725237D02*
X148814299Y-73868094D01*
X148814299Y-73868094D02*
X148814299Y-74106189D01*
X148814299Y-74106189D02*
X148766680Y-74201427D01*
X148766680Y-74201427D02*
X148719060Y-74249046D01*
X148719060Y-74249046D02*
X148623822Y-74296665D01*
X148623822Y-74296665D02*
X148528584Y-74296665D01*
X148528584Y-74296665D02*
X148433346Y-74249046D01*
X148433346Y-74249046D02*
X148385727Y-74201427D01*
X148385727Y-74201427D02*
X148338108Y-74106189D01*
X148338108Y-74106189D02*
X148290489Y-73915713D01*
X148290489Y-73915713D02*
X148242870Y-73820475D01*
X148242870Y-73820475D02*
X148195251Y-73772856D01*
X148195251Y-73772856D02*
X148100013Y-73725237D01*
X148100013Y-73725237D02*
X148004775Y-73725237D01*
X148004775Y-73725237D02*
X147909537Y-73772856D01*
X147909537Y-73772856D02*
X147861918Y-73820475D01*
X147861918Y-73820475D02*
X147814299Y-73915713D01*
X147814299Y-73915713D02*
X147814299Y-74153808D01*
X147814299Y-74153808D02*
X147861918Y-74296665D01*
X148814299Y-74725237D02*
X147814299Y-74725237D01*
X148814299Y-75201427D02*
X147814299Y-75201427D01*
X147814299Y-75201427D02*
X148528584Y-75534760D01*
X148528584Y-75534760D02*
X147814299Y-75868093D01*
X147814299Y-75868093D02*
X148814299Y-75868093D01*
X148814299Y-77106189D02*
X147814299Y-77106189D01*
X148814299Y-77677617D02*
X148242870Y-77249046D01*
X147814299Y-77677617D02*
X148385727Y-77106189D01*
X148814299Y-78106189D02*
X147814299Y-78106189D01*
X147814299Y-78439522D02*
X147814299Y-79010950D01*
X148814299Y-78725236D02*
X147814299Y-78725236D01*
X148814299Y-80106189D02*
X147814299Y-80106189D01*
X147814299Y-80106189D02*
X147814299Y-80344284D01*
X147814299Y-80344284D02*
X147861918Y-80487141D01*
X147861918Y-80487141D02*
X147957156Y-80582379D01*
X147957156Y-80582379D02*
X148052394Y-80629998D01*
X148052394Y-80629998D02*
X148242870Y-80677617D01*
X148242870Y-80677617D02*
X148385727Y-80677617D01*
X148385727Y-80677617D02*
X148576203Y-80629998D01*
X148576203Y-80629998D02*
X148671441Y-80582379D01*
X148671441Y-80582379D02*
X148766680Y-80487141D01*
X148766680Y-80487141D02*
X148814299Y-80344284D01*
X148814299Y-80344284D02*
X148814299Y-80106189D01*
X148719060Y-81677617D02*
X148766680Y-81629998D01*
X148766680Y-81629998D02*
X148814299Y-81487141D01*
X148814299Y-81487141D02*
X148814299Y-81391903D01*
X148814299Y-81391903D02*
X148766680Y-81249046D01*
X148766680Y-81249046D02*
X148671441Y-81153808D01*
X148671441Y-81153808D02*
X148576203Y-81106189D01*
X148576203Y-81106189D02*
X148385727Y-81058570D01*
X148385727Y-81058570D02*
X148242870Y-81058570D01*
X148242870Y-81058570D02*
X148052394Y-81106189D01*
X148052394Y-81106189D02*
X147957156Y-81153808D01*
X147957156Y-81153808D02*
X147861918Y-81249046D01*
X147861918Y-81249046D02*
X147814299Y-81391903D01*
X147814299Y-81391903D02*
X147814299Y-81487141D01*
X147814299Y-81487141D02*
X147861918Y-81629998D01*
X147861918Y-81629998D02*
X147909537Y-81677617D01*
X148433346Y-82106189D02*
X148433346Y-82868094D01*
X148290489Y-83677617D02*
X148338108Y-83820474D01*
X148338108Y-83820474D02*
X148385727Y-83868093D01*
X148385727Y-83868093D02*
X148480965Y-83915712D01*
X148480965Y-83915712D02*
X148623822Y-83915712D01*
X148623822Y-83915712D02*
X148719060Y-83868093D01*
X148719060Y-83868093D02*
X148766680Y-83820474D01*
X148766680Y-83820474D02*
X148814299Y-83725236D01*
X148814299Y-83725236D02*
X148814299Y-83344284D01*
X148814299Y-83344284D02*
X147814299Y-83344284D01*
X147814299Y-83344284D02*
X147814299Y-83677617D01*
X147814299Y-83677617D02*
X147861918Y-83772855D01*
X147861918Y-83772855D02*
X147909537Y-83820474D01*
X147909537Y-83820474D02*
X148004775Y-83868093D01*
X148004775Y-83868093D02*
X148100013Y-83868093D01*
X148100013Y-83868093D02*
X148195251Y-83820474D01*
X148195251Y-83820474D02*
X148242870Y-83772855D01*
X148242870Y-83772855D02*
X148290489Y-83677617D01*
X148290489Y-83677617D02*
X148290489Y-83344284D01*
X148814299Y-85677617D02*
X148338108Y-85344284D01*
X148814299Y-85106189D02*
X147814299Y-85106189D01*
X147814299Y-85106189D02*
X147814299Y-85487141D01*
X147814299Y-85487141D02*
X147861918Y-85582379D01*
X147861918Y-85582379D02*
X147909537Y-85629998D01*
X147909537Y-85629998D02*
X148004775Y-85677617D01*
X148004775Y-85677617D02*
X148147632Y-85677617D01*
X148147632Y-85677617D02*
X148242870Y-85629998D01*
X148242870Y-85629998D02*
X148290489Y-85582379D01*
X148290489Y-85582379D02*
X148338108Y-85487141D01*
X148338108Y-85487141D02*
X148338108Y-85106189D01*
X148290489Y-86106189D02*
X148290489Y-86439522D01*
X148814299Y-86582379D02*
X148814299Y-86106189D01*
X148814299Y-86106189D02*
X147814299Y-86106189D01*
X147814299Y-86106189D02*
X147814299Y-86582379D01*
X147814299Y-86868094D02*
X148814299Y-87201427D01*
X148814299Y-87201427D02*
X147814299Y-87534760D01*
X148719060Y-89201427D02*
X148766680Y-89153808D01*
X148766680Y-89153808D02*
X148814299Y-89010951D01*
X148814299Y-89010951D02*
X148814299Y-88915713D01*
X148814299Y-88915713D02*
X148766680Y-88772856D01*
X148766680Y-88772856D02*
X148671441Y-88677618D01*
X148671441Y-88677618D02*
X148576203Y-88629999D01*
X148576203Y-88629999D02*
X148385727Y-88582380D01*
X148385727Y-88582380D02*
X148242870Y-88582380D01*
X148242870Y-88582380D02*
X148052394Y-88629999D01*
X148052394Y-88629999D02*
X147957156Y-88677618D01*
X147957156Y-88677618D02*
X147861918Y-88772856D01*
X147861918Y-88772856D02*
X147814299Y-88915713D01*
X147814299Y-88915713D02*
X147814299Y-89010951D01*
X147814299Y-89010951D02*
X147861918Y-89153808D01*
X147861918Y-89153808D02*
X147909537Y-89201427D01*
X148433346Y-90391904D02*
X148433346Y-91153809D01*
X148290489Y-92725237D02*
X148338108Y-92868094D01*
X148338108Y-92868094D02*
X148385727Y-92915713D01*
X148385727Y-92915713D02*
X148480965Y-92963332D01*
X148480965Y-92963332D02*
X148623822Y-92963332D01*
X148623822Y-92963332D02*
X148719060Y-92915713D01*
X148719060Y-92915713D02*
X148766680Y-92868094D01*
X148766680Y-92868094D02*
X148814299Y-92772856D01*
X148814299Y-92772856D02*
X148814299Y-92391904D01*
X148814299Y-92391904D02*
X147814299Y-92391904D01*
X147814299Y-92391904D02*
X147814299Y-92725237D01*
X147814299Y-92725237D02*
X147861918Y-92820475D01*
X147861918Y-92820475D02*
X147909537Y-92868094D01*
X147909537Y-92868094D02*
X148004775Y-92915713D01*
X148004775Y-92915713D02*
X148100013Y-92915713D01*
X148100013Y-92915713D02*
X148195251Y-92868094D01*
X148195251Y-92868094D02*
X148242870Y-92820475D01*
X148242870Y-92820475D02*
X148290489Y-92725237D01*
X148290489Y-92725237D02*
X148290489Y-92391904D01*
X148528584Y-93344285D02*
X148528584Y-93820475D01*
X148814299Y-93249047D02*
X147814299Y-93582380D01*
X147814299Y-93582380D02*
X148814299Y-93915713D01*
X148719060Y-94820475D02*
X148766680Y-94772856D01*
X148766680Y-94772856D02*
X148814299Y-94629999D01*
X148814299Y-94629999D02*
X148814299Y-94534761D01*
X148814299Y-94534761D02*
X148766680Y-94391904D01*
X148766680Y-94391904D02*
X148671441Y-94296666D01*
X148671441Y-94296666D02*
X148576203Y-94249047D01*
X148576203Y-94249047D02*
X148385727Y-94201428D01*
X148385727Y-94201428D02*
X148242870Y-94201428D01*
X148242870Y-94201428D02*
X148052394Y-94249047D01*
X148052394Y-94249047D02*
X147957156Y-94296666D01*
X147957156Y-94296666D02*
X147861918Y-94391904D01*
X147861918Y-94391904D02*
X147814299Y-94534761D01*
X147814299Y-94534761D02*
X147814299Y-94629999D01*
X147814299Y-94629999D02*
X147861918Y-94772856D01*
X147861918Y-94772856D02*
X147909537Y-94820475D01*
X148814299Y-95249047D02*
X147814299Y-95249047D01*
X148814299Y-95820475D02*
X148242870Y-95391904D01*
X147814299Y-95820475D02*
X148385727Y-95249047D01*
X149195251Y-97296666D02*
X149147632Y-97249047D01*
X149147632Y-97249047D02*
X149004775Y-97153809D01*
X149004775Y-97153809D02*
X148909537Y-97106190D01*
X148909537Y-97106190D02*
X148766680Y-97058571D01*
X148766680Y-97058571D02*
X148528584Y-97010952D01*
X148528584Y-97010952D02*
X148338108Y-97010952D01*
X148338108Y-97010952D02*
X148100013Y-97058571D01*
X148100013Y-97058571D02*
X147957156Y-97106190D01*
X147957156Y-97106190D02*
X147861918Y-97153809D01*
X147861918Y-97153809D02*
X147719060Y-97249047D01*
X147719060Y-97249047D02*
X147671441Y-97296666D01*
X148814299Y-97677619D02*
X147814299Y-97677619D01*
X147814299Y-97677619D02*
X148814299Y-98249047D01*
X148814299Y-98249047D02*
X147814299Y-98249047D01*
X147814299Y-98915714D02*
X147814299Y-99106190D01*
X147814299Y-99106190D02*
X147861918Y-99201428D01*
X147861918Y-99201428D02*
X147957156Y-99296666D01*
X147957156Y-99296666D02*
X148147632Y-99344285D01*
X148147632Y-99344285D02*
X148480965Y-99344285D01*
X148480965Y-99344285D02*
X148671441Y-99296666D01*
X148671441Y-99296666D02*
X148766680Y-99201428D01*
X148766680Y-99201428D02*
X148814299Y-99106190D01*
X148814299Y-99106190D02*
X148814299Y-98915714D01*
X148814299Y-98915714D02*
X148766680Y-98820476D01*
X148766680Y-98820476D02*
X148671441Y-98725238D01*
X148671441Y-98725238D02*
X148480965Y-98677619D01*
X148480965Y-98677619D02*
X148147632Y-98677619D01*
X148147632Y-98677619D02*
X147957156Y-98725238D01*
X147957156Y-98725238D02*
X147861918Y-98820476D01*
X147861918Y-98820476D02*
X147814299Y-98915714D01*
X148814299Y-100534762D02*
X147814299Y-100534762D01*
X147814299Y-100534762D02*
X147814299Y-100915714D01*
X147814299Y-100915714D02*
X147861918Y-101010952D01*
X147861918Y-101010952D02*
X147909537Y-101058571D01*
X147909537Y-101058571D02*
X148004775Y-101106190D01*
X148004775Y-101106190D02*
X148147632Y-101106190D01*
X148147632Y-101106190D02*
X148242870Y-101058571D01*
X148242870Y-101058571D02*
X148290489Y-101010952D01*
X148290489Y-101010952D02*
X148338108Y-100915714D01*
X148338108Y-100915714D02*
X148338108Y-100534762D01*
X148528584Y-101487143D02*
X148528584Y-101963333D01*
X148814299Y-101391905D02*
X147814299Y-101725238D01*
X147814299Y-101725238D02*
X148814299Y-102058571D01*
X148814299Y-102391905D02*
X147814299Y-102391905D01*
X147814299Y-102391905D02*
X147814299Y-102630000D01*
X147814299Y-102630000D02*
X147861918Y-102772857D01*
X147861918Y-102772857D02*
X147957156Y-102868095D01*
X147957156Y-102868095D02*
X148052394Y-102915714D01*
X148052394Y-102915714D02*
X148242870Y-102963333D01*
X148242870Y-102963333D02*
X148385727Y-102963333D01*
X148385727Y-102963333D02*
X148576203Y-102915714D01*
X148576203Y-102915714D02*
X148671441Y-102868095D01*
X148671441Y-102868095D02*
X148766680Y-102772857D01*
X148766680Y-102772857D02*
X148814299Y-102630000D01*
X148814299Y-102630000D02*
X148814299Y-102391905D01*
X148766680Y-103344286D02*
X148814299Y-103487143D01*
X148814299Y-103487143D02*
X148814299Y-103725238D01*
X148814299Y-103725238D02*
X148766680Y-103820476D01*
X148766680Y-103820476D02*
X148719060Y-103868095D01*
X148719060Y-103868095D02*
X148623822Y-103915714D01*
X148623822Y-103915714D02*
X148528584Y-103915714D01*
X148528584Y-103915714D02*
X148433346Y-103868095D01*
X148433346Y-103868095D02*
X148385727Y-103820476D01*
X148385727Y-103820476D02*
X148338108Y-103725238D01*
X148338108Y-103725238D02*
X148290489Y-103534762D01*
X148290489Y-103534762D02*
X148242870Y-103439524D01*
X148242870Y-103439524D02*
X148195251Y-103391905D01*
X148195251Y-103391905D02*
X148100013Y-103344286D01*
X148100013Y-103344286D02*
X148004775Y-103344286D01*
X148004775Y-103344286D02*
X147909537Y-103391905D01*
X147909537Y-103391905D02*
X147861918Y-103439524D01*
X147861918Y-103439524D02*
X147814299Y-103534762D01*
X147814299Y-103534762D02*
X147814299Y-103772857D01*
X147814299Y-103772857D02*
X147861918Y-103915714D01*
X149195251Y-104249048D02*
X149147632Y-104296667D01*
X149147632Y-104296667D02*
X149004775Y-104391905D01*
X149004775Y-104391905D02*
X148909537Y-104439524D01*
X148909537Y-104439524D02*
X148766680Y-104487143D01*
X148766680Y-104487143D02*
X148528584Y-104534762D01*
X148528584Y-104534762D02*
X148338108Y-104534762D01*
X148338108Y-104534762D02*
X148100013Y-104487143D01*
X148100013Y-104487143D02*
X147957156Y-104439524D01*
X147957156Y-104439524D02*
X147861918Y-104391905D01*
X147861918Y-104391905D02*
X147719060Y-104296667D01*
X147719060Y-104296667D02*
X147671441Y-104249048D01*
%LPC*%
D11*
%TO.C,TK1_W2*%
X128495000Y-95530000D03*
%TD*%
%TO.C,TK2_W2*%
X133005000Y-95530000D03*
%TD*%
%TO.C,TK3_W2*%
X61300000Y-131400000D03*
%TD*%
D12*
%TO.C,H1*%
X54800000Y-42100000D03*
%TD*%
%TO.C,H2*%
X145860000Y-42100000D03*
%TD*%
%TO.C,H3*%
X54800000Y-133160000D03*
%TD*%
%TO.C,H4*%
X145860000Y-133160000D03*
%TD*%
%LPD*%
M02*
