%TF.GenerationSoftware,KiCad,Pcbnew,9.0.9-9.0.9~ubuntu24.04.1*%
%TF.ProjectId,DC-B,44432d42-2e6b-4696-9361-645f70636258,C*%
%TF.SameCoordinates,Original*%
%TF.FileFunction,Copper,L4,Bot*%
%TF.FilePolarity,Positive*%
%FSLAX46Y46*%
G04 Gerber Fmt 4.6, Leading zero omitted, Abs format (unit mm)*
%MOMM*%
%LPD*%
G01*
G04 APERTURE LIST*
G04 Aperture macros list*
%AMFreePoly0*
4,1,5,1.500000,-1.500000,-1.500000,-1.500000,-1.500000,1.500000,1.500000,1.500000,1.500000,-1.500000,1.500000,-1.500000,$1*%
G04 Aperture macros list end*
%TA.AperFunction,SMDPad,CuDef*%
%ADD10FreePoly0,0.000000*%
%TD*%
%TA.AperFunction,ViaPad*%
%ADD11C,0.700000*%
%TD*%
%TA.AperFunction,ViaPad*%
%ADD12C,0.900000*%
%TD*%
%TA.AperFunction,Conductor*%
%ADD13C,0.250000*%
%TD*%
%TA.AperFunction,Conductor*%
%ADD14C,0.700000*%
%TD*%
%TA.AperFunction,Conductor*%
%ADD15C,0.900000*%
%TD*%
G04 APERTURE END LIST*
D10*
%TO.P,TK1_W2,1*%
%TO.N,N/C*%
X128495000Y-95530000D03*
%TD*%
%TO.P,TK2_W2,1*%
%TO.N,N/C*%
X133005000Y-95530000D03*
%TD*%
%TO.P,TK3_W2,1*%
%TO.N,N/C*%
X61300000Y-131400000D03*
%TD*%
D11*
%TO.N,PDN*%
X82240000Y-52880000D03*
X82240000Y-54380000D03*
X82240000Y-55880000D03*
X82240000Y-57380000D03*
X82240000Y-58880000D03*
X82240000Y-60380000D03*
X83740000Y-52880000D03*
X83740000Y-54380000D03*
X83740000Y-55880000D03*
X83740000Y-57380000D03*
X83740000Y-58880000D03*
X83740000Y-60380000D03*
X85240000Y-52880000D03*
X85240000Y-54380000D03*
X85240000Y-55880000D03*
X85240000Y-57380000D03*
X85240000Y-58880000D03*
X85240000Y-60380000D03*
X86740000Y-52880000D03*
X86740000Y-54380000D03*
X86740000Y-55880000D03*
X86740000Y-57380000D03*
X86740000Y-58880000D03*
X86740000Y-60380000D03*
X88240000Y-52880000D03*
X88240000Y-54380000D03*
X88240000Y-55880000D03*
X88240000Y-57380000D03*
X88240000Y-58880000D03*
X88240000Y-60380000D03*
X89740000Y-52880000D03*
X89740000Y-54380000D03*
X89740000Y-55880000D03*
X89740000Y-57380000D03*
X89740000Y-58880000D03*
X89740000Y-60380000D03*
X67605000Y-49530000D03*
X67605000Y-50800000D03*
X67605000Y-52070000D03*
X68875000Y-49530000D03*
X68875000Y-50800000D03*
X68875000Y-52070000D03*
D12*
X67605000Y-59690000D03*
X67605000Y-60960000D03*
X67605000Y-62230000D03*
X68875000Y-59690000D03*
X68875000Y-60960000D03*
X68875000Y-62230000D03*
D11*
X57480000Y-59960000D03*
X57480000Y-60960000D03*
X57480000Y-61960000D03*
X66040000Y-64690000D03*
X73660000Y-51990000D03*
X73660000Y-59770000D03*
X84490000Y-62230000D03*
X87490000Y-62230000D03*
X88990000Y-62230000D03*
X90490000Y-62230000D03*
%TO.N,VDP-I1-1*%
X108030000Y-50300000D03*
X108030000Y-51300000D03*
X101100000Y-44370000D03*
X102100000Y-44370000D03*
X95170000Y-51300000D03*
X95170000Y-50300000D03*
X102100000Y-57230000D03*
X101100000Y-57230000D03*
%TO.N,VDP-I2-1*%
X108030000Y-68080000D03*
X108030000Y-69080000D03*
X101100000Y-62150000D03*
X102100000Y-62150000D03*
X95170000Y-69080000D03*
X95170000Y-68080000D03*
X102100000Y-75010000D03*
X101100000Y-75010000D03*
%TO.N,KV-FB*%
X116840000Y-48260000D03*
X117340000Y-44780000D03*
X116340000Y-44780000D03*
X116840000Y-51990000D03*
%TO.N,VDP-B1*%
X141050000Y-50300000D03*
X141050000Y-51300000D03*
X134120000Y-44370000D03*
X135120000Y-44370000D03*
X128190000Y-51300000D03*
X128190000Y-50300000D03*
X135120000Y-57230000D03*
X134120000Y-57230000D03*
D12*
%TO.N,KV-FB-050*%
X134620000Y-66040000D03*
D11*
X135120000Y-62560000D03*
X134120000Y-62560000D03*
X134620000Y-69770000D03*
%TO.N,SP*%
X60020000Y-87400000D03*
X60020000Y-88400000D03*
X60020000Y-89400000D03*
X60020000Y-90400000D03*
X97460000Y-90400000D03*
X97460000Y-89400000D03*
X97460000Y-88400000D03*
X97460000Y-87400000D03*
X71120000Y-95400000D03*
X76200000Y-95400000D03*
X81280000Y-95400000D03*
X86360000Y-95400000D03*
%TO.N,NK1-I1*%
X105740000Y-81820000D03*
X105740000Y-82820000D03*
X105740000Y-83820000D03*
X105740000Y-84820000D03*
X105740000Y-85820000D03*
X140640000Y-85820000D03*
X140640000Y-84820000D03*
X140640000Y-83820000D03*
X140640000Y-82820000D03*
X140640000Y-81820000D03*
X116840000Y-80090000D03*
X129540000Y-80090000D03*
%TO.N,*%
X127340000Y-90150000D03*
X129880000Y-90150000D03*
D12*
X132420000Y-90150000D03*
X134960000Y-90150000D03*
D11*
%TO.N,BR-I1-050X*%
X57480000Y-106180000D03*
X57480000Y-107180000D03*
X79680000Y-107180000D03*
X79680000Y-106180000D03*
X60960000Y-105490000D03*
X76200000Y-105490000D03*
%TO.N,BR-I2-050X*%
X57480000Y-113800000D03*
X57480000Y-114800000D03*
X79680000Y-114800000D03*
X79680000Y-113800000D03*
X60960000Y-113110000D03*
X76200000Y-113110000D03*
%TO.N,BR-I1-200X*%
X87960000Y-108720000D03*
X87960000Y-109720000D03*
X110160000Y-109720000D03*
X110160000Y-108720000D03*
X93980000Y-105490000D03*
X104140000Y-105490000D03*
%TO.N,BR-I2-200X*%
X87960000Y-121420000D03*
X87960000Y-122420000D03*
X110160000Y-122420000D03*
X110160000Y-121420000D03*
X93980000Y-118190000D03*
X104140000Y-118190000D03*
%TO.N,VDP-I1-2*%
X128350000Y-111260000D03*
X128350000Y-112260000D03*
X121420000Y-105330000D03*
X122420000Y-105330000D03*
X115490000Y-112260000D03*
X115490000Y-111260000D03*
X122420000Y-118190000D03*
X121420000Y-118190000D03*
%TO.N,VDP-I2-2*%
X146130000Y-111260000D03*
X146130000Y-112260000D03*
X139200000Y-105330000D03*
X140200000Y-105330000D03*
X133270000Y-112260000D03*
X133270000Y-111260000D03*
X140200000Y-118190000D03*
X139200000Y-118190000D03*
%TD*%
D13*
%TO.N,PDN*%
X66040000Y-62830000D02*
X66040000Y-64690000D01*
X85240000Y-55880000D02*
X84490000Y-56630000D01*
X84490000Y-56630000D02*
X84490000Y-62230000D01*
X86740000Y-55880000D02*
X87490000Y-56630000D01*
X87490000Y-56630000D02*
X87490000Y-62230000D01*
X88240000Y-60380000D02*
X88990000Y-61130000D01*
X88990000Y-61130000D02*
X88990000Y-62230000D01*
X89740000Y-60380000D02*
X90490000Y-61130000D01*
X90490000Y-61130000D02*
X90490000Y-62230000D01*
D14*
%TO.N,KV-FB*%
X116840000Y-48260000D02*
X116840000Y-44780000D01*
D13*
X116840000Y-48260000D02*
X116840000Y-51990000D01*
D15*
%TO.N,KV-FB-050*%
X134620000Y-66040000D02*
X134620000Y-62560000D01*
D13*
X134620000Y-66040000D02*
X134620000Y-69770000D01*
%TD*%
%TA.AperFunction,Conductor*%
%TO.N,PDN*%
G36*
X69610648Y-59104352D02*
G01*
X69625000Y-59139000D01*
X69625000Y-62781000D01*
X69610648Y-62815648D01*
X69576000Y-62830000D01*
X57980000Y-62830000D01*
X57480000Y-62830000D01*
X57029000Y-62830000D01*
X56994352Y-62815648D01*
X56980000Y-62781000D01*
X56980000Y-59139000D01*
X56994352Y-59104352D01*
X57029000Y-59090000D01*
X69576000Y-59090000D01*
X69610648Y-59104352D01*
G37*
%TD.AperFunction*%
%TD*%
%TA.AperFunction,Conductor*%
%TO.N,KV-FB*%
G36*
X117775648Y-44294352D02*
G01*
X117790000Y-44329000D01*
X117790000Y-45231000D01*
X117775648Y-45265648D01*
X117741000Y-45280000D01*
X115939000Y-45280000D01*
X115904352Y-45265648D01*
X115890000Y-45231000D01*
X115890000Y-44329000D01*
X115904352Y-44294352D01*
X115939000Y-44280000D01*
X117741000Y-44280000D01*
X117775648Y-44294352D01*
G37*
%TD.AperFunction*%
%TD*%
%TA.AperFunction,Conductor*%
%TO.N,VDP-B1*%
G36*
X135455648Y-43884352D02*
G01*
X135470000Y-43919000D01*
X135470000Y-44821000D01*
X135455648Y-44855648D01*
X135421000Y-44870000D01*
X135120000Y-44870000D01*
X135120000Y-50300000D01*
X140550000Y-50300000D01*
X140550000Y-49999000D01*
X140564352Y-49964352D01*
X140599000Y-49950000D01*
X141501000Y-49950000D01*
X141535648Y-49964352D01*
X141550000Y-49999000D01*
X141550000Y-51601000D01*
X141535648Y-51635648D01*
X141501000Y-51650000D01*
X140599000Y-51650000D01*
X140564352Y-51635648D01*
X140550000Y-51601000D01*
X140550000Y-51300000D01*
X135120000Y-51300000D01*
X135120000Y-56730000D01*
X135421000Y-56730000D01*
X135455648Y-56744352D01*
X135470000Y-56779000D01*
X135470000Y-57681000D01*
X135455648Y-57715648D01*
X135421000Y-57730000D01*
X133819000Y-57730000D01*
X133784352Y-57715648D01*
X133770000Y-57681000D01*
X133770000Y-56779000D01*
X133784352Y-56744352D01*
X133819000Y-56730000D01*
X134120000Y-56730000D01*
X134120000Y-51300000D01*
X128690000Y-51300000D01*
X128690000Y-51601000D01*
X128675648Y-51635648D01*
X128641000Y-51650000D01*
X127739000Y-51650000D01*
X127704352Y-51635648D01*
X127690000Y-51601000D01*
X127690000Y-49999000D01*
X127704352Y-49964352D01*
X127739000Y-49950000D01*
X128641000Y-49950000D01*
X128675648Y-49964352D01*
X128690000Y-49999000D01*
X128690000Y-50300000D01*
X134120000Y-50300000D01*
X134120000Y-44870000D01*
X133819000Y-44870000D01*
X133784352Y-44855648D01*
X133770000Y-44821000D01*
X133770000Y-43919000D01*
X133784352Y-43884352D01*
X133819000Y-43870000D01*
X135421000Y-43870000D01*
X135455648Y-43884352D01*
G37*
%TD.AperFunction*%
%TD*%
%TA.AperFunction,Conductor*%
%TO.N,KV-FB-050*%
G36*
X135555648Y-62074352D02*
G01*
X135570000Y-62109000D01*
X135570000Y-63011000D01*
X135555648Y-63045648D01*
X135521000Y-63060000D01*
X133719000Y-63060000D01*
X133684352Y-63045648D01*
X133670000Y-63011000D01*
X133670000Y-62109000D01*
X133684352Y-62074352D01*
X133719000Y-62060000D01*
X135521000Y-62060000D01*
X135555648Y-62074352D01*
G37*
%TD.AperFunction*%
%TD*%
%TA.AperFunction,NonConductor*%
G36*
X148803039Y-39119685D02*
G01*
X148848794Y-39172489D01*
X148860000Y-39224000D01*
X148860000Y-136036000D01*
X148840315Y-136103039D01*
X148787511Y-136148794D01*
X148736000Y-136160000D01*
X51924000Y-136160000D01*
X51856961Y-136140315D01*
X51811206Y-136087511D01*
X51800000Y-136036000D01*
X51800000Y-133160000D01*
X52200000Y-133160000D01*
X52212520Y-133414845D01*
X52212520Y-133414851D01*
X52212521Y-133414853D01*
X52249959Y-133667241D01*
X52311958Y-133914750D01*
X52397905Y-134154957D01*
X52397913Y-134154977D01*
X52507005Y-134385632D01*
X52507007Y-134385635D01*
X52638177Y-134604480D01*
X52790177Y-134809428D01*
X52961521Y-134998478D01*
X53150571Y-135169822D01*
X53150577Y-135169827D01*
X53355517Y-135321821D01*
X53574368Y-135452995D01*
X53805023Y-135562087D01*
X53805037Y-135562092D01*
X53805042Y-135562094D01*
X53987291Y-135627303D01*
X54045260Y-135648045D01*
X54292765Y-135710042D01*
X54545155Y-135747480D01*
X54800000Y-135760000D01*
X55054845Y-135747480D01*
X55307235Y-135710042D01*
X55554740Y-135648045D01*
X55794977Y-135562087D01*
X56025632Y-135452995D01*
X56244483Y-135321821D01*
X56449423Y-135169827D01*
X56638478Y-134998478D01*
X56809827Y-134809423D01*
X56961821Y-134604483D01*
X57092995Y-134385632D01*
X57202087Y-134154977D01*
X57288045Y-133914740D01*
X57350042Y-133667235D01*
X57387480Y-133414845D01*
X57400000Y-133160000D01*
X57387480Y-132905155D01*
X57350042Y-132652765D01*
X57288045Y-132405260D01*
X57202087Y-132165023D01*
X57092995Y-131934368D01*
X56961821Y-131715517D01*
X56809827Y-131510577D01*
X56809822Y-131510571D01*
X56638478Y-131321521D01*
X56449428Y-131150177D01*
X56244480Y-130998177D01*
X56025635Y-130867007D01*
X56025636Y-130867007D01*
X56025632Y-130867005D01*
X55794977Y-130757913D01*
X55794957Y-130757905D01*
X55554750Y-130671958D01*
X55554744Y-130671956D01*
X55554740Y-130671955D01*
X55431963Y-130641200D01*
X55307241Y-130609959D01*
X55307236Y-130609958D01*
X55307235Y-130609958D01*
X55213662Y-130596078D01*
X55054853Y-130572521D01*
X55054851Y-130572520D01*
X55054845Y-130572520D01*
X54800000Y-130560000D01*
X54545155Y-130572520D01*
X54545149Y-130572520D01*
X54545146Y-130572521D01*
X54292758Y-130609959D01*
X54105916Y-130656761D01*
X54045260Y-130671955D01*
X54045257Y-130671955D01*
X54045249Y-130671958D01*
X53805042Y-130757905D01*
X53805022Y-130757913D01*
X53574364Y-130867007D01*
X53355519Y-130998177D01*
X53150571Y-131150177D01*
X52961521Y-131321521D01*
X52790177Y-131510571D01*
X52638177Y-131715519D01*
X52507007Y-131934364D01*
X52397913Y-132165022D01*
X52397905Y-132165042D01*
X52311958Y-132405249D01*
X52249959Y-132652758D01*
X52213285Y-132900000D01*
X52212520Y-132905155D01*
X52200000Y-133160000D01*
X51800000Y-133160000D01*
X51800000Y-129899999D01*
X59294500Y-129899999D01*
X59294500Y-132900002D01*
X59299644Y-132971940D01*
X59340182Y-133109994D01*
X59417967Y-133231030D01*
X59417971Y-133231034D01*
X59526700Y-133325249D01*
X59526706Y-133325254D01*
X59567174Y-133343735D01*
X59657580Y-133385023D01*
X59657583Y-133385023D01*
X59657584Y-133385024D01*
X59800000Y-133405500D01*
X59800003Y-133405500D01*
X62800000Y-133405500D01*
X62871940Y-133400355D01*
X63009992Y-133359819D01*
X63131032Y-133282031D01*
X63225254Y-133173294D01*
X63231325Y-133160000D01*
X143260000Y-133160000D01*
X143272520Y-133414845D01*
X143272520Y-133414851D01*
X143272521Y-133414853D01*
X143309959Y-133667241D01*
X143371958Y-133914750D01*
X143457905Y-134154957D01*
X143457913Y-134154977D01*
X143567005Y-134385632D01*
X143567007Y-134385635D01*
X143698177Y-134604480D01*
X143850177Y-134809428D01*
X144021521Y-134998478D01*
X144210571Y-135169822D01*
X144210577Y-135169827D01*
X144415517Y-135321821D01*
X144634368Y-135452995D01*
X144865023Y-135562087D01*
X144865037Y-135562092D01*
X144865042Y-135562094D01*
X145047291Y-135627303D01*
X145105260Y-135648045D01*
X145352765Y-135710042D01*
X145605155Y-135747480D01*
X145860000Y-135760000D01*
X146114845Y-135747480D01*
X146367235Y-135710042D01*
X146614740Y-135648045D01*
X146854977Y-135562087D01*
X147085632Y-135452995D01*
X147304483Y-135321821D01*
X147509423Y-135169827D01*
X147698478Y-134998478D01*
X147869827Y-134809423D01*
X148021821Y-134604483D01*
X148152995Y-134385632D01*
X148262087Y-134154977D01*
X148348045Y-133914740D01*
X148410042Y-133667235D01*
X148447480Y-133414845D01*
X148460000Y-133160000D01*
X148447480Y-132905155D01*
X148410042Y-132652765D01*
X148348045Y-132405260D01*
X148262087Y-132165023D01*
X148152995Y-131934368D01*
X148021821Y-131715517D01*
X147869827Y-131510577D01*
X147869822Y-131510571D01*
X147698478Y-131321521D01*
X147509428Y-131150177D01*
X147304480Y-130998177D01*
X147085635Y-130867007D01*
X147085636Y-130867007D01*
X147085632Y-130867005D01*
X146854977Y-130757913D01*
X146854957Y-130757905D01*
X146614750Y-130671958D01*
X146614744Y-130671956D01*
X146614740Y-130671955D01*
X146491963Y-130641200D01*
X146367241Y-130609959D01*
X146367236Y-130609958D01*
X146367235Y-130609958D01*
X146273662Y-130596078D01*
X146114853Y-130572521D01*
X146114851Y-130572520D01*
X146114845Y-130572520D01*
X145860000Y-130560000D01*
X145605155Y-130572520D01*
X145605149Y-130572520D01*
X145605146Y-130572521D01*
X145352758Y-130609959D01*
X145165916Y-130656761D01*
X145105260Y-130671955D01*
X145105257Y-130671955D01*
X145105249Y-130671958D01*
X144865042Y-130757905D01*
X144865022Y-130757913D01*
X144634364Y-130867007D01*
X144415519Y-130998177D01*
X144210571Y-131150177D01*
X144021521Y-131321521D01*
X143850177Y-131510571D01*
X143698177Y-131715519D01*
X143567007Y-131934364D01*
X143457913Y-132165022D01*
X143457905Y-132165042D01*
X143371958Y-132405249D01*
X143309959Y-132652758D01*
X143273285Y-132900000D01*
X143272520Y-132905155D01*
X143260000Y-133160000D01*
X63231325Y-133160000D01*
X63235656Y-133150515D01*
X63256240Y-133105445D01*
X63256240Y-133105444D01*
X63285023Y-133042418D01*
X63285022Y-133042418D01*
X63285024Y-133042416D01*
X63305500Y-132900000D01*
X63305500Y-129900000D01*
X63300355Y-129828060D01*
X63259819Y-129690008D01*
X63182031Y-129568968D01*
X63123173Y-129517967D01*
X63073299Y-129474750D01*
X63073297Y-129474748D01*
X63073294Y-129474746D01*
X63073290Y-129474744D01*
X62942419Y-129414976D01*
X62942414Y-129414975D01*
X62800000Y-129394500D01*
X59800000Y-129394500D01*
X59799997Y-129394500D01*
X59728059Y-129399644D01*
X59590005Y-129440182D01*
X59468969Y-129517967D01*
X59468965Y-129517971D01*
X59374750Y-129626700D01*
X59374744Y-129626709D01*
X59314976Y-129757580D01*
X59314975Y-129757585D01*
X59294500Y-129899999D01*
X51800000Y-129899999D01*
X51800000Y-121336228D01*
X87109500Y-121336228D01*
X87109500Y-121503771D01*
X87142182Y-121668074D01*
X87142184Y-121668082D01*
X87206295Y-121822859D01*
X87206302Y-121822872D01*
X87225170Y-121851111D01*
X87246047Y-121917789D01*
X87227561Y-121985168D01*
X87225170Y-121988889D01*
X87206302Y-122017127D01*
X87206295Y-122017140D01*
X87142184Y-122171917D01*
X87142182Y-122171925D01*
X87109500Y-122336228D01*
X87109500Y-122503771D01*
X87142182Y-122668074D01*
X87142184Y-122668082D01*
X87206295Y-122822860D01*
X87299373Y-122962162D01*
X87417837Y-123080626D01*
X87510494Y-123142537D01*
X87557137Y-123173703D01*
X87711918Y-123237816D01*
X87876228Y-123270499D01*
X87876232Y-123270500D01*
X87876233Y-123270500D01*
X88043768Y-123270500D01*
X88043769Y-123270499D01*
X88208082Y-123237816D01*
X88362863Y-123173703D01*
X88502162Y-123080626D01*
X88620626Y-122962162D01*
X88713703Y-122822863D01*
X88777816Y-122668082D01*
X88810500Y-122503767D01*
X88810500Y-122336233D01*
X88777816Y-122171918D01*
X88713703Y-122017137D01*
X88694828Y-121988889D01*
X88673951Y-121922214D01*
X88692435Y-121854834D01*
X88694829Y-121851109D01*
X88713703Y-121822863D01*
X88777816Y-121668082D01*
X88810500Y-121503767D01*
X88810500Y-121336233D01*
X88810499Y-121336228D01*
X109309500Y-121336228D01*
X109309500Y-121503771D01*
X109342182Y-121668074D01*
X109342184Y-121668082D01*
X109406295Y-121822859D01*
X109406302Y-121822872D01*
X109425170Y-121851111D01*
X109446047Y-121917789D01*
X109427561Y-121985168D01*
X109425170Y-121988889D01*
X109406302Y-122017127D01*
X109406295Y-122017140D01*
X109342184Y-122171917D01*
X109342182Y-122171925D01*
X109309500Y-122336228D01*
X109309500Y-122503771D01*
X109342182Y-122668074D01*
X109342184Y-122668082D01*
X109406295Y-122822860D01*
X109499373Y-122962162D01*
X109617837Y-123080626D01*
X109710494Y-123142537D01*
X109757137Y-123173703D01*
X109911918Y-123237816D01*
X110076228Y-123270499D01*
X110076232Y-123270500D01*
X110076233Y-123270500D01*
X110243768Y-123270500D01*
X110243769Y-123270499D01*
X110408082Y-123237816D01*
X110562863Y-123173703D01*
X110702162Y-123080626D01*
X110820626Y-122962162D01*
X110913703Y-122822863D01*
X110977816Y-122668082D01*
X111010500Y-122503767D01*
X111010500Y-122336233D01*
X110977816Y-122171918D01*
X110913703Y-122017137D01*
X110894828Y-121988889D01*
X110873951Y-121922214D01*
X110892435Y-121854834D01*
X110894829Y-121851109D01*
X110913703Y-121822863D01*
X110977816Y-121668082D01*
X111010500Y-121503767D01*
X111010500Y-121336233D01*
X110977816Y-121171918D01*
X110913703Y-121017137D01*
X110882537Y-120970494D01*
X110820626Y-120877837D01*
X110702162Y-120759373D01*
X110562860Y-120666295D01*
X110408082Y-120602184D01*
X110408074Y-120602182D01*
X110243771Y-120569500D01*
X110243767Y-120569500D01*
X110076233Y-120569500D01*
X110076228Y-120569500D01*
X109911925Y-120602182D01*
X109911917Y-120602184D01*
X109757139Y-120666295D01*
X109617837Y-120759373D01*
X109499373Y-120877837D01*
X109406295Y-121017139D01*
X109342184Y-121171917D01*
X109342182Y-121171925D01*
X109309500Y-121336228D01*
X88810499Y-121336228D01*
X88777816Y-121171918D01*
X88713703Y-121017137D01*
X88682537Y-120970494D01*
X88620626Y-120877837D01*
X88502162Y-120759373D01*
X88362860Y-120666295D01*
X88208082Y-120602184D01*
X88208074Y-120602182D01*
X88043771Y-120569500D01*
X88043767Y-120569500D01*
X87876233Y-120569500D01*
X87876228Y-120569500D01*
X87711925Y-120602182D01*
X87711917Y-120602184D01*
X87557139Y-120666295D01*
X87417837Y-120759373D01*
X87299373Y-120877837D01*
X87206295Y-121017139D01*
X87142184Y-121171917D01*
X87142182Y-121171925D01*
X87109500Y-121336228D01*
X51800000Y-121336228D01*
X51800000Y-118106228D01*
X93129500Y-118106228D01*
X93129500Y-118273771D01*
X93162182Y-118438074D01*
X93162184Y-118438082D01*
X93226295Y-118592860D01*
X93319373Y-118732162D01*
X93437837Y-118850626D01*
X93517644Y-118903951D01*
X93577137Y-118943703D01*
X93731918Y-119007816D01*
X93896228Y-119040499D01*
X93896232Y-119040500D01*
X93896233Y-119040500D01*
X94063768Y-119040500D01*
X94063769Y-119040499D01*
X94228082Y-119007816D01*
X94382863Y-118943703D01*
X94522162Y-118850626D01*
X94640626Y-118732162D01*
X94733703Y-118592863D01*
X94797816Y-118438082D01*
X94830500Y-118273767D01*
X94830500Y-118106233D01*
X94830499Y-118106228D01*
X103289500Y-118106228D01*
X103289500Y-118273771D01*
X103322182Y-118438074D01*
X103322184Y-118438082D01*
X103386295Y-118592860D01*
X103479373Y-118732162D01*
X103597837Y-118850626D01*
X103677644Y-118903951D01*
X103737137Y-118943703D01*
X103891918Y-119007816D01*
X104056228Y-119040499D01*
X104056232Y-119040500D01*
X104056233Y-119040500D01*
X104223768Y-119040500D01*
X104223769Y-119040499D01*
X104388082Y-119007816D01*
X104542863Y-118943703D01*
X104682162Y-118850626D01*
X104800626Y-118732162D01*
X104893703Y-118592863D01*
X104957816Y-118438082D01*
X104990500Y-118273767D01*
X104990500Y-118106233D01*
X104990499Y-118106228D01*
X120569500Y-118106228D01*
X120569500Y-118273771D01*
X120602182Y-118438074D01*
X120602184Y-118438082D01*
X120666295Y-118592860D01*
X120759373Y-118732162D01*
X120877837Y-118850626D01*
X120957644Y-118903951D01*
X121017137Y-118943703D01*
X121171918Y-119007816D01*
X121336228Y-119040499D01*
X121336232Y-119040500D01*
X121336233Y-119040500D01*
X121503768Y-119040500D01*
X121503769Y-119040499D01*
X121668082Y-119007816D01*
X121822863Y-118943703D01*
X121851109Y-118924828D01*
X121917786Y-118903951D01*
X121985166Y-118922435D01*
X121988879Y-118924821D01*
X122017137Y-118943703D01*
X122171918Y-119007816D01*
X122336228Y-119040499D01*
X122336232Y-119040500D01*
X122336233Y-119040500D01*
X122503768Y-119040500D01*
X122503769Y-119040499D01*
X122668082Y-119007816D01*
X122822863Y-118943703D01*
X122962162Y-118850626D01*
X123080626Y-118732162D01*
X123173703Y-118592863D01*
X123237816Y-118438082D01*
X123270500Y-118273767D01*
X123270500Y-118106233D01*
X123270499Y-118106228D01*
X138349500Y-118106228D01*
X138349500Y-118273771D01*
X138382182Y-118438074D01*
X138382184Y-118438082D01*
X138446295Y-118592860D01*
X138539373Y-118732162D01*
X138657837Y-118850626D01*
X138737644Y-118903951D01*
X138797137Y-118943703D01*
X138951918Y-119007816D01*
X139116228Y-119040499D01*
X139116232Y-119040500D01*
X139116233Y-119040500D01*
X139283768Y-119040500D01*
X139283769Y-119040499D01*
X139448082Y-119007816D01*
X139602863Y-118943703D01*
X139631109Y-118924828D01*
X139697786Y-118903951D01*
X139765166Y-118922435D01*
X139768879Y-118924821D01*
X139797137Y-118943703D01*
X139951918Y-119007816D01*
X140116228Y-119040499D01*
X140116232Y-119040500D01*
X140116233Y-119040500D01*
X140283768Y-119040500D01*
X140283769Y-119040499D01*
X140448082Y-119007816D01*
X140602863Y-118943703D01*
X140742162Y-118850626D01*
X140860626Y-118732162D01*
X140953703Y-118592863D01*
X141017816Y-118438082D01*
X141050500Y-118273767D01*
X141050500Y-118106233D01*
X141017816Y-117941918D01*
X140953703Y-117787137D01*
X140922537Y-117740494D01*
X140860626Y-117647837D01*
X140742162Y-117529373D01*
X140602860Y-117436295D01*
X140448082Y-117372184D01*
X140448074Y-117372182D01*
X140283771Y-117339500D01*
X140283767Y-117339500D01*
X140116233Y-117339500D01*
X140116228Y-117339500D01*
X139951925Y-117372182D01*
X139951917Y-117372184D01*
X139797140Y-117436295D01*
X139797127Y-117436302D01*
X139768889Y-117455170D01*
X139702211Y-117476047D01*
X139634832Y-117457561D01*
X139631111Y-117455170D01*
X139602872Y-117436302D01*
X139602859Y-117436295D01*
X139448082Y-117372184D01*
X139448074Y-117372182D01*
X139283771Y-117339500D01*
X139283767Y-117339500D01*
X139116233Y-117339500D01*
X139116228Y-117339500D01*
X138951925Y-117372182D01*
X138951917Y-117372184D01*
X138797139Y-117436295D01*
X138657837Y-117529373D01*
X138539373Y-117647837D01*
X138446295Y-117787139D01*
X138382184Y-117941917D01*
X138382182Y-117941925D01*
X138349500Y-118106228D01*
X123270499Y-118106228D01*
X123237816Y-117941918D01*
X123173703Y-117787137D01*
X123142537Y-117740494D01*
X123080626Y-117647837D01*
X122962162Y-117529373D01*
X122822860Y-117436295D01*
X122668082Y-117372184D01*
X122668074Y-117372182D01*
X122503771Y-117339500D01*
X122503767Y-117339500D01*
X122336233Y-117339500D01*
X122336228Y-117339500D01*
X122171925Y-117372182D01*
X122171917Y-117372184D01*
X122017140Y-117436295D01*
X122017127Y-117436302D01*
X121988889Y-117455170D01*
X121922211Y-117476047D01*
X121854832Y-117457561D01*
X121851111Y-117455170D01*
X121822872Y-117436302D01*
X121822859Y-117436295D01*
X121668082Y-117372184D01*
X121668074Y-117372182D01*
X121503771Y-117339500D01*
X121503767Y-117339500D01*
X121336233Y-117339500D01*
X121336228Y-117339500D01*
X121171925Y-117372182D01*
X121171917Y-117372184D01*
X121017139Y-117436295D01*
X120877837Y-117529373D01*
X120759373Y-117647837D01*
X120666295Y-117787139D01*
X120602184Y-117941917D01*
X120602182Y-117941925D01*
X120569500Y-118106228D01*
X104990499Y-118106228D01*
X104957816Y-117941918D01*
X104893703Y-117787137D01*
X104862537Y-117740494D01*
X104800626Y-117647837D01*
X104682162Y-117529373D01*
X104542860Y-117436295D01*
X104388082Y-117372184D01*
X104388074Y-117372182D01*
X104223771Y-117339500D01*
X104223767Y-117339500D01*
X104056233Y-117339500D01*
X104056228Y-117339500D01*
X103891925Y-117372182D01*
X103891917Y-117372184D01*
X103737139Y-117436295D01*
X103597837Y-117529373D01*
X103479373Y-117647837D01*
X103386295Y-117787139D01*
X103322184Y-117941917D01*
X103322182Y-117941925D01*
X103289500Y-118106228D01*
X94830499Y-118106228D01*
X94797816Y-117941918D01*
X94733703Y-117787137D01*
X94702537Y-117740494D01*
X94640626Y-117647837D01*
X94522162Y-117529373D01*
X94382860Y-117436295D01*
X94228082Y-117372184D01*
X94228074Y-117372182D01*
X94063771Y-117339500D01*
X94063767Y-117339500D01*
X93896233Y-117339500D01*
X93896228Y-117339500D01*
X93731925Y-117372182D01*
X93731917Y-117372184D01*
X93577139Y-117436295D01*
X93437837Y-117529373D01*
X93319373Y-117647837D01*
X93226295Y-117787139D01*
X93162184Y-117941917D01*
X93162182Y-117941925D01*
X93129500Y-118106228D01*
X51800000Y-118106228D01*
X51800000Y-113716228D01*
X56629500Y-113716228D01*
X56629500Y-113883771D01*
X56662182Y-114048074D01*
X56662184Y-114048082D01*
X56726295Y-114202859D01*
X56726302Y-114202872D01*
X56745170Y-114231111D01*
X56766047Y-114297789D01*
X56747561Y-114365168D01*
X56745170Y-114368889D01*
X56726302Y-114397127D01*
X56726295Y-114397140D01*
X56662184Y-114551917D01*
X56662182Y-114551925D01*
X56629500Y-114716228D01*
X56629500Y-114883771D01*
X56662182Y-115048074D01*
X56662184Y-115048082D01*
X56726295Y-115202860D01*
X56819373Y-115342162D01*
X56937837Y-115460626D01*
X57030494Y-115522537D01*
X57077137Y-115553703D01*
X57231918Y-115617816D01*
X57396228Y-115650499D01*
X57396232Y-115650500D01*
X57396233Y-115650500D01*
X57563768Y-115650500D01*
X57563769Y-115650499D01*
X57728082Y-115617816D01*
X57882863Y-115553703D01*
X58022162Y-115460626D01*
X58140626Y-115342162D01*
X58233703Y-115202863D01*
X58297816Y-115048082D01*
X58330500Y-114883767D01*
X58330500Y-114716233D01*
X58297816Y-114551918D01*
X58233703Y-114397137D01*
X58214828Y-114368889D01*
X58193951Y-114302214D01*
X58212435Y-114234834D01*
X58214829Y-114231109D01*
X58233703Y-114202863D01*
X58297816Y-114048082D01*
X58330500Y-113883767D01*
X58330500Y-113716233D01*
X58297816Y-113551918D01*
X58233703Y-113397137D01*
X58202537Y-113350494D01*
X58140626Y-113257837D01*
X58022165Y-113139376D01*
X58022161Y-113139373D01*
X57998021Y-113123243D01*
X57998019Y-113123241D01*
X57882865Y-113046298D01*
X57882861Y-113046296D01*
X57834413Y-113026228D01*
X60109500Y-113026228D01*
X60109500Y-113193771D01*
X60142182Y-113358074D01*
X60142184Y-113358082D01*
X60206295Y-113512860D01*
X60299373Y-113652162D01*
X60417837Y-113770626D01*
X60510494Y-113832537D01*
X60557137Y-113863703D01*
X60711918Y-113927816D01*
X60876228Y-113960499D01*
X60876232Y-113960500D01*
X60876233Y-113960500D01*
X61043768Y-113960500D01*
X61043769Y-113960499D01*
X61208082Y-113927816D01*
X61362863Y-113863703D01*
X61502162Y-113770626D01*
X61620626Y-113652162D01*
X61713703Y-113512863D01*
X61777816Y-113358082D01*
X61810500Y-113193767D01*
X61810500Y-113026233D01*
X61810499Y-113026228D01*
X75349500Y-113026228D01*
X75349500Y-113193771D01*
X75382182Y-113358074D01*
X75382184Y-113358082D01*
X75446295Y-113512860D01*
X75539373Y-113652162D01*
X75657837Y-113770626D01*
X75750494Y-113832537D01*
X75797137Y-113863703D01*
X75951918Y-113927816D01*
X76116228Y-113960499D01*
X76116232Y-113960500D01*
X76116233Y-113960500D01*
X76283768Y-113960500D01*
X76283769Y-113960499D01*
X76448082Y-113927816D01*
X76602863Y-113863703D01*
X76742162Y-113770626D01*
X76796560Y-113716228D01*
X78829500Y-113716228D01*
X78829500Y-113883771D01*
X78862182Y-114048074D01*
X78862184Y-114048082D01*
X78926295Y-114202859D01*
X78926302Y-114202872D01*
X78945170Y-114231111D01*
X78966047Y-114297789D01*
X78947561Y-114365168D01*
X78945170Y-114368889D01*
X78926302Y-114397127D01*
X78926295Y-114397140D01*
X78862184Y-114551917D01*
X78862182Y-114551925D01*
X78829500Y-114716228D01*
X78829500Y-114883771D01*
X78862182Y-115048074D01*
X78862184Y-115048082D01*
X78926295Y-115202860D01*
X79019373Y-115342162D01*
X79137837Y-115460626D01*
X79230494Y-115522537D01*
X79277137Y-115553703D01*
X79431918Y-115617816D01*
X79596228Y-115650499D01*
X79596232Y-115650500D01*
X79596233Y-115650500D01*
X79763768Y-115650500D01*
X79763769Y-115650499D01*
X79928082Y-115617816D01*
X80082863Y-115553703D01*
X80222162Y-115460626D01*
X80340626Y-115342162D01*
X80433703Y-115202863D01*
X80497816Y-115048082D01*
X80530500Y-114883767D01*
X80530500Y-114716233D01*
X80497816Y-114551918D01*
X80433703Y-114397137D01*
X80414828Y-114368889D01*
X80393951Y-114302214D01*
X80412435Y-114234834D01*
X80414829Y-114231109D01*
X80433703Y-114202863D01*
X80497816Y-114048082D01*
X80530500Y-113883767D01*
X80530500Y-113716233D01*
X80497816Y-113551918D01*
X80433703Y-113397137D01*
X80402537Y-113350494D01*
X80340626Y-113257837D01*
X80222162Y-113139373D01*
X80082860Y-113046295D01*
X79928082Y-112982184D01*
X79928074Y-112982182D01*
X79763771Y-112949500D01*
X79763767Y-112949500D01*
X79596233Y-112949500D01*
X79596228Y-112949500D01*
X79431925Y-112982182D01*
X79431917Y-112982184D01*
X79277139Y-113046295D01*
X79137837Y-113139373D01*
X79019373Y-113257837D01*
X78926295Y-113397139D01*
X78862184Y-113551917D01*
X78862182Y-113551925D01*
X78829500Y-113716228D01*
X76796560Y-113716228D01*
X76860626Y-113652162D01*
X76953703Y-113512863D01*
X77017816Y-113358082D01*
X77050500Y-113193767D01*
X77050500Y-113026233D01*
X77017816Y-112861918D01*
X76953703Y-112707137D01*
X76922537Y-112660494D01*
X76860626Y-112567837D01*
X76742162Y-112449373D01*
X76602860Y-112356295D01*
X76448082Y-112292184D01*
X76448074Y-112292182D01*
X76283771Y-112259500D01*
X76283767Y-112259500D01*
X76116233Y-112259500D01*
X76116228Y-112259500D01*
X75951925Y-112292182D01*
X75951917Y-112292184D01*
X75797139Y-112356295D01*
X75657837Y-112449373D01*
X75539373Y-112567837D01*
X75446295Y-112707139D01*
X75382184Y-112861917D01*
X75382182Y-112861925D01*
X75349500Y-113026228D01*
X61810499Y-113026228D01*
X61777816Y-112861918D01*
X61713703Y-112707137D01*
X61682537Y-112660494D01*
X61620626Y-112567837D01*
X61502162Y-112449373D01*
X61362860Y-112356295D01*
X61208082Y-112292184D01*
X61208074Y-112292182D01*
X61043771Y-112259500D01*
X61043767Y-112259500D01*
X60876233Y-112259500D01*
X60876228Y-112259500D01*
X60711925Y-112292182D01*
X60711917Y-112292184D01*
X60557139Y-112356295D01*
X60417837Y-112449373D01*
X60299373Y-112567837D01*
X60206295Y-112707139D01*
X60142184Y-112861917D01*
X60142182Y-112861925D01*
X60109500Y-113026228D01*
X57834413Y-113026228D01*
X57728082Y-112982184D01*
X57728074Y-112982182D01*
X57563771Y-112949500D01*
X57563767Y-112949500D01*
X57396233Y-112949500D01*
X57396228Y-112949500D01*
X57231925Y-112982182D01*
X57231917Y-112982184D01*
X57077139Y-113046295D01*
X56937837Y-113139373D01*
X56819373Y-113257837D01*
X56726295Y-113397139D01*
X56662184Y-113551917D01*
X56662182Y-113551925D01*
X56629500Y-113716228D01*
X51800000Y-113716228D01*
X51800000Y-111176228D01*
X114639500Y-111176228D01*
X114639500Y-111343771D01*
X114672182Y-111508074D01*
X114672184Y-111508082D01*
X114736295Y-111662859D01*
X114736302Y-111662872D01*
X114755170Y-111691111D01*
X114776047Y-111757789D01*
X114757561Y-111825168D01*
X114755170Y-111828889D01*
X114736302Y-111857127D01*
X114736295Y-111857140D01*
X114672184Y-112011917D01*
X114672182Y-112011925D01*
X114639500Y-112176228D01*
X114639500Y-112343771D01*
X114672182Y-112508074D01*
X114672184Y-112508082D01*
X114736295Y-112662860D01*
X114829373Y-112802162D01*
X114947837Y-112920626D01*
X115039963Y-112982182D01*
X115087137Y-113013703D01*
X115241918Y-113077816D01*
X115406228Y-113110499D01*
X115406232Y-113110500D01*
X115406233Y-113110500D01*
X115573768Y-113110500D01*
X115573769Y-113110499D01*
X115738082Y-113077816D01*
X115892863Y-113013703D01*
X116032162Y-112920626D01*
X116150626Y-112802162D01*
X116243703Y-112662863D01*
X116307816Y-112508082D01*
X116340500Y-112343767D01*
X116340500Y-112176233D01*
X116307816Y-112011918D01*
X116243703Y-111857137D01*
X116224828Y-111828889D01*
X116203951Y-111762214D01*
X116222435Y-111694834D01*
X116224829Y-111691109D01*
X116243703Y-111662863D01*
X116307816Y-111508082D01*
X116340500Y-111343767D01*
X116340500Y-111176233D01*
X116340499Y-111176228D01*
X127499500Y-111176228D01*
X127499500Y-111343771D01*
X127532182Y-111508074D01*
X127532184Y-111508082D01*
X127596295Y-111662859D01*
X127596302Y-111662872D01*
X127615170Y-111691111D01*
X127636047Y-111757789D01*
X127617561Y-111825168D01*
X127615170Y-111828889D01*
X127596302Y-111857127D01*
X127596295Y-111857140D01*
X127532184Y-112011917D01*
X127532182Y-112011925D01*
X127499500Y-112176228D01*
X127499500Y-112343771D01*
X127532182Y-112508074D01*
X127532184Y-112508082D01*
X127596295Y-112662860D01*
X127689373Y-112802162D01*
X127807837Y-112920626D01*
X127899963Y-112982182D01*
X127947137Y-113013703D01*
X128101918Y-113077816D01*
X128266228Y-113110499D01*
X128266232Y-113110500D01*
X128266233Y-113110500D01*
X128433768Y-113110500D01*
X128433769Y-113110499D01*
X128598082Y-113077816D01*
X128752863Y-113013703D01*
X128892162Y-112920626D01*
X129010626Y-112802162D01*
X129103703Y-112662863D01*
X129167816Y-112508082D01*
X129200500Y-112343767D01*
X129200500Y-112176233D01*
X129167816Y-112011918D01*
X129103703Y-111857137D01*
X129084828Y-111828889D01*
X129063951Y-111762214D01*
X129082435Y-111694834D01*
X129084829Y-111691109D01*
X129103703Y-111662863D01*
X129167816Y-111508082D01*
X129200500Y-111343767D01*
X129200500Y-111176233D01*
X129200499Y-111176228D01*
X132419500Y-111176228D01*
X132419500Y-111343771D01*
X132452182Y-111508074D01*
X132452184Y-111508082D01*
X132516295Y-111662859D01*
X132516302Y-111662872D01*
X132535170Y-111691111D01*
X132556047Y-111757789D01*
X132537561Y-111825168D01*
X132535170Y-111828889D01*
X132516302Y-111857127D01*
X132516295Y-111857140D01*
X132452184Y-112011917D01*
X132452182Y-112011925D01*
X132419500Y-112176228D01*
X132419500Y-112343771D01*
X132452182Y-112508074D01*
X132452184Y-112508082D01*
X132516295Y-112662860D01*
X132609373Y-112802162D01*
X132727837Y-112920626D01*
X132819963Y-112982182D01*
X132867137Y-113013703D01*
X133021918Y-113077816D01*
X133186228Y-113110499D01*
X133186232Y-113110500D01*
X133186233Y-113110500D01*
X133353768Y-113110500D01*
X133353769Y-113110499D01*
X133518082Y-113077816D01*
X133672863Y-113013703D01*
X133812162Y-112920626D01*
X133930626Y-112802162D01*
X134023703Y-112662863D01*
X134087816Y-112508082D01*
X134120500Y-112343767D01*
X134120500Y-112176233D01*
X134087816Y-112011918D01*
X134023703Y-111857137D01*
X134004828Y-111828889D01*
X133983951Y-111762214D01*
X134002435Y-111694834D01*
X134004829Y-111691109D01*
X134023703Y-111662863D01*
X134087816Y-111508082D01*
X134120500Y-111343767D01*
X134120500Y-111176233D01*
X134120499Y-111176228D01*
X145279500Y-111176228D01*
X145279500Y-111343771D01*
X145312182Y-111508074D01*
X145312184Y-111508082D01*
X145376295Y-111662859D01*
X145376302Y-111662872D01*
X145395170Y-111691111D01*
X145416047Y-111757789D01*
X145397561Y-111825168D01*
X145395170Y-111828889D01*
X145376302Y-111857127D01*
X145376295Y-111857140D01*
X145312184Y-112011917D01*
X145312182Y-112011925D01*
X145279500Y-112176228D01*
X145279500Y-112343771D01*
X145312182Y-112508074D01*
X145312184Y-112508082D01*
X145376295Y-112662860D01*
X145469373Y-112802162D01*
X145587837Y-112920626D01*
X145679963Y-112982182D01*
X145727137Y-113013703D01*
X145881918Y-113077816D01*
X146046228Y-113110499D01*
X146046232Y-113110500D01*
X146046233Y-113110500D01*
X146213768Y-113110500D01*
X146213769Y-113110499D01*
X146378082Y-113077816D01*
X146532863Y-113013703D01*
X146672162Y-112920626D01*
X146790626Y-112802162D01*
X146883703Y-112662863D01*
X146947816Y-112508082D01*
X146980500Y-112343767D01*
X146980500Y-112176233D01*
X146947816Y-112011918D01*
X146883703Y-111857137D01*
X146864828Y-111828889D01*
X146843951Y-111762214D01*
X146862435Y-111694834D01*
X146864829Y-111691109D01*
X146883703Y-111662863D01*
X146947816Y-111508082D01*
X146980500Y-111343767D01*
X146980500Y-111176233D01*
X146947816Y-111011918D01*
X146883703Y-110857137D01*
X146852537Y-110810494D01*
X146790626Y-110717837D01*
X146672162Y-110599373D01*
X146532860Y-110506295D01*
X146378082Y-110442184D01*
X146378074Y-110442182D01*
X146213771Y-110409500D01*
X146213767Y-110409500D01*
X146046233Y-110409500D01*
X146046228Y-110409500D01*
X145881925Y-110442182D01*
X145881917Y-110442184D01*
X145727139Y-110506295D01*
X145587837Y-110599373D01*
X145469373Y-110717837D01*
X145376295Y-110857139D01*
X145312184Y-111011917D01*
X145312182Y-111011925D01*
X145279500Y-111176228D01*
X134120499Y-111176228D01*
X134087816Y-111011918D01*
X134023703Y-110857137D01*
X133992537Y-110810494D01*
X133930626Y-110717837D01*
X133812162Y-110599373D01*
X133672860Y-110506295D01*
X133518082Y-110442184D01*
X133518074Y-110442182D01*
X133353771Y-110409500D01*
X133353767Y-110409500D01*
X133186233Y-110409500D01*
X133186228Y-110409500D01*
X133021925Y-110442182D01*
X133021917Y-110442184D01*
X132867139Y-110506295D01*
X132727837Y-110599373D01*
X132609373Y-110717837D01*
X132516295Y-110857139D01*
X132452184Y-111011917D01*
X132452182Y-111011925D01*
X132419500Y-111176228D01*
X129200499Y-111176228D01*
X129167816Y-111011918D01*
X129103703Y-110857137D01*
X129072537Y-110810494D01*
X129010626Y-110717837D01*
X128892162Y-110599373D01*
X128752860Y-110506295D01*
X128598082Y-110442184D01*
X128598074Y-110442182D01*
X128433771Y-110409500D01*
X128433767Y-110409500D01*
X128266233Y-110409500D01*
X128266228Y-110409500D01*
X128101925Y-110442182D01*
X128101917Y-110442184D01*
X127947139Y-110506295D01*
X127807837Y-110599373D01*
X127689373Y-110717837D01*
X127596295Y-110857139D01*
X127532184Y-111011917D01*
X127532182Y-111011925D01*
X127499500Y-111176228D01*
X116340499Y-111176228D01*
X116307816Y-111011918D01*
X116243703Y-110857137D01*
X116212537Y-110810494D01*
X116150626Y-110717837D01*
X116032162Y-110599373D01*
X115892860Y-110506295D01*
X115738082Y-110442184D01*
X115738074Y-110442182D01*
X115573771Y-110409500D01*
X115573767Y-110409500D01*
X115406233Y-110409500D01*
X115406228Y-110409500D01*
X115241925Y-110442182D01*
X115241917Y-110442184D01*
X115087139Y-110506295D01*
X114947837Y-110599373D01*
X114829373Y-110717837D01*
X114736295Y-110857139D01*
X114672184Y-111011917D01*
X114672182Y-111011925D01*
X114639500Y-111176228D01*
X51800000Y-111176228D01*
X51800000Y-108636228D01*
X87109500Y-108636228D01*
X87109500Y-108803771D01*
X87142182Y-108968074D01*
X87142184Y-108968082D01*
X87206295Y-109122859D01*
X87206302Y-109122872D01*
X87225170Y-109151111D01*
X87246047Y-109217789D01*
X87227561Y-109285168D01*
X87225170Y-109288889D01*
X87206302Y-109317127D01*
X87206295Y-109317140D01*
X87142184Y-109471917D01*
X87142182Y-109471925D01*
X87109500Y-109636228D01*
X87109500Y-109803771D01*
X87142182Y-109968074D01*
X87142184Y-109968082D01*
X87206295Y-110122860D01*
X87299373Y-110262162D01*
X87417837Y-110380626D01*
X87509963Y-110442182D01*
X87557137Y-110473703D01*
X87711918Y-110537816D01*
X87876228Y-110570499D01*
X87876232Y-110570500D01*
X87876233Y-110570500D01*
X88043768Y-110570500D01*
X88043769Y-110570499D01*
X88208082Y-110537816D01*
X88362863Y-110473703D01*
X88502162Y-110380626D01*
X88620626Y-110262162D01*
X88713703Y-110122863D01*
X88777816Y-109968082D01*
X88810500Y-109803767D01*
X88810500Y-109636233D01*
X88777816Y-109471918D01*
X88713703Y-109317137D01*
X88694828Y-109288889D01*
X88673951Y-109222214D01*
X88692435Y-109154834D01*
X88694829Y-109151109D01*
X88713703Y-109122863D01*
X88777816Y-108968082D01*
X88810500Y-108803767D01*
X88810500Y-108636233D01*
X88810499Y-108636228D01*
X109309500Y-108636228D01*
X109309500Y-108803771D01*
X109342182Y-108968074D01*
X109342184Y-108968082D01*
X109406295Y-109122859D01*
X109406302Y-109122872D01*
X109425170Y-109151111D01*
X109446047Y-109217789D01*
X109427561Y-109285168D01*
X109425170Y-109288889D01*
X109406302Y-109317127D01*
X109406295Y-109317140D01*
X109342184Y-109471917D01*
X109342182Y-109471925D01*
X109309500Y-109636228D01*
X109309500Y-109803771D01*
X109342182Y-109968074D01*
X109342184Y-109968082D01*
X109406295Y-110122860D01*
X109499373Y-110262162D01*
X109617837Y-110380626D01*
X109709963Y-110442182D01*
X109757137Y-110473703D01*
X109911918Y-110537816D01*
X110076228Y-110570499D01*
X110076232Y-110570500D01*
X110076233Y-110570500D01*
X110243768Y-110570500D01*
X110243769Y-110570499D01*
X110408082Y-110537816D01*
X110562863Y-110473703D01*
X110702162Y-110380626D01*
X110820626Y-110262162D01*
X110913703Y-110122863D01*
X110977816Y-109968082D01*
X111010500Y-109803767D01*
X111010500Y-109636233D01*
X110977816Y-109471918D01*
X110913703Y-109317137D01*
X110894828Y-109288889D01*
X110873951Y-109222214D01*
X110892435Y-109154834D01*
X110894829Y-109151109D01*
X110913703Y-109122863D01*
X110977816Y-108968082D01*
X111010500Y-108803767D01*
X111010500Y-108636233D01*
X110977816Y-108471918D01*
X110913703Y-108317137D01*
X110882537Y-108270494D01*
X110820626Y-108177837D01*
X110702162Y-108059373D01*
X110562860Y-107966295D01*
X110408082Y-107902184D01*
X110408074Y-107902182D01*
X110243771Y-107869500D01*
X110243767Y-107869500D01*
X110076233Y-107869500D01*
X110076228Y-107869500D01*
X109911925Y-107902182D01*
X109911917Y-107902184D01*
X109757139Y-107966295D01*
X109617837Y-108059373D01*
X109499373Y-108177837D01*
X109406295Y-108317139D01*
X109342184Y-108471917D01*
X109342182Y-108471925D01*
X109309500Y-108636228D01*
X88810499Y-108636228D01*
X88777816Y-108471918D01*
X88713703Y-108317137D01*
X88682537Y-108270494D01*
X88620626Y-108177837D01*
X88502162Y-108059373D01*
X88362860Y-107966295D01*
X88208082Y-107902184D01*
X88208074Y-107902182D01*
X88043771Y-107869500D01*
X88043767Y-107869500D01*
X87876233Y-107869500D01*
X87876228Y-107869500D01*
X87711925Y-107902182D01*
X87711917Y-107902184D01*
X87557139Y-107966295D01*
X87417837Y-108059373D01*
X87299373Y-108177837D01*
X87206295Y-108317139D01*
X87142184Y-108471917D01*
X87142182Y-108471925D01*
X87109500Y-108636228D01*
X51800000Y-108636228D01*
X51800000Y-106096228D01*
X56629500Y-106096228D01*
X56629500Y-106263771D01*
X56662182Y-106428074D01*
X56662184Y-106428082D01*
X56726295Y-106582859D01*
X56726302Y-106582872D01*
X56745170Y-106611111D01*
X56766047Y-106677789D01*
X56747561Y-106745168D01*
X56745170Y-106748889D01*
X56726302Y-106777127D01*
X56726295Y-106777140D01*
X56662184Y-106931917D01*
X56662182Y-106931925D01*
X56629500Y-107096228D01*
X56629500Y-107263771D01*
X56662182Y-107428074D01*
X56662184Y-107428082D01*
X56726295Y-107582860D01*
X56819373Y-107722162D01*
X56937837Y-107840626D01*
X57029963Y-107902182D01*
X57077137Y-107933703D01*
X57231918Y-107997816D01*
X57396228Y-108030499D01*
X57396232Y-108030500D01*
X57396233Y-108030500D01*
X57563768Y-108030500D01*
X57563769Y-108030499D01*
X57728082Y-107997816D01*
X57882863Y-107933703D01*
X58022162Y-107840626D01*
X58140626Y-107722162D01*
X58233703Y-107582863D01*
X58297816Y-107428082D01*
X58330500Y-107263767D01*
X58330500Y-107096233D01*
X58297816Y-106931918D01*
X58233703Y-106777137D01*
X58214828Y-106748889D01*
X58193951Y-106682214D01*
X58212435Y-106614834D01*
X58214829Y-106611109D01*
X58233703Y-106582863D01*
X58297816Y-106428082D01*
X58330500Y-106263767D01*
X58330500Y-106096233D01*
X58297816Y-105931918D01*
X58233703Y-105777137D01*
X58202537Y-105730494D01*
X58140626Y-105637837D01*
X58022165Y-105519376D01*
X58022161Y-105519373D01*
X57998021Y-105503243D01*
X57998019Y-105503241D01*
X57882865Y-105426298D01*
X57882861Y-105426296D01*
X57834413Y-105406228D01*
X60109500Y-105406228D01*
X60109500Y-105573771D01*
X60142182Y-105738074D01*
X60142184Y-105738082D01*
X60206295Y-105892860D01*
X60299373Y-106032162D01*
X60417837Y-106150626D01*
X60462547Y-106180500D01*
X60557137Y-106243703D01*
X60711918Y-106307816D01*
X60876228Y-106340499D01*
X60876232Y-106340500D01*
X60876233Y-106340500D01*
X61043768Y-106340500D01*
X61043769Y-106340499D01*
X61208082Y-106307816D01*
X61362863Y-106243703D01*
X61502162Y-106150626D01*
X61620626Y-106032162D01*
X61713703Y-105892863D01*
X61777816Y-105738082D01*
X61810500Y-105573767D01*
X61810500Y-105406233D01*
X61810499Y-105406228D01*
X75349500Y-105406228D01*
X75349500Y-105573771D01*
X75382182Y-105738074D01*
X75382184Y-105738082D01*
X75446295Y-105892860D01*
X75539373Y-106032162D01*
X75657837Y-106150626D01*
X75702547Y-106180500D01*
X75797137Y-106243703D01*
X75951918Y-106307816D01*
X76116228Y-106340499D01*
X76116232Y-106340500D01*
X76116233Y-106340500D01*
X76283768Y-106340500D01*
X76283769Y-106340499D01*
X76448082Y-106307816D01*
X76602863Y-106243703D01*
X76742162Y-106150626D01*
X76796560Y-106096228D01*
X78829500Y-106096228D01*
X78829500Y-106263771D01*
X78862182Y-106428074D01*
X78862184Y-106428082D01*
X78926295Y-106582859D01*
X78926302Y-106582872D01*
X78945170Y-106611111D01*
X78966047Y-106677789D01*
X78947561Y-106745168D01*
X78945170Y-106748889D01*
X78926302Y-106777127D01*
X78926295Y-106777140D01*
X78862184Y-106931917D01*
X78862182Y-106931925D01*
X78829500Y-107096228D01*
X78829500Y-107263771D01*
X78862182Y-107428074D01*
X78862184Y-107428082D01*
X78926295Y-107582860D01*
X79019373Y-107722162D01*
X79137837Y-107840626D01*
X79229963Y-107902182D01*
X79277137Y-107933703D01*
X79431918Y-107997816D01*
X79596228Y-108030499D01*
X79596232Y-108030500D01*
X79596233Y-108030500D01*
X79763768Y-108030500D01*
X79763769Y-108030499D01*
X79928082Y-107997816D01*
X80082863Y-107933703D01*
X80222162Y-107840626D01*
X80340626Y-107722162D01*
X80433703Y-107582863D01*
X80497816Y-107428082D01*
X80530500Y-107263767D01*
X80530500Y-107096233D01*
X80497816Y-106931918D01*
X80433703Y-106777137D01*
X80414828Y-106748889D01*
X80393951Y-106682214D01*
X80412435Y-106614834D01*
X80414829Y-106611109D01*
X80433703Y-106582863D01*
X80497816Y-106428082D01*
X80530500Y-106263767D01*
X80530500Y-106096233D01*
X80497816Y-105931918D01*
X80433703Y-105777137D01*
X80402537Y-105730494D01*
X80340626Y-105637837D01*
X80222165Y-105519376D01*
X80222161Y-105519373D01*
X80198021Y-105503243D01*
X80198019Y-105503241D01*
X80082865Y-105426298D01*
X80082861Y-105426296D01*
X80034413Y-105406228D01*
X93129500Y-105406228D01*
X93129500Y-105573771D01*
X93162182Y-105738074D01*
X93162184Y-105738082D01*
X93226295Y-105892860D01*
X93319373Y-106032162D01*
X93437837Y-106150626D01*
X93482547Y-106180500D01*
X93577137Y-106243703D01*
X93731918Y-106307816D01*
X93896228Y-106340499D01*
X93896232Y-106340500D01*
X93896233Y-106340500D01*
X94063768Y-106340500D01*
X94063769Y-106340499D01*
X94228082Y-106307816D01*
X94382863Y-106243703D01*
X94522162Y-106150626D01*
X94640626Y-106032162D01*
X94733703Y-105892863D01*
X94797816Y-105738082D01*
X94830500Y-105573767D01*
X94830500Y-105406233D01*
X94830499Y-105406228D01*
X103289500Y-105406228D01*
X103289500Y-105573771D01*
X103322182Y-105738074D01*
X103322184Y-105738082D01*
X103386295Y-105892860D01*
X103479373Y-106032162D01*
X103597837Y-106150626D01*
X103642547Y-106180500D01*
X103737137Y-106243703D01*
X103891918Y-106307816D01*
X104056228Y-106340499D01*
X104056232Y-106340500D01*
X104056233Y-106340500D01*
X104223768Y-106340500D01*
X104223769Y-106340499D01*
X104388082Y-106307816D01*
X104542863Y-106243703D01*
X104682162Y-106150626D01*
X104800626Y-106032162D01*
X104893703Y-105892863D01*
X104957816Y-105738082D01*
X104990500Y-105573767D01*
X104990500Y-105406233D01*
X104975237Y-105329500D01*
X104962275Y-105264332D01*
X104958673Y-105246228D01*
X120569500Y-105246228D01*
X120569500Y-105413771D01*
X120602182Y-105578074D01*
X120602184Y-105578082D01*
X120666295Y-105732860D01*
X120759373Y-105872162D01*
X120877837Y-105990626D01*
X120957644Y-106043951D01*
X121017137Y-106083703D01*
X121171918Y-106147816D01*
X121336228Y-106180499D01*
X121336232Y-106180500D01*
X121336233Y-106180500D01*
X121503768Y-106180500D01*
X121503769Y-106180499D01*
X121668082Y-106147816D01*
X121822863Y-106083703D01*
X121851109Y-106064828D01*
X121917786Y-106043951D01*
X121985166Y-106062435D01*
X121988879Y-106064821D01*
X122017137Y-106083703D01*
X122171918Y-106147816D01*
X122336228Y-106180499D01*
X122336232Y-106180500D01*
X122336233Y-106180500D01*
X122503768Y-106180500D01*
X122503769Y-106180499D01*
X122668082Y-106147816D01*
X122822863Y-106083703D01*
X122962162Y-105990626D01*
X123080626Y-105872162D01*
X123173703Y-105732863D01*
X123237816Y-105578082D01*
X123270500Y-105413767D01*
X123270500Y-105246233D01*
X123270499Y-105246228D01*
X138349500Y-105246228D01*
X138349500Y-105413771D01*
X138382182Y-105578074D01*
X138382184Y-105578082D01*
X138446295Y-105732860D01*
X138539373Y-105872162D01*
X138657837Y-105990626D01*
X138737644Y-106043951D01*
X138797137Y-106083703D01*
X138951918Y-106147816D01*
X139116228Y-106180499D01*
X139116232Y-106180500D01*
X139116233Y-106180500D01*
X139283768Y-106180500D01*
X139283769Y-106180499D01*
X139448082Y-106147816D01*
X139602863Y-106083703D01*
X139631109Y-106064828D01*
X139697786Y-106043951D01*
X139765166Y-106062435D01*
X139768879Y-106064821D01*
X139797137Y-106083703D01*
X139951918Y-106147816D01*
X140116228Y-106180499D01*
X140116232Y-106180500D01*
X140116233Y-106180500D01*
X140283768Y-106180500D01*
X140283769Y-106180499D01*
X140448082Y-106147816D01*
X140602863Y-106083703D01*
X140742162Y-105990626D01*
X140860626Y-105872162D01*
X140953703Y-105732863D01*
X141017816Y-105578082D01*
X141050500Y-105413767D01*
X141050500Y-105246233D01*
X141017816Y-105081918D01*
X140953703Y-104927137D01*
X140888379Y-104829373D01*
X140860626Y-104787837D01*
X140742162Y-104669373D01*
X140602860Y-104576295D01*
X140448082Y-104512184D01*
X140448074Y-104512182D01*
X140283771Y-104479500D01*
X140283767Y-104479500D01*
X140116233Y-104479500D01*
X140116228Y-104479500D01*
X139951925Y-104512182D01*
X139951917Y-104512184D01*
X139797140Y-104576295D01*
X139797127Y-104576302D01*
X139768889Y-104595170D01*
X139702211Y-104616047D01*
X139634832Y-104597561D01*
X139631111Y-104595170D01*
X139602872Y-104576302D01*
X139602859Y-104576295D01*
X139448082Y-104512184D01*
X139448074Y-104512182D01*
X139283771Y-104479500D01*
X139283767Y-104479500D01*
X139116233Y-104479500D01*
X139116228Y-104479500D01*
X138951925Y-104512182D01*
X138951917Y-104512184D01*
X138797139Y-104576295D01*
X138657837Y-104669373D01*
X138539373Y-104787837D01*
X138446295Y-104927139D01*
X138382184Y-105081917D01*
X138382182Y-105081925D01*
X138349500Y-105246228D01*
X123270499Y-105246228D01*
X123237816Y-105081918D01*
X123173703Y-104927137D01*
X123108379Y-104829373D01*
X123080626Y-104787837D01*
X122962162Y-104669373D01*
X122822860Y-104576295D01*
X122668082Y-104512184D01*
X122668074Y-104512182D01*
X122503771Y-104479500D01*
X122503767Y-104479500D01*
X122336233Y-104479500D01*
X122336228Y-104479500D01*
X122171925Y-104512182D01*
X122171917Y-104512184D01*
X122017140Y-104576295D01*
X122017127Y-104576302D01*
X121988889Y-104595170D01*
X121922211Y-104616047D01*
X121854832Y-104597561D01*
X121851111Y-104595170D01*
X121822872Y-104576302D01*
X121822859Y-104576295D01*
X121668082Y-104512184D01*
X121668074Y-104512182D01*
X121503771Y-104479500D01*
X121503767Y-104479500D01*
X121336233Y-104479500D01*
X121336228Y-104479500D01*
X121171925Y-104512182D01*
X121171917Y-104512184D01*
X121017139Y-104576295D01*
X120877837Y-104669373D01*
X120759373Y-104787837D01*
X120666295Y-104927139D01*
X120602184Y-105081917D01*
X120602182Y-105081925D01*
X120569500Y-105246228D01*
X104958673Y-105246228D01*
X104957817Y-105241923D01*
X104957816Y-105241922D01*
X104957816Y-105241918D01*
X104893703Y-105087137D01*
X104862537Y-105040494D01*
X104800626Y-104947837D01*
X104682162Y-104829373D01*
X104542860Y-104736295D01*
X104388082Y-104672184D01*
X104388074Y-104672182D01*
X104223771Y-104639500D01*
X104223767Y-104639500D01*
X104056233Y-104639500D01*
X104056228Y-104639500D01*
X103891925Y-104672182D01*
X103891917Y-104672184D01*
X103737139Y-104736295D01*
X103597837Y-104829373D01*
X103479373Y-104947837D01*
X103386295Y-105087139D01*
X103322184Y-105241917D01*
X103322182Y-105241925D01*
X103289500Y-105406228D01*
X94830499Y-105406228D01*
X94797816Y-105241918D01*
X94733703Y-105087137D01*
X94702537Y-105040494D01*
X94640626Y-104947837D01*
X94522162Y-104829373D01*
X94382860Y-104736295D01*
X94228082Y-104672184D01*
X94228074Y-104672182D01*
X94063771Y-104639500D01*
X94063767Y-104639500D01*
X93896233Y-104639500D01*
X93896228Y-104639500D01*
X93731925Y-104672182D01*
X93731917Y-104672184D01*
X93577139Y-104736295D01*
X93437837Y-104829373D01*
X93319373Y-104947837D01*
X93226295Y-105087139D01*
X93162184Y-105241917D01*
X93162182Y-105241925D01*
X93129500Y-105406228D01*
X80034413Y-105406228D01*
X79928082Y-105362184D01*
X79928074Y-105362182D01*
X79763771Y-105329500D01*
X79763767Y-105329500D01*
X79596233Y-105329500D01*
X79596228Y-105329500D01*
X79431925Y-105362182D01*
X79431917Y-105362184D01*
X79277139Y-105426295D01*
X79137837Y-105519373D01*
X79019373Y-105637837D01*
X78926295Y-105777139D01*
X78862184Y-105931917D01*
X78862182Y-105931925D01*
X78829500Y-106096228D01*
X76796560Y-106096228D01*
X76860626Y-106032162D01*
X76953703Y-105892863D01*
X77017816Y-105738082D01*
X77050500Y-105573767D01*
X77050500Y-105406233D01*
X77017816Y-105241918D01*
X76953703Y-105087137D01*
X76922537Y-105040494D01*
X76860626Y-104947837D01*
X76742162Y-104829373D01*
X76602860Y-104736295D01*
X76448082Y-104672184D01*
X76448074Y-104672182D01*
X76283771Y-104639500D01*
X76283767Y-104639500D01*
X76116233Y-104639500D01*
X76116228Y-104639500D01*
X75951925Y-104672182D01*
X75951917Y-104672184D01*
X75797139Y-104736295D01*
X75657837Y-104829373D01*
X75539373Y-104947837D01*
X75446295Y-105087139D01*
X75382184Y-105241917D01*
X75382182Y-105241925D01*
X75349500Y-105406228D01*
X61810499Y-105406228D01*
X61777816Y-105241918D01*
X61713703Y-105087137D01*
X61682537Y-105040494D01*
X61620626Y-104947837D01*
X61502162Y-104829373D01*
X61362860Y-104736295D01*
X61208082Y-104672184D01*
X61208074Y-104672182D01*
X61043771Y-104639500D01*
X61043767Y-104639500D01*
X60876233Y-104639500D01*
X60876228Y-104639500D01*
X60711925Y-104672182D01*
X60711917Y-104672184D01*
X60557139Y-104736295D01*
X60417837Y-104829373D01*
X60299373Y-104947837D01*
X60206295Y-105087139D01*
X60142184Y-105241917D01*
X60142182Y-105241925D01*
X60109500Y-105406228D01*
X57834413Y-105406228D01*
X57728082Y-105362184D01*
X57728074Y-105362182D01*
X57563771Y-105329500D01*
X57563767Y-105329500D01*
X57396233Y-105329500D01*
X57396228Y-105329500D01*
X57231925Y-105362182D01*
X57231917Y-105362184D01*
X57077139Y-105426295D01*
X56937837Y-105519373D01*
X56819373Y-105637837D01*
X56726295Y-105777139D01*
X56662184Y-105931917D01*
X56662182Y-105931925D01*
X56629500Y-106096228D01*
X51800000Y-106096228D01*
X51800000Y-95316228D01*
X70269500Y-95316228D01*
X70269500Y-95483771D01*
X70302182Y-95648074D01*
X70302184Y-95648082D01*
X70366295Y-95802860D01*
X70459373Y-95942162D01*
X70577837Y-96060626D01*
X70670494Y-96122537D01*
X70717137Y-96153703D01*
X70871918Y-96217816D01*
X71036228Y-96250499D01*
X71036232Y-96250500D01*
X71036233Y-96250500D01*
X71203768Y-96250500D01*
X71203769Y-96250499D01*
X71368082Y-96217816D01*
X71522863Y-96153703D01*
X71662162Y-96060626D01*
X71780626Y-95942162D01*
X71873703Y-95802863D01*
X71937816Y-95648082D01*
X71970500Y-95483767D01*
X71970500Y-95316233D01*
X71970499Y-95316228D01*
X75349500Y-95316228D01*
X75349500Y-95483771D01*
X75382182Y-95648074D01*
X75382184Y-95648082D01*
X75446295Y-95802860D01*
X75539373Y-95942162D01*
X75657837Y-96060626D01*
X75750494Y-96122537D01*
X75797137Y-96153703D01*
X75951918Y-96217816D01*
X76116228Y-96250499D01*
X76116232Y-96250500D01*
X76116233Y-96250500D01*
X76283768Y-96250500D01*
X76283769Y-96250499D01*
X76448082Y-96217816D01*
X76602863Y-96153703D01*
X76742162Y-96060626D01*
X76860626Y-95942162D01*
X76953703Y-95802863D01*
X77017816Y-95648082D01*
X77050500Y-95483767D01*
X77050500Y-95316233D01*
X77050499Y-95316228D01*
X80429500Y-95316228D01*
X80429500Y-95483771D01*
X80462182Y-95648074D01*
X80462184Y-95648082D01*
X80526295Y-95802860D01*
X80619373Y-95942162D01*
X80737837Y-96060626D01*
X80830494Y-96122537D01*
X80877137Y-96153703D01*
X81031918Y-96217816D01*
X81196228Y-96250499D01*
X81196232Y-96250500D01*
X81196233Y-96250500D01*
X81363768Y-96250500D01*
X81363769Y-96250499D01*
X81528082Y-96217816D01*
X81682863Y-96153703D01*
X81822162Y-96060626D01*
X81940626Y-95942162D01*
X82033703Y-95802863D01*
X82097816Y-95648082D01*
X82130500Y-95483767D01*
X82130500Y-95316233D01*
X82130499Y-95316228D01*
X85509500Y-95316228D01*
X85509500Y-95483771D01*
X85542182Y-95648074D01*
X85542184Y-95648082D01*
X85606295Y-95802860D01*
X85699373Y-95942162D01*
X85817837Y-96060626D01*
X85910494Y-96122537D01*
X85957137Y-96153703D01*
X86111918Y-96217816D01*
X86276228Y-96250499D01*
X86276232Y-96250500D01*
X86276233Y-96250500D01*
X86443768Y-96250500D01*
X86443769Y-96250499D01*
X86608082Y-96217816D01*
X86762863Y-96153703D01*
X86902162Y-96060626D01*
X87020626Y-95942162D01*
X87113703Y-95802863D01*
X87177816Y-95648082D01*
X87210500Y-95483767D01*
X87210500Y-95316233D01*
X87177816Y-95151918D01*
X87113703Y-94997137D01*
X87082537Y-94950494D01*
X87020626Y-94857837D01*
X86902162Y-94739373D01*
X86762860Y-94646295D01*
X86608082Y-94582184D01*
X86608074Y-94582182D01*
X86443771Y-94549500D01*
X86443767Y-94549500D01*
X86276233Y-94549500D01*
X86276228Y-94549500D01*
X86111925Y-94582182D01*
X86111917Y-94582184D01*
X85957139Y-94646295D01*
X85817837Y-94739373D01*
X85699373Y-94857837D01*
X85606295Y-94997139D01*
X85542184Y-95151917D01*
X85542182Y-95151925D01*
X85509500Y-95316228D01*
X82130499Y-95316228D01*
X82097816Y-95151918D01*
X82033703Y-94997137D01*
X82002537Y-94950494D01*
X81940626Y-94857837D01*
X81822162Y-94739373D01*
X81682860Y-94646295D01*
X81528082Y-94582184D01*
X81528074Y-94582182D01*
X81363771Y-94549500D01*
X81363767Y-94549500D01*
X81196233Y-94549500D01*
X81196228Y-94549500D01*
X81031925Y-94582182D01*
X81031917Y-94582184D01*
X80877139Y-94646295D01*
X80737837Y-94739373D01*
X80619373Y-94857837D01*
X80526295Y-94997139D01*
X80462184Y-95151917D01*
X80462182Y-95151925D01*
X80429500Y-95316228D01*
X77050499Y-95316228D01*
X77017816Y-95151918D01*
X76953703Y-94997137D01*
X76922537Y-94950494D01*
X76860626Y-94857837D01*
X76742162Y-94739373D01*
X76602860Y-94646295D01*
X76448082Y-94582184D01*
X76448074Y-94582182D01*
X76283771Y-94549500D01*
X76283767Y-94549500D01*
X76116233Y-94549500D01*
X76116228Y-94549500D01*
X75951925Y-94582182D01*
X75951917Y-94582184D01*
X75797139Y-94646295D01*
X75657837Y-94739373D01*
X75539373Y-94857837D01*
X75446295Y-94997139D01*
X75382184Y-95151917D01*
X75382182Y-95151925D01*
X75349500Y-95316228D01*
X71970499Y-95316228D01*
X71937816Y-95151918D01*
X71873703Y-94997137D01*
X71842537Y-94950494D01*
X71780626Y-94857837D01*
X71662162Y-94739373D01*
X71522860Y-94646295D01*
X71368082Y-94582184D01*
X71368074Y-94582182D01*
X71203771Y-94549500D01*
X71203767Y-94549500D01*
X71036233Y-94549500D01*
X71036228Y-94549500D01*
X70871925Y-94582182D01*
X70871917Y-94582184D01*
X70717139Y-94646295D01*
X70577837Y-94739373D01*
X70459373Y-94857837D01*
X70366295Y-94997139D01*
X70302184Y-95151917D01*
X70302182Y-95151925D01*
X70269500Y-95316228D01*
X51800000Y-95316228D01*
X51800000Y-94030003D01*
X126489500Y-94030003D01*
X126489500Y-97030002D01*
X126494644Y-97101940D01*
X126535182Y-97239994D01*
X126612967Y-97361030D01*
X126612971Y-97361034D01*
X126721700Y-97455249D01*
X126721706Y-97455254D01*
X126762174Y-97473735D01*
X126852580Y-97515023D01*
X126852583Y-97515023D01*
X126852584Y-97515024D01*
X126995000Y-97535500D01*
X126995003Y-97535500D01*
X129995000Y-97535500D01*
X130066940Y-97530355D01*
X130204992Y-97489819D01*
X130326032Y-97412031D01*
X130420254Y-97303294D01*
X130480024Y-97172416D01*
X130500500Y-97030000D01*
X130500500Y-94030003D01*
X130999500Y-94030003D01*
X130999500Y-97030002D01*
X131004644Y-97101940D01*
X131045182Y-97239994D01*
X131122967Y-97361030D01*
X131122971Y-97361034D01*
X131231700Y-97455249D01*
X131231706Y-97455254D01*
X131272174Y-97473735D01*
X131362580Y-97515023D01*
X131362583Y-97515023D01*
X131362584Y-97515024D01*
X131505000Y-97535500D01*
X131505003Y-97535500D01*
X134505000Y-97535500D01*
X134576940Y-97530355D01*
X134714992Y-97489819D01*
X134836032Y-97412031D01*
X134930254Y-97303294D01*
X134990024Y-97172416D01*
X135010500Y-97030000D01*
X135010500Y-94030000D01*
X135005355Y-93958060D01*
X134964819Y-93820008D01*
X134887031Y-93698968D01*
X134828173Y-93647967D01*
X134778299Y-93604750D01*
X134778297Y-93604748D01*
X134778294Y-93604746D01*
X134778290Y-93604744D01*
X134647419Y-93544976D01*
X134647414Y-93544975D01*
X134505000Y-93524500D01*
X131505000Y-93524500D01*
X131504997Y-93524500D01*
X131433059Y-93529644D01*
X131295005Y-93570182D01*
X131173969Y-93647967D01*
X131173965Y-93647971D01*
X131079750Y-93756700D01*
X131079744Y-93756709D01*
X131019976Y-93887580D01*
X131019975Y-93887585D01*
X130999501Y-94029991D01*
X130999500Y-94030003D01*
X130500500Y-94030003D01*
X130500500Y-94030000D01*
X130495355Y-93958060D01*
X130454819Y-93820008D01*
X130377031Y-93698968D01*
X130318173Y-93647967D01*
X130268299Y-93604750D01*
X130268297Y-93604748D01*
X130268294Y-93604746D01*
X130268290Y-93604744D01*
X130137419Y-93544976D01*
X130137414Y-93544975D01*
X129995000Y-93524500D01*
X126995000Y-93524500D01*
X126994997Y-93524500D01*
X126923059Y-93529644D01*
X126785005Y-93570182D01*
X126663969Y-93647967D01*
X126663965Y-93647971D01*
X126569750Y-93756700D01*
X126569744Y-93756709D01*
X126509976Y-93887580D01*
X126509975Y-93887585D01*
X126489501Y-94029991D01*
X126489500Y-94030003D01*
X51800000Y-94030003D01*
X51800000Y-87316228D01*
X59169500Y-87316228D01*
X59169500Y-87483771D01*
X59202182Y-87648074D01*
X59202184Y-87648082D01*
X59266295Y-87802859D01*
X59266302Y-87802872D01*
X59285170Y-87831111D01*
X59306047Y-87897789D01*
X59287561Y-87965168D01*
X59285170Y-87968889D01*
X59266302Y-87997127D01*
X59266295Y-87997140D01*
X59202184Y-88151917D01*
X59202182Y-88151925D01*
X59169500Y-88316228D01*
X59169500Y-88483771D01*
X59202182Y-88648074D01*
X59202184Y-88648082D01*
X59266295Y-88802859D01*
X59266302Y-88802872D01*
X59285170Y-88831111D01*
X59306047Y-88897789D01*
X59287561Y-88965168D01*
X59285170Y-88968889D01*
X59266302Y-88997127D01*
X59266295Y-88997140D01*
X59202184Y-89151917D01*
X59202182Y-89151925D01*
X59169500Y-89316228D01*
X59169500Y-89483771D01*
X59202182Y-89648074D01*
X59202184Y-89648082D01*
X59266295Y-89802859D01*
X59266302Y-89802872D01*
X59285170Y-89831111D01*
X59306047Y-89897789D01*
X59287561Y-89965168D01*
X59285170Y-89968889D01*
X59266302Y-89997127D01*
X59266295Y-89997140D01*
X59202184Y-90151917D01*
X59202182Y-90151925D01*
X59169500Y-90316228D01*
X59169500Y-90483771D01*
X59202182Y-90648074D01*
X59202184Y-90648082D01*
X59266295Y-90802860D01*
X59359373Y-90942162D01*
X59477837Y-91060626D01*
X59537512Y-91100499D01*
X59617137Y-91153703D01*
X59771918Y-91217816D01*
X59936228Y-91250499D01*
X59936232Y-91250500D01*
X59936233Y-91250500D01*
X60103768Y-91250500D01*
X60103769Y-91250499D01*
X60268082Y-91217816D01*
X60422863Y-91153703D01*
X60562162Y-91060626D01*
X60680626Y-90942162D01*
X60773703Y-90802863D01*
X60837816Y-90648082D01*
X60870500Y-90483767D01*
X60870500Y-90316233D01*
X60837816Y-90151918D01*
X60773703Y-89997137D01*
X60754828Y-89968889D01*
X60733951Y-89902214D01*
X60752435Y-89834834D01*
X60754829Y-89831109D01*
X60773703Y-89802863D01*
X60837816Y-89648082D01*
X60870500Y-89483767D01*
X60870500Y-89316233D01*
X60837816Y-89151918D01*
X60773703Y-88997137D01*
X60754828Y-88968889D01*
X60733951Y-88902214D01*
X60752435Y-88834834D01*
X60754829Y-88831109D01*
X60773703Y-88802863D01*
X60837816Y-88648082D01*
X60870500Y-88483767D01*
X60870500Y-88316233D01*
X60837816Y-88151918D01*
X60773703Y-87997137D01*
X60754828Y-87968889D01*
X60733951Y-87902214D01*
X60752435Y-87834834D01*
X60754829Y-87831109D01*
X60773703Y-87802863D01*
X60837816Y-87648082D01*
X60870500Y-87483767D01*
X60870500Y-87316233D01*
X60870499Y-87316228D01*
X96609500Y-87316228D01*
X96609500Y-87483771D01*
X96642182Y-87648074D01*
X96642184Y-87648082D01*
X96706295Y-87802859D01*
X96706302Y-87802872D01*
X96725170Y-87831111D01*
X96746047Y-87897789D01*
X96727561Y-87965168D01*
X96725170Y-87968889D01*
X96706302Y-87997127D01*
X96706295Y-87997140D01*
X96642184Y-88151917D01*
X96642182Y-88151925D01*
X96609500Y-88316228D01*
X96609500Y-88483771D01*
X96642182Y-88648074D01*
X96642184Y-88648082D01*
X96706295Y-88802859D01*
X96706302Y-88802872D01*
X96725170Y-88831111D01*
X96746047Y-88897789D01*
X96727561Y-88965168D01*
X96725170Y-88968889D01*
X96706302Y-88997127D01*
X96706295Y-88997140D01*
X96642184Y-89151917D01*
X96642182Y-89151925D01*
X96609500Y-89316228D01*
X96609500Y-89483771D01*
X96642182Y-89648074D01*
X96642184Y-89648082D01*
X96706295Y-89802859D01*
X96706302Y-89802872D01*
X96725170Y-89831111D01*
X96746047Y-89897789D01*
X96727561Y-89965168D01*
X96725170Y-89968889D01*
X96706302Y-89997127D01*
X96706295Y-89997140D01*
X96642184Y-90151917D01*
X96642182Y-90151925D01*
X96609500Y-90316228D01*
X96609500Y-90483771D01*
X96642182Y-90648074D01*
X96642184Y-90648082D01*
X96706295Y-90802860D01*
X96799373Y-90942162D01*
X96917837Y-91060626D01*
X96977512Y-91100499D01*
X97057137Y-91153703D01*
X97211918Y-91217816D01*
X97376228Y-91250499D01*
X97376232Y-91250500D01*
X97376233Y-91250500D01*
X97543768Y-91250500D01*
X97543769Y-91250499D01*
X97708082Y-91217816D01*
X97862863Y-91153703D01*
X98002162Y-91060626D01*
X98120626Y-90942162D01*
X98213703Y-90802863D01*
X98277816Y-90648082D01*
X98310500Y-90483767D01*
X98310500Y-90316233D01*
X98277816Y-90151918D01*
X98242322Y-90066228D01*
X126489500Y-90066228D01*
X126489500Y-90233771D01*
X126522182Y-90398074D01*
X126522184Y-90398082D01*
X126586295Y-90552860D01*
X126679373Y-90692162D01*
X126797837Y-90810626D01*
X126890494Y-90872537D01*
X126937137Y-90903703D01*
X127091918Y-90967816D01*
X127256228Y-91000499D01*
X127256232Y-91000500D01*
X127256233Y-91000500D01*
X127423768Y-91000500D01*
X127423769Y-91000499D01*
X127588082Y-90967816D01*
X127742863Y-90903703D01*
X127882162Y-90810626D01*
X128000626Y-90692162D01*
X128093703Y-90552863D01*
X128157816Y-90398082D01*
X128190500Y-90233767D01*
X128190500Y-90066233D01*
X128190499Y-90066228D01*
X129029500Y-90066228D01*
X129029500Y-90233771D01*
X129062182Y-90398074D01*
X129062184Y-90398082D01*
X129126295Y-90552860D01*
X129219373Y-90692162D01*
X129337837Y-90810626D01*
X129430494Y-90872537D01*
X129477137Y-90903703D01*
X129631918Y-90967816D01*
X129796228Y-91000499D01*
X129796232Y-91000500D01*
X129796233Y-91000500D01*
X129963768Y-91000500D01*
X129963769Y-91000499D01*
X130128082Y-90967816D01*
X130282863Y-90903703D01*
X130422162Y-90810626D01*
X130540626Y-90692162D01*
X130633703Y-90552863D01*
X130697816Y-90398082D01*
X130730500Y-90233767D01*
X130730500Y-90066233D01*
X130728540Y-90056379D01*
X131469500Y-90056379D01*
X131469500Y-90243620D01*
X131506025Y-90427243D01*
X131506027Y-90427251D01*
X131577676Y-90600228D01*
X131577681Y-90600237D01*
X131681697Y-90755907D01*
X131681700Y-90755911D01*
X131814088Y-90888299D01*
X131814092Y-90888302D01*
X131969762Y-90992318D01*
X131969768Y-90992321D01*
X131969769Y-90992322D01*
X132142749Y-91063973D01*
X132326379Y-91100499D01*
X132326383Y-91100500D01*
X132326384Y-91100500D01*
X132513617Y-91100500D01*
X132513618Y-91100499D01*
X132697251Y-91063973D01*
X132870231Y-90992322D01*
X133025908Y-90888302D01*
X133158302Y-90755908D01*
X133262322Y-90600231D01*
X133333973Y-90427251D01*
X133370500Y-90243616D01*
X133370500Y-90056384D01*
X133370499Y-90056379D01*
X134009500Y-90056379D01*
X134009500Y-90243620D01*
X134046025Y-90427243D01*
X134046027Y-90427251D01*
X134117676Y-90600228D01*
X134117681Y-90600237D01*
X134221697Y-90755907D01*
X134221700Y-90755911D01*
X134354088Y-90888299D01*
X134354092Y-90888302D01*
X134509762Y-90992318D01*
X134509768Y-90992321D01*
X134509769Y-90992322D01*
X134682749Y-91063973D01*
X134866379Y-91100499D01*
X134866383Y-91100500D01*
X134866384Y-91100500D01*
X135053617Y-91100500D01*
X135053618Y-91100499D01*
X135237251Y-91063973D01*
X135410231Y-90992322D01*
X135565908Y-90888302D01*
X135698302Y-90755908D01*
X135802322Y-90600231D01*
X135873973Y-90427251D01*
X135910500Y-90243616D01*
X135910500Y-90056384D01*
X135873973Y-89872749D01*
X135802322Y-89699769D01*
X135802321Y-89699768D01*
X135802318Y-89699762D01*
X135698302Y-89544092D01*
X135698299Y-89544088D01*
X135565911Y-89411700D01*
X135565907Y-89411697D01*
X135410237Y-89307681D01*
X135410228Y-89307676D01*
X135237251Y-89236027D01*
X135237243Y-89236025D01*
X135053620Y-89199500D01*
X135053616Y-89199500D01*
X134866384Y-89199500D01*
X134866379Y-89199500D01*
X134682756Y-89236025D01*
X134682748Y-89236027D01*
X134509771Y-89307676D01*
X134509762Y-89307681D01*
X134354092Y-89411697D01*
X134354088Y-89411700D01*
X134221700Y-89544088D01*
X134221697Y-89544092D01*
X134117681Y-89699762D01*
X134117676Y-89699771D01*
X134046027Y-89872748D01*
X134046025Y-89872756D01*
X134009500Y-90056379D01*
X133370499Y-90056379D01*
X133333973Y-89872749D01*
X133262322Y-89699769D01*
X133262321Y-89699768D01*
X133262318Y-89699762D01*
X133158302Y-89544092D01*
X133158299Y-89544088D01*
X133025911Y-89411700D01*
X133025907Y-89411697D01*
X132870237Y-89307681D01*
X132870228Y-89307676D01*
X132697251Y-89236027D01*
X132697243Y-89236025D01*
X132513620Y-89199500D01*
X132513616Y-89199500D01*
X132326384Y-89199500D01*
X132326379Y-89199500D01*
X132142756Y-89236025D01*
X132142748Y-89236027D01*
X131969771Y-89307676D01*
X131969762Y-89307681D01*
X131814092Y-89411697D01*
X131814088Y-89411700D01*
X131681700Y-89544088D01*
X131681697Y-89544092D01*
X131577681Y-89699762D01*
X131577676Y-89699771D01*
X131506027Y-89872748D01*
X131506025Y-89872756D01*
X131469500Y-90056379D01*
X130728540Y-90056379D01*
X130697816Y-89901918D01*
X130633703Y-89747137D01*
X130602048Y-89699762D01*
X130540626Y-89607837D01*
X130422162Y-89489373D01*
X130282860Y-89396295D01*
X130128082Y-89332184D01*
X130128074Y-89332182D01*
X129963771Y-89299500D01*
X129963767Y-89299500D01*
X129796233Y-89299500D01*
X129796228Y-89299500D01*
X129631925Y-89332182D01*
X129631917Y-89332184D01*
X129477139Y-89396295D01*
X129337837Y-89489373D01*
X129219373Y-89607837D01*
X129126295Y-89747139D01*
X129062184Y-89901917D01*
X129062182Y-89901925D01*
X129029500Y-90066228D01*
X128190499Y-90066228D01*
X128157816Y-89901918D01*
X128093703Y-89747137D01*
X128062048Y-89699762D01*
X128000626Y-89607837D01*
X127882162Y-89489373D01*
X127742860Y-89396295D01*
X127588082Y-89332184D01*
X127588074Y-89332182D01*
X127423771Y-89299500D01*
X127423767Y-89299500D01*
X127256233Y-89299500D01*
X127256228Y-89299500D01*
X127091925Y-89332182D01*
X127091917Y-89332184D01*
X126937139Y-89396295D01*
X126797837Y-89489373D01*
X126679373Y-89607837D01*
X126586295Y-89747139D01*
X126522184Y-89901917D01*
X126522182Y-89901925D01*
X126489500Y-90066228D01*
X98242322Y-90066228D01*
X98213703Y-89997137D01*
X98189808Y-89961376D01*
X98185930Y-89953214D01*
X98181798Y-89927277D01*
X98173951Y-89902214D01*
X98176390Y-89893321D01*
X98174940Y-89884214D01*
X98185486Y-89860161D01*
X98192435Y-89834834D01*
X98194829Y-89831109D01*
X98213703Y-89802863D01*
X98277816Y-89648082D01*
X98310500Y-89483767D01*
X98310500Y-89316233D01*
X98277816Y-89151918D01*
X98213703Y-88997137D01*
X98194828Y-88968889D01*
X98173951Y-88902214D01*
X98192435Y-88834834D01*
X98194829Y-88831109D01*
X98213703Y-88802863D01*
X98277816Y-88648082D01*
X98310500Y-88483767D01*
X98310500Y-88316233D01*
X98277816Y-88151918D01*
X98213703Y-87997137D01*
X98194828Y-87968889D01*
X98173951Y-87902214D01*
X98192435Y-87834834D01*
X98194829Y-87831109D01*
X98213703Y-87802863D01*
X98277816Y-87648082D01*
X98310500Y-87483767D01*
X98310500Y-87316233D01*
X98277816Y-87151918D01*
X98213703Y-86997137D01*
X98182537Y-86950494D01*
X98120626Y-86857837D01*
X98002162Y-86739373D01*
X97862860Y-86646295D01*
X97708082Y-86582184D01*
X97708074Y-86582182D01*
X97543771Y-86549500D01*
X97543767Y-86549500D01*
X97376233Y-86549500D01*
X97376228Y-86549500D01*
X97211925Y-86582182D01*
X97211917Y-86582184D01*
X97057139Y-86646295D01*
X96917837Y-86739373D01*
X96799373Y-86857837D01*
X96706295Y-86997139D01*
X96642184Y-87151917D01*
X96642182Y-87151925D01*
X96609500Y-87316228D01*
X60870499Y-87316228D01*
X60837816Y-87151918D01*
X60773703Y-86997137D01*
X60742537Y-86950494D01*
X60680626Y-86857837D01*
X60562162Y-86739373D01*
X60422860Y-86646295D01*
X60268082Y-86582184D01*
X60268074Y-86582182D01*
X60103771Y-86549500D01*
X60103767Y-86549500D01*
X59936233Y-86549500D01*
X59936228Y-86549500D01*
X59771925Y-86582182D01*
X59771917Y-86582184D01*
X59617139Y-86646295D01*
X59477837Y-86739373D01*
X59359373Y-86857837D01*
X59266295Y-86997139D01*
X59202184Y-87151917D01*
X59202182Y-87151925D01*
X59169500Y-87316228D01*
X51800000Y-87316228D01*
X51800000Y-81736228D01*
X104889500Y-81736228D01*
X104889500Y-81903771D01*
X104922182Y-82068074D01*
X104922184Y-82068082D01*
X104986295Y-82222859D01*
X104986302Y-82222872D01*
X105005170Y-82251111D01*
X105026047Y-82317789D01*
X105007561Y-82385168D01*
X105005170Y-82388889D01*
X104986302Y-82417127D01*
X104986295Y-82417140D01*
X104922184Y-82571917D01*
X104922182Y-82571925D01*
X104889500Y-82736228D01*
X104889500Y-82903771D01*
X104922182Y-83068074D01*
X104922184Y-83068082D01*
X104986295Y-83222859D01*
X104986302Y-83222872D01*
X105005170Y-83251111D01*
X105026047Y-83317789D01*
X105007561Y-83385168D01*
X105005170Y-83388889D01*
X104986302Y-83417127D01*
X104986295Y-83417140D01*
X104922184Y-83571917D01*
X104922182Y-83571925D01*
X104889500Y-83736228D01*
X104889500Y-83903771D01*
X104922182Y-84068074D01*
X104922184Y-84068082D01*
X104986295Y-84222859D01*
X104986302Y-84222872D01*
X105005170Y-84251111D01*
X105026047Y-84317789D01*
X105007561Y-84385168D01*
X105005170Y-84388889D01*
X104986302Y-84417127D01*
X104986295Y-84417140D01*
X104922184Y-84571917D01*
X104922182Y-84571925D01*
X104889500Y-84736228D01*
X104889500Y-84903771D01*
X104922182Y-85068074D01*
X104922184Y-85068082D01*
X104986295Y-85222859D01*
X104986302Y-85222872D01*
X105005170Y-85251111D01*
X105026047Y-85317789D01*
X105007561Y-85385168D01*
X105005170Y-85388889D01*
X104986302Y-85417127D01*
X104986295Y-85417140D01*
X104922184Y-85571917D01*
X104922182Y-85571925D01*
X104889500Y-85736228D01*
X104889500Y-85903771D01*
X104922182Y-86068074D01*
X104922184Y-86068082D01*
X104986295Y-86222860D01*
X105079373Y-86362162D01*
X105197837Y-86480626D01*
X105290494Y-86542537D01*
X105337137Y-86573703D01*
X105491918Y-86637816D01*
X105656228Y-86670499D01*
X105656232Y-86670500D01*
X105656233Y-86670500D01*
X105823768Y-86670500D01*
X105823769Y-86670499D01*
X105988082Y-86637816D01*
X106142863Y-86573703D01*
X106282162Y-86480626D01*
X106400626Y-86362162D01*
X106493703Y-86222863D01*
X106557816Y-86068082D01*
X106590500Y-85903767D01*
X106590500Y-85736233D01*
X106557816Y-85571918D01*
X106493703Y-85417137D01*
X106474828Y-85388889D01*
X106453951Y-85322214D01*
X106472435Y-85254834D01*
X106474829Y-85251109D01*
X106493703Y-85222863D01*
X106557816Y-85068082D01*
X106590500Y-84903767D01*
X106590500Y-84736233D01*
X106557816Y-84571918D01*
X106493703Y-84417137D01*
X106474828Y-84388889D01*
X106453951Y-84322214D01*
X106472435Y-84254834D01*
X106474829Y-84251109D01*
X106493703Y-84222863D01*
X106557816Y-84068082D01*
X106590500Y-83903767D01*
X106590500Y-83736233D01*
X106557816Y-83571918D01*
X106493703Y-83417137D01*
X106474828Y-83388889D01*
X106453951Y-83322214D01*
X106472435Y-83254834D01*
X106474829Y-83251109D01*
X106493703Y-83222863D01*
X106557816Y-83068082D01*
X106590500Y-82903767D01*
X106590500Y-82736233D01*
X106557816Y-82571918D01*
X106493703Y-82417137D01*
X106474828Y-82388889D01*
X106453951Y-82322214D01*
X106472435Y-82254834D01*
X106474829Y-82251109D01*
X106493703Y-82222863D01*
X106557816Y-82068082D01*
X106590500Y-81903767D01*
X106590500Y-81736233D01*
X106590499Y-81736228D01*
X139789500Y-81736228D01*
X139789500Y-81903771D01*
X139822182Y-82068074D01*
X139822184Y-82068082D01*
X139886295Y-82222859D01*
X139886302Y-82222872D01*
X139905170Y-82251111D01*
X139926047Y-82317789D01*
X139907561Y-82385168D01*
X139905170Y-82388889D01*
X139886302Y-82417127D01*
X139886295Y-82417140D01*
X139822184Y-82571917D01*
X139822182Y-82571925D01*
X139789500Y-82736228D01*
X139789500Y-82903771D01*
X139822182Y-83068074D01*
X139822184Y-83068082D01*
X139886295Y-83222859D01*
X139886302Y-83222872D01*
X139905170Y-83251111D01*
X139926047Y-83317789D01*
X139907561Y-83385168D01*
X139905170Y-83388889D01*
X139886302Y-83417127D01*
X139886295Y-83417140D01*
X139822184Y-83571917D01*
X139822182Y-83571925D01*
X139789500Y-83736228D01*
X139789500Y-83903771D01*
X139822182Y-84068074D01*
X139822184Y-84068082D01*
X139886295Y-84222859D01*
X139886302Y-84222872D01*
X139905170Y-84251111D01*
X139926047Y-84317789D01*
X139907561Y-84385168D01*
X139905170Y-84388889D01*
X139886302Y-84417127D01*
X139886295Y-84417140D01*
X139822184Y-84571917D01*
X139822182Y-84571925D01*
X139789500Y-84736228D01*
X139789500Y-84903771D01*
X139822182Y-85068074D01*
X139822184Y-85068082D01*
X139886295Y-85222859D01*
X139886302Y-85222872D01*
X139905170Y-85251111D01*
X139926047Y-85317789D01*
X139907561Y-85385168D01*
X139905170Y-85388889D01*
X139886302Y-85417127D01*
X139886295Y-85417140D01*
X139822184Y-85571917D01*
X139822182Y-85571925D01*
X139789500Y-85736228D01*
X139789500Y-85903771D01*
X139822182Y-86068074D01*
X139822184Y-86068082D01*
X139886295Y-86222860D01*
X139979373Y-86362162D01*
X140097837Y-86480626D01*
X140190494Y-86542537D01*
X140237137Y-86573703D01*
X140391918Y-86637816D01*
X140556228Y-86670499D01*
X140556232Y-86670500D01*
X140556233Y-86670500D01*
X140723768Y-86670500D01*
X140723769Y-86670499D01*
X140888082Y-86637816D01*
X141042863Y-86573703D01*
X141182162Y-86480626D01*
X141300626Y-86362162D01*
X141393703Y-86222863D01*
X141457816Y-86068082D01*
X141490500Y-85903767D01*
X141490500Y-85736233D01*
X141457816Y-85571918D01*
X141393703Y-85417137D01*
X141374828Y-85388889D01*
X141353951Y-85322214D01*
X141372435Y-85254834D01*
X141374829Y-85251109D01*
X141393703Y-85222863D01*
X141457816Y-85068082D01*
X141490500Y-84903767D01*
X141490500Y-84736233D01*
X141457816Y-84571918D01*
X141393703Y-84417137D01*
X141374828Y-84388889D01*
X141353951Y-84322214D01*
X141372435Y-84254834D01*
X141374829Y-84251109D01*
X141393703Y-84222863D01*
X141457816Y-84068082D01*
X141490500Y-83903767D01*
X141490500Y-83736233D01*
X141457816Y-83571918D01*
X141393703Y-83417137D01*
X141374828Y-83388889D01*
X141353951Y-83322214D01*
X141372435Y-83254834D01*
X141374829Y-83251109D01*
X141393703Y-83222863D01*
X141457816Y-83068082D01*
X141490500Y-82903767D01*
X141490500Y-82736233D01*
X141457816Y-82571918D01*
X141393703Y-82417137D01*
X141374828Y-82388889D01*
X141353951Y-82322214D01*
X141372435Y-82254834D01*
X141374829Y-82251109D01*
X141393703Y-82222863D01*
X141457816Y-82068082D01*
X141490500Y-81903767D01*
X141490500Y-81736233D01*
X141457816Y-81571918D01*
X141393703Y-81417137D01*
X141362537Y-81370494D01*
X141300626Y-81277837D01*
X141182162Y-81159373D01*
X141042860Y-81066295D01*
X140888082Y-81002184D01*
X140888074Y-81002182D01*
X140723771Y-80969500D01*
X140723767Y-80969500D01*
X140556233Y-80969500D01*
X140556228Y-80969500D01*
X140391925Y-81002182D01*
X140391917Y-81002184D01*
X140237139Y-81066295D01*
X140097837Y-81159373D01*
X139979373Y-81277837D01*
X139886295Y-81417139D01*
X139822184Y-81571917D01*
X139822182Y-81571925D01*
X139789500Y-81736228D01*
X106590499Y-81736228D01*
X106557816Y-81571918D01*
X106493703Y-81417137D01*
X106462537Y-81370494D01*
X106400626Y-81277837D01*
X106282162Y-81159373D01*
X106142860Y-81066295D01*
X105988082Y-81002184D01*
X105988074Y-81002182D01*
X105823771Y-80969500D01*
X105823767Y-80969500D01*
X105656233Y-80969500D01*
X105656228Y-80969500D01*
X105491925Y-81002182D01*
X105491917Y-81002184D01*
X105337139Y-81066295D01*
X105197837Y-81159373D01*
X105079373Y-81277837D01*
X104986295Y-81417139D01*
X104922184Y-81571917D01*
X104922182Y-81571925D01*
X104889500Y-81736228D01*
X51800000Y-81736228D01*
X51800000Y-80006228D01*
X115989500Y-80006228D01*
X115989500Y-80173771D01*
X116022182Y-80338074D01*
X116022184Y-80338082D01*
X116086295Y-80492860D01*
X116179373Y-80632162D01*
X116297837Y-80750626D01*
X116390494Y-80812537D01*
X116437137Y-80843703D01*
X116591918Y-80907816D01*
X116756228Y-80940499D01*
X116756232Y-80940500D01*
X116756233Y-80940500D01*
X116923768Y-80940500D01*
X116923769Y-80940499D01*
X117088082Y-80907816D01*
X117242863Y-80843703D01*
X117382162Y-80750626D01*
X117500626Y-80632162D01*
X117593703Y-80492863D01*
X117657816Y-80338082D01*
X117690500Y-80173767D01*
X117690500Y-80006233D01*
X117690499Y-80006228D01*
X128689500Y-80006228D01*
X128689500Y-80173771D01*
X128722182Y-80338074D01*
X128722184Y-80338082D01*
X128786295Y-80492860D01*
X128879373Y-80632162D01*
X128997837Y-80750626D01*
X129090494Y-80812537D01*
X129137137Y-80843703D01*
X129291918Y-80907816D01*
X129456228Y-80940499D01*
X129456232Y-80940500D01*
X129456233Y-80940500D01*
X129623768Y-80940500D01*
X129623769Y-80940499D01*
X129788082Y-80907816D01*
X129942863Y-80843703D01*
X130082162Y-80750626D01*
X130200626Y-80632162D01*
X130293703Y-80492863D01*
X130357816Y-80338082D01*
X130390500Y-80173767D01*
X130390500Y-80006233D01*
X130357816Y-79841918D01*
X130293703Y-79687137D01*
X130262537Y-79640494D01*
X130200626Y-79547837D01*
X130082162Y-79429373D01*
X129942860Y-79336295D01*
X129788082Y-79272184D01*
X129788074Y-79272182D01*
X129623771Y-79239500D01*
X129623767Y-79239500D01*
X129456233Y-79239500D01*
X129456228Y-79239500D01*
X129291925Y-79272182D01*
X129291917Y-79272184D01*
X129137139Y-79336295D01*
X128997837Y-79429373D01*
X128879373Y-79547837D01*
X128786295Y-79687139D01*
X128722184Y-79841917D01*
X128722182Y-79841925D01*
X128689500Y-80006228D01*
X117690499Y-80006228D01*
X117657816Y-79841918D01*
X117593703Y-79687137D01*
X117562537Y-79640494D01*
X117500626Y-79547837D01*
X117382162Y-79429373D01*
X117242860Y-79336295D01*
X117088082Y-79272184D01*
X117088074Y-79272182D01*
X116923771Y-79239500D01*
X116923767Y-79239500D01*
X116756233Y-79239500D01*
X116756228Y-79239500D01*
X116591925Y-79272182D01*
X116591917Y-79272184D01*
X116437139Y-79336295D01*
X116297837Y-79429373D01*
X116179373Y-79547837D01*
X116086295Y-79687139D01*
X116022184Y-79841917D01*
X116022182Y-79841925D01*
X115989500Y-80006228D01*
X51800000Y-80006228D01*
X51800000Y-74926228D01*
X100249500Y-74926228D01*
X100249500Y-75093771D01*
X100282182Y-75258074D01*
X100282184Y-75258082D01*
X100346295Y-75412860D01*
X100439373Y-75552162D01*
X100557837Y-75670626D01*
X100637644Y-75723951D01*
X100697137Y-75763703D01*
X100851918Y-75827816D01*
X101016228Y-75860499D01*
X101016232Y-75860500D01*
X101016233Y-75860500D01*
X101183768Y-75860500D01*
X101183769Y-75860499D01*
X101348082Y-75827816D01*
X101502863Y-75763703D01*
X101531109Y-75744828D01*
X101597786Y-75723951D01*
X101665166Y-75742435D01*
X101668879Y-75744821D01*
X101697137Y-75763703D01*
X101851918Y-75827816D01*
X102016228Y-75860499D01*
X102016232Y-75860500D01*
X102016233Y-75860500D01*
X102183768Y-75860500D01*
X102183769Y-75860499D01*
X102348082Y-75827816D01*
X102502863Y-75763703D01*
X102642162Y-75670626D01*
X102760626Y-75552162D01*
X102853703Y-75412863D01*
X102917816Y-75258082D01*
X102950500Y-75093767D01*
X102950500Y-74926233D01*
X102917816Y-74761918D01*
X102853703Y-74607137D01*
X102822537Y-74560494D01*
X102760626Y-74467837D01*
X102642162Y-74349373D01*
X102502860Y-74256295D01*
X102348082Y-74192184D01*
X102348074Y-74192182D01*
X102183771Y-74159500D01*
X102183767Y-74159500D01*
X102016233Y-74159500D01*
X102016228Y-74159500D01*
X101851925Y-74192182D01*
X101851917Y-74192184D01*
X101697140Y-74256295D01*
X101697127Y-74256302D01*
X101668889Y-74275170D01*
X101602211Y-74296047D01*
X101534832Y-74277561D01*
X101531111Y-74275170D01*
X101502872Y-74256302D01*
X101502859Y-74256295D01*
X101348082Y-74192184D01*
X101348074Y-74192182D01*
X101183771Y-74159500D01*
X101183767Y-74159500D01*
X101016233Y-74159500D01*
X101016228Y-74159500D01*
X100851925Y-74192182D01*
X100851917Y-74192184D01*
X100697139Y-74256295D01*
X100557837Y-74349373D01*
X100439373Y-74467837D01*
X100346295Y-74607139D01*
X100282184Y-74761917D01*
X100282182Y-74761925D01*
X100249500Y-74926228D01*
X51800000Y-74926228D01*
X51800000Y-67996228D01*
X94319500Y-67996228D01*
X94319500Y-68163771D01*
X94352182Y-68328074D01*
X94352184Y-68328082D01*
X94416295Y-68482859D01*
X94416302Y-68482872D01*
X94435170Y-68511111D01*
X94456047Y-68577789D01*
X94437561Y-68645168D01*
X94435170Y-68648889D01*
X94416302Y-68677127D01*
X94416295Y-68677140D01*
X94352184Y-68831917D01*
X94352182Y-68831925D01*
X94319500Y-68996228D01*
X94319500Y-69163771D01*
X94352182Y-69328074D01*
X94352184Y-69328082D01*
X94416295Y-69482860D01*
X94509373Y-69622162D01*
X94627837Y-69740626D01*
X94720494Y-69802537D01*
X94767137Y-69833703D01*
X94921918Y-69897816D01*
X95086228Y-69930499D01*
X95086232Y-69930500D01*
X95086233Y-69930500D01*
X95253768Y-69930500D01*
X95253769Y-69930499D01*
X95418082Y-69897816D01*
X95572863Y-69833703D01*
X95712162Y-69740626D01*
X95830626Y-69622162D01*
X95923703Y-69482863D01*
X95987816Y-69328082D01*
X96020500Y-69163767D01*
X96020500Y-68996233D01*
X95987816Y-68831918D01*
X95923703Y-68677137D01*
X95904828Y-68648889D01*
X95883951Y-68582214D01*
X95902435Y-68514834D01*
X95904829Y-68511109D01*
X95923703Y-68482863D01*
X95987816Y-68328082D01*
X96020500Y-68163767D01*
X96020500Y-67996233D01*
X96020499Y-67996228D01*
X107179500Y-67996228D01*
X107179500Y-68163771D01*
X107212182Y-68328074D01*
X107212184Y-68328082D01*
X107276295Y-68482859D01*
X107276302Y-68482872D01*
X107295170Y-68511111D01*
X107316047Y-68577789D01*
X107297561Y-68645168D01*
X107295170Y-68648889D01*
X107276302Y-68677127D01*
X107276295Y-68677140D01*
X107212184Y-68831917D01*
X107212182Y-68831925D01*
X107179500Y-68996228D01*
X107179500Y-69163771D01*
X107212182Y-69328074D01*
X107212184Y-69328082D01*
X107276295Y-69482860D01*
X107369373Y-69622162D01*
X107487837Y-69740626D01*
X107580494Y-69802537D01*
X107627137Y-69833703D01*
X107781918Y-69897816D01*
X107946228Y-69930499D01*
X107946232Y-69930500D01*
X107946233Y-69930500D01*
X108113768Y-69930500D01*
X108113769Y-69930499D01*
X108278082Y-69897816D01*
X108432863Y-69833703D01*
X108572162Y-69740626D01*
X108690626Y-69622162D01*
X108783703Y-69482863D01*
X108847816Y-69328082D01*
X108880500Y-69163767D01*
X108880500Y-68996233D01*
X108847816Y-68831918D01*
X108783703Y-68677137D01*
X108764828Y-68648889D01*
X108743951Y-68582214D01*
X108762435Y-68514834D01*
X108764829Y-68511109D01*
X108783703Y-68482863D01*
X108847816Y-68328082D01*
X108880500Y-68163767D01*
X108880500Y-67996233D01*
X108847816Y-67831918D01*
X108783703Y-67677137D01*
X108752537Y-67630494D01*
X108690626Y-67537837D01*
X108572162Y-67419373D01*
X108432860Y-67326295D01*
X108278082Y-67262184D01*
X108278074Y-67262182D01*
X108113771Y-67229500D01*
X108113767Y-67229500D01*
X107946233Y-67229500D01*
X107946228Y-67229500D01*
X107781925Y-67262182D01*
X107781917Y-67262184D01*
X107627139Y-67326295D01*
X107487837Y-67419373D01*
X107369373Y-67537837D01*
X107276295Y-67677139D01*
X107212184Y-67831917D01*
X107212182Y-67831925D01*
X107179500Y-67996228D01*
X96020499Y-67996228D01*
X95987816Y-67831918D01*
X95923703Y-67677137D01*
X95892537Y-67630494D01*
X95830626Y-67537837D01*
X95712162Y-67419373D01*
X95572860Y-67326295D01*
X95418082Y-67262184D01*
X95418074Y-67262182D01*
X95253771Y-67229500D01*
X95253767Y-67229500D01*
X95086233Y-67229500D01*
X95086228Y-67229500D01*
X94921925Y-67262182D01*
X94921917Y-67262184D01*
X94767139Y-67326295D01*
X94627837Y-67419373D01*
X94509373Y-67537837D01*
X94416295Y-67677139D01*
X94352184Y-67831917D01*
X94352182Y-67831925D01*
X94319500Y-67996228D01*
X51800000Y-67996228D01*
X51800000Y-59139001D01*
X56474500Y-59139001D01*
X56474500Y-62781002D01*
X56477396Y-62835040D01*
X56477397Y-62835041D01*
X56512979Y-62974449D01*
X56512981Y-62974454D01*
X56527332Y-63009099D01*
X56527332Y-63009100D01*
X56579119Y-63103941D01*
X56579122Y-63103944D01*
X56677161Y-63209247D01*
X56677165Y-63209251D01*
X56800893Y-63282663D01*
X56800895Y-63282663D01*
X56800902Y-63282668D01*
X56835550Y-63297020D01*
X56886584Y-63315024D01*
X57029000Y-63335500D01*
X65290500Y-63335500D01*
X65357539Y-63355185D01*
X65403294Y-63407989D01*
X65414500Y-63459500D01*
X65414500Y-64061349D01*
X65394815Y-64128388D01*
X65383057Y-64142978D01*
X65383239Y-64143128D01*
X65379373Y-64147837D01*
X65286295Y-64287139D01*
X65222184Y-64441917D01*
X65222182Y-64441925D01*
X65189500Y-64606228D01*
X65189500Y-64773771D01*
X65222182Y-64938074D01*
X65222184Y-64938082D01*
X65286295Y-65092860D01*
X65379373Y-65232162D01*
X65497837Y-65350626D01*
X65590494Y-65412537D01*
X65637137Y-65443703D01*
X65791918Y-65507816D01*
X65956228Y-65540499D01*
X65956232Y-65540500D01*
X65956233Y-65540500D01*
X66123768Y-65540500D01*
X66123769Y-65540499D01*
X66288082Y-65507816D01*
X66442863Y-65443703D01*
X66582162Y-65350626D01*
X66700626Y-65232162D01*
X66793703Y-65092863D01*
X66857816Y-64938082D01*
X66890500Y-64773767D01*
X66890500Y-64606233D01*
X66857816Y-64441918D01*
X66793703Y-64287137D01*
X66762537Y-64240494D01*
X66700626Y-64147837D01*
X66696761Y-64143128D01*
X66698028Y-64142087D01*
X66668334Y-64087707D01*
X66665500Y-64061349D01*
X66665500Y-63459500D01*
X66685185Y-63392461D01*
X66737989Y-63346706D01*
X66789500Y-63335500D01*
X69576002Y-63335500D01*
X69630040Y-63332603D01*
X69769450Y-63297020D01*
X69804098Y-63282668D01*
X69898943Y-63230879D01*
X70004249Y-63132837D01*
X70077668Y-63009098D01*
X70092020Y-62974450D01*
X70110024Y-62923416D01*
X70130500Y-62781000D01*
X70130500Y-59686228D01*
X72809500Y-59686228D01*
X72809500Y-59853771D01*
X72842182Y-60018074D01*
X72842184Y-60018082D01*
X72906295Y-60172860D01*
X72999373Y-60312162D01*
X73117837Y-60430626D01*
X73210494Y-60492537D01*
X73257137Y-60523703D01*
X73411918Y-60587816D01*
X73576228Y-60620499D01*
X73576232Y-60620500D01*
X73576233Y-60620500D01*
X73743768Y-60620500D01*
X73743769Y-60620499D01*
X73908082Y-60587816D01*
X74062863Y-60523703D01*
X74202162Y-60430626D01*
X74320626Y-60312162D01*
X74413703Y-60172863D01*
X74477816Y-60018082D01*
X74510500Y-59853767D01*
X74510500Y-59686233D01*
X74477816Y-59521918D01*
X74413703Y-59367137D01*
X74357391Y-59282860D01*
X74320626Y-59227837D01*
X74202162Y-59109373D01*
X74062860Y-59016295D01*
X73908082Y-58952184D01*
X73908074Y-58952182D01*
X73743771Y-58919500D01*
X73743767Y-58919500D01*
X73576233Y-58919500D01*
X73576228Y-58919500D01*
X73411925Y-58952182D01*
X73411917Y-58952184D01*
X73257139Y-59016295D01*
X73117837Y-59109373D01*
X72999373Y-59227837D01*
X72906295Y-59367139D01*
X72842184Y-59521917D01*
X72842182Y-59521925D01*
X72809500Y-59686228D01*
X70130500Y-59686228D01*
X70130500Y-59139000D01*
X70127603Y-59084960D01*
X70092020Y-58945550D01*
X70077668Y-58910902D01*
X70077667Y-58910900D01*
X70077667Y-58910899D01*
X70025880Y-58816058D01*
X70025877Y-58816055D01*
X70007421Y-58796232D01*
X69927837Y-58710751D01*
X69927834Y-58710748D01*
X69804106Y-58637336D01*
X69804101Y-58637334D01*
X69804098Y-58637332D01*
X69769450Y-58622980D01*
X69718416Y-58604976D01*
X69718414Y-58604975D01*
X69718412Y-58604975D01*
X69633477Y-58592763D01*
X69576000Y-58584500D01*
X57029000Y-58584500D01*
X57028998Y-58584500D01*
X56974959Y-58587396D01*
X56974958Y-58587397D01*
X56835550Y-58622979D01*
X56835545Y-58622981D01*
X56800900Y-58637332D01*
X56800899Y-58637332D01*
X56706058Y-58689119D01*
X56706055Y-58689122D01*
X56600752Y-58787161D01*
X56600748Y-58787165D01*
X56527336Y-58910893D01*
X56527333Y-58910900D01*
X56512981Y-58945547D01*
X56494975Y-58996587D01*
X56482270Y-59084958D01*
X56474501Y-59138997D01*
X56474500Y-59139001D01*
X51800000Y-59139001D01*
X51800000Y-49446228D01*
X66754500Y-49446228D01*
X66754500Y-49613771D01*
X66787182Y-49778074D01*
X66787184Y-49778082D01*
X66851295Y-49932860D01*
X66944373Y-50072162D01*
X66949530Y-50077319D01*
X66983015Y-50138642D01*
X66978031Y-50208334D01*
X66949530Y-50252681D01*
X66944376Y-50257834D01*
X66944373Y-50257837D01*
X66851295Y-50397139D01*
X66787184Y-50551917D01*
X66787182Y-50551925D01*
X66754500Y-50716228D01*
X66754500Y-50883771D01*
X66787182Y-51048074D01*
X66787184Y-51048082D01*
X66851295Y-51202860D01*
X66944373Y-51342162D01*
X66949530Y-51347319D01*
X66983015Y-51408642D01*
X66978031Y-51478334D01*
X66949530Y-51522681D01*
X66944376Y-51527834D01*
X66944373Y-51527837D01*
X66851295Y-51667139D01*
X66787184Y-51821917D01*
X66787182Y-51821925D01*
X66754500Y-51986228D01*
X66754500Y-52153771D01*
X66787182Y-52318074D01*
X66787184Y-52318082D01*
X66851295Y-52472860D01*
X66944373Y-52612162D01*
X67062837Y-52730626D01*
X67155494Y-52792537D01*
X67202137Y-52823703D01*
X67356918Y-52887816D01*
X67521228Y-52920499D01*
X67521232Y-52920500D01*
X67521233Y-52920500D01*
X67688768Y-52920500D01*
X67688769Y-52920499D01*
X67853082Y-52887816D01*
X68007863Y-52823703D01*
X68147162Y-52730626D01*
X68152316Y-52725471D01*
X68213636Y-52691985D01*
X68283327Y-52696966D01*
X68327683Y-52725471D01*
X68332838Y-52730626D01*
X68472137Y-52823703D01*
X68626918Y-52887816D01*
X68791228Y-52920499D01*
X68791232Y-52920500D01*
X68791233Y-52920500D01*
X68958768Y-52920500D01*
X68958769Y-52920499D01*
X69123082Y-52887816D01*
X69277863Y-52823703D01*
X69417162Y-52730626D01*
X69535626Y-52612162D01*
X69628703Y-52472863D01*
X69692816Y-52318082D01*
X69725500Y-52153767D01*
X69725500Y-51986233D01*
X69713187Y-51924330D01*
X69713187Y-51924328D01*
X69709587Y-51906228D01*
X72809500Y-51906228D01*
X72809500Y-52073771D01*
X72842182Y-52238074D01*
X72842184Y-52238082D01*
X72906295Y-52392860D01*
X72999373Y-52532162D01*
X73117837Y-52650626D01*
X73179736Y-52691985D01*
X73257137Y-52743703D01*
X73411918Y-52807816D01*
X73576228Y-52840499D01*
X73576232Y-52840500D01*
X73576233Y-52840500D01*
X73743768Y-52840500D01*
X73743769Y-52840499D01*
X73908082Y-52807816D01*
X73936058Y-52796228D01*
X81389500Y-52796228D01*
X81389500Y-52963771D01*
X81422182Y-53128074D01*
X81422184Y-53128082D01*
X81486295Y-53282860D01*
X81579373Y-53422162D01*
X81699530Y-53542319D01*
X81733015Y-53603642D01*
X81728031Y-53673334D01*
X81699530Y-53717681D01*
X81579376Y-53837834D01*
X81579373Y-53837837D01*
X81486295Y-53977139D01*
X81422184Y-54131917D01*
X81422182Y-54131925D01*
X81389500Y-54296228D01*
X81389500Y-54463771D01*
X81422182Y-54628074D01*
X81422184Y-54628082D01*
X81486295Y-54782860D01*
X81579373Y-54922162D01*
X81699530Y-55042319D01*
X81733015Y-55103642D01*
X81728031Y-55173334D01*
X81699530Y-55217681D01*
X81579376Y-55337834D01*
X81579373Y-55337837D01*
X81486295Y-55477139D01*
X81422184Y-55631917D01*
X81422182Y-55631925D01*
X81389500Y-55796228D01*
X81389500Y-55963771D01*
X81422182Y-56128074D01*
X81422184Y-56128082D01*
X81486295Y-56282860D01*
X81579373Y-56422162D01*
X81699530Y-56542319D01*
X81733015Y-56603642D01*
X81728031Y-56673334D01*
X81699530Y-56717681D01*
X81579376Y-56837834D01*
X81579373Y-56837837D01*
X81486295Y-56977139D01*
X81422184Y-57131917D01*
X81422182Y-57131925D01*
X81389500Y-57296228D01*
X81389500Y-57463771D01*
X81422182Y-57628074D01*
X81422184Y-57628082D01*
X81486295Y-57782860D01*
X81579373Y-57922162D01*
X81699530Y-58042319D01*
X81733015Y-58103642D01*
X81728031Y-58173334D01*
X81699530Y-58217681D01*
X81579376Y-58337834D01*
X81579373Y-58337837D01*
X81486295Y-58477139D01*
X81422184Y-58631917D01*
X81422182Y-58631925D01*
X81389500Y-58796228D01*
X81389500Y-58963771D01*
X81422182Y-59128074D01*
X81422184Y-59128082D01*
X81486295Y-59282860D01*
X81579373Y-59422162D01*
X81699530Y-59542319D01*
X81733015Y-59603642D01*
X81728031Y-59673334D01*
X81699530Y-59717681D01*
X81579376Y-59837834D01*
X81579373Y-59837837D01*
X81486295Y-59977139D01*
X81422184Y-60131917D01*
X81422182Y-60131925D01*
X81389500Y-60296228D01*
X81389500Y-60463771D01*
X81422182Y-60628074D01*
X81422184Y-60628082D01*
X81486295Y-60782860D01*
X81579373Y-60922162D01*
X81697837Y-61040626D01*
X81790494Y-61102537D01*
X81837137Y-61133703D01*
X81991918Y-61197816D01*
X82156228Y-61230499D01*
X82156232Y-61230500D01*
X82156233Y-61230500D01*
X82323768Y-61230500D01*
X82323769Y-61230499D01*
X82488082Y-61197816D01*
X82642863Y-61133703D01*
X82782162Y-61040626D01*
X82817291Y-61005497D01*
X82902319Y-60920470D01*
X82963642Y-60886985D01*
X83033334Y-60891969D01*
X83077681Y-60920470D01*
X83197837Y-61040626D01*
X83290494Y-61102537D01*
X83337137Y-61133703D01*
X83491918Y-61197816D01*
X83656228Y-61230499D01*
X83656232Y-61230500D01*
X83740500Y-61230500D01*
X83749185Y-61233050D01*
X83758147Y-61231762D01*
X83782187Y-61242740D01*
X83807539Y-61250185D01*
X83813466Y-61257025D01*
X83821703Y-61260787D01*
X83835992Y-61283021D01*
X83853294Y-61302989D01*
X83855581Y-61313503D01*
X83859477Y-61319565D01*
X83864500Y-61354500D01*
X83864500Y-61601349D01*
X83844815Y-61668388D01*
X83833057Y-61682978D01*
X83833239Y-61683128D01*
X83829373Y-61687837D01*
X83736295Y-61827139D01*
X83672184Y-61981917D01*
X83672182Y-61981925D01*
X83639500Y-62146228D01*
X83639500Y-62313771D01*
X83672182Y-62478074D01*
X83672184Y-62478082D01*
X83736295Y-62632860D01*
X83829373Y-62772162D01*
X83947837Y-62890626D01*
X84040494Y-62952537D01*
X84087137Y-62983703D01*
X84241918Y-63047816D01*
X84406228Y-63080499D01*
X84406232Y-63080500D01*
X84406233Y-63080500D01*
X84573768Y-63080500D01*
X84573769Y-63080499D01*
X84738082Y-63047816D01*
X84892863Y-62983703D01*
X85032162Y-62890626D01*
X85150626Y-62772162D01*
X85243703Y-62632863D01*
X85307816Y-62478082D01*
X85340500Y-62313767D01*
X85340500Y-62146233D01*
X85307816Y-61981918D01*
X85243703Y-61827137D01*
X85196948Y-61757163D01*
X85150626Y-61687837D01*
X85146761Y-61683128D01*
X85148028Y-61682087D01*
X85137115Y-61662102D01*
X85120523Y-61636284D01*
X85119631Y-61630083D01*
X85118334Y-61627707D01*
X85115500Y-61601349D01*
X85115500Y-61354500D01*
X85135185Y-61287461D01*
X85187989Y-61241706D01*
X85239500Y-61230500D01*
X85323768Y-61230500D01*
X85323769Y-61230499D01*
X85488082Y-61197816D01*
X85642863Y-61133703D01*
X85782162Y-61040626D01*
X85817291Y-61005497D01*
X85902319Y-60920470D01*
X85963642Y-60886985D01*
X86033334Y-60891969D01*
X86077681Y-60920470D01*
X86197837Y-61040626D01*
X86290494Y-61102537D01*
X86337137Y-61133703D01*
X86491918Y-61197816D01*
X86656228Y-61230499D01*
X86656232Y-61230500D01*
X86740500Y-61230500D01*
X86749185Y-61233050D01*
X86758147Y-61231762D01*
X86782187Y-61242740D01*
X86807539Y-61250185D01*
X86813466Y-61257025D01*
X86821703Y-61260787D01*
X86835992Y-61283021D01*
X86853294Y-61302989D01*
X86855581Y-61313503D01*
X86859477Y-61319565D01*
X86864500Y-61354500D01*
X86864500Y-61601349D01*
X86844815Y-61668388D01*
X86833057Y-61682978D01*
X86833239Y-61683128D01*
X86829373Y-61687837D01*
X86736295Y-61827139D01*
X86672184Y-61981917D01*
X86672182Y-61981925D01*
X86639500Y-62146228D01*
X86639500Y-62313771D01*
X86672182Y-62478074D01*
X86672184Y-62478082D01*
X86736295Y-62632860D01*
X86829373Y-62772162D01*
X86947837Y-62890626D01*
X87040494Y-62952537D01*
X87087137Y-62983703D01*
X87241918Y-63047816D01*
X87406228Y-63080499D01*
X87406232Y-63080500D01*
X87406233Y-63080500D01*
X87573768Y-63080500D01*
X87573769Y-63080499D01*
X87738082Y-63047816D01*
X87892863Y-62983703D01*
X88032162Y-62890626D01*
X88087748Y-62835040D01*
X88152319Y-62770470D01*
X88213642Y-62736985D01*
X88283334Y-62741969D01*
X88327681Y-62770470D01*
X88447837Y-62890626D01*
X88540494Y-62952537D01*
X88587137Y-62983703D01*
X88741918Y-63047816D01*
X88906228Y-63080499D01*
X88906232Y-63080500D01*
X88906233Y-63080500D01*
X89073768Y-63080500D01*
X89073769Y-63080499D01*
X89238082Y-63047816D01*
X89392863Y-62983703D01*
X89532162Y-62890626D01*
X89587748Y-62835040D01*
X89652319Y-62770470D01*
X89713642Y-62736985D01*
X89783334Y-62741969D01*
X89827681Y-62770470D01*
X89947837Y-62890626D01*
X90040494Y-62952537D01*
X90087137Y-62983703D01*
X90241918Y-63047816D01*
X90406228Y-63080499D01*
X90406232Y-63080500D01*
X90406233Y-63080500D01*
X90573768Y-63080500D01*
X90573769Y-63080499D01*
X90738082Y-63047816D01*
X90892863Y-62983703D01*
X91032162Y-62890626D01*
X91150626Y-62772162D01*
X91243703Y-62632863D01*
X91307816Y-62478082D01*
X91340500Y-62313767D01*
X91340500Y-62146233D01*
X91328187Y-62084330D01*
X91328187Y-62084328D01*
X91324587Y-62066228D01*
X100249500Y-62066228D01*
X100249500Y-62233771D01*
X100282182Y-62398074D01*
X100282184Y-62398082D01*
X100346295Y-62552860D01*
X100439373Y-62692162D01*
X100557837Y-62810626D01*
X100637644Y-62863951D01*
X100697137Y-62903703D01*
X100851918Y-62967816D01*
X101016228Y-63000499D01*
X101016232Y-63000500D01*
X101016233Y-63000500D01*
X101183768Y-63000500D01*
X101183769Y-63000499D01*
X101348082Y-62967816D01*
X101502863Y-62903703D01*
X101531109Y-62884828D01*
X101597786Y-62863951D01*
X101665166Y-62882435D01*
X101668879Y-62884821D01*
X101697137Y-62903703D01*
X101851918Y-62967816D01*
X102016228Y-63000499D01*
X102016232Y-63000500D01*
X102016233Y-63000500D01*
X102183768Y-63000500D01*
X102183769Y-63000499D01*
X102348082Y-62967816D01*
X102502863Y-62903703D01*
X102642162Y-62810626D01*
X102760626Y-62692162D01*
X102853703Y-62552863D01*
X102917816Y-62398082D01*
X102950500Y-62233767D01*
X102950500Y-62109001D01*
X133164500Y-62109001D01*
X133164500Y-63011002D01*
X133167396Y-63065040D01*
X133167397Y-63065041D01*
X133202979Y-63204449D01*
X133202981Y-63204454D01*
X133217332Y-63239099D01*
X133217332Y-63239100D01*
X133269119Y-63333941D01*
X133269122Y-63333944D01*
X133367161Y-63439247D01*
X133367165Y-63439251D01*
X133490893Y-63512663D01*
X133490895Y-63512663D01*
X133490902Y-63512668D01*
X133525550Y-63527020D01*
X133576584Y-63545024D01*
X133576587Y-63545024D01*
X133582329Y-63547050D01*
X133581797Y-63548556D01*
X133635494Y-63579768D01*
X133667327Y-63641964D01*
X133669500Y-63665074D01*
X133669500Y-66133620D01*
X133706025Y-66317243D01*
X133706027Y-66317251D01*
X133777676Y-66490228D01*
X133777681Y-66490237D01*
X133881696Y-66645906D01*
X133881697Y-66645907D01*
X133881698Y-66645908D01*
X133958182Y-66722392D01*
X133991666Y-66783713D01*
X133994500Y-66810072D01*
X133994500Y-69141349D01*
X133974815Y-69208388D01*
X133963057Y-69222978D01*
X133963239Y-69223128D01*
X133959373Y-69227837D01*
X133866295Y-69367139D01*
X133802184Y-69521917D01*
X133802182Y-69521925D01*
X133769500Y-69686228D01*
X133769500Y-69853771D01*
X133802182Y-70018074D01*
X133802184Y-70018082D01*
X133866295Y-70172860D01*
X133959373Y-70312162D01*
X134077837Y-70430626D01*
X134170494Y-70492537D01*
X134217137Y-70523703D01*
X134371918Y-70587816D01*
X134536228Y-70620499D01*
X134536232Y-70620500D01*
X134536233Y-70620500D01*
X134703768Y-70620500D01*
X134703769Y-70620499D01*
X134868082Y-70587816D01*
X135022863Y-70523703D01*
X135162162Y-70430626D01*
X135280626Y-70312162D01*
X135373703Y-70172863D01*
X135437816Y-70018082D01*
X135470500Y-69853767D01*
X135470500Y-69686233D01*
X135437816Y-69521918D01*
X135373703Y-69367137D01*
X135342537Y-69320494D01*
X135280626Y-69227837D01*
X135276761Y-69223128D01*
X135278028Y-69222087D01*
X135248334Y-69167707D01*
X135245500Y-69141349D01*
X135245500Y-66810072D01*
X135265185Y-66743033D01*
X135281814Y-66722395D01*
X135358302Y-66645908D01*
X135462322Y-66490231D01*
X135533973Y-66317251D01*
X135570500Y-66133616D01*
X135570500Y-65946384D01*
X135570500Y-63660087D01*
X135590185Y-63593048D01*
X135642989Y-63547293D01*
X135663835Y-63539939D01*
X135714443Y-63527022D01*
X135714444Y-63527021D01*
X135714450Y-63527020D01*
X135749098Y-63512668D01*
X135843943Y-63460879D01*
X135949249Y-63362837D01*
X136022668Y-63239098D01*
X136037020Y-63204450D01*
X136055024Y-63153416D01*
X136075500Y-63011000D01*
X136075500Y-62109000D01*
X136072603Y-62054960D01*
X136037020Y-61915550D01*
X136022668Y-61880902D01*
X136022667Y-61880900D01*
X136022667Y-61880899D01*
X135970880Y-61786058D01*
X135970877Y-61786055D01*
X135934645Y-61747139D01*
X135872837Y-61680751D01*
X135872834Y-61680748D01*
X135749106Y-61607336D01*
X135749101Y-61607334D01*
X135749098Y-61607332D01*
X135714450Y-61592980D01*
X135663416Y-61574976D01*
X135663414Y-61574975D01*
X135663412Y-61574975D01*
X135578477Y-61562763D01*
X135521000Y-61554500D01*
X133719000Y-61554500D01*
X133718998Y-61554500D01*
X133664959Y-61557396D01*
X133664958Y-61557397D01*
X133525550Y-61592979D01*
X133525545Y-61592981D01*
X133490900Y-61607332D01*
X133490899Y-61607332D01*
X133396058Y-61659119D01*
X133396055Y-61659122D01*
X133290752Y-61757161D01*
X133290748Y-61757165D01*
X133217336Y-61880893D01*
X133217333Y-61880900D01*
X133202981Y-61915547D01*
X133184975Y-61966587D01*
X133182771Y-61981917D01*
X133164501Y-62108997D01*
X133164500Y-62109001D01*
X102950500Y-62109001D01*
X102950500Y-62066233D01*
X102917816Y-61901918D01*
X102853703Y-61747137D01*
X102814080Y-61687837D01*
X102760626Y-61607837D01*
X102642162Y-61489373D01*
X102502860Y-61396295D01*
X102348082Y-61332184D01*
X102348074Y-61332182D01*
X102183771Y-61299500D01*
X102183767Y-61299500D01*
X102016233Y-61299500D01*
X102016228Y-61299500D01*
X101851925Y-61332182D01*
X101851917Y-61332184D01*
X101697140Y-61396295D01*
X101697127Y-61396302D01*
X101668889Y-61415170D01*
X101602211Y-61436047D01*
X101534832Y-61417561D01*
X101531111Y-61415170D01*
X101502872Y-61396302D01*
X101502859Y-61396295D01*
X101348082Y-61332184D01*
X101348074Y-61332182D01*
X101183771Y-61299500D01*
X101183767Y-61299500D01*
X101016233Y-61299500D01*
X101016228Y-61299500D01*
X100851925Y-61332182D01*
X100851917Y-61332184D01*
X100697139Y-61396295D01*
X100557837Y-61489373D01*
X100439373Y-61607837D01*
X100346295Y-61747139D01*
X100282184Y-61901917D01*
X100282182Y-61901925D01*
X100249500Y-62066228D01*
X91324587Y-62066228D01*
X91307817Y-61981925D01*
X91307816Y-61981918D01*
X91243703Y-61827137D01*
X91196948Y-61757163D01*
X91150626Y-61687837D01*
X91146761Y-61683128D01*
X91148028Y-61682087D01*
X91118334Y-61627707D01*
X91115500Y-61601349D01*
X91115500Y-61068392D01*
X91106683Y-61024070D01*
X91106682Y-61024063D01*
X91102990Y-61005498D01*
X91102990Y-61005497D01*
X91091464Y-60947555D01*
X91091463Y-60947548D01*
X91044311Y-60833714D01*
X91044310Y-60833713D01*
X91044307Y-60833707D01*
X90975858Y-60731267D01*
X90975855Y-60731263D01*
X90885637Y-60641045D01*
X90885606Y-60641016D01*
X90626819Y-60382229D01*
X90593334Y-60320906D01*
X90591330Y-60302271D01*
X90591097Y-60302294D01*
X90590500Y-60296238D01*
X90590500Y-60296233D01*
X90557816Y-60131918D01*
X90493703Y-59977137D01*
X90462537Y-59930494D01*
X90400626Y-59837837D01*
X90280470Y-59717681D01*
X90246985Y-59656358D01*
X90251969Y-59586666D01*
X90280470Y-59542319D01*
X90400623Y-59422165D01*
X90400626Y-59422162D01*
X90437391Y-59367139D01*
X90493703Y-59282863D01*
X90557816Y-59128082D01*
X90590500Y-58963767D01*
X90590500Y-58796233D01*
X90557816Y-58631918D01*
X90493703Y-58477137D01*
X90462537Y-58430494D01*
X90400626Y-58337837D01*
X90280470Y-58217681D01*
X90246985Y-58156358D01*
X90251969Y-58086666D01*
X90280470Y-58042319D01*
X90400623Y-57922165D01*
X90400626Y-57922162D01*
X90421698Y-57890626D01*
X90493703Y-57782863D01*
X90557816Y-57628082D01*
X90590500Y-57463767D01*
X90590500Y-57296233D01*
X90590222Y-57294836D01*
X90564264Y-57164332D01*
X90560662Y-57146228D01*
X100249500Y-57146228D01*
X100249500Y-57313771D01*
X100282182Y-57478074D01*
X100282184Y-57478082D01*
X100346295Y-57632860D01*
X100439373Y-57772162D01*
X100557837Y-57890626D01*
X100605039Y-57922165D01*
X100697137Y-57983703D01*
X100851918Y-58047816D01*
X101016228Y-58080499D01*
X101016232Y-58080500D01*
X101016233Y-58080500D01*
X101183768Y-58080500D01*
X101183769Y-58080499D01*
X101348082Y-58047816D01*
X101502863Y-57983703D01*
X101531109Y-57964828D01*
X101597786Y-57943951D01*
X101665166Y-57962435D01*
X101668879Y-57964821D01*
X101697137Y-57983703D01*
X101851918Y-58047816D01*
X102016228Y-58080499D01*
X102016232Y-58080500D01*
X102016233Y-58080500D01*
X102183768Y-58080500D01*
X102183769Y-58080499D01*
X102348082Y-58047816D01*
X102502863Y-57983703D01*
X102642162Y-57890626D01*
X102760626Y-57772162D01*
X102853703Y-57632863D01*
X102917816Y-57478082D01*
X102950500Y-57313767D01*
X102950500Y-57146233D01*
X102917816Y-56981918D01*
X102853703Y-56827137D01*
X102821537Y-56778997D01*
X102760626Y-56687837D01*
X102642162Y-56569373D01*
X102502860Y-56476295D01*
X102348082Y-56412184D01*
X102348074Y-56412182D01*
X102183771Y-56379500D01*
X102183767Y-56379500D01*
X102016233Y-56379500D01*
X102016228Y-56379500D01*
X101851925Y-56412182D01*
X101851917Y-56412184D01*
X101697140Y-56476295D01*
X101697127Y-56476302D01*
X101668889Y-56495170D01*
X101602211Y-56516047D01*
X101534832Y-56497561D01*
X101531111Y-56495170D01*
X101502872Y-56476302D01*
X101502859Y-56476295D01*
X101348082Y-56412184D01*
X101348074Y-56412182D01*
X101183771Y-56379500D01*
X101183767Y-56379500D01*
X101016233Y-56379500D01*
X101016228Y-56379500D01*
X100851925Y-56412182D01*
X100851917Y-56412184D01*
X100697139Y-56476295D01*
X100557837Y-56569373D01*
X100439373Y-56687837D01*
X100346295Y-56827139D01*
X100282184Y-56981917D01*
X100282182Y-56981925D01*
X100249500Y-57146228D01*
X90560662Y-57146228D01*
X90557817Y-57131925D01*
X90557816Y-57131918D01*
X90495686Y-56981925D01*
X90493704Y-56977139D01*
X90400626Y-56837837D01*
X90280470Y-56717681D01*
X90246985Y-56656358D01*
X90251969Y-56586666D01*
X90280470Y-56542319D01*
X90400623Y-56422165D01*
X90400626Y-56422162D01*
X90429132Y-56379500D01*
X90493703Y-56282863D01*
X90557816Y-56128082D01*
X90590500Y-55963767D01*
X90590500Y-55796233D01*
X90557816Y-55631918D01*
X90493703Y-55477137D01*
X90462537Y-55430494D01*
X90400626Y-55337837D01*
X90280470Y-55217681D01*
X90246985Y-55156358D01*
X90251969Y-55086666D01*
X90280470Y-55042319D01*
X90400623Y-54922165D01*
X90400626Y-54922162D01*
X90493703Y-54782863D01*
X90557816Y-54628082D01*
X90590500Y-54463767D01*
X90590500Y-54296233D01*
X90557816Y-54131918D01*
X90493703Y-53977137D01*
X90462537Y-53930494D01*
X90400626Y-53837837D01*
X90280470Y-53717681D01*
X90246985Y-53656358D01*
X90251969Y-53586666D01*
X90280470Y-53542319D01*
X90400623Y-53422165D01*
X90400626Y-53422162D01*
X90493703Y-53282863D01*
X90557816Y-53128082D01*
X90590500Y-52963767D01*
X90590500Y-52796233D01*
X90557816Y-52631918D01*
X90493703Y-52477137D01*
X90424131Y-52373015D01*
X90400626Y-52337837D01*
X90282162Y-52219373D01*
X90142860Y-52126295D01*
X89988082Y-52062184D01*
X89988074Y-52062182D01*
X89823771Y-52029500D01*
X89823767Y-52029500D01*
X89656233Y-52029500D01*
X89656228Y-52029500D01*
X89491925Y-52062182D01*
X89491917Y-52062184D01*
X89337139Y-52126295D01*
X89197837Y-52219373D01*
X89197834Y-52219376D01*
X89077681Y-52339530D01*
X89016358Y-52373015D01*
X88946666Y-52368031D01*
X88902319Y-52339530D01*
X88782162Y-52219373D01*
X88642860Y-52126295D01*
X88488082Y-52062184D01*
X88488074Y-52062182D01*
X88323771Y-52029500D01*
X88323767Y-52029500D01*
X88156233Y-52029500D01*
X88156228Y-52029500D01*
X87991925Y-52062182D01*
X87991917Y-52062184D01*
X87837139Y-52126295D01*
X87697837Y-52219373D01*
X87697834Y-52219376D01*
X87577681Y-52339530D01*
X87516358Y-52373015D01*
X87446666Y-52368031D01*
X87402319Y-52339530D01*
X87282162Y-52219373D01*
X87142860Y-52126295D01*
X86988082Y-52062184D01*
X86988074Y-52062182D01*
X86823771Y-52029500D01*
X86823767Y-52029500D01*
X86656233Y-52029500D01*
X86656228Y-52029500D01*
X86491925Y-52062182D01*
X86491917Y-52062184D01*
X86337139Y-52126295D01*
X86197837Y-52219373D01*
X86197834Y-52219376D01*
X86077681Y-52339530D01*
X86016358Y-52373015D01*
X85946666Y-52368031D01*
X85902319Y-52339530D01*
X85782162Y-52219373D01*
X85642860Y-52126295D01*
X85488082Y-52062184D01*
X85488074Y-52062182D01*
X85323771Y-52029500D01*
X85323767Y-52029500D01*
X85156233Y-52029500D01*
X85156228Y-52029500D01*
X84991925Y-52062182D01*
X84991917Y-52062184D01*
X84837139Y-52126295D01*
X84697837Y-52219373D01*
X84697834Y-52219376D01*
X84577681Y-52339530D01*
X84516358Y-52373015D01*
X84446666Y-52368031D01*
X84402319Y-52339530D01*
X84282162Y-52219373D01*
X84142860Y-52126295D01*
X83988082Y-52062184D01*
X83988074Y-52062182D01*
X83823771Y-52029500D01*
X83823767Y-52029500D01*
X83656233Y-52029500D01*
X83656228Y-52029500D01*
X83491925Y-52062182D01*
X83491917Y-52062184D01*
X83337139Y-52126295D01*
X83197837Y-52219373D01*
X83197834Y-52219376D01*
X83077681Y-52339530D01*
X83016358Y-52373015D01*
X82946666Y-52368031D01*
X82902319Y-52339530D01*
X82782162Y-52219373D01*
X82642860Y-52126295D01*
X82488082Y-52062184D01*
X82488074Y-52062182D01*
X82323771Y-52029500D01*
X82323767Y-52029500D01*
X82156233Y-52029500D01*
X82156228Y-52029500D01*
X81991925Y-52062182D01*
X81991917Y-52062184D01*
X81837139Y-52126295D01*
X81697837Y-52219373D01*
X81579373Y-52337837D01*
X81486295Y-52477139D01*
X81422184Y-52631917D01*
X81422182Y-52631925D01*
X81389500Y-52796228D01*
X73936058Y-52796228D01*
X74062863Y-52743703D01*
X74202162Y-52650626D01*
X74320626Y-52532162D01*
X74413703Y-52392863D01*
X74477816Y-52238082D01*
X74510500Y-52073767D01*
X74510500Y-51906233D01*
X74477816Y-51741918D01*
X74419445Y-51601000D01*
X74413704Y-51587139D01*
X74320626Y-51447837D01*
X74202162Y-51329373D01*
X74062860Y-51236295D01*
X73908082Y-51172184D01*
X73908074Y-51172182D01*
X73743771Y-51139500D01*
X73743767Y-51139500D01*
X73576233Y-51139500D01*
X73576228Y-51139500D01*
X73411925Y-51172182D01*
X73411917Y-51172184D01*
X73257139Y-51236295D01*
X73117837Y-51329373D01*
X72999373Y-51447837D01*
X72906295Y-51587139D01*
X72842184Y-51741917D01*
X72842182Y-51741925D01*
X72809500Y-51906228D01*
X69709587Y-51906228D01*
X69696843Y-51842162D01*
X69692816Y-51821918D01*
X69628703Y-51667137D01*
X69535626Y-51527838D01*
X69530471Y-51522683D01*
X69496985Y-51461364D01*
X69501966Y-51391673D01*
X69530471Y-51347316D01*
X69535626Y-51342162D01*
X69628703Y-51202863D01*
X69692816Y-51048082D01*
X69725500Y-50883767D01*
X69725500Y-50716233D01*
X69692816Y-50551918D01*
X69628703Y-50397137D01*
X69619770Y-50383768D01*
X69552093Y-50282481D01*
X69552085Y-50282471D01*
X69535626Y-50257838D01*
X69524785Y-50246997D01*
X69519882Y-50240626D01*
X69510409Y-50216228D01*
X94319500Y-50216228D01*
X94319500Y-50383771D01*
X94352182Y-50548074D01*
X94352184Y-50548082D01*
X94416295Y-50702859D01*
X94416302Y-50702872D01*
X94435170Y-50731111D01*
X94456047Y-50797789D01*
X94437561Y-50865168D01*
X94435170Y-50868889D01*
X94416302Y-50897127D01*
X94416295Y-50897140D01*
X94352184Y-51051917D01*
X94352182Y-51051925D01*
X94319500Y-51216228D01*
X94319500Y-51383771D01*
X94352182Y-51548074D01*
X94352184Y-51548082D01*
X94416295Y-51702860D01*
X94509373Y-51842162D01*
X94627837Y-51960626D01*
X94666161Y-51986233D01*
X94767137Y-52053703D01*
X94921918Y-52117816D01*
X95086228Y-52150499D01*
X95086232Y-52150500D01*
X95086233Y-52150500D01*
X95253768Y-52150500D01*
X95253769Y-52150499D01*
X95418082Y-52117816D01*
X95572863Y-52053703D01*
X95712162Y-51960626D01*
X95830626Y-51842162D01*
X95923703Y-51702863D01*
X95987816Y-51548082D01*
X96020500Y-51383767D01*
X96020500Y-51216233D01*
X95987816Y-51051918D01*
X95923703Y-50897137D01*
X95904828Y-50868889D01*
X95883951Y-50802214D01*
X95902435Y-50734834D01*
X95904829Y-50731109D01*
X95914769Y-50716233D01*
X95923703Y-50702863D01*
X95987816Y-50548082D01*
X96020500Y-50383767D01*
X96020500Y-50216233D01*
X96020499Y-50216228D01*
X107179500Y-50216228D01*
X107179500Y-50383771D01*
X107212182Y-50548074D01*
X107212184Y-50548082D01*
X107276295Y-50702859D01*
X107276302Y-50702872D01*
X107295170Y-50731111D01*
X107316047Y-50797789D01*
X107297561Y-50865168D01*
X107295170Y-50868889D01*
X107276302Y-50897127D01*
X107276295Y-50897140D01*
X107212184Y-51051917D01*
X107212182Y-51051925D01*
X107179500Y-51216228D01*
X107179500Y-51383771D01*
X107212182Y-51548074D01*
X107212184Y-51548082D01*
X107276295Y-51702860D01*
X107369373Y-51842162D01*
X107487837Y-51960626D01*
X107526161Y-51986233D01*
X107627137Y-52053703D01*
X107781918Y-52117816D01*
X107946228Y-52150499D01*
X107946232Y-52150500D01*
X107946233Y-52150500D01*
X108113768Y-52150500D01*
X108113769Y-52150499D01*
X108278082Y-52117816D01*
X108432863Y-52053703D01*
X108572162Y-51960626D01*
X108690626Y-51842162D01*
X108783703Y-51702863D01*
X108847816Y-51548082D01*
X108880500Y-51383767D01*
X108880500Y-51216233D01*
X108847816Y-51051918D01*
X108783703Y-50897137D01*
X108764828Y-50868889D01*
X108743951Y-50802214D01*
X108762435Y-50734834D01*
X108764829Y-50731109D01*
X108774769Y-50716233D01*
X108783703Y-50702863D01*
X108847816Y-50548082D01*
X108880500Y-50383767D01*
X108880500Y-50216233D01*
X108847816Y-50051918D01*
X108783703Y-49897137D01*
X108752537Y-49850494D01*
X108690626Y-49757837D01*
X108572162Y-49639373D01*
X108432860Y-49546295D01*
X108278082Y-49482184D01*
X108278074Y-49482182D01*
X108113771Y-49449500D01*
X108113767Y-49449500D01*
X107946233Y-49449500D01*
X107946228Y-49449500D01*
X107781925Y-49482182D01*
X107781917Y-49482184D01*
X107627139Y-49546295D01*
X107487837Y-49639373D01*
X107369373Y-49757837D01*
X107276295Y-49897139D01*
X107212184Y-50051917D01*
X107212182Y-50051925D01*
X107179500Y-50216228D01*
X96020499Y-50216228D01*
X95987816Y-50051918D01*
X95923703Y-49897137D01*
X95892537Y-49850494D01*
X95830626Y-49757837D01*
X95712162Y-49639373D01*
X95572860Y-49546295D01*
X95418082Y-49482184D01*
X95418074Y-49482182D01*
X95253771Y-49449500D01*
X95253767Y-49449500D01*
X95086233Y-49449500D01*
X95086228Y-49449500D01*
X94921925Y-49482182D01*
X94921917Y-49482184D01*
X94767139Y-49546295D01*
X94627837Y-49639373D01*
X94509373Y-49757837D01*
X94416295Y-49897139D01*
X94352184Y-50051917D01*
X94352182Y-50051925D01*
X94319500Y-50216228D01*
X69510409Y-50216228D01*
X69510032Y-50215256D01*
X69496985Y-50191364D01*
X69497571Y-50183159D01*
X69494595Y-50175493D01*
X69500025Y-50148823D01*
X69501966Y-50121673D01*
X69507218Y-50113500D01*
X69508536Y-50107028D01*
X69516893Y-50098445D01*
X69530471Y-50077316D01*
X69535626Y-50072162D01*
X69628703Y-49932863D01*
X69692816Y-49778082D01*
X69725500Y-49613767D01*
X69725500Y-49446233D01*
X69692816Y-49281918D01*
X69628703Y-49127137D01*
X69597537Y-49080494D01*
X69535626Y-48987837D01*
X69417162Y-48869373D01*
X69277860Y-48776295D01*
X69123082Y-48712184D01*
X69123074Y-48712182D01*
X68958771Y-48679500D01*
X68958767Y-48679500D01*
X68791233Y-48679500D01*
X68791228Y-48679500D01*
X68626925Y-48712182D01*
X68626917Y-48712184D01*
X68472139Y-48776295D01*
X68332837Y-48869373D01*
X68332834Y-48869376D01*
X68327681Y-48874530D01*
X68266358Y-48908015D01*
X68196666Y-48903031D01*
X68152319Y-48874530D01*
X68147162Y-48869373D01*
X68007860Y-48776295D01*
X67853082Y-48712184D01*
X67853074Y-48712182D01*
X67688771Y-48679500D01*
X67688767Y-48679500D01*
X67521233Y-48679500D01*
X67521228Y-48679500D01*
X67356925Y-48712182D01*
X67356917Y-48712184D01*
X67202139Y-48776295D01*
X67062837Y-48869373D01*
X66944373Y-48987837D01*
X66851295Y-49127139D01*
X66787184Y-49281917D01*
X66787182Y-49281925D01*
X66754500Y-49446228D01*
X51800000Y-49446228D01*
X51800000Y-42100000D01*
X52200000Y-42100000D01*
X52212520Y-42354845D01*
X52212520Y-42354851D01*
X52212521Y-42354853D01*
X52249959Y-42607241D01*
X52311958Y-42854750D01*
X52397905Y-43094957D01*
X52397913Y-43094977D01*
X52507005Y-43325632D01*
X52507007Y-43325635D01*
X52605971Y-43490748D01*
X52638179Y-43544483D01*
X52772465Y-43725547D01*
X52790177Y-43749428D01*
X52961521Y-43938478D01*
X53150571Y-44109822D01*
X53150577Y-44109827D01*
X53355517Y-44261821D01*
X53574368Y-44392995D01*
X53805023Y-44502087D01*
X53805037Y-44502092D01*
X53805042Y-44502094D01*
X53987291Y-44567303D01*
X54045260Y-44588045D01*
X54292765Y-44650042D01*
X54545155Y-44687480D01*
X54800000Y-44700000D01*
X55054845Y-44687480D01*
X55307235Y-44650042D01*
X55554740Y-44588045D01*
X55794977Y-44502087D01*
X56025632Y-44392995D01*
X56203762Y-44286228D01*
X100249500Y-44286228D01*
X100249500Y-44453771D01*
X100282182Y-44618074D01*
X100282184Y-44618082D01*
X100346295Y-44772860D01*
X100439373Y-44912162D01*
X100557837Y-45030626D01*
X100637644Y-45083951D01*
X100697137Y-45123703D01*
X100851918Y-45187816D01*
X101016228Y-45220499D01*
X101016232Y-45220500D01*
X101016233Y-45220500D01*
X101183768Y-45220500D01*
X101183769Y-45220499D01*
X101348082Y-45187816D01*
X101502863Y-45123703D01*
X101531109Y-45104828D01*
X101597786Y-45083951D01*
X101665166Y-45102435D01*
X101668879Y-45104821D01*
X101697137Y-45123703D01*
X101851918Y-45187816D01*
X102016228Y-45220499D01*
X102016232Y-45220500D01*
X102016233Y-45220500D01*
X102183768Y-45220500D01*
X102183769Y-45220499D01*
X102348082Y-45187816D01*
X102502863Y-45123703D01*
X102642162Y-45030626D01*
X102760626Y-44912162D01*
X102853703Y-44772863D01*
X102917816Y-44618082D01*
X102950500Y-44453767D01*
X102950500Y-44329001D01*
X115384500Y-44329001D01*
X115384500Y-45231002D01*
X115387396Y-45285040D01*
X115387397Y-45285041D01*
X115422979Y-45424449D01*
X115422981Y-45424454D01*
X115437332Y-45459099D01*
X115437332Y-45459100D01*
X115489119Y-45553941D01*
X115489122Y-45553944D01*
X115587161Y-45659247D01*
X115587165Y-45659251D01*
X115710893Y-45732663D01*
X115710895Y-45732663D01*
X115710902Y-45732668D01*
X115745550Y-45747020D01*
X115796584Y-45765024D01*
X115883147Y-45777469D01*
X115946702Y-45806493D01*
X115984477Y-45865271D01*
X115989500Y-45900207D01*
X115989500Y-48343771D01*
X116022182Y-48508074D01*
X116022184Y-48508082D01*
X116086295Y-48662860D01*
X116179373Y-48802162D01*
X116183239Y-48806872D01*
X116181968Y-48807914D01*
X116211662Y-48862272D01*
X116214500Y-48888650D01*
X116214500Y-51361349D01*
X116194815Y-51428388D01*
X116183057Y-51442978D01*
X116183239Y-51443128D01*
X116179373Y-51447837D01*
X116086295Y-51587139D01*
X116022184Y-51741917D01*
X116022182Y-51741925D01*
X115989500Y-51906228D01*
X115989500Y-52073771D01*
X116022182Y-52238074D01*
X116022184Y-52238082D01*
X116086295Y-52392860D01*
X116179373Y-52532162D01*
X116297837Y-52650626D01*
X116359736Y-52691985D01*
X116437137Y-52743703D01*
X116591918Y-52807816D01*
X116756228Y-52840499D01*
X116756232Y-52840500D01*
X116756233Y-52840500D01*
X116923768Y-52840500D01*
X116923769Y-52840499D01*
X117088082Y-52807816D01*
X117242863Y-52743703D01*
X117382162Y-52650626D01*
X117500626Y-52532162D01*
X117593703Y-52392863D01*
X117657816Y-52238082D01*
X117690500Y-52073767D01*
X117690500Y-51906233D01*
X117657816Y-51741918D01*
X117599445Y-51601000D01*
X117593704Y-51587139D01*
X117500626Y-51447837D01*
X117496761Y-51443128D01*
X117498028Y-51442087D01*
X117468334Y-51387707D01*
X117465500Y-51361349D01*
X117465500Y-49999001D01*
X127184500Y-49999001D01*
X127184500Y-51601002D01*
X127187396Y-51655040D01*
X127187397Y-51655041D01*
X127222979Y-51794449D01*
X127222981Y-51794454D01*
X127237332Y-51829099D01*
X127237332Y-51829100D01*
X127289119Y-51923941D01*
X127289121Y-51923943D01*
X127289483Y-51924332D01*
X127387161Y-52029247D01*
X127387165Y-52029251D01*
X127510893Y-52102663D01*
X127510895Y-52102663D01*
X127510902Y-52102668D01*
X127545550Y-52117020D01*
X127596584Y-52135024D01*
X127739000Y-52155500D01*
X127739003Y-52155500D01*
X128641002Y-52155500D01*
X128695040Y-52152603D01*
X128834450Y-52117020D01*
X128869098Y-52102668D01*
X128963943Y-52050879D01*
X129069249Y-51952837D01*
X129086162Y-51924332D01*
X129120639Y-51866226D01*
X129171776Y-51818616D01*
X129227280Y-51805500D01*
X133490500Y-51805500D01*
X133557539Y-51825185D01*
X133603294Y-51877989D01*
X133614500Y-51929500D01*
X133614500Y-56190873D01*
X133594815Y-56257912D01*
X133549927Y-56299705D01*
X133496058Y-56329119D01*
X133496055Y-56329122D01*
X133390752Y-56427161D01*
X133390748Y-56427165D01*
X133317336Y-56550893D01*
X133317333Y-56550900D01*
X133302981Y-56585547D01*
X133284975Y-56636587D01*
X133282133Y-56656358D01*
X133264501Y-56778997D01*
X133264500Y-56779001D01*
X133264500Y-57681002D01*
X133267396Y-57735040D01*
X133267397Y-57735041D01*
X133302979Y-57874449D01*
X133302981Y-57874454D01*
X133317332Y-57909099D01*
X133317332Y-57909100D01*
X133369119Y-58003941D01*
X133369122Y-58003944D01*
X133467161Y-58109247D01*
X133467165Y-58109251D01*
X133590893Y-58182663D01*
X133590895Y-58182663D01*
X133590902Y-58182668D01*
X133625550Y-58197020D01*
X133676584Y-58215024D01*
X133819000Y-58235500D01*
X133819003Y-58235500D01*
X135421002Y-58235500D01*
X135475040Y-58232603D01*
X135614450Y-58197020D01*
X135649098Y-58182668D01*
X135743943Y-58130879D01*
X135849249Y-58032837D01*
X135922668Y-57909098D01*
X135937020Y-57874450D01*
X135955024Y-57823416D01*
X135975500Y-57681000D01*
X135975500Y-56779000D01*
X135972603Y-56724960D01*
X135937020Y-56585550D01*
X135922668Y-56550902D01*
X135922667Y-56550900D01*
X135922667Y-56550899D01*
X135870880Y-56456058D01*
X135870877Y-56456055D01*
X135772838Y-56350752D01*
X135772836Y-56350750D01*
X135686225Y-56299360D01*
X135638615Y-56248222D01*
X135625500Y-56192719D01*
X135625500Y-51929500D01*
X135645185Y-51862461D01*
X135697989Y-51816706D01*
X135749500Y-51805500D01*
X140010874Y-51805500D01*
X140077913Y-51825185D01*
X140119705Y-51870072D01*
X140149121Y-51923943D01*
X140149483Y-51924332D01*
X140247161Y-52029247D01*
X140247165Y-52029251D01*
X140370893Y-52102663D01*
X140370895Y-52102663D01*
X140370902Y-52102668D01*
X140405550Y-52117020D01*
X140456584Y-52135024D01*
X140599000Y-52155500D01*
X140599003Y-52155500D01*
X141501002Y-52155500D01*
X141555040Y-52152603D01*
X141694450Y-52117020D01*
X141729098Y-52102668D01*
X141823943Y-52050879D01*
X141929249Y-51952837D01*
X141946165Y-51924328D01*
X141978355Y-51870074D01*
X142002668Y-51829098D01*
X142017020Y-51794450D01*
X142035024Y-51743416D01*
X142055500Y-51601000D01*
X142055500Y-49999000D01*
X142052603Y-49944960D01*
X142017020Y-49805550D01*
X142002668Y-49770902D01*
X142002667Y-49770900D01*
X142002667Y-49770899D01*
X141950880Y-49676058D01*
X141950877Y-49676055D01*
X141852838Y-49570752D01*
X141852834Y-49570748D01*
X141729106Y-49497336D01*
X141729101Y-49497334D01*
X141729098Y-49497332D01*
X141694450Y-49482980D01*
X141643416Y-49464976D01*
X141643414Y-49464975D01*
X141643412Y-49464975D01*
X141535776Y-49449500D01*
X141501000Y-49444500D01*
X140599000Y-49444500D01*
X140598998Y-49444500D01*
X140544959Y-49447396D01*
X140544958Y-49447397D01*
X140405550Y-49482979D01*
X140405545Y-49482981D01*
X140370900Y-49497332D01*
X140370899Y-49497332D01*
X140276058Y-49549119D01*
X140276055Y-49549122D01*
X140170752Y-49647161D01*
X140170748Y-49647165D01*
X140119361Y-49733774D01*
X140068224Y-49781384D01*
X140012720Y-49794500D01*
X135749500Y-49794500D01*
X135682461Y-49774815D01*
X135636706Y-49722011D01*
X135625500Y-49670500D01*
X135625500Y-45409126D01*
X135645185Y-45342087D01*
X135690072Y-45300294D01*
X135743943Y-45270879D01*
X135849249Y-45172837D01*
X135922668Y-45049098D01*
X135937020Y-45014450D01*
X135955024Y-44963416D01*
X135975500Y-44821000D01*
X135975500Y-43919000D01*
X135972603Y-43864960D01*
X135937020Y-43725550D01*
X135922668Y-43690902D01*
X135922667Y-43690900D01*
X135922667Y-43690899D01*
X135870880Y-43596058D01*
X135870877Y-43596055D01*
X135772838Y-43490752D01*
X135772834Y-43490748D01*
X135649106Y-43417336D01*
X135649101Y-43417334D01*
X135649098Y-43417332D01*
X135614450Y-43402980D01*
X135563416Y-43384976D01*
X135563414Y-43384975D01*
X135563412Y-43384975D01*
X135478477Y-43372763D01*
X135421000Y-43364500D01*
X133819000Y-43364500D01*
X133818998Y-43364500D01*
X133764959Y-43367396D01*
X133764958Y-43367397D01*
X133625550Y-43402979D01*
X133625545Y-43402981D01*
X133590900Y-43417332D01*
X133590899Y-43417332D01*
X133496058Y-43469119D01*
X133496055Y-43469122D01*
X133390752Y-43567161D01*
X133390748Y-43567165D01*
X133317336Y-43690893D01*
X133317333Y-43690900D01*
X133302981Y-43725547D01*
X133284975Y-43776587D01*
X133277679Y-43827336D01*
X133264501Y-43918997D01*
X133264500Y-43919001D01*
X133264500Y-44821002D01*
X133267396Y-44875040D01*
X133267397Y-44875041D01*
X133302979Y-45014449D01*
X133302981Y-45014454D01*
X133317332Y-45049099D01*
X133317332Y-45049100D01*
X133369119Y-45143941D01*
X133369122Y-45143944D01*
X133467161Y-45249247D01*
X133467165Y-45249251D01*
X133553774Y-45300639D01*
X133601384Y-45351776D01*
X133614500Y-45407280D01*
X133614500Y-49670500D01*
X133594815Y-49737539D01*
X133542011Y-49783294D01*
X133490500Y-49794500D01*
X129229126Y-49794500D01*
X129162087Y-49774815D01*
X129120294Y-49729927D01*
X129090879Y-49676057D01*
X128992837Y-49570751D01*
X128992834Y-49570748D01*
X128869106Y-49497336D01*
X128869101Y-49497334D01*
X128869098Y-49497332D01*
X128834450Y-49482980D01*
X128783416Y-49464976D01*
X128783414Y-49464975D01*
X128783412Y-49464975D01*
X128675776Y-49449500D01*
X128641000Y-49444500D01*
X127739000Y-49444500D01*
X127738998Y-49444500D01*
X127684959Y-49447396D01*
X127684958Y-49447397D01*
X127545550Y-49482979D01*
X127545545Y-49482981D01*
X127510900Y-49497332D01*
X127510899Y-49497332D01*
X127416058Y-49549119D01*
X127416055Y-49549122D01*
X127310752Y-49647161D01*
X127310748Y-49647165D01*
X127237336Y-49770893D01*
X127237333Y-49770900D01*
X127222981Y-49805547D01*
X127204975Y-49856587D01*
X127199145Y-49897137D01*
X127184501Y-49998997D01*
X127184500Y-49999001D01*
X117465500Y-49999001D01*
X117465500Y-48888650D01*
X117485185Y-48821611D01*
X117496943Y-48807021D01*
X117496761Y-48806872D01*
X117500626Y-48802162D01*
X117593703Y-48662863D01*
X117657816Y-48508082D01*
X117690500Y-48343767D01*
X117690500Y-48176233D01*
X117690500Y-45905068D01*
X117710185Y-45838029D01*
X117762989Y-45792274D01*
X117789222Y-45784445D01*
X117789137Y-45784110D01*
X117869819Y-45763516D01*
X117934450Y-45747020D01*
X117969098Y-45732668D01*
X118063943Y-45680879D01*
X118169249Y-45582837D01*
X118242668Y-45459098D01*
X118257020Y-45424450D01*
X118275024Y-45373416D01*
X118295500Y-45231000D01*
X118295500Y-44329000D01*
X118292603Y-44274960D01*
X118257020Y-44135550D01*
X118242668Y-44100902D01*
X118242667Y-44100900D01*
X118242667Y-44100899D01*
X118190880Y-44006058D01*
X118190877Y-44006055D01*
X118154645Y-43967139D01*
X118092837Y-43900751D01*
X118092834Y-43900748D01*
X117969106Y-43827336D01*
X117969101Y-43827334D01*
X117969098Y-43827332D01*
X117934450Y-43812980D01*
X117883416Y-43794976D01*
X117883414Y-43794975D01*
X117883412Y-43794975D01*
X117798477Y-43782763D01*
X117741000Y-43774500D01*
X115939000Y-43774500D01*
X115938998Y-43774500D01*
X115884959Y-43777396D01*
X115884958Y-43777397D01*
X115745550Y-43812979D01*
X115745545Y-43812981D01*
X115710900Y-43827332D01*
X115710899Y-43827332D01*
X115616058Y-43879119D01*
X115616055Y-43879122D01*
X115510752Y-43977161D01*
X115510748Y-43977165D01*
X115437336Y-44100893D01*
X115437333Y-44100900D01*
X115422981Y-44135547D01*
X115404975Y-44186587D01*
X115394159Y-44261821D01*
X115384501Y-44328997D01*
X115384500Y-44329001D01*
X102950500Y-44329001D01*
X102950500Y-44286233D01*
X102917816Y-44121918D01*
X102853703Y-43967137D01*
X102794893Y-43879122D01*
X102760626Y-43827837D01*
X102642162Y-43709373D01*
X102502860Y-43616295D01*
X102348082Y-43552184D01*
X102348074Y-43552182D01*
X102183771Y-43519500D01*
X102183767Y-43519500D01*
X102016233Y-43519500D01*
X102016228Y-43519500D01*
X101851925Y-43552182D01*
X101851917Y-43552184D01*
X101697140Y-43616295D01*
X101697127Y-43616302D01*
X101668889Y-43635170D01*
X101602211Y-43656047D01*
X101534832Y-43637561D01*
X101531111Y-43635170D01*
X101502872Y-43616302D01*
X101502859Y-43616295D01*
X101348082Y-43552184D01*
X101348074Y-43552182D01*
X101183771Y-43519500D01*
X101183767Y-43519500D01*
X101016233Y-43519500D01*
X101016228Y-43519500D01*
X100851925Y-43552182D01*
X100851917Y-43552184D01*
X100697139Y-43616295D01*
X100557837Y-43709373D01*
X100439373Y-43827837D01*
X100346295Y-43967139D01*
X100282184Y-44121917D01*
X100282182Y-44121925D01*
X100249500Y-44286228D01*
X56203762Y-44286228D01*
X56244483Y-44261821D01*
X56449423Y-44109827D01*
X56638478Y-43938478D01*
X56809827Y-43749423D01*
X56961821Y-43544483D01*
X57092995Y-43325632D01*
X57202087Y-43094977D01*
X57288045Y-42854740D01*
X57350042Y-42607235D01*
X57387480Y-42354845D01*
X57400000Y-42100000D01*
X143260000Y-42100000D01*
X143272520Y-42354845D01*
X143272520Y-42354851D01*
X143272521Y-42354853D01*
X143309959Y-42607241D01*
X143371958Y-42854750D01*
X143457905Y-43094957D01*
X143457913Y-43094977D01*
X143567005Y-43325632D01*
X143567007Y-43325635D01*
X143665971Y-43490748D01*
X143698179Y-43544483D01*
X143832465Y-43725547D01*
X143850177Y-43749428D01*
X144021521Y-43938478D01*
X144210571Y-44109822D01*
X144210577Y-44109827D01*
X144415517Y-44261821D01*
X144634368Y-44392995D01*
X144865023Y-44502087D01*
X144865037Y-44502092D01*
X144865042Y-44502094D01*
X145047291Y-44567303D01*
X145105260Y-44588045D01*
X145352765Y-44650042D01*
X145605155Y-44687480D01*
X145860000Y-44700000D01*
X146114845Y-44687480D01*
X146367235Y-44650042D01*
X146614740Y-44588045D01*
X146854977Y-44502087D01*
X147085632Y-44392995D01*
X147304483Y-44261821D01*
X147509423Y-44109827D01*
X147698478Y-43938478D01*
X147869827Y-43749423D01*
X148021821Y-43544483D01*
X148152995Y-43325632D01*
X148262087Y-43094977D01*
X148348045Y-42854740D01*
X148410042Y-42607235D01*
X148447480Y-42354845D01*
X148460000Y-42100000D01*
X148447480Y-41845155D01*
X148410042Y-41592765D01*
X148348045Y-41345260D01*
X148262087Y-41105023D01*
X148152995Y-40874368D01*
X148021821Y-40655517D01*
X147869827Y-40450577D01*
X147869822Y-40450571D01*
X147698478Y-40261521D01*
X147509428Y-40090177D01*
X147304480Y-39938177D01*
X147085635Y-39807007D01*
X147085636Y-39807007D01*
X147085632Y-39807005D01*
X146854977Y-39697913D01*
X146854957Y-39697905D01*
X146614750Y-39611958D01*
X146614744Y-39611956D01*
X146614740Y-39611955D01*
X146491963Y-39581200D01*
X146367241Y-39549959D01*
X146367236Y-39549958D01*
X146367235Y-39549958D01*
X146273662Y-39536078D01*
X146114853Y-39512521D01*
X146114851Y-39512520D01*
X146114845Y-39512520D01*
X145860000Y-39500000D01*
X145605155Y-39512520D01*
X145605149Y-39512520D01*
X145605146Y-39512521D01*
X145352758Y-39549959D01*
X145165916Y-39596761D01*
X145105260Y-39611955D01*
X145105257Y-39611955D01*
X145105249Y-39611958D01*
X144865042Y-39697905D01*
X144865022Y-39697913D01*
X144634364Y-39807007D01*
X144415519Y-39938177D01*
X144210571Y-40090177D01*
X144021521Y-40261521D01*
X143850177Y-40450571D01*
X143698177Y-40655519D01*
X143567007Y-40874364D01*
X143457913Y-41105022D01*
X143457905Y-41105042D01*
X143371958Y-41345249D01*
X143309959Y-41592758D01*
X143309958Y-41592765D01*
X143272520Y-41845155D01*
X143260000Y-42100000D01*
X57400000Y-42100000D01*
X57387480Y-41845155D01*
X57350042Y-41592765D01*
X57288045Y-41345260D01*
X57202087Y-41105023D01*
X57092995Y-40874368D01*
X56961821Y-40655517D01*
X56809827Y-40450577D01*
X56809822Y-40450571D01*
X56638478Y-40261521D01*
X56449428Y-40090177D01*
X56244480Y-39938177D01*
X56025635Y-39807007D01*
X56025636Y-39807007D01*
X56025632Y-39807005D01*
X55794977Y-39697913D01*
X55794957Y-39697905D01*
X55554750Y-39611958D01*
X55554744Y-39611956D01*
X55554740Y-39611955D01*
X55431963Y-39581200D01*
X55307241Y-39549959D01*
X55307236Y-39549958D01*
X55307235Y-39549958D01*
X55213662Y-39536078D01*
X55054853Y-39512521D01*
X55054851Y-39512520D01*
X55054845Y-39512520D01*
X54800000Y-39500000D01*
X54545155Y-39512520D01*
X54545149Y-39512520D01*
X54545146Y-39512521D01*
X54292758Y-39549959D01*
X54105916Y-39596761D01*
X54045260Y-39611955D01*
X54045257Y-39611955D01*
X54045249Y-39611958D01*
X53805042Y-39697905D01*
X53805022Y-39697913D01*
X53574364Y-39807007D01*
X53355519Y-39938177D01*
X53150571Y-40090177D01*
X52961521Y-40261521D01*
X52790177Y-40450571D01*
X52638177Y-40655519D01*
X52507007Y-40874364D01*
X52397913Y-41105022D01*
X52397905Y-41105042D01*
X52311958Y-41345249D01*
X52249959Y-41592758D01*
X52249958Y-41592765D01*
X52212520Y-41845155D01*
X52200000Y-42100000D01*
X51800000Y-42100000D01*
X51800000Y-39224000D01*
X51819685Y-39156961D01*
X51872489Y-39111206D01*
X51924000Y-39100000D01*
X148736000Y-39100000D01*
X148803039Y-39119685D01*
G37*
%TD.AperFunction*%
M02*
