%TF.GenerationSoftware,KiCad,Pcbnew,9.0.9-9.0.9~ubuntu24.04.1*%
%TF.ProjectId,DC-A,44432d41-2e6b-4696-9361-645f70636258,C*%
%TF.SameCoordinates,Original*%
%TF.FileFunction,Soldermask,Bot*%
%TF.FilePolarity,Negative*%
%FSLAX46Y46*%
G04 Gerber Fmt 4.6, Leading zero omitted, Abs format (unit mm)*
%MOMM*%
%LPD*%
G01*
G04 APERTURE LIST*
G04 Aperture macros list*
%AMFreePoly0*
4,1,5,1.400000,-2.500000,-1.400000,-2.500000,-1.400000,2.500000,1.400000,2.500000,1.400000,-2.500000,1.400000,-2.500000,$1*%
%AMFreePoly1*
4,1,5,1.500000,-1.500000,-1.500000,-1.500000,-1.500000,1.500000,1.500000,1.500000,1.500000,-1.500000,1.500000,-1.500000,$1*%
G04 Aperture macros list end*
%ADD10R,1.600000X1.600000*%
%ADD11R,2.000000X2.000000*%
%ADD12C,1.600000*%
%ADD13FreePoly0,0.000000*%
%ADD14R,2.000000X5.000000*%
%ADD15FreePoly1,0.000000*%
%ADD16C,3.200000*%
G04 APERTURE END LIST*
D10*
%TO.C,VDPB3_A*%
X144780000Y-68580000D03*
%TD*%
%TO.C,VDPB3_B*%
X139700000Y-63500000D03*
%TD*%
%TO.C,VDPB3_C*%
X134620000Y-68580000D03*
%TD*%
%TO.C,VDPB3_D*%
X139700000Y-73660000D03*
%TD*%
D11*
%TO.C,PM_FP*%
X55880000Y-96520000D03*
%TD*%
%TO.C,PM_FM*%
X111760000Y-96520000D03*
%TD*%
D12*
%TO.C,PM_T11*%
X68580000Y-81280000D03*
%TD*%
%TO.C,PM_T12*%
X76200000Y-81280000D03*
%TD*%
%TO.C,PM_T13*%
X83820000Y-81280000D03*
%TD*%
%TO.C,PM_T14*%
X91440000Y-81280000D03*
%TD*%
%TO.C,PM_T15*%
X99060000Y-81280000D03*
%TD*%
%TO.C,PM_T21*%
X68580000Y-88900000D03*
%TD*%
%TO.C,PM_T22*%
X76200000Y-88900000D03*
%TD*%
%TO.C,PM_T23*%
X83820000Y-88900000D03*
%TD*%
%TO.C,PM_T24*%
X91440000Y-88900000D03*
%TD*%
%TO.C,PM_T25*%
X99060000Y-88900000D03*
%TD*%
%TO.C,PM_T31*%
X68580000Y-96520000D03*
%TD*%
%TO.C,PM_T32*%
X76200000Y-96520000D03*
%TD*%
%TO.C,PM_T33*%
X83820000Y-96520000D03*
%TD*%
%TO.C,PM_T34*%
X91440000Y-96520000D03*
%TD*%
%TO.C,PM_T35*%
X99060000Y-96520000D03*
%TD*%
%TO.C,PM_T41*%
X68580000Y-104140000D03*
%TD*%
%TO.C,PM_T42*%
X76200000Y-104140000D03*
%TD*%
%TO.C,PM_T43*%
X83820000Y-104140000D03*
%TD*%
%TO.C,PM_T44*%
X91440000Y-104140000D03*
%TD*%
%TO.C,PM_T45*%
X99060000Y-104140000D03*
%TD*%
%TO.C,PM_T51*%
X68580000Y-111760000D03*
%TD*%
%TO.C,PM_T52*%
X76200000Y-111760000D03*
%TD*%
%TO.C,PM_T53*%
X83820000Y-111760000D03*
%TD*%
%TO.C,PM_T54*%
X91440000Y-111760000D03*
%TD*%
%TO.C,PM_T55*%
X99060000Y-111760000D03*
%TD*%
D10*
%TO.C,VDPB1_A*%
X127000000Y-83820000D03*
%TD*%
%TO.C,VDPB1_B*%
X121920000Y-78740000D03*
%TD*%
%TO.C,VDPB1_C*%
X116840000Y-83820000D03*
%TD*%
%TO.C,VDPB1_D*%
X121920000Y-88900000D03*
%TD*%
%TO.C,VDPB2_A*%
X127000000Y-99060000D03*
%TD*%
%TO.C,VDPB2_B*%
X121920000Y-93980000D03*
%TD*%
%TO.C,VDPB2_C*%
X116840000Y-99060000D03*
%TD*%
%TO.C,VDPB2_D*%
X121920000Y-104140000D03*
%TD*%
D11*
%TO.C,RTD_FP*%
X132080000Y-78740000D03*
%TD*%
D10*
%TO.C,RTD_SP*%
X137160000Y-78740000D03*
%TD*%
D11*
%TO.C,RTD_FM*%
X132080000Y-88900000D03*
%TD*%
D10*
%TO.C,RTD_SM*%
X137160000Y-88900000D03*
%TD*%
D13*
%TO.C,RTD_W1*%
X134260000Y-83820000D03*
%TD*%
D10*
%TO.C,VDPB4_A*%
X142240000Y-101600000D03*
%TD*%
%TO.C,VDPB4_B*%
X137160000Y-96520000D03*
%TD*%
%TO.C,VDPB4_C*%
X132080000Y-101600000D03*
%TD*%
%TO.C,VDPB4_D*%
X137160000Y-106680000D03*
%TD*%
D11*
%TO.C,BRB050X_FP*%
X116840000Y-114300000D03*
%TD*%
%TO.C,BRB050X_FM*%
X142240000Y-114300000D03*
%TD*%
D10*
%TO.C,BRB050X_SP*%
X121920000Y-111760000D03*
%TD*%
%TO.C,BRB050X_SM*%
X137160000Y-111760000D03*
%TD*%
D14*
%TO.C,SL1B_FP*%
X55880000Y-124460000D03*
%TD*%
%TO.C,SL1B_FM*%
X93980000Y-124460000D03*
%TD*%
D10*
%TO.C,SL1B_SP*%
X68580000Y-119380000D03*
%TD*%
%TO.C,SL1B_SM*%
X81280000Y-119380000D03*
%TD*%
D14*
%TO.C,BRB500X_FP*%
X99060000Y-124460000D03*
%TD*%
%TO.C,BRB500X_FM*%
X134620000Y-124460000D03*
%TD*%
D10*
%TO.C,BRB500X_SP*%
X111760000Y-119380000D03*
%TD*%
%TO.C,BRB500X_SM*%
X121920000Y-119380000D03*
%TD*%
D15*
%TO.C,TK1_W2*%
X145300000Y-55400000D03*
%TD*%
%TO.C,TK2_W2*%
X140800000Y-126100000D03*
%TD*%
%TO.C,TK3_W2*%
X61300000Y-131400000D03*
%TD*%
D16*
%TO.C,H1*%
X54800000Y-42100000D03*
%TD*%
%TO.C,H2*%
X145860000Y-42100000D03*
%TD*%
%TO.C,H3*%
X54800000Y-133160000D03*
%TD*%
%TO.C,H4*%
X145860000Y-133160000D03*
%TD*%
M02*
