%TF.GenerationSoftware,KiCad,Pcbnew,9.0.9-9.0.9~ubuntu24.04.1*%
%TF.ProjectId,DC-A,44432d41-2e6b-4696-9361-645f70636258,C*%
%TF.SameCoordinates,Original*%
%TF.FileFunction,Copper,L2,Bot*%
%TF.FilePolarity,Positive*%
%FSLAX46Y46*%
G04 Gerber Fmt 4.6, Leading zero omitted, Abs format (unit mm)*
%MOMM*%
%LPD*%
G01*
G04 APERTURE LIST*
G04 Aperture macros list*
%AMFreePoly0*
4,1,5,1.400000,-2.500000,-1.400000,-2.500000,-1.400000,2.500000,1.400000,2.500000,1.400000,-2.500000,1.400000,-2.500000,$1*%
%AMFreePoly1*
4,1,5,1.500000,-1.500000,-1.500000,-1.500000,-1.500000,1.500000,1.500000,1.500000,1.500000,-1.500000,1.500000,-1.500000,$1*%
G04 Aperture macros list end*
%TA.AperFunction,SMDPad,CuDef*%
%ADD10R,1.600000X1.600000*%
%TD*%
%TA.AperFunction,SMDPad,CuDef*%
%ADD11R,2.000000X2.000000*%
%TD*%
%TA.AperFunction,SMDPad,CuDef*%
%ADD12C,1.600000*%
%TD*%
%TA.AperFunction,SMDPad,CuDef*%
%ADD13FreePoly0,0.000000*%
%TD*%
%TA.AperFunction,SMDPad,CuDef*%
%ADD14R,2.000000X5.000000*%
%TD*%
%TA.AperFunction,SMDPad,CuDef*%
%ADD15FreePoly1,0.000000*%
%TD*%
%TA.AperFunction,ViaPad*%
%ADD16C,0.750000*%
%TD*%
%TA.AperFunction,ViaPad*%
%ADD17C,1.000000*%
%TD*%
%TA.AperFunction,Conductor*%
%ADD18C,0.250000*%
%TD*%
%TA.AperFunction,Conductor*%
%ADD19C,0.750000*%
%TD*%
%TA.AperFunction,Conductor*%
%ADD20C,1.000000*%
%TD*%
G04 APERTURE END LIST*
D10*
%TO.P,VDPB3_A,1*%
%TO.N,VDP-B3*%
X144780000Y-68580000D03*
%TD*%
%TO.P,VDPB3_B,1*%
%TO.N,VDP-B3*%
X139700000Y-63500000D03*
%TD*%
%TO.P,VDPB3_C,1*%
%TO.N,VDP-B3*%
X134620000Y-68580000D03*
%TD*%
%TO.P,VDPB3_D,1*%
%TO.N,VDP-B3*%
X139700000Y-73660000D03*
%TD*%
D11*
%TO.P,PM_FP,1*%
%TO.N,PM*%
X55880000Y-96520000D03*
%TD*%
%TO.P,PM_FM,1*%
%TO.N,PM*%
X111760000Y-96520000D03*
%TD*%
D12*
%TO.P,PM_T11,1*%
%TO.N,PM*%
X68580000Y-81280000D03*
%TD*%
%TO.P,PM_T12,1*%
%TO.N,PM*%
X76200000Y-81280000D03*
%TD*%
%TO.P,PM_T13,1*%
%TO.N,PM*%
X83820000Y-81280000D03*
%TD*%
%TO.P,PM_T14,1*%
%TO.N,PM*%
X91440000Y-81280000D03*
%TD*%
%TO.P,PM_T15,1*%
%TO.N,PM*%
X99060000Y-81280000D03*
%TD*%
%TO.P,PM_T21,1*%
%TO.N,PM*%
X68580000Y-88900000D03*
%TD*%
%TO.P,PM_T22,1*%
%TO.N,PM*%
X76200000Y-88900000D03*
%TD*%
%TO.P,PM_T23,1*%
%TO.N,PM*%
X83820000Y-88900000D03*
%TD*%
%TO.P,PM_T24,1*%
%TO.N,PM*%
X91440000Y-88900000D03*
%TD*%
%TO.P,PM_T25,1*%
%TO.N,PM*%
X99060000Y-88900000D03*
%TD*%
%TO.P,PM_T31,1*%
%TO.N,PM*%
X68580000Y-96520000D03*
%TD*%
%TO.P,PM_T32,1*%
%TO.N,PM*%
X76200000Y-96520000D03*
%TD*%
%TO.P,PM_T33,1*%
%TO.N,PM*%
X83820000Y-96520000D03*
%TD*%
%TO.P,PM_T34,1*%
%TO.N,PM*%
X91440000Y-96520000D03*
%TD*%
%TO.P,PM_T35,1*%
%TO.N,PM*%
X99060000Y-96520000D03*
%TD*%
%TO.P,PM_T41,1*%
%TO.N,PM*%
X68580000Y-104140000D03*
%TD*%
%TO.P,PM_T42,1*%
%TO.N,PM*%
X76200000Y-104140000D03*
%TD*%
%TO.P,PM_T43,1*%
%TO.N,PM*%
X83820000Y-104140000D03*
%TD*%
%TO.P,PM_T44,1*%
%TO.N,PM*%
X91440000Y-104140000D03*
%TD*%
%TO.P,PM_T45,1*%
%TO.N,PM*%
X99060000Y-104140000D03*
%TD*%
%TO.P,PM_T51,1*%
%TO.N,PM*%
X68580000Y-111760000D03*
%TD*%
%TO.P,PM_T52,1*%
%TO.N,PM*%
X76200000Y-111760000D03*
%TD*%
%TO.P,PM_T53,1*%
%TO.N,PM*%
X83820000Y-111760000D03*
%TD*%
%TO.P,PM_T54,1*%
%TO.N,PM*%
X91440000Y-111760000D03*
%TD*%
%TO.P,PM_T55,1*%
%TO.N,PM*%
X99060000Y-111760000D03*
%TD*%
D10*
%TO.P,VDPB1_A,1*%
%TO.N,VDP-B1*%
X127000000Y-83820000D03*
%TD*%
%TO.P,VDPB1_B,1*%
%TO.N,VDP-B1*%
X121920000Y-78740000D03*
%TD*%
%TO.P,VDPB1_C,1*%
%TO.N,VDP-B1*%
X116840000Y-83820000D03*
%TD*%
%TO.P,VDPB1_D,1*%
%TO.N,VDP-B1*%
X121920000Y-88900000D03*
%TD*%
%TO.P,VDPB2_A,1*%
%TO.N,VDP-B2*%
X127000000Y-99060000D03*
%TD*%
%TO.P,VDPB2_B,1*%
%TO.N,VDP-B2*%
X121920000Y-93980000D03*
%TD*%
%TO.P,VDPB2_C,1*%
%TO.N,VDP-B2*%
X116840000Y-99060000D03*
%TD*%
%TO.P,VDPB2_D,1*%
%TO.N,VDP-B2*%
X121920000Y-104140000D03*
%TD*%
D11*
%TO.P,RTD_FP,1*%
%TO.N,RTD*%
X132080000Y-78740000D03*
%TD*%
D10*
%TO.P,RTD_SP,1*%
%TO.N,RTD*%
X137160000Y-78740000D03*
%TD*%
D11*
%TO.P,RTD_FM,1*%
%TO.N,RTD*%
X132080000Y-88900000D03*
%TD*%
D10*
%TO.P,RTD_SM,1*%
%TO.N,RTD*%
X137160000Y-88900000D03*
%TD*%
D13*
%TO.P,RTD_W1,1*%
%TO.N,N/C*%
X134260000Y-83820000D03*
%TD*%
D10*
%TO.P,VDPB4_A,1*%
%TO.N,VDP-B4*%
X142240000Y-101600000D03*
%TD*%
%TO.P,VDPB4_B,1*%
%TO.N,VDP-B4*%
X137160000Y-96520000D03*
%TD*%
%TO.P,VDPB4_C,1*%
%TO.N,VDP-B4*%
X132080000Y-101600000D03*
%TD*%
%TO.P,VDPB4_D,1*%
%TO.N,VDP-B4*%
X137160000Y-106680000D03*
%TD*%
D11*
%TO.P,BRB050X_FP,1*%
%TO.N,BR-B-050X*%
X116840000Y-114300000D03*
%TD*%
%TO.P,BRB050X_FM,1*%
%TO.N,BR-B-050X*%
X142240000Y-114300000D03*
%TD*%
D10*
%TO.P,BRB050X_SP,1*%
%TO.N,BR-B-050X*%
X121920000Y-111760000D03*
%TD*%
%TO.P,BRB050X_SM,1*%
%TO.N,BR-B-050X*%
X137160000Y-111760000D03*
%TD*%
D14*
%TO.P,SL1B_FP,1*%
%TO.N,SL1-B*%
X55880000Y-124460000D03*
%TD*%
%TO.P,SL1B_FM,1*%
%TO.N,SL1-B*%
X93980000Y-124460000D03*
%TD*%
D10*
%TO.P,SL1B_SP,1*%
%TO.N,SL1-B*%
X68580000Y-119380000D03*
%TD*%
%TO.P,SL1B_SM,1*%
%TO.N,SL1-B*%
X81280000Y-119380000D03*
%TD*%
D14*
%TO.P,BRB500X_FP,1*%
%TO.N,BR-B-500X*%
X99060000Y-124460000D03*
%TD*%
%TO.P,BRB500X_FM,1*%
%TO.N,BR-B-500X*%
X134620000Y-124460000D03*
%TD*%
D10*
%TO.P,BRB500X_SP,1*%
%TO.N,BR-B-500X*%
X111760000Y-119380000D03*
%TD*%
%TO.P,BRB500X_SM,1*%
%TO.N,BR-B-500X*%
X121920000Y-119380000D03*
%TD*%
D15*
%TO.P,TK1_W2,1*%
%TO.N,N/C*%
X145300000Y-55400000D03*
%TD*%
%TO.P,TK2_W2,1*%
%TO.N,N/C*%
X140800000Y-126100000D03*
%TD*%
%TO.P,TK3_W2,1*%
%TO.N,N/C*%
X61300000Y-131400000D03*
%TD*%
D16*
%TO.N,VA1*%
X68580000Y-50800000D03*
X79680000Y-51850000D03*
X79680000Y-50800000D03*
X79680000Y-49750000D03*
X72260000Y-50800000D03*
%TO.N,VA4*%
X98560000Y-50300000D03*
X98560000Y-51300000D03*
X99560000Y-50300000D03*
X99560000Y-51300000D03*
X110160000Y-51850000D03*
X110160000Y-50800000D03*
X110160000Y-49750000D03*
X102740000Y-50800000D03*
%TO.N,VA8*%
X129040000Y-49300000D03*
X129040000Y-50300000D03*
X129040000Y-51300000D03*
X129040000Y-52300000D03*
X130040000Y-49300000D03*
X130040000Y-50300000D03*
X130040000Y-51300000D03*
X130040000Y-52300000D03*
X140640000Y-51850000D03*
X140640000Y-50800000D03*
X140640000Y-49750000D03*
X133220000Y-50800000D03*
%TO.N,KV-030*%
X60960000Y-66040000D03*
X61485000Y-62560000D03*
X60435000Y-62560000D03*
X60960000Y-69720000D03*
D17*
%TO.N,KV-050*%
X78740000Y-66040000D03*
D16*
X79265000Y-62560000D03*
X78215000Y-62560000D03*
X78740000Y-69720000D03*
%TO.N,DC-030W*%
X99060000Y-63500000D03*
X100330000Y-63500000D03*
X101600000Y-63500000D03*
X102870000Y-63500000D03*
X104140000Y-63500000D03*
X105410000Y-63500000D03*
X106680000Y-63500000D03*
X107950000Y-63500000D03*
X109220000Y-63500000D03*
X110490000Y-63500000D03*
X111760000Y-63500000D03*
X113030000Y-63500000D03*
X114300000Y-63500000D03*
X115570000Y-63500000D03*
X116840000Y-63500000D03*
X118110000Y-63500000D03*
X119380000Y-63500000D03*
X120650000Y-63500000D03*
X121920000Y-63500000D03*
X123190000Y-63500000D03*
D17*
%TO.N,DC-050W*%
X99060000Y-71120000D03*
X100330000Y-71120000D03*
X101600000Y-71120000D03*
X102870000Y-71120000D03*
X104140000Y-71120000D03*
X105410000Y-71120000D03*
X106680000Y-71120000D03*
X107950000Y-71120000D03*
X109220000Y-71120000D03*
X110490000Y-71120000D03*
X111760000Y-71120000D03*
X113030000Y-71120000D03*
X114300000Y-71120000D03*
X115570000Y-71120000D03*
X116840000Y-71120000D03*
X118110000Y-71120000D03*
X119380000Y-71120000D03*
X120650000Y-71120000D03*
X121920000Y-71120000D03*
X123190000Y-71120000D03*
D16*
%TO.N,*%
X146100000Y-45400000D03*
X146100000Y-47400000D03*
D17*
X146100000Y-49400000D03*
X146100000Y-51400000D03*
%TD*%
D18*
%TO.N,VA1*%
X72260000Y-50800000D02*
X71485000Y-50800000D01*
%TO.N,VA4*%
X102740000Y-50800000D02*
X101965000Y-50800000D01*
%TO.N,VA8*%
X133220000Y-50800000D02*
X132445000Y-50800000D01*
D19*
%TO.N,KV-030*%
X60960000Y-66040000D02*
X60960000Y-62560000D01*
D18*
X60960000Y-66040000D02*
X60960000Y-69720000D01*
D20*
%TO.N,KV-050*%
X78740000Y-66040000D02*
X78740000Y-62560000D01*
D18*
X78740000Y-66040000D02*
X78740000Y-69720000D01*
D19*
%TO.N,DC-030W*%
X99060000Y-63500000D02*
X100330000Y-63500000D01*
X101600000Y-63500000D02*
X102870000Y-63500000D01*
X104140000Y-63500000D02*
X105410000Y-63500000D01*
X106680000Y-63500000D02*
X107950000Y-63500000D01*
X109220000Y-63500000D02*
X110490000Y-63500000D01*
X111760000Y-63500000D02*
X113030000Y-63500000D01*
X114300000Y-63500000D02*
X115570000Y-63500000D01*
X116840000Y-63500000D02*
X118110000Y-63500000D01*
X119380000Y-63500000D02*
X120650000Y-63500000D01*
X121920000Y-63500000D02*
X123190000Y-63500000D01*
D20*
%TO.N,DC-050W*%
X99060000Y-71120000D02*
X100330000Y-71120000D01*
X101600000Y-71120000D02*
X102870000Y-71120000D01*
X104140000Y-71120000D02*
X105410000Y-71120000D01*
X106680000Y-71120000D02*
X107950000Y-71120000D01*
X109220000Y-71120000D02*
X110490000Y-71120000D01*
X111760000Y-71120000D02*
X113030000Y-71120000D01*
X114300000Y-71120000D02*
X115570000Y-71120000D01*
X116840000Y-71120000D02*
X118110000Y-71120000D01*
X119380000Y-71120000D02*
X120650000Y-71120000D01*
X121920000Y-71120000D02*
X123190000Y-71120000D01*
D18*
%TO.N,PM*%
X68580000Y-81280000D02*
X68580000Y-80030000D01*
X76200000Y-81280000D02*
X76200000Y-80030000D01*
X83820000Y-81280000D02*
X83820000Y-80030000D01*
X91440000Y-81280000D02*
X91440000Y-80030000D01*
X99060000Y-81280000D02*
X99060000Y-80030000D01*
X68580000Y-88900000D02*
X68580000Y-87650000D01*
X76200000Y-88900000D02*
X76200000Y-87650000D01*
X83820000Y-88900000D02*
X83820000Y-87650000D01*
X91440000Y-88900000D02*
X91440000Y-87650000D01*
X99060000Y-88900000D02*
X99060000Y-87650000D01*
X68580000Y-96520000D02*
X68580000Y-95270000D01*
X76200000Y-96520000D02*
X76200000Y-95270000D01*
X83820000Y-96520000D02*
X83820000Y-95270000D01*
X91440000Y-96520000D02*
X91440000Y-95270000D01*
X99060000Y-96520000D02*
X99060000Y-95270000D01*
X68580000Y-104140000D02*
X68580000Y-105390000D01*
X76200000Y-104140000D02*
X76200000Y-105390000D01*
X83820000Y-104140000D02*
X83820000Y-105390000D01*
X91440000Y-104140000D02*
X91440000Y-105390000D01*
X99060000Y-104140000D02*
X99060000Y-105390000D01*
X68580000Y-111760000D02*
X68580000Y-113010000D01*
X76200000Y-111760000D02*
X76200000Y-113010000D01*
X83820000Y-111760000D02*
X83820000Y-113010000D01*
X91440000Y-111760000D02*
X91440000Y-113010000D01*
X99060000Y-111760000D02*
X99060000Y-113010000D01*
%TO.N,RTD*%
X137160000Y-80245000D02*
X145160000Y-80245000D01*
X145160000Y-80245000D02*
X145160000Y-80795000D01*
X145160000Y-80795000D02*
X137160000Y-80795000D01*
X137160000Y-80795000D02*
X137160000Y-81345000D01*
X137160000Y-81345000D02*
X145160000Y-81345000D01*
X145160000Y-81345000D02*
X145160000Y-81895000D01*
X145160000Y-81895000D02*
X137160000Y-81895000D01*
X137160000Y-81895000D02*
X137160000Y-82445000D01*
X137160000Y-82445000D02*
X145160000Y-82445000D01*
X145160000Y-82445000D02*
X145160000Y-82995000D01*
X145160000Y-82995000D02*
X137160000Y-82995000D01*
X137160000Y-82995000D02*
X137160000Y-83545000D01*
X137160000Y-83545000D02*
X145160000Y-83545000D01*
X145160000Y-83545000D02*
X145160000Y-84095000D01*
X145160000Y-84095000D02*
X137160000Y-84095000D01*
X137160000Y-84095000D02*
X137160000Y-84645000D01*
X137160000Y-84645000D02*
X145160000Y-84645000D01*
X145160000Y-84645000D02*
X145160000Y-85195000D01*
X145160000Y-85195000D02*
X137160000Y-85195000D01*
X137160000Y-85195000D02*
X137160000Y-85745000D01*
X137160000Y-85745000D02*
X145160000Y-85745000D01*
X145160000Y-85745000D02*
X145160000Y-86295000D01*
X145160000Y-86295000D02*
X137160000Y-86295000D01*
X137160000Y-86295000D02*
X137160000Y-86845000D01*
X137160000Y-86845000D02*
X145160000Y-86845000D01*
X145160000Y-86845000D02*
X145160000Y-87395000D01*
X145160000Y-87395000D02*
X137160000Y-87395000D01*
X137160000Y-80245000D02*
X132080000Y-80245000D01*
X132080000Y-80245000D02*
X132080000Y-78740000D01*
X137160000Y-80245000D02*
X137160000Y-78740000D01*
X137160000Y-87395000D02*
X132080000Y-87395000D01*
X132080000Y-87395000D02*
X132080000Y-88900000D01*
X137160000Y-87395000D02*
X137160000Y-88900000D01*
%TO.N,BR-B-050X*%
X121920000Y-114050000D02*
X121920000Y-111760000D01*
X137160000Y-114050000D02*
X137160000Y-111760000D01*
%TO.N,SL1-B*%
X68580000Y-121960000D02*
X68580000Y-119380000D01*
X81280000Y-121960000D02*
X81280000Y-119380000D01*
%TO.N,BR-B-500X*%
X111760000Y-121960000D02*
X111760000Y-119380000D01*
X121920000Y-121960000D02*
X121920000Y-119380000D01*
%TD*%
%TA.AperFunction,Conductor*%
%TO.N,VA1*%
G36*
X75565648Y-43814352D02*
G01*
X75580000Y-43849000D01*
X75580000Y-48800000D01*
X79180000Y-48800000D01*
X79680000Y-48800000D01*
X80131000Y-48800000D01*
X80165648Y-48814352D01*
X80180000Y-48849000D01*
X80180000Y-52751000D01*
X80165648Y-52785648D01*
X80131000Y-52800000D01*
X75580000Y-52800000D01*
X75580000Y-57751000D01*
X75565648Y-57785648D01*
X75531000Y-57800000D01*
X61629000Y-57800000D01*
X61594352Y-57785648D01*
X61580000Y-57751000D01*
X61580000Y-50800000D01*
X71585000Y-50800000D01*
X71588697Y-50870549D01*
X71599750Y-50940343D01*
X71618033Y-51008573D01*
X71618035Y-51008579D01*
X71618037Y-51008586D01*
X71635605Y-51054353D01*
X71643359Y-51074553D01*
X71675427Y-51137490D01*
X71675431Y-51137496D01*
X71675433Y-51137500D01*
X71713914Y-51196755D01*
X71758377Y-51251663D01*
X71758380Y-51251666D01*
X71758386Y-51251673D01*
X71808326Y-51301613D01*
X71808332Y-51301618D01*
X71808337Y-51301623D01*
X71863245Y-51346086D01*
X71922500Y-51384567D01*
X71922506Y-51384570D01*
X71922509Y-51384572D01*
X71985446Y-51416640D01*
X71985450Y-51416641D01*
X71985453Y-51416643D01*
X72051414Y-51441963D01*
X72119660Y-51460250D01*
X72189443Y-51471302D01*
X72260000Y-51475000D01*
X72330557Y-51471302D01*
X72400340Y-51460250D01*
X72468586Y-51441963D01*
X72534547Y-51416643D01*
X72597500Y-51384567D01*
X72656755Y-51346086D01*
X72711663Y-51301623D01*
X72761623Y-51251663D01*
X72806086Y-51196755D01*
X72844567Y-51137500D01*
X72876643Y-51074547D01*
X72901963Y-51008586D01*
X72920250Y-50940340D01*
X72931302Y-50870557D01*
X72935000Y-50800000D01*
X72931302Y-50729443D01*
X72920250Y-50659660D01*
X72901963Y-50591414D01*
X72876643Y-50525453D01*
X72876641Y-50525450D01*
X72876640Y-50525446D01*
X72844572Y-50462509D01*
X72844570Y-50462506D01*
X72844567Y-50462500D01*
X72806086Y-50403245D01*
X72761623Y-50348337D01*
X72761618Y-50348332D01*
X72761613Y-50348326D01*
X72711673Y-50298386D01*
X72711666Y-50298380D01*
X72711663Y-50298377D01*
X72656755Y-50253914D01*
X72597500Y-50215433D01*
X72597496Y-50215431D01*
X72597490Y-50215427D01*
X72534553Y-50183359D01*
X72514353Y-50175605D01*
X72468586Y-50158037D01*
X72468579Y-50158035D01*
X72468573Y-50158033D01*
X72400343Y-50139750D01*
X72355659Y-50132673D01*
X72330557Y-50128698D01*
X72330554Y-50128697D01*
X72330549Y-50128697D01*
X72260000Y-50125000D01*
X72189450Y-50128697D01*
X72189444Y-50128697D01*
X72189443Y-50128698D01*
X72179233Y-50130314D01*
X72119656Y-50139750D01*
X72051426Y-50158033D01*
X72051420Y-50158035D01*
X72051416Y-50158036D01*
X72051414Y-50158037D01*
X72031220Y-50165788D01*
X71985446Y-50183359D01*
X71922509Y-50215427D01*
X71922500Y-50215433D01*
X71863245Y-50253914D01*
X71863244Y-50253915D01*
X71863239Y-50253919D01*
X71808339Y-50298375D01*
X71808326Y-50298386D01*
X71758386Y-50348326D01*
X71758375Y-50348339D01*
X71713919Y-50403239D01*
X71713915Y-50403244D01*
X71675427Y-50462509D01*
X71643359Y-50525446D01*
X71618035Y-50591420D01*
X71618033Y-50591426D01*
X71599750Y-50659656D01*
X71588697Y-50729450D01*
X71585000Y-50800000D01*
X61580000Y-50800000D01*
X61580000Y-43849000D01*
X61594352Y-43814352D01*
X61629000Y-43800000D01*
X75531000Y-43800000D01*
X75565648Y-43814352D01*
G37*
%TD.AperFunction*%
%TD*%
%TA.AperFunction,Conductor*%
%TO.N,VA4*%
G36*
X106045648Y-43814352D02*
G01*
X106060000Y-43849000D01*
X106060000Y-48800000D01*
X109660000Y-48800000D01*
X110160000Y-48800000D01*
X110611000Y-48800000D01*
X110645648Y-48814352D01*
X110660000Y-48849000D01*
X110660000Y-52751000D01*
X110645648Y-52785648D01*
X110611000Y-52800000D01*
X106060000Y-52800000D01*
X106060000Y-57751000D01*
X106045648Y-57785648D01*
X106011000Y-57800000D01*
X92109000Y-57800000D01*
X92074352Y-57785648D01*
X92060000Y-57751000D01*
X92060000Y-50800000D01*
X102065000Y-50800000D01*
X102068697Y-50870549D01*
X102079750Y-50940343D01*
X102098033Y-51008573D01*
X102098035Y-51008579D01*
X102098037Y-51008586D01*
X102115605Y-51054353D01*
X102123359Y-51074553D01*
X102155427Y-51137490D01*
X102155431Y-51137496D01*
X102155433Y-51137500D01*
X102193914Y-51196755D01*
X102238377Y-51251663D01*
X102238380Y-51251666D01*
X102238386Y-51251673D01*
X102288326Y-51301613D01*
X102288332Y-51301618D01*
X102288337Y-51301623D01*
X102343245Y-51346086D01*
X102402500Y-51384567D01*
X102402506Y-51384570D01*
X102402509Y-51384572D01*
X102465446Y-51416640D01*
X102465450Y-51416641D01*
X102465453Y-51416643D01*
X102531414Y-51441963D01*
X102599660Y-51460250D01*
X102669443Y-51471302D01*
X102740000Y-51475000D01*
X102810557Y-51471302D01*
X102880340Y-51460250D01*
X102948586Y-51441963D01*
X103014547Y-51416643D01*
X103077500Y-51384567D01*
X103136755Y-51346086D01*
X103191663Y-51301623D01*
X103241623Y-51251663D01*
X103286086Y-51196755D01*
X103324567Y-51137500D01*
X103356643Y-51074547D01*
X103381963Y-51008586D01*
X103400250Y-50940340D01*
X103411302Y-50870557D01*
X103415000Y-50800000D01*
X103411302Y-50729443D01*
X103400250Y-50659660D01*
X103381963Y-50591414D01*
X103356643Y-50525453D01*
X103356641Y-50525450D01*
X103356640Y-50525446D01*
X103324572Y-50462509D01*
X103324570Y-50462506D01*
X103324567Y-50462500D01*
X103286086Y-50403245D01*
X103241623Y-50348337D01*
X103241618Y-50348332D01*
X103241613Y-50348326D01*
X103191673Y-50298386D01*
X103191666Y-50298380D01*
X103191663Y-50298377D01*
X103136755Y-50253914D01*
X103077500Y-50215433D01*
X103077496Y-50215431D01*
X103077490Y-50215427D01*
X103014553Y-50183359D01*
X102994353Y-50175605D01*
X102948586Y-50158037D01*
X102948579Y-50158035D01*
X102948573Y-50158033D01*
X102880343Y-50139750D01*
X102835659Y-50132673D01*
X102810557Y-50128698D01*
X102810554Y-50128697D01*
X102810549Y-50128697D01*
X102740000Y-50125000D01*
X102669450Y-50128697D01*
X102669444Y-50128697D01*
X102669443Y-50128698D01*
X102659233Y-50130314D01*
X102599656Y-50139750D01*
X102531426Y-50158033D01*
X102531420Y-50158035D01*
X102531416Y-50158036D01*
X102531414Y-50158037D01*
X102511220Y-50165788D01*
X102465446Y-50183359D01*
X102402509Y-50215427D01*
X102402500Y-50215433D01*
X102343245Y-50253914D01*
X102343244Y-50253915D01*
X102343239Y-50253919D01*
X102288339Y-50298375D01*
X102288326Y-50298386D01*
X102238386Y-50348326D01*
X102238375Y-50348339D01*
X102193919Y-50403239D01*
X102193915Y-50403244D01*
X102155427Y-50462509D01*
X102123359Y-50525446D01*
X102098035Y-50591420D01*
X102098033Y-50591426D01*
X102079750Y-50659656D01*
X102068697Y-50729450D01*
X102065000Y-50800000D01*
X92060000Y-50800000D01*
X92060000Y-43849000D01*
X92074352Y-43814352D01*
X92109000Y-43800000D01*
X106011000Y-43800000D01*
X106045648Y-43814352D01*
G37*
%TD.AperFunction*%
%TD*%
%TA.AperFunction,Conductor*%
%TO.N,VA8*%
G36*
X136525648Y-43814352D02*
G01*
X136540000Y-43849000D01*
X136540000Y-48800000D01*
X140140000Y-48800000D01*
X140640000Y-48800000D01*
X141091000Y-48800000D01*
X141125648Y-48814352D01*
X141140000Y-48849000D01*
X141140000Y-52751000D01*
X141125648Y-52785648D01*
X141091000Y-52800000D01*
X136540000Y-52800000D01*
X136540000Y-57751000D01*
X136525648Y-57785648D01*
X136491000Y-57800000D01*
X122589000Y-57800000D01*
X122554352Y-57785648D01*
X122540000Y-57751000D01*
X122540000Y-50800000D01*
X132545000Y-50800000D01*
X132548697Y-50870549D01*
X132559750Y-50940343D01*
X132578033Y-51008573D01*
X132578035Y-51008579D01*
X132578037Y-51008586D01*
X132595605Y-51054353D01*
X132603359Y-51074553D01*
X132635427Y-51137490D01*
X132635431Y-51137496D01*
X132635433Y-51137500D01*
X132673914Y-51196755D01*
X132718377Y-51251663D01*
X132718380Y-51251666D01*
X132718386Y-51251673D01*
X132768326Y-51301613D01*
X132768332Y-51301618D01*
X132768337Y-51301623D01*
X132823245Y-51346086D01*
X132882500Y-51384567D01*
X132882506Y-51384570D01*
X132882509Y-51384572D01*
X132945446Y-51416640D01*
X132945450Y-51416641D01*
X132945453Y-51416643D01*
X133011414Y-51441963D01*
X133079660Y-51460250D01*
X133149443Y-51471302D01*
X133220000Y-51475000D01*
X133290557Y-51471302D01*
X133360340Y-51460250D01*
X133428586Y-51441963D01*
X133494547Y-51416643D01*
X133557500Y-51384567D01*
X133616755Y-51346086D01*
X133671663Y-51301623D01*
X133721623Y-51251663D01*
X133766086Y-51196755D01*
X133804567Y-51137500D01*
X133836643Y-51074547D01*
X133861963Y-51008586D01*
X133880250Y-50940340D01*
X133891302Y-50870557D01*
X133895000Y-50800000D01*
X133891302Y-50729443D01*
X133880250Y-50659660D01*
X133861963Y-50591414D01*
X133836643Y-50525453D01*
X133836641Y-50525450D01*
X133836640Y-50525446D01*
X133804572Y-50462509D01*
X133804570Y-50462506D01*
X133804567Y-50462500D01*
X133766086Y-50403245D01*
X133721623Y-50348337D01*
X133721618Y-50348332D01*
X133721613Y-50348326D01*
X133671673Y-50298386D01*
X133671666Y-50298380D01*
X133671663Y-50298377D01*
X133616755Y-50253914D01*
X133557500Y-50215433D01*
X133557496Y-50215431D01*
X133557490Y-50215427D01*
X133494553Y-50183359D01*
X133474353Y-50175605D01*
X133428586Y-50158037D01*
X133428579Y-50158035D01*
X133428573Y-50158033D01*
X133360343Y-50139750D01*
X133315659Y-50132673D01*
X133290557Y-50128698D01*
X133290554Y-50128697D01*
X133290549Y-50128697D01*
X133220000Y-50125000D01*
X133149450Y-50128697D01*
X133149444Y-50128697D01*
X133149443Y-50128698D01*
X133139233Y-50130314D01*
X133079656Y-50139750D01*
X133011426Y-50158033D01*
X133011420Y-50158035D01*
X133011416Y-50158036D01*
X133011414Y-50158037D01*
X132991220Y-50165788D01*
X132945446Y-50183359D01*
X132882509Y-50215427D01*
X132882500Y-50215433D01*
X132823245Y-50253914D01*
X132823244Y-50253915D01*
X132823239Y-50253919D01*
X132768339Y-50298375D01*
X132768326Y-50298386D01*
X132718386Y-50348326D01*
X132718375Y-50348339D01*
X132673919Y-50403239D01*
X132673915Y-50403244D01*
X132635427Y-50462509D01*
X132603359Y-50525446D01*
X132578035Y-50591420D01*
X132578033Y-50591426D01*
X132559750Y-50659656D01*
X132548697Y-50729450D01*
X132545000Y-50800000D01*
X122540000Y-50800000D01*
X122540000Y-43849000D01*
X122554352Y-43814352D01*
X122589000Y-43800000D01*
X136491000Y-43800000D01*
X136525648Y-43814352D01*
G37*
%TD.AperFunction*%
%TD*%
%TA.AperFunction,Conductor*%
%TO.N,KV-030*%
G36*
X61945648Y-62074352D02*
G01*
X61960000Y-62109000D01*
X61960000Y-63011000D01*
X61945648Y-63045648D01*
X61911000Y-63060000D01*
X60009000Y-63060000D01*
X59974352Y-63045648D01*
X59960000Y-63011000D01*
X59960000Y-62109000D01*
X59974352Y-62074352D01*
X60009000Y-62060000D01*
X61911000Y-62060000D01*
X61945648Y-62074352D01*
G37*
%TD.AperFunction*%
%TD*%
%TA.AperFunction,Conductor*%
%TO.N,KV-050*%
G36*
X79725648Y-62074352D02*
G01*
X79740000Y-62109000D01*
X79740000Y-63011000D01*
X79725648Y-63045648D01*
X79691000Y-63060000D01*
X77789000Y-63060000D01*
X77754352Y-63045648D01*
X77740000Y-63011000D01*
X77740000Y-62109000D01*
X77754352Y-62074352D01*
X77789000Y-62060000D01*
X79691000Y-62060000D01*
X79725648Y-62074352D01*
G37*
%TD.AperFunction*%
%TD*%
%TA.AperFunction,Conductor*%
%TO.N,VDP-B3*%
G36*
X140185648Y-63514352D02*
G01*
X140200000Y-63549000D01*
X140200000Y-68080000D01*
X144731000Y-68080000D01*
X144765648Y-68094352D01*
X144780000Y-68129000D01*
X144780000Y-69031000D01*
X144765648Y-69065648D01*
X144731000Y-69080000D01*
X140200000Y-69080000D01*
X140200000Y-73611000D01*
X140185648Y-73645648D01*
X140151000Y-73660000D01*
X139249000Y-73660000D01*
X139214352Y-73645648D01*
X139200000Y-73611000D01*
X139200000Y-69080000D01*
X134669000Y-69080000D01*
X134634352Y-69065648D01*
X134620000Y-69031000D01*
X134620000Y-68129000D01*
X134634352Y-68094352D01*
X134669000Y-68080000D01*
X139200000Y-68080000D01*
X139200000Y-63549000D01*
X139214352Y-63514352D01*
X139249000Y-63500000D01*
X140151000Y-63500000D01*
X140185648Y-63514352D01*
G37*
%TD.AperFunction*%
%TD*%
%TA.AperFunction,Conductor*%
%TO.N,PM*%
G36*
X102805648Y-77534352D02*
G01*
X102820000Y-77569000D01*
X102820000Y-94520000D01*
X111711000Y-94520000D01*
X111745648Y-94534352D01*
X111760000Y-94569000D01*
X111760000Y-98471000D01*
X111745648Y-98505648D01*
X111711000Y-98520000D01*
X102820000Y-98520000D01*
X102820000Y-115471000D01*
X102805648Y-115505648D01*
X102771000Y-115520000D01*
X64869000Y-115520000D01*
X64834352Y-115505648D01*
X64820000Y-115471000D01*
X64820000Y-111759996D01*
X67430000Y-111759996D01*
X67430000Y-111760003D01*
X67433928Y-111854964D01*
X67445686Y-111949292D01*
X67465188Y-112042301D01*
X67465194Y-112042323D01*
X67492308Y-112133399D01*
X67526857Y-112221942D01*
X67526862Y-112221953D01*
X67568604Y-112307339D01*
X67568607Y-112307344D01*
X67617254Y-112388983D01*
X67617259Y-112388990D01*
X67672488Y-112466345D01*
X67733918Y-112538874D01*
X67801126Y-112606082D01*
X67873655Y-112667512D01*
X67951010Y-112722741D01*
X67951016Y-112722745D01*
X68032655Y-112771392D01*
X68032660Y-112771395D01*
X68118046Y-112813137D01*
X68118057Y-112813142D01*
X68146728Y-112824329D01*
X68206596Y-112847690D01*
X68297692Y-112874810D01*
X68390716Y-112894315D01*
X68485034Y-112906072D01*
X68569886Y-112909581D01*
X68579997Y-112910000D01*
X68580000Y-112910000D01*
X68580003Y-112910000D01*
X68589767Y-112909596D01*
X68674966Y-112906072D01*
X68769284Y-112894315D01*
X68862308Y-112874810D01*
X68953404Y-112847690D01*
X69041950Y-112813139D01*
X69127340Y-112771395D01*
X69208990Y-112722741D01*
X69286345Y-112667512D01*
X69358874Y-112606082D01*
X69426082Y-112538874D01*
X69487512Y-112466345D01*
X69542741Y-112388990D01*
X69591395Y-112307340D01*
X69633139Y-112221950D01*
X69667690Y-112133404D01*
X69694810Y-112042308D01*
X69714315Y-111949284D01*
X69726072Y-111854966D01*
X69730000Y-111760000D01*
X69730000Y-111759996D01*
X75050000Y-111759996D01*
X75050000Y-111760003D01*
X75053928Y-111854964D01*
X75065686Y-111949292D01*
X75085188Y-112042301D01*
X75085194Y-112042323D01*
X75112308Y-112133399D01*
X75146857Y-112221942D01*
X75146862Y-112221953D01*
X75188604Y-112307339D01*
X75188607Y-112307344D01*
X75237254Y-112388983D01*
X75237259Y-112388990D01*
X75292488Y-112466345D01*
X75353918Y-112538874D01*
X75421126Y-112606082D01*
X75493655Y-112667512D01*
X75571010Y-112722741D01*
X75571016Y-112722745D01*
X75652655Y-112771392D01*
X75652660Y-112771395D01*
X75738046Y-112813137D01*
X75738057Y-112813142D01*
X75766728Y-112824329D01*
X75826596Y-112847690D01*
X75917692Y-112874810D01*
X76010716Y-112894315D01*
X76105034Y-112906072D01*
X76189886Y-112909581D01*
X76199997Y-112910000D01*
X76200000Y-112910000D01*
X76200003Y-112910000D01*
X76209767Y-112909596D01*
X76294966Y-112906072D01*
X76389284Y-112894315D01*
X76482308Y-112874810D01*
X76573404Y-112847690D01*
X76661950Y-112813139D01*
X76747340Y-112771395D01*
X76828990Y-112722741D01*
X76906345Y-112667512D01*
X76978874Y-112606082D01*
X77046082Y-112538874D01*
X77107512Y-112466345D01*
X77162741Y-112388990D01*
X77211395Y-112307340D01*
X77253139Y-112221950D01*
X77287690Y-112133404D01*
X77314810Y-112042308D01*
X77334315Y-111949284D01*
X77346072Y-111854966D01*
X77350000Y-111760000D01*
X77350000Y-111759996D01*
X82670000Y-111759996D01*
X82670000Y-111760003D01*
X82673928Y-111854964D01*
X82685686Y-111949292D01*
X82705188Y-112042301D01*
X82705194Y-112042323D01*
X82732308Y-112133399D01*
X82766857Y-112221942D01*
X82766862Y-112221953D01*
X82808604Y-112307339D01*
X82808607Y-112307344D01*
X82857254Y-112388983D01*
X82857259Y-112388990D01*
X82912488Y-112466345D01*
X82973918Y-112538874D01*
X83041126Y-112606082D01*
X83113655Y-112667512D01*
X83191010Y-112722741D01*
X83191016Y-112722745D01*
X83272655Y-112771392D01*
X83272660Y-112771395D01*
X83358046Y-112813137D01*
X83358057Y-112813142D01*
X83386728Y-112824329D01*
X83446596Y-112847690D01*
X83537692Y-112874810D01*
X83630716Y-112894315D01*
X83725034Y-112906072D01*
X83809886Y-112909581D01*
X83819997Y-112910000D01*
X83820000Y-112910000D01*
X83820003Y-112910000D01*
X83829767Y-112909596D01*
X83914966Y-112906072D01*
X84009284Y-112894315D01*
X84102308Y-112874810D01*
X84193404Y-112847690D01*
X84281950Y-112813139D01*
X84367340Y-112771395D01*
X84448990Y-112722741D01*
X84526345Y-112667512D01*
X84598874Y-112606082D01*
X84666082Y-112538874D01*
X84727512Y-112466345D01*
X84782741Y-112388990D01*
X84831395Y-112307340D01*
X84873139Y-112221950D01*
X84907690Y-112133404D01*
X84934810Y-112042308D01*
X84954315Y-111949284D01*
X84966072Y-111854966D01*
X84970000Y-111760000D01*
X84970000Y-111759996D01*
X90290000Y-111759996D01*
X90290000Y-111760003D01*
X90293928Y-111854964D01*
X90305686Y-111949292D01*
X90325188Y-112042301D01*
X90325194Y-112042323D01*
X90352308Y-112133399D01*
X90386857Y-112221942D01*
X90386862Y-112221953D01*
X90428604Y-112307339D01*
X90428607Y-112307344D01*
X90477254Y-112388983D01*
X90477259Y-112388990D01*
X90532488Y-112466345D01*
X90593918Y-112538874D01*
X90661126Y-112606082D01*
X90733655Y-112667512D01*
X90811010Y-112722741D01*
X90811016Y-112722745D01*
X90892655Y-112771392D01*
X90892660Y-112771395D01*
X90978046Y-112813137D01*
X90978057Y-112813142D01*
X91006728Y-112824329D01*
X91066596Y-112847690D01*
X91157692Y-112874810D01*
X91250716Y-112894315D01*
X91345034Y-112906072D01*
X91429886Y-112909581D01*
X91439997Y-112910000D01*
X91440000Y-112910000D01*
X91440003Y-112910000D01*
X91449767Y-112909596D01*
X91534966Y-112906072D01*
X91629284Y-112894315D01*
X91722308Y-112874810D01*
X91813404Y-112847690D01*
X91901950Y-112813139D01*
X91987340Y-112771395D01*
X92068990Y-112722741D01*
X92146345Y-112667512D01*
X92218874Y-112606082D01*
X92286082Y-112538874D01*
X92347512Y-112466345D01*
X92402741Y-112388990D01*
X92451395Y-112307340D01*
X92493139Y-112221950D01*
X92527690Y-112133404D01*
X92554810Y-112042308D01*
X92574315Y-111949284D01*
X92586072Y-111854966D01*
X92590000Y-111760000D01*
X92590000Y-111759996D01*
X97910000Y-111759996D01*
X97910000Y-111760003D01*
X97913928Y-111854964D01*
X97925686Y-111949292D01*
X97945188Y-112042301D01*
X97945194Y-112042323D01*
X97972308Y-112133399D01*
X98006857Y-112221942D01*
X98006862Y-112221953D01*
X98048604Y-112307339D01*
X98048607Y-112307344D01*
X98097254Y-112388983D01*
X98097259Y-112388990D01*
X98152488Y-112466345D01*
X98213918Y-112538874D01*
X98281126Y-112606082D01*
X98353655Y-112667512D01*
X98431010Y-112722741D01*
X98431016Y-112722745D01*
X98512655Y-112771392D01*
X98512660Y-112771395D01*
X98598046Y-112813137D01*
X98598057Y-112813142D01*
X98626728Y-112824329D01*
X98686596Y-112847690D01*
X98777692Y-112874810D01*
X98870716Y-112894315D01*
X98965034Y-112906072D01*
X99049886Y-112909581D01*
X99059997Y-112910000D01*
X99060000Y-112910000D01*
X99060003Y-112910000D01*
X99069767Y-112909596D01*
X99154966Y-112906072D01*
X99249284Y-112894315D01*
X99342308Y-112874810D01*
X99433404Y-112847690D01*
X99521950Y-112813139D01*
X99607340Y-112771395D01*
X99688990Y-112722741D01*
X99766345Y-112667512D01*
X99838874Y-112606082D01*
X99906082Y-112538874D01*
X99967512Y-112466345D01*
X100022741Y-112388990D01*
X100071395Y-112307340D01*
X100113139Y-112221950D01*
X100147690Y-112133404D01*
X100174810Y-112042308D01*
X100194315Y-111949284D01*
X100206072Y-111854966D01*
X100210000Y-111760000D01*
X100206072Y-111665034D01*
X100194315Y-111570716D01*
X100174810Y-111477692D01*
X100147690Y-111386596D01*
X100113139Y-111298050D01*
X100071395Y-111212660D01*
X100022741Y-111131010D01*
X99967512Y-111053655D01*
X99906082Y-110981126D01*
X99838874Y-110913918D01*
X99766345Y-110852488D01*
X99688990Y-110797259D01*
X99688983Y-110797254D01*
X99607344Y-110748607D01*
X99607339Y-110748604D01*
X99521953Y-110706862D01*
X99521942Y-110706857D01*
X99433399Y-110672308D01*
X99342323Y-110645194D01*
X99342301Y-110645188D01*
X99249292Y-110625686D01*
X99249284Y-110625685D01*
X99154966Y-110613928D01*
X99116979Y-110612356D01*
X99060003Y-110610000D01*
X99059997Y-110610000D01*
X98988775Y-110612946D01*
X98965034Y-110613928D01*
X98917339Y-110619873D01*
X98870707Y-110625686D01*
X98777698Y-110645188D01*
X98777676Y-110645194D01*
X98686600Y-110672308D01*
X98598057Y-110706857D01*
X98598046Y-110706862D01*
X98512660Y-110748604D01*
X98512655Y-110748607D01*
X98431016Y-110797254D01*
X98353653Y-110852489D01*
X98281124Y-110913919D01*
X98213919Y-110981124D01*
X98152489Y-111053653D01*
X98097254Y-111131016D01*
X98048607Y-111212655D01*
X98048604Y-111212660D01*
X98006862Y-111298046D01*
X98006857Y-111298057D01*
X97972308Y-111386600D01*
X97945194Y-111477676D01*
X97945188Y-111477698D01*
X97925686Y-111570707D01*
X97913928Y-111665035D01*
X97910000Y-111759996D01*
X92590000Y-111759996D01*
X92586072Y-111665034D01*
X92574315Y-111570716D01*
X92554810Y-111477692D01*
X92527690Y-111386596D01*
X92493139Y-111298050D01*
X92451395Y-111212660D01*
X92402741Y-111131010D01*
X92347512Y-111053655D01*
X92286082Y-110981126D01*
X92218874Y-110913918D01*
X92146345Y-110852488D01*
X92068990Y-110797259D01*
X92068983Y-110797254D01*
X91987344Y-110748607D01*
X91987339Y-110748604D01*
X91901953Y-110706862D01*
X91901942Y-110706857D01*
X91813399Y-110672308D01*
X91722323Y-110645194D01*
X91722301Y-110645188D01*
X91629292Y-110625686D01*
X91629284Y-110625685D01*
X91534966Y-110613928D01*
X91496979Y-110612356D01*
X91440003Y-110610000D01*
X91439997Y-110610000D01*
X91368775Y-110612946D01*
X91345034Y-110613928D01*
X91297339Y-110619873D01*
X91250707Y-110625686D01*
X91157698Y-110645188D01*
X91157676Y-110645194D01*
X91066600Y-110672308D01*
X90978057Y-110706857D01*
X90978046Y-110706862D01*
X90892660Y-110748604D01*
X90892655Y-110748607D01*
X90811016Y-110797254D01*
X90733653Y-110852489D01*
X90661124Y-110913919D01*
X90593919Y-110981124D01*
X90532489Y-111053653D01*
X90477254Y-111131016D01*
X90428607Y-111212655D01*
X90428604Y-111212660D01*
X90386862Y-111298046D01*
X90386857Y-111298057D01*
X90352308Y-111386600D01*
X90325194Y-111477676D01*
X90325188Y-111477698D01*
X90305686Y-111570707D01*
X90293928Y-111665035D01*
X90290000Y-111759996D01*
X84970000Y-111759996D01*
X84966072Y-111665034D01*
X84954315Y-111570716D01*
X84934810Y-111477692D01*
X84907690Y-111386596D01*
X84873139Y-111298050D01*
X84831395Y-111212660D01*
X84782741Y-111131010D01*
X84727512Y-111053655D01*
X84666082Y-110981126D01*
X84598874Y-110913918D01*
X84526345Y-110852488D01*
X84448990Y-110797259D01*
X84448983Y-110797254D01*
X84367344Y-110748607D01*
X84367339Y-110748604D01*
X84281953Y-110706862D01*
X84281942Y-110706857D01*
X84193399Y-110672308D01*
X84102323Y-110645194D01*
X84102301Y-110645188D01*
X84009292Y-110625686D01*
X84009284Y-110625685D01*
X83914966Y-110613928D01*
X83876979Y-110612356D01*
X83820003Y-110610000D01*
X83819997Y-110610000D01*
X83748775Y-110612946D01*
X83725034Y-110613928D01*
X83677339Y-110619873D01*
X83630707Y-110625686D01*
X83537698Y-110645188D01*
X83537676Y-110645194D01*
X83446600Y-110672308D01*
X83358057Y-110706857D01*
X83358046Y-110706862D01*
X83272660Y-110748604D01*
X83272655Y-110748607D01*
X83191016Y-110797254D01*
X83113653Y-110852489D01*
X83041124Y-110913919D01*
X82973919Y-110981124D01*
X82912489Y-111053653D01*
X82857254Y-111131016D01*
X82808607Y-111212655D01*
X82808604Y-111212660D01*
X82766862Y-111298046D01*
X82766857Y-111298057D01*
X82732308Y-111386600D01*
X82705194Y-111477676D01*
X82705188Y-111477698D01*
X82685686Y-111570707D01*
X82673928Y-111665035D01*
X82670000Y-111759996D01*
X77350000Y-111759996D01*
X77346072Y-111665034D01*
X77334315Y-111570716D01*
X77314810Y-111477692D01*
X77287690Y-111386596D01*
X77253139Y-111298050D01*
X77211395Y-111212660D01*
X77162741Y-111131010D01*
X77107512Y-111053655D01*
X77046082Y-110981126D01*
X76978874Y-110913918D01*
X76906345Y-110852488D01*
X76828990Y-110797259D01*
X76828983Y-110797254D01*
X76747344Y-110748607D01*
X76747339Y-110748604D01*
X76661953Y-110706862D01*
X76661942Y-110706857D01*
X76573399Y-110672308D01*
X76482323Y-110645194D01*
X76482301Y-110645188D01*
X76389292Y-110625686D01*
X76389284Y-110625685D01*
X76294966Y-110613928D01*
X76256979Y-110612356D01*
X76200003Y-110610000D01*
X76199997Y-110610000D01*
X76128775Y-110612946D01*
X76105034Y-110613928D01*
X76057339Y-110619873D01*
X76010707Y-110625686D01*
X75917698Y-110645188D01*
X75917676Y-110645194D01*
X75826600Y-110672308D01*
X75738057Y-110706857D01*
X75738046Y-110706862D01*
X75652660Y-110748604D01*
X75652655Y-110748607D01*
X75571016Y-110797254D01*
X75493653Y-110852489D01*
X75421124Y-110913919D01*
X75353919Y-110981124D01*
X75292489Y-111053653D01*
X75237254Y-111131016D01*
X75188607Y-111212655D01*
X75188604Y-111212660D01*
X75146862Y-111298046D01*
X75146857Y-111298057D01*
X75112308Y-111386600D01*
X75085194Y-111477676D01*
X75085188Y-111477698D01*
X75065686Y-111570707D01*
X75053928Y-111665035D01*
X75050000Y-111759996D01*
X69730000Y-111759996D01*
X69726072Y-111665034D01*
X69714315Y-111570716D01*
X69694810Y-111477692D01*
X69667690Y-111386596D01*
X69633139Y-111298050D01*
X69591395Y-111212660D01*
X69542741Y-111131010D01*
X69487512Y-111053655D01*
X69426082Y-110981126D01*
X69358874Y-110913918D01*
X69286345Y-110852488D01*
X69208990Y-110797259D01*
X69208983Y-110797254D01*
X69127344Y-110748607D01*
X69127339Y-110748604D01*
X69041953Y-110706862D01*
X69041942Y-110706857D01*
X68953399Y-110672308D01*
X68862323Y-110645194D01*
X68862301Y-110645188D01*
X68769292Y-110625686D01*
X68769284Y-110625685D01*
X68674966Y-110613928D01*
X68636979Y-110612356D01*
X68580003Y-110610000D01*
X68579997Y-110610000D01*
X68508775Y-110612946D01*
X68485034Y-110613928D01*
X68437339Y-110619873D01*
X68390707Y-110625686D01*
X68297698Y-110645188D01*
X68297676Y-110645194D01*
X68206600Y-110672308D01*
X68118057Y-110706857D01*
X68118046Y-110706862D01*
X68032660Y-110748604D01*
X68032655Y-110748607D01*
X67951016Y-110797254D01*
X67873653Y-110852489D01*
X67801124Y-110913919D01*
X67733919Y-110981124D01*
X67672489Y-111053653D01*
X67617254Y-111131016D01*
X67568607Y-111212655D01*
X67568604Y-111212660D01*
X67526862Y-111298046D01*
X67526857Y-111298057D01*
X67492308Y-111386600D01*
X67465194Y-111477676D01*
X67465188Y-111477698D01*
X67445686Y-111570707D01*
X67433928Y-111665035D01*
X67430000Y-111759996D01*
X64820000Y-111759996D01*
X64820000Y-104139996D01*
X67430000Y-104139996D01*
X67430000Y-104140003D01*
X67433928Y-104234964D01*
X67445686Y-104329292D01*
X67465188Y-104422301D01*
X67465194Y-104422323D01*
X67492308Y-104513399D01*
X67526857Y-104601942D01*
X67526862Y-104601953D01*
X67568604Y-104687339D01*
X67568607Y-104687344D01*
X67617254Y-104768983D01*
X67617259Y-104768990D01*
X67672488Y-104846345D01*
X67733918Y-104918874D01*
X67801126Y-104986082D01*
X67873655Y-105047512D01*
X67951010Y-105102741D01*
X67951016Y-105102745D01*
X68032655Y-105151392D01*
X68032660Y-105151395D01*
X68118046Y-105193137D01*
X68118057Y-105193142D01*
X68146728Y-105204329D01*
X68206596Y-105227690D01*
X68297692Y-105254810D01*
X68390716Y-105274315D01*
X68485034Y-105286072D01*
X68569886Y-105289581D01*
X68579997Y-105290000D01*
X68580000Y-105290000D01*
X68580003Y-105290000D01*
X68589767Y-105289596D01*
X68674966Y-105286072D01*
X68769284Y-105274315D01*
X68862308Y-105254810D01*
X68953404Y-105227690D01*
X69041950Y-105193139D01*
X69127340Y-105151395D01*
X69208990Y-105102741D01*
X69286345Y-105047512D01*
X69358874Y-104986082D01*
X69426082Y-104918874D01*
X69487512Y-104846345D01*
X69542741Y-104768990D01*
X69591395Y-104687340D01*
X69633139Y-104601950D01*
X69667690Y-104513404D01*
X69694810Y-104422308D01*
X69714315Y-104329284D01*
X69726072Y-104234966D01*
X69730000Y-104140000D01*
X69730000Y-104139996D01*
X75050000Y-104139996D01*
X75050000Y-104140003D01*
X75053928Y-104234964D01*
X75065686Y-104329292D01*
X75085188Y-104422301D01*
X75085194Y-104422323D01*
X75112308Y-104513399D01*
X75146857Y-104601942D01*
X75146862Y-104601953D01*
X75188604Y-104687339D01*
X75188607Y-104687344D01*
X75237254Y-104768983D01*
X75237259Y-104768990D01*
X75292488Y-104846345D01*
X75353918Y-104918874D01*
X75421126Y-104986082D01*
X75493655Y-105047512D01*
X75571010Y-105102741D01*
X75571016Y-105102745D01*
X75652655Y-105151392D01*
X75652660Y-105151395D01*
X75738046Y-105193137D01*
X75738057Y-105193142D01*
X75766728Y-105204329D01*
X75826596Y-105227690D01*
X75917692Y-105254810D01*
X76010716Y-105274315D01*
X76105034Y-105286072D01*
X76189886Y-105289581D01*
X76199997Y-105290000D01*
X76200000Y-105290000D01*
X76200003Y-105290000D01*
X76209767Y-105289596D01*
X76294966Y-105286072D01*
X76389284Y-105274315D01*
X76482308Y-105254810D01*
X76573404Y-105227690D01*
X76661950Y-105193139D01*
X76747340Y-105151395D01*
X76828990Y-105102741D01*
X76906345Y-105047512D01*
X76978874Y-104986082D01*
X77046082Y-104918874D01*
X77107512Y-104846345D01*
X77162741Y-104768990D01*
X77211395Y-104687340D01*
X77253139Y-104601950D01*
X77287690Y-104513404D01*
X77314810Y-104422308D01*
X77334315Y-104329284D01*
X77346072Y-104234966D01*
X77350000Y-104140000D01*
X77350000Y-104139996D01*
X82670000Y-104139996D01*
X82670000Y-104140003D01*
X82673928Y-104234964D01*
X82685686Y-104329292D01*
X82705188Y-104422301D01*
X82705194Y-104422323D01*
X82732308Y-104513399D01*
X82766857Y-104601942D01*
X82766862Y-104601953D01*
X82808604Y-104687339D01*
X82808607Y-104687344D01*
X82857254Y-104768983D01*
X82857259Y-104768990D01*
X82912488Y-104846345D01*
X82973918Y-104918874D01*
X83041126Y-104986082D01*
X83113655Y-105047512D01*
X83191010Y-105102741D01*
X83191016Y-105102745D01*
X83272655Y-105151392D01*
X83272660Y-105151395D01*
X83358046Y-105193137D01*
X83358057Y-105193142D01*
X83386728Y-105204329D01*
X83446596Y-105227690D01*
X83537692Y-105254810D01*
X83630716Y-105274315D01*
X83725034Y-105286072D01*
X83809886Y-105289581D01*
X83819997Y-105290000D01*
X83820000Y-105290000D01*
X83820003Y-105290000D01*
X83829767Y-105289596D01*
X83914966Y-105286072D01*
X84009284Y-105274315D01*
X84102308Y-105254810D01*
X84193404Y-105227690D01*
X84281950Y-105193139D01*
X84367340Y-105151395D01*
X84448990Y-105102741D01*
X84526345Y-105047512D01*
X84598874Y-104986082D01*
X84666082Y-104918874D01*
X84727512Y-104846345D01*
X84782741Y-104768990D01*
X84831395Y-104687340D01*
X84873139Y-104601950D01*
X84907690Y-104513404D01*
X84934810Y-104422308D01*
X84954315Y-104329284D01*
X84966072Y-104234966D01*
X84970000Y-104140000D01*
X84970000Y-104139996D01*
X90290000Y-104139996D01*
X90290000Y-104140003D01*
X90293928Y-104234964D01*
X90305686Y-104329292D01*
X90325188Y-104422301D01*
X90325194Y-104422323D01*
X90352308Y-104513399D01*
X90386857Y-104601942D01*
X90386862Y-104601953D01*
X90428604Y-104687339D01*
X90428607Y-104687344D01*
X90477254Y-104768983D01*
X90477259Y-104768990D01*
X90532488Y-104846345D01*
X90593918Y-104918874D01*
X90661126Y-104986082D01*
X90733655Y-105047512D01*
X90811010Y-105102741D01*
X90811016Y-105102745D01*
X90892655Y-105151392D01*
X90892660Y-105151395D01*
X90978046Y-105193137D01*
X90978057Y-105193142D01*
X91006728Y-105204329D01*
X91066596Y-105227690D01*
X91157692Y-105254810D01*
X91250716Y-105274315D01*
X91345034Y-105286072D01*
X91429886Y-105289581D01*
X91439997Y-105290000D01*
X91440000Y-105290000D01*
X91440003Y-105290000D01*
X91449767Y-105289596D01*
X91534966Y-105286072D01*
X91629284Y-105274315D01*
X91722308Y-105254810D01*
X91813404Y-105227690D01*
X91901950Y-105193139D01*
X91987340Y-105151395D01*
X92068990Y-105102741D01*
X92146345Y-105047512D01*
X92218874Y-104986082D01*
X92286082Y-104918874D01*
X92347512Y-104846345D01*
X92402741Y-104768990D01*
X92451395Y-104687340D01*
X92493139Y-104601950D01*
X92527690Y-104513404D01*
X92554810Y-104422308D01*
X92574315Y-104329284D01*
X92586072Y-104234966D01*
X92590000Y-104140000D01*
X92590000Y-104139996D01*
X97910000Y-104139996D01*
X97910000Y-104140003D01*
X97913928Y-104234964D01*
X97925686Y-104329292D01*
X97945188Y-104422301D01*
X97945194Y-104422323D01*
X97972308Y-104513399D01*
X98006857Y-104601942D01*
X98006862Y-104601953D01*
X98048604Y-104687339D01*
X98048607Y-104687344D01*
X98097254Y-104768983D01*
X98097259Y-104768990D01*
X98152488Y-104846345D01*
X98213918Y-104918874D01*
X98281126Y-104986082D01*
X98353655Y-105047512D01*
X98431010Y-105102741D01*
X98431016Y-105102745D01*
X98512655Y-105151392D01*
X98512660Y-105151395D01*
X98598046Y-105193137D01*
X98598057Y-105193142D01*
X98626728Y-105204329D01*
X98686596Y-105227690D01*
X98777692Y-105254810D01*
X98870716Y-105274315D01*
X98965034Y-105286072D01*
X99049886Y-105289581D01*
X99059997Y-105290000D01*
X99060000Y-105290000D01*
X99060003Y-105290000D01*
X99069767Y-105289596D01*
X99154966Y-105286072D01*
X99249284Y-105274315D01*
X99342308Y-105254810D01*
X99433404Y-105227690D01*
X99521950Y-105193139D01*
X99607340Y-105151395D01*
X99688990Y-105102741D01*
X99766345Y-105047512D01*
X99838874Y-104986082D01*
X99906082Y-104918874D01*
X99967512Y-104846345D01*
X100022741Y-104768990D01*
X100071395Y-104687340D01*
X100113139Y-104601950D01*
X100147690Y-104513404D01*
X100174810Y-104422308D01*
X100194315Y-104329284D01*
X100206072Y-104234966D01*
X100210000Y-104140000D01*
X100206072Y-104045034D01*
X100194315Y-103950716D01*
X100174810Y-103857692D01*
X100147690Y-103766596D01*
X100113139Y-103678050D01*
X100071395Y-103592660D01*
X100022741Y-103511010D01*
X99967512Y-103433655D01*
X99906082Y-103361126D01*
X99838874Y-103293918D01*
X99766345Y-103232488D01*
X99688990Y-103177259D01*
X99688983Y-103177254D01*
X99607344Y-103128607D01*
X99607339Y-103128604D01*
X99521953Y-103086862D01*
X99521942Y-103086857D01*
X99433399Y-103052308D01*
X99342323Y-103025194D01*
X99342301Y-103025188D01*
X99249292Y-103005686D01*
X99249284Y-103005685D01*
X99154966Y-102993928D01*
X99116979Y-102992356D01*
X99060003Y-102990000D01*
X99059997Y-102990000D01*
X98988775Y-102992946D01*
X98965034Y-102993928D01*
X98917339Y-102999873D01*
X98870707Y-103005686D01*
X98777698Y-103025188D01*
X98777676Y-103025194D01*
X98686600Y-103052308D01*
X98598057Y-103086857D01*
X98598046Y-103086862D01*
X98512660Y-103128604D01*
X98512655Y-103128607D01*
X98431016Y-103177254D01*
X98353653Y-103232489D01*
X98281124Y-103293919D01*
X98213919Y-103361124D01*
X98152489Y-103433653D01*
X98097254Y-103511016D01*
X98048607Y-103592655D01*
X98048604Y-103592660D01*
X98006862Y-103678046D01*
X98006857Y-103678057D01*
X97972308Y-103766600D01*
X97945194Y-103857676D01*
X97945188Y-103857698D01*
X97925686Y-103950707D01*
X97913928Y-104045035D01*
X97910000Y-104139996D01*
X92590000Y-104139996D01*
X92586072Y-104045034D01*
X92574315Y-103950716D01*
X92554810Y-103857692D01*
X92527690Y-103766596D01*
X92493139Y-103678050D01*
X92451395Y-103592660D01*
X92402741Y-103511010D01*
X92347512Y-103433655D01*
X92286082Y-103361126D01*
X92218874Y-103293918D01*
X92146345Y-103232488D01*
X92068990Y-103177259D01*
X92068983Y-103177254D01*
X91987344Y-103128607D01*
X91987339Y-103128604D01*
X91901953Y-103086862D01*
X91901942Y-103086857D01*
X91813399Y-103052308D01*
X91722323Y-103025194D01*
X91722301Y-103025188D01*
X91629292Y-103005686D01*
X91629284Y-103005685D01*
X91534966Y-102993928D01*
X91496979Y-102992356D01*
X91440003Y-102990000D01*
X91439997Y-102990000D01*
X91368775Y-102992946D01*
X91345034Y-102993928D01*
X91297339Y-102999873D01*
X91250707Y-103005686D01*
X91157698Y-103025188D01*
X91157676Y-103025194D01*
X91066600Y-103052308D01*
X90978057Y-103086857D01*
X90978046Y-103086862D01*
X90892660Y-103128604D01*
X90892655Y-103128607D01*
X90811016Y-103177254D01*
X90733653Y-103232489D01*
X90661124Y-103293919D01*
X90593919Y-103361124D01*
X90532489Y-103433653D01*
X90477254Y-103511016D01*
X90428607Y-103592655D01*
X90428604Y-103592660D01*
X90386862Y-103678046D01*
X90386857Y-103678057D01*
X90352308Y-103766600D01*
X90325194Y-103857676D01*
X90325188Y-103857698D01*
X90305686Y-103950707D01*
X90293928Y-104045035D01*
X90290000Y-104139996D01*
X84970000Y-104139996D01*
X84966072Y-104045034D01*
X84954315Y-103950716D01*
X84934810Y-103857692D01*
X84907690Y-103766596D01*
X84873139Y-103678050D01*
X84831395Y-103592660D01*
X84782741Y-103511010D01*
X84727512Y-103433655D01*
X84666082Y-103361126D01*
X84598874Y-103293918D01*
X84526345Y-103232488D01*
X84448990Y-103177259D01*
X84448983Y-103177254D01*
X84367344Y-103128607D01*
X84367339Y-103128604D01*
X84281953Y-103086862D01*
X84281942Y-103086857D01*
X84193399Y-103052308D01*
X84102323Y-103025194D01*
X84102301Y-103025188D01*
X84009292Y-103005686D01*
X84009284Y-103005685D01*
X83914966Y-102993928D01*
X83876979Y-102992356D01*
X83820003Y-102990000D01*
X83819997Y-102990000D01*
X83748775Y-102992946D01*
X83725034Y-102993928D01*
X83677339Y-102999873D01*
X83630707Y-103005686D01*
X83537698Y-103025188D01*
X83537676Y-103025194D01*
X83446600Y-103052308D01*
X83358057Y-103086857D01*
X83358046Y-103086862D01*
X83272660Y-103128604D01*
X83272655Y-103128607D01*
X83191016Y-103177254D01*
X83113653Y-103232489D01*
X83041124Y-103293919D01*
X82973919Y-103361124D01*
X82912489Y-103433653D01*
X82857254Y-103511016D01*
X82808607Y-103592655D01*
X82808604Y-103592660D01*
X82766862Y-103678046D01*
X82766857Y-103678057D01*
X82732308Y-103766600D01*
X82705194Y-103857676D01*
X82705188Y-103857698D01*
X82685686Y-103950707D01*
X82673928Y-104045035D01*
X82670000Y-104139996D01*
X77350000Y-104139996D01*
X77346072Y-104045034D01*
X77334315Y-103950716D01*
X77314810Y-103857692D01*
X77287690Y-103766596D01*
X77253139Y-103678050D01*
X77211395Y-103592660D01*
X77162741Y-103511010D01*
X77107512Y-103433655D01*
X77046082Y-103361126D01*
X76978874Y-103293918D01*
X76906345Y-103232488D01*
X76828990Y-103177259D01*
X76828983Y-103177254D01*
X76747344Y-103128607D01*
X76747339Y-103128604D01*
X76661953Y-103086862D01*
X76661942Y-103086857D01*
X76573399Y-103052308D01*
X76482323Y-103025194D01*
X76482301Y-103025188D01*
X76389292Y-103005686D01*
X76389284Y-103005685D01*
X76294966Y-102993928D01*
X76256979Y-102992356D01*
X76200003Y-102990000D01*
X76199997Y-102990000D01*
X76128775Y-102992946D01*
X76105034Y-102993928D01*
X76057339Y-102999873D01*
X76010707Y-103005686D01*
X75917698Y-103025188D01*
X75917676Y-103025194D01*
X75826600Y-103052308D01*
X75738057Y-103086857D01*
X75738046Y-103086862D01*
X75652660Y-103128604D01*
X75652655Y-103128607D01*
X75571016Y-103177254D01*
X75493653Y-103232489D01*
X75421124Y-103293919D01*
X75353919Y-103361124D01*
X75292489Y-103433653D01*
X75237254Y-103511016D01*
X75188607Y-103592655D01*
X75188604Y-103592660D01*
X75146862Y-103678046D01*
X75146857Y-103678057D01*
X75112308Y-103766600D01*
X75085194Y-103857676D01*
X75085188Y-103857698D01*
X75065686Y-103950707D01*
X75053928Y-104045035D01*
X75050000Y-104139996D01*
X69730000Y-104139996D01*
X69726072Y-104045034D01*
X69714315Y-103950716D01*
X69694810Y-103857692D01*
X69667690Y-103766596D01*
X69633139Y-103678050D01*
X69591395Y-103592660D01*
X69542741Y-103511010D01*
X69487512Y-103433655D01*
X69426082Y-103361126D01*
X69358874Y-103293918D01*
X69286345Y-103232488D01*
X69208990Y-103177259D01*
X69208983Y-103177254D01*
X69127344Y-103128607D01*
X69127339Y-103128604D01*
X69041953Y-103086862D01*
X69041942Y-103086857D01*
X68953399Y-103052308D01*
X68862323Y-103025194D01*
X68862301Y-103025188D01*
X68769292Y-103005686D01*
X68769284Y-103005685D01*
X68674966Y-102993928D01*
X68636979Y-102992356D01*
X68580003Y-102990000D01*
X68579997Y-102990000D01*
X68508775Y-102992946D01*
X68485034Y-102993928D01*
X68437339Y-102999873D01*
X68390707Y-103005686D01*
X68297698Y-103025188D01*
X68297676Y-103025194D01*
X68206600Y-103052308D01*
X68118057Y-103086857D01*
X68118046Y-103086862D01*
X68032660Y-103128604D01*
X68032655Y-103128607D01*
X67951016Y-103177254D01*
X67873653Y-103232489D01*
X67801124Y-103293919D01*
X67733919Y-103361124D01*
X67672489Y-103433653D01*
X67617254Y-103511016D01*
X67568607Y-103592655D01*
X67568604Y-103592660D01*
X67526862Y-103678046D01*
X67526857Y-103678057D01*
X67492308Y-103766600D01*
X67465194Y-103857676D01*
X67465188Y-103857698D01*
X67445686Y-103950707D01*
X67433928Y-104045035D01*
X67430000Y-104139996D01*
X64820000Y-104139996D01*
X64820000Y-98520000D01*
X55929000Y-98520000D01*
X55894352Y-98505648D01*
X55880000Y-98471000D01*
X55880000Y-96519996D01*
X67430000Y-96519996D01*
X67430000Y-96520003D01*
X67433928Y-96614964D01*
X67445686Y-96709292D01*
X67465188Y-96802301D01*
X67465194Y-96802323D01*
X67492308Y-96893399D01*
X67526857Y-96981942D01*
X67526862Y-96981953D01*
X67568604Y-97067339D01*
X67568607Y-97067344D01*
X67617254Y-97148983D01*
X67617259Y-97148990D01*
X67672488Y-97226345D01*
X67733918Y-97298874D01*
X67801126Y-97366082D01*
X67873655Y-97427512D01*
X67951010Y-97482741D01*
X67951016Y-97482745D01*
X68032655Y-97531392D01*
X68032660Y-97531395D01*
X68118046Y-97573137D01*
X68118057Y-97573142D01*
X68146728Y-97584329D01*
X68206596Y-97607690D01*
X68297692Y-97634810D01*
X68390716Y-97654315D01*
X68485034Y-97666072D01*
X68569886Y-97669581D01*
X68579997Y-97670000D01*
X68580000Y-97670000D01*
X68580003Y-97670000D01*
X68589767Y-97669596D01*
X68674966Y-97666072D01*
X68769284Y-97654315D01*
X68862308Y-97634810D01*
X68953404Y-97607690D01*
X69041950Y-97573139D01*
X69127340Y-97531395D01*
X69208990Y-97482741D01*
X69286345Y-97427512D01*
X69358874Y-97366082D01*
X69426082Y-97298874D01*
X69487512Y-97226345D01*
X69542741Y-97148990D01*
X69591395Y-97067340D01*
X69633139Y-96981950D01*
X69667690Y-96893404D01*
X69694810Y-96802308D01*
X69714315Y-96709284D01*
X69726072Y-96614966D01*
X69730000Y-96520000D01*
X69730000Y-96519996D01*
X75050000Y-96519996D01*
X75050000Y-96520003D01*
X75053928Y-96614964D01*
X75065686Y-96709292D01*
X75085188Y-96802301D01*
X75085194Y-96802323D01*
X75112308Y-96893399D01*
X75146857Y-96981942D01*
X75146862Y-96981953D01*
X75188604Y-97067339D01*
X75188607Y-97067344D01*
X75237254Y-97148983D01*
X75237259Y-97148990D01*
X75292488Y-97226345D01*
X75353918Y-97298874D01*
X75421126Y-97366082D01*
X75493655Y-97427512D01*
X75571010Y-97482741D01*
X75571016Y-97482745D01*
X75652655Y-97531392D01*
X75652660Y-97531395D01*
X75738046Y-97573137D01*
X75738057Y-97573142D01*
X75766728Y-97584329D01*
X75826596Y-97607690D01*
X75917692Y-97634810D01*
X76010716Y-97654315D01*
X76105034Y-97666072D01*
X76189886Y-97669581D01*
X76199997Y-97670000D01*
X76200000Y-97670000D01*
X76200003Y-97670000D01*
X76209767Y-97669596D01*
X76294966Y-97666072D01*
X76389284Y-97654315D01*
X76482308Y-97634810D01*
X76573404Y-97607690D01*
X76661950Y-97573139D01*
X76747340Y-97531395D01*
X76828990Y-97482741D01*
X76906345Y-97427512D01*
X76978874Y-97366082D01*
X77046082Y-97298874D01*
X77107512Y-97226345D01*
X77162741Y-97148990D01*
X77211395Y-97067340D01*
X77253139Y-96981950D01*
X77287690Y-96893404D01*
X77314810Y-96802308D01*
X77334315Y-96709284D01*
X77346072Y-96614966D01*
X77350000Y-96520000D01*
X77350000Y-96519996D01*
X82670000Y-96519996D01*
X82670000Y-96520003D01*
X82673928Y-96614964D01*
X82685686Y-96709292D01*
X82705188Y-96802301D01*
X82705194Y-96802323D01*
X82732308Y-96893399D01*
X82766857Y-96981942D01*
X82766862Y-96981953D01*
X82808604Y-97067339D01*
X82808607Y-97067344D01*
X82857254Y-97148983D01*
X82857259Y-97148990D01*
X82912488Y-97226345D01*
X82973918Y-97298874D01*
X83041126Y-97366082D01*
X83113655Y-97427512D01*
X83191010Y-97482741D01*
X83191016Y-97482745D01*
X83272655Y-97531392D01*
X83272660Y-97531395D01*
X83358046Y-97573137D01*
X83358057Y-97573142D01*
X83386728Y-97584329D01*
X83446596Y-97607690D01*
X83537692Y-97634810D01*
X83630716Y-97654315D01*
X83725034Y-97666072D01*
X83809886Y-97669581D01*
X83819997Y-97670000D01*
X83820000Y-97670000D01*
X83820003Y-97670000D01*
X83829767Y-97669596D01*
X83914966Y-97666072D01*
X84009284Y-97654315D01*
X84102308Y-97634810D01*
X84193404Y-97607690D01*
X84281950Y-97573139D01*
X84367340Y-97531395D01*
X84448990Y-97482741D01*
X84526345Y-97427512D01*
X84598874Y-97366082D01*
X84666082Y-97298874D01*
X84727512Y-97226345D01*
X84782741Y-97148990D01*
X84831395Y-97067340D01*
X84873139Y-96981950D01*
X84907690Y-96893404D01*
X84934810Y-96802308D01*
X84954315Y-96709284D01*
X84966072Y-96614966D01*
X84970000Y-96520000D01*
X84970000Y-96519996D01*
X90290000Y-96519996D01*
X90290000Y-96520003D01*
X90293928Y-96614964D01*
X90305686Y-96709292D01*
X90325188Y-96802301D01*
X90325194Y-96802323D01*
X90352308Y-96893399D01*
X90386857Y-96981942D01*
X90386862Y-96981953D01*
X90428604Y-97067339D01*
X90428607Y-97067344D01*
X90477254Y-97148983D01*
X90477259Y-97148990D01*
X90532488Y-97226345D01*
X90593918Y-97298874D01*
X90661126Y-97366082D01*
X90733655Y-97427512D01*
X90811010Y-97482741D01*
X90811016Y-97482745D01*
X90892655Y-97531392D01*
X90892660Y-97531395D01*
X90978046Y-97573137D01*
X90978057Y-97573142D01*
X91006728Y-97584329D01*
X91066596Y-97607690D01*
X91157692Y-97634810D01*
X91250716Y-97654315D01*
X91345034Y-97666072D01*
X91429886Y-97669581D01*
X91439997Y-97670000D01*
X91440000Y-97670000D01*
X91440003Y-97670000D01*
X91449767Y-97669596D01*
X91534966Y-97666072D01*
X91629284Y-97654315D01*
X91722308Y-97634810D01*
X91813404Y-97607690D01*
X91901950Y-97573139D01*
X91987340Y-97531395D01*
X92068990Y-97482741D01*
X92146345Y-97427512D01*
X92218874Y-97366082D01*
X92286082Y-97298874D01*
X92347512Y-97226345D01*
X92402741Y-97148990D01*
X92451395Y-97067340D01*
X92493139Y-96981950D01*
X92527690Y-96893404D01*
X92554810Y-96802308D01*
X92574315Y-96709284D01*
X92586072Y-96614966D01*
X92590000Y-96520000D01*
X92590000Y-96519996D01*
X97910000Y-96519996D01*
X97910000Y-96520003D01*
X97913928Y-96614964D01*
X97925686Y-96709292D01*
X97945188Y-96802301D01*
X97945194Y-96802323D01*
X97972308Y-96893399D01*
X98006857Y-96981942D01*
X98006862Y-96981953D01*
X98048604Y-97067339D01*
X98048607Y-97067344D01*
X98097254Y-97148983D01*
X98097259Y-97148990D01*
X98152488Y-97226345D01*
X98213918Y-97298874D01*
X98281126Y-97366082D01*
X98353655Y-97427512D01*
X98431010Y-97482741D01*
X98431016Y-97482745D01*
X98512655Y-97531392D01*
X98512660Y-97531395D01*
X98598046Y-97573137D01*
X98598057Y-97573142D01*
X98626728Y-97584329D01*
X98686596Y-97607690D01*
X98777692Y-97634810D01*
X98870716Y-97654315D01*
X98965034Y-97666072D01*
X99049886Y-97669581D01*
X99059997Y-97670000D01*
X99060000Y-97670000D01*
X99060003Y-97670000D01*
X99069767Y-97669596D01*
X99154966Y-97666072D01*
X99249284Y-97654315D01*
X99342308Y-97634810D01*
X99433404Y-97607690D01*
X99521950Y-97573139D01*
X99607340Y-97531395D01*
X99688990Y-97482741D01*
X99766345Y-97427512D01*
X99838874Y-97366082D01*
X99906082Y-97298874D01*
X99967512Y-97226345D01*
X100022741Y-97148990D01*
X100071395Y-97067340D01*
X100113139Y-96981950D01*
X100147690Y-96893404D01*
X100174810Y-96802308D01*
X100194315Y-96709284D01*
X100206072Y-96614966D01*
X100210000Y-96520000D01*
X100206072Y-96425034D01*
X100194315Y-96330716D01*
X100174810Y-96237692D01*
X100147690Y-96146596D01*
X100113139Y-96058050D01*
X100071395Y-95972660D01*
X100022741Y-95891010D01*
X99967512Y-95813655D01*
X99906082Y-95741126D01*
X99838874Y-95673918D01*
X99766345Y-95612488D01*
X99688990Y-95557259D01*
X99688983Y-95557254D01*
X99607344Y-95508607D01*
X99607339Y-95508604D01*
X99521953Y-95466862D01*
X99521942Y-95466857D01*
X99433399Y-95432308D01*
X99342323Y-95405194D01*
X99342301Y-95405188D01*
X99249292Y-95385686D01*
X99249284Y-95385685D01*
X99154966Y-95373928D01*
X99116979Y-95372356D01*
X99060003Y-95370000D01*
X99059997Y-95370000D01*
X98988775Y-95372946D01*
X98965034Y-95373928D01*
X98917339Y-95379873D01*
X98870707Y-95385686D01*
X98777698Y-95405188D01*
X98777676Y-95405194D01*
X98686600Y-95432308D01*
X98598057Y-95466857D01*
X98598046Y-95466862D01*
X98512660Y-95508604D01*
X98512655Y-95508607D01*
X98431016Y-95557254D01*
X98353653Y-95612489D01*
X98281124Y-95673919D01*
X98213919Y-95741124D01*
X98152489Y-95813653D01*
X98097254Y-95891016D01*
X98048607Y-95972655D01*
X98048604Y-95972660D01*
X98006862Y-96058046D01*
X98006857Y-96058057D01*
X97972308Y-96146600D01*
X97945194Y-96237676D01*
X97945188Y-96237698D01*
X97925686Y-96330707D01*
X97913928Y-96425035D01*
X97910000Y-96519996D01*
X92590000Y-96519996D01*
X92586072Y-96425034D01*
X92574315Y-96330716D01*
X92554810Y-96237692D01*
X92527690Y-96146596D01*
X92493139Y-96058050D01*
X92451395Y-95972660D01*
X92402741Y-95891010D01*
X92347512Y-95813655D01*
X92286082Y-95741126D01*
X92218874Y-95673918D01*
X92146345Y-95612488D01*
X92068990Y-95557259D01*
X92068983Y-95557254D01*
X91987344Y-95508607D01*
X91987339Y-95508604D01*
X91901953Y-95466862D01*
X91901942Y-95466857D01*
X91813399Y-95432308D01*
X91722323Y-95405194D01*
X91722301Y-95405188D01*
X91629292Y-95385686D01*
X91629284Y-95385685D01*
X91534966Y-95373928D01*
X91496979Y-95372356D01*
X91440003Y-95370000D01*
X91439997Y-95370000D01*
X91368775Y-95372946D01*
X91345034Y-95373928D01*
X91297339Y-95379873D01*
X91250707Y-95385686D01*
X91157698Y-95405188D01*
X91157676Y-95405194D01*
X91066600Y-95432308D01*
X90978057Y-95466857D01*
X90978046Y-95466862D01*
X90892660Y-95508604D01*
X90892655Y-95508607D01*
X90811016Y-95557254D01*
X90733653Y-95612489D01*
X90661124Y-95673919D01*
X90593919Y-95741124D01*
X90532489Y-95813653D01*
X90477254Y-95891016D01*
X90428607Y-95972655D01*
X90428604Y-95972660D01*
X90386862Y-96058046D01*
X90386857Y-96058057D01*
X90352308Y-96146600D01*
X90325194Y-96237676D01*
X90325188Y-96237698D01*
X90305686Y-96330707D01*
X90293928Y-96425035D01*
X90290000Y-96519996D01*
X84970000Y-96519996D01*
X84966072Y-96425034D01*
X84954315Y-96330716D01*
X84934810Y-96237692D01*
X84907690Y-96146596D01*
X84873139Y-96058050D01*
X84831395Y-95972660D01*
X84782741Y-95891010D01*
X84727512Y-95813655D01*
X84666082Y-95741126D01*
X84598874Y-95673918D01*
X84526345Y-95612488D01*
X84448990Y-95557259D01*
X84448983Y-95557254D01*
X84367344Y-95508607D01*
X84367339Y-95508604D01*
X84281953Y-95466862D01*
X84281942Y-95466857D01*
X84193399Y-95432308D01*
X84102323Y-95405194D01*
X84102301Y-95405188D01*
X84009292Y-95385686D01*
X84009284Y-95385685D01*
X83914966Y-95373928D01*
X83876979Y-95372356D01*
X83820003Y-95370000D01*
X83819997Y-95370000D01*
X83748775Y-95372946D01*
X83725034Y-95373928D01*
X83677339Y-95379873D01*
X83630707Y-95385686D01*
X83537698Y-95405188D01*
X83537676Y-95405194D01*
X83446600Y-95432308D01*
X83358057Y-95466857D01*
X83358046Y-95466862D01*
X83272660Y-95508604D01*
X83272655Y-95508607D01*
X83191016Y-95557254D01*
X83113653Y-95612489D01*
X83041124Y-95673919D01*
X82973919Y-95741124D01*
X82912489Y-95813653D01*
X82857254Y-95891016D01*
X82808607Y-95972655D01*
X82808604Y-95972660D01*
X82766862Y-96058046D01*
X82766857Y-96058057D01*
X82732308Y-96146600D01*
X82705194Y-96237676D01*
X82705188Y-96237698D01*
X82685686Y-96330707D01*
X82673928Y-96425035D01*
X82670000Y-96519996D01*
X77350000Y-96519996D01*
X77346072Y-96425034D01*
X77334315Y-96330716D01*
X77314810Y-96237692D01*
X77287690Y-96146596D01*
X77253139Y-96058050D01*
X77211395Y-95972660D01*
X77162741Y-95891010D01*
X77107512Y-95813655D01*
X77046082Y-95741126D01*
X76978874Y-95673918D01*
X76906345Y-95612488D01*
X76828990Y-95557259D01*
X76828983Y-95557254D01*
X76747344Y-95508607D01*
X76747339Y-95508604D01*
X76661953Y-95466862D01*
X76661942Y-95466857D01*
X76573399Y-95432308D01*
X76482323Y-95405194D01*
X76482301Y-95405188D01*
X76389292Y-95385686D01*
X76389284Y-95385685D01*
X76294966Y-95373928D01*
X76256979Y-95372356D01*
X76200003Y-95370000D01*
X76199997Y-95370000D01*
X76128775Y-95372946D01*
X76105034Y-95373928D01*
X76057339Y-95379873D01*
X76010707Y-95385686D01*
X75917698Y-95405188D01*
X75917676Y-95405194D01*
X75826600Y-95432308D01*
X75738057Y-95466857D01*
X75738046Y-95466862D01*
X75652660Y-95508604D01*
X75652655Y-95508607D01*
X75571016Y-95557254D01*
X75493653Y-95612489D01*
X75421124Y-95673919D01*
X75353919Y-95741124D01*
X75292489Y-95813653D01*
X75237254Y-95891016D01*
X75188607Y-95972655D01*
X75188604Y-95972660D01*
X75146862Y-96058046D01*
X75146857Y-96058057D01*
X75112308Y-96146600D01*
X75085194Y-96237676D01*
X75085188Y-96237698D01*
X75065686Y-96330707D01*
X75053928Y-96425035D01*
X75050000Y-96519996D01*
X69730000Y-96519996D01*
X69726072Y-96425034D01*
X69714315Y-96330716D01*
X69694810Y-96237692D01*
X69667690Y-96146596D01*
X69633139Y-96058050D01*
X69591395Y-95972660D01*
X69542741Y-95891010D01*
X69487512Y-95813655D01*
X69426082Y-95741126D01*
X69358874Y-95673918D01*
X69286345Y-95612488D01*
X69208990Y-95557259D01*
X69208983Y-95557254D01*
X69127344Y-95508607D01*
X69127339Y-95508604D01*
X69041953Y-95466862D01*
X69041942Y-95466857D01*
X68953399Y-95432308D01*
X68862323Y-95405194D01*
X68862301Y-95405188D01*
X68769292Y-95385686D01*
X68769284Y-95385685D01*
X68674966Y-95373928D01*
X68636979Y-95372356D01*
X68580003Y-95370000D01*
X68579997Y-95370000D01*
X68508775Y-95372946D01*
X68485034Y-95373928D01*
X68437339Y-95379873D01*
X68390707Y-95385686D01*
X68297698Y-95405188D01*
X68297676Y-95405194D01*
X68206600Y-95432308D01*
X68118057Y-95466857D01*
X68118046Y-95466862D01*
X68032660Y-95508604D01*
X68032655Y-95508607D01*
X67951016Y-95557254D01*
X67873653Y-95612489D01*
X67801124Y-95673919D01*
X67733919Y-95741124D01*
X67672489Y-95813653D01*
X67617254Y-95891016D01*
X67568607Y-95972655D01*
X67568604Y-95972660D01*
X67526862Y-96058046D01*
X67526857Y-96058057D01*
X67492308Y-96146600D01*
X67465194Y-96237676D01*
X67465188Y-96237698D01*
X67445686Y-96330707D01*
X67433928Y-96425035D01*
X67430000Y-96519996D01*
X55880000Y-96519996D01*
X55880000Y-94569000D01*
X55894352Y-94534352D01*
X55929000Y-94520000D01*
X64820000Y-94520000D01*
X64820000Y-88899996D01*
X67430000Y-88899996D01*
X67430000Y-88900003D01*
X67433928Y-88994964D01*
X67445686Y-89089292D01*
X67465188Y-89182301D01*
X67465194Y-89182323D01*
X67492308Y-89273399D01*
X67526857Y-89361942D01*
X67526862Y-89361953D01*
X67568604Y-89447339D01*
X67568607Y-89447344D01*
X67617254Y-89528983D01*
X67617259Y-89528990D01*
X67672488Y-89606345D01*
X67733918Y-89678874D01*
X67801126Y-89746082D01*
X67873655Y-89807512D01*
X67951010Y-89862741D01*
X67951016Y-89862745D01*
X68032655Y-89911392D01*
X68032660Y-89911395D01*
X68118046Y-89953137D01*
X68118057Y-89953142D01*
X68146728Y-89964329D01*
X68206596Y-89987690D01*
X68297692Y-90014810D01*
X68390716Y-90034315D01*
X68485034Y-90046072D01*
X68569886Y-90049581D01*
X68579997Y-90050000D01*
X68580000Y-90050000D01*
X68580003Y-90050000D01*
X68589767Y-90049596D01*
X68674966Y-90046072D01*
X68769284Y-90034315D01*
X68862308Y-90014810D01*
X68953404Y-89987690D01*
X69041950Y-89953139D01*
X69127340Y-89911395D01*
X69208990Y-89862741D01*
X69286345Y-89807512D01*
X69358874Y-89746082D01*
X69426082Y-89678874D01*
X69487512Y-89606345D01*
X69542741Y-89528990D01*
X69591395Y-89447340D01*
X69633139Y-89361950D01*
X69667690Y-89273404D01*
X69694810Y-89182308D01*
X69714315Y-89089284D01*
X69726072Y-88994966D01*
X69730000Y-88900000D01*
X69730000Y-88899996D01*
X75050000Y-88899996D01*
X75050000Y-88900003D01*
X75053928Y-88994964D01*
X75065686Y-89089292D01*
X75085188Y-89182301D01*
X75085194Y-89182323D01*
X75112308Y-89273399D01*
X75146857Y-89361942D01*
X75146862Y-89361953D01*
X75188604Y-89447339D01*
X75188607Y-89447344D01*
X75237254Y-89528983D01*
X75237259Y-89528990D01*
X75292488Y-89606345D01*
X75353918Y-89678874D01*
X75421126Y-89746082D01*
X75493655Y-89807512D01*
X75571010Y-89862741D01*
X75571016Y-89862745D01*
X75652655Y-89911392D01*
X75652660Y-89911395D01*
X75738046Y-89953137D01*
X75738057Y-89953142D01*
X75766728Y-89964329D01*
X75826596Y-89987690D01*
X75917692Y-90014810D01*
X76010716Y-90034315D01*
X76105034Y-90046072D01*
X76189886Y-90049581D01*
X76199997Y-90050000D01*
X76200000Y-90050000D01*
X76200003Y-90050000D01*
X76209767Y-90049596D01*
X76294966Y-90046072D01*
X76389284Y-90034315D01*
X76482308Y-90014810D01*
X76573404Y-89987690D01*
X76661950Y-89953139D01*
X76747340Y-89911395D01*
X76828990Y-89862741D01*
X76906345Y-89807512D01*
X76978874Y-89746082D01*
X77046082Y-89678874D01*
X77107512Y-89606345D01*
X77162741Y-89528990D01*
X77211395Y-89447340D01*
X77253139Y-89361950D01*
X77287690Y-89273404D01*
X77314810Y-89182308D01*
X77334315Y-89089284D01*
X77346072Y-88994966D01*
X77350000Y-88900000D01*
X77350000Y-88899996D01*
X82670000Y-88899996D01*
X82670000Y-88900003D01*
X82673928Y-88994964D01*
X82685686Y-89089292D01*
X82705188Y-89182301D01*
X82705194Y-89182323D01*
X82732308Y-89273399D01*
X82766857Y-89361942D01*
X82766862Y-89361953D01*
X82808604Y-89447339D01*
X82808607Y-89447344D01*
X82857254Y-89528983D01*
X82857259Y-89528990D01*
X82912488Y-89606345D01*
X82973918Y-89678874D01*
X83041126Y-89746082D01*
X83113655Y-89807512D01*
X83191010Y-89862741D01*
X83191016Y-89862745D01*
X83272655Y-89911392D01*
X83272660Y-89911395D01*
X83358046Y-89953137D01*
X83358057Y-89953142D01*
X83386728Y-89964329D01*
X83446596Y-89987690D01*
X83537692Y-90014810D01*
X83630716Y-90034315D01*
X83725034Y-90046072D01*
X83809886Y-90049581D01*
X83819997Y-90050000D01*
X83820000Y-90050000D01*
X83820003Y-90050000D01*
X83829767Y-90049596D01*
X83914966Y-90046072D01*
X84009284Y-90034315D01*
X84102308Y-90014810D01*
X84193404Y-89987690D01*
X84281950Y-89953139D01*
X84367340Y-89911395D01*
X84448990Y-89862741D01*
X84526345Y-89807512D01*
X84598874Y-89746082D01*
X84666082Y-89678874D01*
X84727512Y-89606345D01*
X84782741Y-89528990D01*
X84831395Y-89447340D01*
X84873139Y-89361950D01*
X84907690Y-89273404D01*
X84934810Y-89182308D01*
X84954315Y-89089284D01*
X84966072Y-88994966D01*
X84970000Y-88900000D01*
X84970000Y-88899996D01*
X90290000Y-88899996D01*
X90290000Y-88900003D01*
X90293928Y-88994964D01*
X90305686Y-89089292D01*
X90325188Y-89182301D01*
X90325194Y-89182323D01*
X90352308Y-89273399D01*
X90386857Y-89361942D01*
X90386862Y-89361953D01*
X90428604Y-89447339D01*
X90428607Y-89447344D01*
X90477254Y-89528983D01*
X90477259Y-89528990D01*
X90532488Y-89606345D01*
X90593918Y-89678874D01*
X90661126Y-89746082D01*
X90733655Y-89807512D01*
X90811010Y-89862741D01*
X90811016Y-89862745D01*
X90892655Y-89911392D01*
X90892660Y-89911395D01*
X90978046Y-89953137D01*
X90978057Y-89953142D01*
X91006728Y-89964329D01*
X91066596Y-89987690D01*
X91157692Y-90014810D01*
X91250716Y-90034315D01*
X91345034Y-90046072D01*
X91429886Y-90049581D01*
X91439997Y-90050000D01*
X91440000Y-90050000D01*
X91440003Y-90050000D01*
X91449767Y-90049596D01*
X91534966Y-90046072D01*
X91629284Y-90034315D01*
X91722308Y-90014810D01*
X91813404Y-89987690D01*
X91901950Y-89953139D01*
X91987340Y-89911395D01*
X92068990Y-89862741D01*
X92146345Y-89807512D01*
X92218874Y-89746082D01*
X92286082Y-89678874D01*
X92347512Y-89606345D01*
X92402741Y-89528990D01*
X92451395Y-89447340D01*
X92493139Y-89361950D01*
X92527690Y-89273404D01*
X92554810Y-89182308D01*
X92574315Y-89089284D01*
X92586072Y-88994966D01*
X92590000Y-88900000D01*
X92590000Y-88899996D01*
X97910000Y-88899996D01*
X97910000Y-88900003D01*
X97913928Y-88994964D01*
X97925686Y-89089292D01*
X97945188Y-89182301D01*
X97945194Y-89182323D01*
X97972308Y-89273399D01*
X98006857Y-89361942D01*
X98006862Y-89361953D01*
X98048604Y-89447339D01*
X98048607Y-89447344D01*
X98097254Y-89528983D01*
X98097259Y-89528990D01*
X98152488Y-89606345D01*
X98213918Y-89678874D01*
X98281126Y-89746082D01*
X98353655Y-89807512D01*
X98431010Y-89862741D01*
X98431016Y-89862745D01*
X98512655Y-89911392D01*
X98512660Y-89911395D01*
X98598046Y-89953137D01*
X98598057Y-89953142D01*
X98626728Y-89964329D01*
X98686596Y-89987690D01*
X98777692Y-90014810D01*
X98870716Y-90034315D01*
X98965034Y-90046072D01*
X99049886Y-90049581D01*
X99059997Y-90050000D01*
X99060000Y-90050000D01*
X99060003Y-90050000D01*
X99069767Y-90049596D01*
X99154966Y-90046072D01*
X99249284Y-90034315D01*
X99342308Y-90014810D01*
X99433404Y-89987690D01*
X99521950Y-89953139D01*
X99607340Y-89911395D01*
X99688990Y-89862741D01*
X99766345Y-89807512D01*
X99838874Y-89746082D01*
X99906082Y-89678874D01*
X99967512Y-89606345D01*
X100022741Y-89528990D01*
X100071395Y-89447340D01*
X100113139Y-89361950D01*
X100147690Y-89273404D01*
X100174810Y-89182308D01*
X100194315Y-89089284D01*
X100206072Y-88994966D01*
X100210000Y-88900000D01*
X100206072Y-88805034D01*
X100194315Y-88710716D01*
X100174810Y-88617692D01*
X100147690Y-88526596D01*
X100113139Y-88438050D01*
X100071395Y-88352660D01*
X100022741Y-88271010D01*
X99967512Y-88193655D01*
X99906082Y-88121126D01*
X99838874Y-88053918D01*
X99766345Y-87992488D01*
X99688990Y-87937259D01*
X99688983Y-87937254D01*
X99607344Y-87888607D01*
X99607339Y-87888604D01*
X99521953Y-87846862D01*
X99521942Y-87846857D01*
X99433399Y-87812308D01*
X99342323Y-87785194D01*
X99342301Y-87785188D01*
X99249292Y-87765686D01*
X99249284Y-87765685D01*
X99154966Y-87753928D01*
X99116979Y-87752356D01*
X99060003Y-87750000D01*
X99059997Y-87750000D01*
X98988775Y-87752946D01*
X98965034Y-87753928D01*
X98917339Y-87759873D01*
X98870707Y-87765686D01*
X98777698Y-87785188D01*
X98777676Y-87785194D01*
X98686600Y-87812308D01*
X98598057Y-87846857D01*
X98598046Y-87846862D01*
X98512660Y-87888604D01*
X98512655Y-87888607D01*
X98431016Y-87937254D01*
X98353653Y-87992489D01*
X98281124Y-88053919D01*
X98213919Y-88121124D01*
X98152489Y-88193653D01*
X98097254Y-88271016D01*
X98048607Y-88352655D01*
X98048604Y-88352660D01*
X98006862Y-88438046D01*
X98006857Y-88438057D01*
X97972308Y-88526600D01*
X97945194Y-88617676D01*
X97945188Y-88617698D01*
X97925686Y-88710707D01*
X97913928Y-88805035D01*
X97910000Y-88899996D01*
X92590000Y-88899996D01*
X92586072Y-88805034D01*
X92574315Y-88710716D01*
X92554810Y-88617692D01*
X92527690Y-88526596D01*
X92493139Y-88438050D01*
X92451395Y-88352660D01*
X92402741Y-88271010D01*
X92347512Y-88193655D01*
X92286082Y-88121126D01*
X92218874Y-88053918D01*
X92146345Y-87992488D01*
X92068990Y-87937259D01*
X92068983Y-87937254D01*
X91987344Y-87888607D01*
X91987339Y-87888604D01*
X91901953Y-87846862D01*
X91901942Y-87846857D01*
X91813399Y-87812308D01*
X91722323Y-87785194D01*
X91722301Y-87785188D01*
X91629292Y-87765686D01*
X91629284Y-87765685D01*
X91534966Y-87753928D01*
X91496979Y-87752356D01*
X91440003Y-87750000D01*
X91439997Y-87750000D01*
X91368775Y-87752946D01*
X91345034Y-87753928D01*
X91297339Y-87759873D01*
X91250707Y-87765686D01*
X91157698Y-87785188D01*
X91157676Y-87785194D01*
X91066600Y-87812308D01*
X90978057Y-87846857D01*
X90978046Y-87846862D01*
X90892660Y-87888604D01*
X90892655Y-87888607D01*
X90811016Y-87937254D01*
X90733653Y-87992489D01*
X90661124Y-88053919D01*
X90593919Y-88121124D01*
X90532489Y-88193653D01*
X90477254Y-88271016D01*
X90428607Y-88352655D01*
X90428604Y-88352660D01*
X90386862Y-88438046D01*
X90386857Y-88438057D01*
X90352308Y-88526600D01*
X90325194Y-88617676D01*
X90325188Y-88617698D01*
X90305686Y-88710707D01*
X90293928Y-88805035D01*
X90290000Y-88899996D01*
X84970000Y-88899996D01*
X84966072Y-88805034D01*
X84954315Y-88710716D01*
X84934810Y-88617692D01*
X84907690Y-88526596D01*
X84873139Y-88438050D01*
X84831395Y-88352660D01*
X84782741Y-88271010D01*
X84727512Y-88193655D01*
X84666082Y-88121126D01*
X84598874Y-88053918D01*
X84526345Y-87992488D01*
X84448990Y-87937259D01*
X84448983Y-87937254D01*
X84367344Y-87888607D01*
X84367339Y-87888604D01*
X84281953Y-87846862D01*
X84281942Y-87846857D01*
X84193399Y-87812308D01*
X84102323Y-87785194D01*
X84102301Y-87785188D01*
X84009292Y-87765686D01*
X84009284Y-87765685D01*
X83914966Y-87753928D01*
X83876979Y-87752356D01*
X83820003Y-87750000D01*
X83819997Y-87750000D01*
X83748775Y-87752946D01*
X83725034Y-87753928D01*
X83677339Y-87759873D01*
X83630707Y-87765686D01*
X83537698Y-87785188D01*
X83537676Y-87785194D01*
X83446600Y-87812308D01*
X83358057Y-87846857D01*
X83358046Y-87846862D01*
X83272660Y-87888604D01*
X83272655Y-87888607D01*
X83191016Y-87937254D01*
X83113653Y-87992489D01*
X83041124Y-88053919D01*
X82973919Y-88121124D01*
X82912489Y-88193653D01*
X82857254Y-88271016D01*
X82808607Y-88352655D01*
X82808604Y-88352660D01*
X82766862Y-88438046D01*
X82766857Y-88438057D01*
X82732308Y-88526600D01*
X82705194Y-88617676D01*
X82705188Y-88617698D01*
X82685686Y-88710707D01*
X82673928Y-88805035D01*
X82670000Y-88899996D01*
X77350000Y-88899996D01*
X77346072Y-88805034D01*
X77334315Y-88710716D01*
X77314810Y-88617692D01*
X77287690Y-88526596D01*
X77253139Y-88438050D01*
X77211395Y-88352660D01*
X77162741Y-88271010D01*
X77107512Y-88193655D01*
X77046082Y-88121126D01*
X76978874Y-88053918D01*
X76906345Y-87992488D01*
X76828990Y-87937259D01*
X76828983Y-87937254D01*
X76747344Y-87888607D01*
X76747339Y-87888604D01*
X76661953Y-87846862D01*
X76661942Y-87846857D01*
X76573399Y-87812308D01*
X76482323Y-87785194D01*
X76482301Y-87785188D01*
X76389292Y-87765686D01*
X76389284Y-87765685D01*
X76294966Y-87753928D01*
X76256979Y-87752356D01*
X76200003Y-87750000D01*
X76199997Y-87750000D01*
X76128775Y-87752946D01*
X76105034Y-87753928D01*
X76057339Y-87759873D01*
X76010707Y-87765686D01*
X75917698Y-87785188D01*
X75917676Y-87785194D01*
X75826600Y-87812308D01*
X75738057Y-87846857D01*
X75738046Y-87846862D01*
X75652660Y-87888604D01*
X75652655Y-87888607D01*
X75571016Y-87937254D01*
X75493653Y-87992489D01*
X75421124Y-88053919D01*
X75353919Y-88121124D01*
X75292489Y-88193653D01*
X75237254Y-88271016D01*
X75188607Y-88352655D01*
X75188604Y-88352660D01*
X75146862Y-88438046D01*
X75146857Y-88438057D01*
X75112308Y-88526600D01*
X75085194Y-88617676D01*
X75085188Y-88617698D01*
X75065686Y-88710707D01*
X75053928Y-88805035D01*
X75050000Y-88899996D01*
X69730000Y-88899996D01*
X69726072Y-88805034D01*
X69714315Y-88710716D01*
X69694810Y-88617692D01*
X69667690Y-88526596D01*
X69633139Y-88438050D01*
X69591395Y-88352660D01*
X69542741Y-88271010D01*
X69487512Y-88193655D01*
X69426082Y-88121126D01*
X69358874Y-88053918D01*
X69286345Y-87992488D01*
X69208990Y-87937259D01*
X69208983Y-87937254D01*
X69127344Y-87888607D01*
X69127339Y-87888604D01*
X69041953Y-87846862D01*
X69041942Y-87846857D01*
X68953399Y-87812308D01*
X68862323Y-87785194D01*
X68862301Y-87785188D01*
X68769292Y-87765686D01*
X68769284Y-87765685D01*
X68674966Y-87753928D01*
X68636979Y-87752356D01*
X68580003Y-87750000D01*
X68579997Y-87750000D01*
X68508775Y-87752946D01*
X68485034Y-87753928D01*
X68437339Y-87759873D01*
X68390707Y-87765686D01*
X68297698Y-87785188D01*
X68297676Y-87785194D01*
X68206600Y-87812308D01*
X68118057Y-87846857D01*
X68118046Y-87846862D01*
X68032660Y-87888604D01*
X68032655Y-87888607D01*
X67951016Y-87937254D01*
X67873653Y-87992489D01*
X67801124Y-88053919D01*
X67733919Y-88121124D01*
X67672489Y-88193653D01*
X67617254Y-88271016D01*
X67568607Y-88352655D01*
X67568604Y-88352660D01*
X67526862Y-88438046D01*
X67526857Y-88438057D01*
X67492308Y-88526600D01*
X67465194Y-88617676D01*
X67465188Y-88617698D01*
X67445686Y-88710707D01*
X67433928Y-88805035D01*
X67430000Y-88899996D01*
X64820000Y-88899996D01*
X64820000Y-81279996D01*
X67430000Y-81279996D01*
X67430000Y-81280003D01*
X67433928Y-81374964D01*
X67445686Y-81469292D01*
X67465188Y-81562301D01*
X67465194Y-81562323D01*
X67492308Y-81653399D01*
X67526857Y-81741942D01*
X67526862Y-81741953D01*
X67568604Y-81827339D01*
X67568607Y-81827344D01*
X67617254Y-81908983D01*
X67617259Y-81908990D01*
X67672488Y-81986345D01*
X67733918Y-82058874D01*
X67801126Y-82126082D01*
X67873655Y-82187512D01*
X67951010Y-82242741D01*
X67951016Y-82242745D01*
X68032655Y-82291392D01*
X68032660Y-82291395D01*
X68118046Y-82333137D01*
X68118057Y-82333142D01*
X68146728Y-82344329D01*
X68206596Y-82367690D01*
X68297692Y-82394810D01*
X68390716Y-82414315D01*
X68485034Y-82426072D01*
X68569886Y-82429581D01*
X68579997Y-82430000D01*
X68580000Y-82430000D01*
X68580003Y-82430000D01*
X68589767Y-82429596D01*
X68674966Y-82426072D01*
X68769284Y-82414315D01*
X68862308Y-82394810D01*
X68953404Y-82367690D01*
X69041950Y-82333139D01*
X69127340Y-82291395D01*
X69208990Y-82242741D01*
X69286345Y-82187512D01*
X69358874Y-82126082D01*
X69426082Y-82058874D01*
X69487512Y-81986345D01*
X69542741Y-81908990D01*
X69591395Y-81827340D01*
X69633139Y-81741950D01*
X69667690Y-81653404D01*
X69694810Y-81562308D01*
X69714315Y-81469284D01*
X69726072Y-81374966D01*
X69730000Y-81280000D01*
X69730000Y-81279996D01*
X75050000Y-81279996D01*
X75050000Y-81280003D01*
X75053928Y-81374964D01*
X75065686Y-81469292D01*
X75085188Y-81562301D01*
X75085194Y-81562323D01*
X75112308Y-81653399D01*
X75146857Y-81741942D01*
X75146862Y-81741953D01*
X75188604Y-81827339D01*
X75188607Y-81827344D01*
X75237254Y-81908983D01*
X75237259Y-81908990D01*
X75292488Y-81986345D01*
X75353918Y-82058874D01*
X75421126Y-82126082D01*
X75493655Y-82187512D01*
X75571010Y-82242741D01*
X75571016Y-82242745D01*
X75652655Y-82291392D01*
X75652660Y-82291395D01*
X75738046Y-82333137D01*
X75738057Y-82333142D01*
X75766728Y-82344329D01*
X75826596Y-82367690D01*
X75917692Y-82394810D01*
X76010716Y-82414315D01*
X76105034Y-82426072D01*
X76189886Y-82429581D01*
X76199997Y-82430000D01*
X76200000Y-82430000D01*
X76200003Y-82430000D01*
X76209767Y-82429596D01*
X76294966Y-82426072D01*
X76389284Y-82414315D01*
X76482308Y-82394810D01*
X76573404Y-82367690D01*
X76661950Y-82333139D01*
X76747340Y-82291395D01*
X76828990Y-82242741D01*
X76906345Y-82187512D01*
X76978874Y-82126082D01*
X77046082Y-82058874D01*
X77107512Y-81986345D01*
X77162741Y-81908990D01*
X77211395Y-81827340D01*
X77253139Y-81741950D01*
X77287690Y-81653404D01*
X77314810Y-81562308D01*
X77334315Y-81469284D01*
X77346072Y-81374966D01*
X77350000Y-81280000D01*
X77350000Y-81279996D01*
X82670000Y-81279996D01*
X82670000Y-81280003D01*
X82673928Y-81374964D01*
X82685686Y-81469292D01*
X82705188Y-81562301D01*
X82705194Y-81562323D01*
X82732308Y-81653399D01*
X82766857Y-81741942D01*
X82766862Y-81741953D01*
X82808604Y-81827339D01*
X82808607Y-81827344D01*
X82857254Y-81908983D01*
X82857259Y-81908990D01*
X82912488Y-81986345D01*
X82973918Y-82058874D01*
X83041126Y-82126082D01*
X83113655Y-82187512D01*
X83191010Y-82242741D01*
X83191016Y-82242745D01*
X83272655Y-82291392D01*
X83272660Y-82291395D01*
X83358046Y-82333137D01*
X83358057Y-82333142D01*
X83386728Y-82344329D01*
X83446596Y-82367690D01*
X83537692Y-82394810D01*
X83630716Y-82414315D01*
X83725034Y-82426072D01*
X83809886Y-82429581D01*
X83819997Y-82430000D01*
X83820000Y-82430000D01*
X83820003Y-82430000D01*
X83829767Y-82429596D01*
X83914966Y-82426072D01*
X84009284Y-82414315D01*
X84102308Y-82394810D01*
X84193404Y-82367690D01*
X84281950Y-82333139D01*
X84367340Y-82291395D01*
X84448990Y-82242741D01*
X84526345Y-82187512D01*
X84598874Y-82126082D01*
X84666082Y-82058874D01*
X84727512Y-81986345D01*
X84782741Y-81908990D01*
X84831395Y-81827340D01*
X84873139Y-81741950D01*
X84907690Y-81653404D01*
X84934810Y-81562308D01*
X84954315Y-81469284D01*
X84966072Y-81374966D01*
X84970000Y-81280000D01*
X84970000Y-81279996D01*
X90290000Y-81279996D01*
X90290000Y-81280003D01*
X90293928Y-81374964D01*
X90305686Y-81469292D01*
X90325188Y-81562301D01*
X90325194Y-81562323D01*
X90352308Y-81653399D01*
X90386857Y-81741942D01*
X90386862Y-81741953D01*
X90428604Y-81827339D01*
X90428607Y-81827344D01*
X90477254Y-81908983D01*
X90477259Y-81908990D01*
X90532488Y-81986345D01*
X90593918Y-82058874D01*
X90661126Y-82126082D01*
X90733655Y-82187512D01*
X90811010Y-82242741D01*
X90811016Y-82242745D01*
X90892655Y-82291392D01*
X90892660Y-82291395D01*
X90978046Y-82333137D01*
X90978057Y-82333142D01*
X91006728Y-82344329D01*
X91066596Y-82367690D01*
X91157692Y-82394810D01*
X91250716Y-82414315D01*
X91345034Y-82426072D01*
X91429886Y-82429581D01*
X91439997Y-82430000D01*
X91440000Y-82430000D01*
X91440003Y-82430000D01*
X91449767Y-82429596D01*
X91534966Y-82426072D01*
X91629284Y-82414315D01*
X91722308Y-82394810D01*
X91813404Y-82367690D01*
X91901950Y-82333139D01*
X91987340Y-82291395D01*
X92068990Y-82242741D01*
X92146345Y-82187512D01*
X92218874Y-82126082D01*
X92286082Y-82058874D01*
X92347512Y-81986345D01*
X92402741Y-81908990D01*
X92451395Y-81827340D01*
X92493139Y-81741950D01*
X92527690Y-81653404D01*
X92554810Y-81562308D01*
X92574315Y-81469284D01*
X92586072Y-81374966D01*
X92590000Y-81280000D01*
X92590000Y-81279996D01*
X97910000Y-81279996D01*
X97910000Y-81280003D01*
X97913928Y-81374964D01*
X97925686Y-81469292D01*
X97945188Y-81562301D01*
X97945194Y-81562323D01*
X97972308Y-81653399D01*
X98006857Y-81741942D01*
X98006862Y-81741953D01*
X98048604Y-81827339D01*
X98048607Y-81827344D01*
X98097254Y-81908983D01*
X98097259Y-81908990D01*
X98152488Y-81986345D01*
X98213918Y-82058874D01*
X98281126Y-82126082D01*
X98353655Y-82187512D01*
X98431010Y-82242741D01*
X98431016Y-82242745D01*
X98512655Y-82291392D01*
X98512660Y-82291395D01*
X98598046Y-82333137D01*
X98598057Y-82333142D01*
X98626728Y-82344329D01*
X98686596Y-82367690D01*
X98777692Y-82394810D01*
X98870716Y-82414315D01*
X98965034Y-82426072D01*
X99049886Y-82429581D01*
X99059997Y-82430000D01*
X99060000Y-82430000D01*
X99060003Y-82430000D01*
X99069767Y-82429596D01*
X99154966Y-82426072D01*
X99249284Y-82414315D01*
X99342308Y-82394810D01*
X99433404Y-82367690D01*
X99521950Y-82333139D01*
X99607340Y-82291395D01*
X99688990Y-82242741D01*
X99766345Y-82187512D01*
X99838874Y-82126082D01*
X99906082Y-82058874D01*
X99967512Y-81986345D01*
X100022741Y-81908990D01*
X100071395Y-81827340D01*
X100113139Y-81741950D01*
X100147690Y-81653404D01*
X100174810Y-81562308D01*
X100194315Y-81469284D01*
X100206072Y-81374966D01*
X100210000Y-81280000D01*
X100206072Y-81185034D01*
X100194315Y-81090716D01*
X100174810Y-80997692D01*
X100147690Y-80906596D01*
X100113139Y-80818050D01*
X100071395Y-80732660D01*
X100022741Y-80651010D01*
X99967512Y-80573655D01*
X99906082Y-80501126D01*
X99838874Y-80433918D01*
X99766345Y-80372488D01*
X99688990Y-80317259D01*
X99688983Y-80317254D01*
X99607344Y-80268607D01*
X99607339Y-80268604D01*
X99521953Y-80226862D01*
X99521942Y-80226857D01*
X99433399Y-80192308D01*
X99342323Y-80165194D01*
X99342301Y-80165188D01*
X99249292Y-80145686D01*
X99249284Y-80145685D01*
X99154966Y-80133928D01*
X99116979Y-80132356D01*
X99060003Y-80130000D01*
X99059997Y-80130000D01*
X98988775Y-80132946D01*
X98965034Y-80133928D01*
X98917339Y-80139873D01*
X98870707Y-80145686D01*
X98777698Y-80165188D01*
X98777676Y-80165194D01*
X98686600Y-80192308D01*
X98598057Y-80226857D01*
X98598046Y-80226862D01*
X98512660Y-80268604D01*
X98512655Y-80268607D01*
X98431016Y-80317254D01*
X98353653Y-80372489D01*
X98281124Y-80433919D01*
X98213919Y-80501124D01*
X98152489Y-80573653D01*
X98097254Y-80651016D01*
X98048607Y-80732655D01*
X98048604Y-80732660D01*
X98006862Y-80818046D01*
X98006857Y-80818057D01*
X97972308Y-80906600D01*
X97945194Y-80997676D01*
X97945188Y-80997698D01*
X97925686Y-81090707D01*
X97913928Y-81185035D01*
X97910000Y-81279996D01*
X92590000Y-81279996D01*
X92586072Y-81185034D01*
X92574315Y-81090716D01*
X92554810Y-80997692D01*
X92527690Y-80906596D01*
X92493139Y-80818050D01*
X92451395Y-80732660D01*
X92402741Y-80651010D01*
X92347512Y-80573655D01*
X92286082Y-80501126D01*
X92218874Y-80433918D01*
X92146345Y-80372488D01*
X92068990Y-80317259D01*
X92068983Y-80317254D01*
X91987344Y-80268607D01*
X91987339Y-80268604D01*
X91901953Y-80226862D01*
X91901942Y-80226857D01*
X91813399Y-80192308D01*
X91722323Y-80165194D01*
X91722301Y-80165188D01*
X91629292Y-80145686D01*
X91629284Y-80145685D01*
X91534966Y-80133928D01*
X91496979Y-80132356D01*
X91440003Y-80130000D01*
X91439997Y-80130000D01*
X91368775Y-80132946D01*
X91345034Y-80133928D01*
X91297339Y-80139873D01*
X91250707Y-80145686D01*
X91157698Y-80165188D01*
X91157676Y-80165194D01*
X91066600Y-80192308D01*
X90978057Y-80226857D01*
X90978046Y-80226862D01*
X90892660Y-80268604D01*
X90892655Y-80268607D01*
X90811016Y-80317254D01*
X90733653Y-80372489D01*
X90661124Y-80433919D01*
X90593919Y-80501124D01*
X90532489Y-80573653D01*
X90477254Y-80651016D01*
X90428607Y-80732655D01*
X90428604Y-80732660D01*
X90386862Y-80818046D01*
X90386857Y-80818057D01*
X90352308Y-80906600D01*
X90325194Y-80997676D01*
X90325188Y-80997698D01*
X90305686Y-81090707D01*
X90293928Y-81185035D01*
X90290000Y-81279996D01*
X84970000Y-81279996D01*
X84966072Y-81185034D01*
X84954315Y-81090716D01*
X84934810Y-80997692D01*
X84907690Y-80906596D01*
X84873139Y-80818050D01*
X84831395Y-80732660D01*
X84782741Y-80651010D01*
X84727512Y-80573655D01*
X84666082Y-80501126D01*
X84598874Y-80433918D01*
X84526345Y-80372488D01*
X84448990Y-80317259D01*
X84448983Y-80317254D01*
X84367344Y-80268607D01*
X84367339Y-80268604D01*
X84281953Y-80226862D01*
X84281942Y-80226857D01*
X84193399Y-80192308D01*
X84102323Y-80165194D01*
X84102301Y-80165188D01*
X84009292Y-80145686D01*
X84009284Y-80145685D01*
X83914966Y-80133928D01*
X83876979Y-80132356D01*
X83820003Y-80130000D01*
X83819997Y-80130000D01*
X83748775Y-80132946D01*
X83725034Y-80133928D01*
X83677339Y-80139873D01*
X83630707Y-80145686D01*
X83537698Y-80165188D01*
X83537676Y-80165194D01*
X83446600Y-80192308D01*
X83358057Y-80226857D01*
X83358046Y-80226862D01*
X83272660Y-80268604D01*
X83272655Y-80268607D01*
X83191016Y-80317254D01*
X83113653Y-80372489D01*
X83041124Y-80433919D01*
X82973919Y-80501124D01*
X82912489Y-80573653D01*
X82857254Y-80651016D01*
X82808607Y-80732655D01*
X82808604Y-80732660D01*
X82766862Y-80818046D01*
X82766857Y-80818057D01*
X82732308Y-80906600D01*
X82705194Y-80997676D01*
X82705188Y-80997698D01*
X82685686Y-81090707D01*
X82673928Y-81185035D01*
X82670000Y-81279996D01*
X77350000Y-81279996D01*
X77346072Y-81185034D01*
X77334315Y-81090716D01*
X77314810Y-80997692D01*
X77287690Y-80906596D01*
X77253139Y-80818050D01*
X77211395Y-80732660D01*
X77162741Y-80651010D01*
X77107512Y-80573655D01*
X77046082Y-80501126D01*
X76978874Y-80433918D01*
X76906345Y-80372488D01*
X76828990Y-80317259D01*
X76828983Y-80317254D01*
X76747344Y-80268607D01*
X76747339Y-80268604D01*
X76661953Y-80226862D01*
X76661942Y-80226857D01*
X76573399Y-80192308D01*
X76482323Y-80165194D01*
X76482301Y-80165188D01*
X76389292Y-80145686D01*
X76389284Y-80145685D01*
X76294966Y-80133928D01*
X76256979Y-80132356D01*
X76200003Y-80130000D01*
X76199997Y-80130000D01*
X76128775Y-80132946D01*
X76105034Y-80133928D01*
X76057339Y-80139873D01*
X76010707Y-80145686D01*
X75917698Y-80165188D01*
X75917676Y-80165194D01*
X75826600Y-80192308D01*
X75738057Y-80226857D01*
X75738046Y-80226862D01*
X75652660Y-80268604D01*
X75652655Y-80268607D01*
X75571016Y-80317254D01*
X75493653Y-80372489D01*
X75421124Y-80433919D01*
X75353919Y-80501124D01*
X75292489Y-80573653D01*
X75237254Y-80651016D01*
X75188607Y-80732655D01*
X75188604Y-80732660D01*
X75146862Y-80818046D01*
X75146857Y-80818057D01*
X75112308Y-80906600D01*
X75085194Y-80997676D01*
X75085188Y-80997698D01*
X75065686Y-81090707D01*
X75053928Y-81185035D01*
X75050000Y-81279996D01*
X69730000Y-81279996D01*
X69726072Y-81185034D01*
X69714315Y-81090716D01*
X69694810Y-80997692D01*
X69667690Y-80906596D01*
X69633139Y-80818050D01*
X69591395Y-80732660D01*
X69542741Y-80651010D01*
X69487512Y-80573655D01*
X69426082Y-80501126D01*
X69358874Y-80433918D01*
X69286345Y-80372488D01*
X69208990Y-80317259D01*
X69208983Y-80317254D01*
X69127344Y-80268607D01*
X69127339Y-80268604D01*
X69041953Y-80226862D01*
X69041942Y-80226857D01*
X68953399Y-80192308D01*
X68862323Y-80165194D01*
X68862301Y-80165188D01*
X68769292Y-80145686D01*
X68769284Y-80145685D01*
X68674966Y-80133928D01*
X68636979Y-80132356D01*
X68580003Y-80130000D01*
X68579997Y-80130000D01*
X68508775Y-80132946D01*
X68485034Y-80133928D01*
X68437339Y-80139873D01*
X68390707Y-80145686D01*
X68297698Y-80165188D01*
X68297676Y-80165194D01*
X68206600Y-80192308D01*
X68118057Y-80226857D01*
X68118046Y-80226862D01*
X68032660Y-80268604D01*
X68032655Y-80268607D01*
X67951016Y-80317254D01*
X67873653Y-80372489D01*
X67801124Y-80433919D01*
X67733919Y-80501124D01*
X67672489Y-80573653D01*
X67617254Y-80651016D01*
X67568607Y-80732655D01*
X67568604Y-80732660D01*
X67526862Y-80818046D01*
X67526857Y-80818057D01*
X67492308Y-80906600D01*
X67465194Y-80997676D01*
X67465188Y-80997698D01*
X67445686Y-81090707D01*
X67433928Y-81185035D01*
X67430000Y-81279996D01*
X64820000Y-81279996D01*
X64820000Y-77569000D01*
X64834352Y-77534352D01*
X64869000Y-77520000D01*
X102771000Y-77520000D01*
X102805648Y-77534352D01*
G37*
%TD.AperFunction*%
%TD*%
%TA.AperFunction,Conductor*%
%TO.N,VDP-B1*%
G36*
X122405648Y-78754352D02*
G01*
X122420000Y-78789000D01*
X122420000Y-83320000D01*
X126951000Y-83320000D01*
X126985648Y-83334352D01*
X127000000Y-83369000D01*
X127000000Y-84271000D01*
X126985648Y-84305648D01*
X126951000Y-84320000D01*
X122420000Y-84320000D01*
X122420000Y-88851000D01*
X122405648Y-88885648D01*
X122371000Y-88900000D01*
X121469000Y-88900000D01*
X121434352Y-88885648D01*
X121420000Y-88851000D01*
X121420000Y-84320000D01*
X116889000Y-84320000D01*
X116854352Y-84305648D01*
X116840000Y-84271000D01*
X116840000Y-83369000D01*
X116854352Y-83334352D01*
X116889000Y-83320000D01*
X121420000Y-83320000D01*
X121420000Y-78789000D01*
X121434352Y-78754352D01*
X121469000Y-78740000D01*
X122371000Y-78740000D01*
X122405648Y-78754352D01*
G37*
%TD.AperFunction*%
%TD*%
%TA.AperFunction,Conductor*%
%TO.N,VDP-B2*%
G36*
X122405648Y-93994352D02*
G01*
X122420000Y-94029000D01*
X122420000Y-98560000D01*
X126951000Y-98560000D01*
X126985648Y-98574352D01*
X127000000Y-98609000D01*
X127000000Y-99511000D01*
X126985648Y-99545648D01*
X126951000Y-99560000D01*
X122420000Y-99560000D01*
X122420000Y-104091000D01*
X122405648Y-104125648D01*
X122371000Y-104140000D01*
X121469000Y-104140000D01*
X121434352Y-104125648D01*
X121420000Y-104091000D01*
X121420000Y-99560000D01*
X116889000Y-99560000D01*
X116854352Y-99545648D01*
X116840000Y-99511000D01*
X116840000Y-98609000D01*
X116854352Y-98574352D01*
X116889000Y-98560000D01*
X121420000Y-98560000D01*
X121420000Y-94029000D01*
X121434352Y-93994352D01*
X121469000Y-93980000D01*
X122371000Y-93980000D01*
X122405648Y-93994352D01*
G37*
%TD.AperFunction*%
%TD*%
%TA.AperFunction,Conductor*%
%TO.N,VDP-B4*%
G36*
X137645648Y-96534352D02*
G01*
X137660000Y-96569000D01*
X137660000Y-101100000D01*
X142191000Y-101100000D01*
X142225648Y-101114352D01*
X142240000Y-101149000D01*
X142240000Y-102051000D01*
X142225648Y-102085648D01*
X142191000Y-102100000D01*
X137660000Y-102100000D01*
X137660000Y-106631000D01*
X137645648Y-106665648D01*
X137611000Y-106680000D01*
X136709000Y-106680000D01*
X136674352Y-106665648D01*
X136660000Y-106631000D01*
X136660000Y-102100000D01*
X132129000Y-102100000D01*
X132094352Y-102085648D01*
X132080000Y-102051000D01*
X132080000Y-101149000D01*
X132094352Y-101114352D01*
X132129000Y-101100000D01*
X136660000Y-101100000D01*
X136660000Y-96569000D01*
X136674352Y-96534352D01*
X136709000Y-96520000D01*
X137611000Y-96520000D01*
X137645648Y-96534352D01*
G37*
%TD.AperFunction*%
%TD*%
%TA.AperFunction,Conductor*%
%TO.N,BR-B-050X*%
G36*
X142225648Y-114064352D02*
G01*
X142240000Y-114099000D01*
X142240000Y-114501000D01*
X142225648Y-114535648D01*
X142191000Y-114550000D01*
X116889000Y-114550000D01*
X116854352Y-114535648D01*
X116840000Y-114501000D01*
X116840000Y-114099000D01*
X116854352Y-114064352D01*
X116889000Y-114050000D01*
X142191000Y-114050000D01*
X142225648Y-114064352D01*
G37*
%TD.AperFunction*%
%TD*%
%TA.AperFunction,Conductor*%
%TO.N,SL1-B*%
G36*
X73165648Y-121974352D02*
G01*
X73180000Y-122009000D01*
X73180000Y-125460000D01*
X73680000Y-125460000D01*
X73680000Y-122009000D01*
X73694352Y-121974352D01*
X73729000Y-121960000D01*
X93931000Y-121960000D01*
X93965648Y-121974352D01*
X93980000Y-122009000D01*
X93980000Y-126911000D01*
X93965648Y-126945648D01*
X93931000Y-126960000D01*
X76729000Y-126960000D01*
X76694352Y-126945648D01*
X76680000Y-126911000D01*
X76680000Y-123460000D01*
X76180000Y-123460000D01*
X76180000Y-126911000D01*
X76165648Y-126945648D01*
X76131000Y-126960000D01*
X55929000Y-126960000D01*
X55894352Y-126945648D01*
X55880000Y-126911000D01*
X55880000Y-122009000D01*
X55894352Y-121974352D01*
X55929000Y-121960000D01*
X73131000Y-121960000D01*
X73165648Y-121974352D01*
G37*
%TD.AperFunction*%
%TD*%
%TA.AperFunction,Conductor*%
%TO.N,BR-B-500X*%
G36*
X134605648Y-121974352D02*
G01*
X134620000Y-122009000D01*
X134620000Y-126911000D01*
X134605648Y-126945648D01*
X134571000Y-126960000D01*
X99109000Y-126960000D01*
X99074352Y-126945648D01*
X99060000Y-126911000D01*
X99060000Y-122009000D01*
X99074352Y-121974352D01*
X99109000Y-121960000D01*
X134571000Y-121960000D01*
X134605648Y-121974352D01*
G37*
%TD.AperFunction*%
%TD*%
%TA.AperFunction,NonConductor*%
G36*
X148803039Y-39119685D02*
G01*
X148848794Y-39172489D01*
X148860000Y-39224000D01*
X148860000Y-136036000D01*
X148840315Y-136103039D01*
X148787511Y-136148794D01*
X148736000Y-136160000D01*
X51924000Y-136160000D01*
X51856961Y-136140315D01*
X51811206Y-136087511D01*
X51800000Y-136036000D01*
X51800000Y-133160000D01*
X52200000Y-133160000D01*
X52212520Y-133414845D01*
X52212520Y-133414851D01*
X52212521Y-133414853D01*
X52249959Y-133667241D01*
X52311958Y-133914750D01*
X52397905Y-134154957D01*
X52397913Y-134154977D01*
X52507005Y-134385632D01*
X52507007Y-134385635D01*
X52638177Y-134604480D01*
X52790177Y-134809428D01*
X52961521Y-134998478D01*
X53150571Y-135169822D01*
X53150577Y-135169827D01*
X53355517Y-135321821D01*
X53574368Y-135452995D01*
X53805023Y-135562087D01*
X53805037Y-135562092D01*
X53805042Y-135562094D01*
X53987291Y-135627303D01*
X54045260Y-135648045D01*
X54292765Y-135710042D01*
X54545155Y-135747480D01*
X54800000Y-135760000D01*
X55054845Y-135747480D01*
X55307235Y-135710042D01*
X55554740Y-135648045D01*
X55794977Y-135562087D01*
X56025632Y-135452995D01*
X56244483Y-135321821D01*
X56449423Y-135169827D01*
X56638478Y-134998478D01*
X56809827Y-134809423D01*
X56961821Y-134604483D01*
X57092995Y-134385632D01*
X57202087Y-134154977D01*
X57288045Y-133914740D01*
X57350042Y-133667235D01*
X57387480Y-133414845D01*
X57400000Y-133160000D01*
X57387480Y-132905155D01*
X57350042Y-132652765D01*
X57288045Y-132405260D01*
X57202087Y-132165023D01*
X57092995Y-131934368D01*
X56961821Y-131715517D01*
X56809827Y-131510577D01*
X56809822Y-131510571D01*
X56638478Y-131321521D01*
X56449428Y-131150177D01*
X56244480Y-130998177D01*
X56025635Y-130867007D01*
X56025636Y-130867007D01*
X56025632Y-130867005D01*
X55794977Y-130757913D01*
X55794957Y-130757905D01*
X55554750Y-130671958D01*
X55554744Y-130671956D01*
X55554740Y-130671955D01*
X55431963Y-130641200D01*
X55307241Y-130609959D01*
X55307236Y-130609958D01*
X55307235Y-130609958D01*
X55213662Y-130596078D01*
X55054853Y-130572521D01*
X55054851Y-130572520D01*
X55054845Y-130572520D01*
X54800000Y-130560000D01*
X54545155Y-130572520D01*
X54545149Y-130572520D01*
X54545146Y-130572521D01*
X54292758Y-130609959D01*
X54105916Y-130656761D01*
X54045260Y-130671955D01*
X54045257Y-130671955D01*
X54045249Y-130671958D01*
X53805042Y-130757905D01*
X53805022Y-130757913D01*
X53574364Y-130867007D01*
X53355519Y-130998177D01*
X53150571Y-131150177D01*
X52961521Y-131321521D01*
X52790177Y-131510571D01*
X52638177Y-131715519D01*
X52507007Y-131934364D01*
X52397913Y-132165022D01*
X52397905Y-132165042D01*
X52311958Y-132405249D01*
X52249959Y-132652758D01*
X52213285Y-132900000D01*
X52212520Y-132905155D01*
X52200000Y-133160000D01*
X51800000Y-133160000D01*
X51800000Y-129899999D01*
X59294500Y-129899999D01*
X59294500Y-132900002D01*
X59299644Y-132971940D01*
X59340182Y-133109994D01*
X59417967Y-133231030D01*
X59417971Y-133231034D01*
X59526700Y-133325249D01*
X59526706Y-133325254D01*
X59567174Y-133343735D01*
X59657580Y-133385023D01*
X59657583Y-133385023D01*
X59657584Y-133385024D01*
X59800000Y-133405500D01*
X59800003Y-133405500D01*
X62800000Y-133405500D01*
X62871940Y-133400355D01*
X63009992Y-133359819D01*
X63131032Y-133282031D01*
X63225254Y-133173294D01*
X63231325Y-133160000D01*
X143260000Y-133160000D01*
X143272520Y-133414845D01*
X143272520Y-133414851D01*
X143272521Y-133414853D01*
X143309959Y-133667241D01*
X143371958Y-133914750D01*
X143457905Y-134154957D01*
X143457913Y-134154977D01*
X143567005Y-134385632D01*
X143567007Y-134385635D01*
X143698177Y-134604480D01*
X143850177Y-134809428D01*
X144021521Y-134998478D01*
X144210571Y-135169822D01*
X144210577Y-135169827D01*
X144415517Y-135321821D01*
X144634368Y-135452995D01*
X144865023Y-135562087D01*
X144865037Y-135562092D01*
X144865042Y-135562094D01*
X145047291Y-135627303D01*
X145105260Y-135648045D01*
X145352765Y-135710042D01*
X145605155Y-135747480D01*
X145860000Y-135760000D01*
X146114845Y-135747480D01*
X146367235Y-135710042D01*
X146614740Y-135648045D01*
X146854977Y-135562087D01*
X147085632Y-135452995D01*
X147304483Y-135321821D01*
X147509423Y-135169827D01*
X147698478Y-134998478D01*
X147869827Y-134809423D01*
X148021821Y-134604483D01*
X148152995Y-134385632D01*
X148262087Y-134154977D01*
X148348045Y-133914740D01*
X148410042Y-133667235D01*
X148447480Y-133414845D01*
X148460000Y-133160000D01*
X148447480Y-132905155D01*
X148410042Y-132652765D01*
X148348045Y-132405260D01*
X148262087Y-132165023D01*
X148152995Y-131934368D01*
X148021821Y-131715517D01*
X147869827Y-131510577D01*
X147869822Y-131510571D01*
X147698478Y-131321521D01*
X147509428Y-131150177D01*
X147304480Y-130998177D01*
X147085635Y-130867007D01*
X147085636Y-130867007D01*
X147085632Y-130867005D01*
X146854977Y-130757913D01*
X146854957Y-130757905D01*
X146614750Y-130671958D01*
X146614744Y-130671956D01*
X146614740Y-130671955D01*
X146491963Y-130641200D01*
X146367241Y-130609959D01*
X146367236Y-130609958D01*
X146367235Y-130609958D01*
X146273662Y-130596078D01*
X146114853Y-130572521D01*
X146114851Y-130572520D01*
X146114845Y-130572520D01*
X145860000Y-130560000D01*
X145605155Y-130572520D01*
X145605149Y-130572520D01*
X145605146Y-130572521D01*
X145352758Y-130609959D01*
X145165916Y-130656761D01*
X145105260Y-130671955D01*
X145105257Y-130671955D01*
X145105249Y-130671958D01*
X144865042Y-130757905D01*
X144865022Y-130757913D01*
X144634364Y-130867007D01*
X144415519Y-130998177D01*
X144210571Y-131150177D01*
X144021521Y-131321521D01*
X143850177Y-131510571D01*
X143698177Y-131715519D01*
X143567007Y-131934364D01*
X143457913Y-132165022D01*
X143457905Y-132165042D01*
X143371958Y-132405249D01*
X143309959Y-132652758D01*
X143273285Y-132900000D01*
X143272520Y-132905155D01*
X143260000Y-133160000D01*
X63231325Y-133160000D01*
X63235656Y-133150515D01*
X63256240Y-133105445D01*
X63256240Y-133105444D01*
X63285023Y-133042418D01*
X63285022Y-133042418D01*
X63285024Y-133042416D01*
X63305500Y-132900000D01*
X63305500Y-129900000D01*
X63300355Y-129828060D01*
X63259819Y-129690008D01*
X63182031Y-129568968D01*
X63123173Y-129517967D01*
X63073299Y-129474750D01*
X63073297Y-129474748D01*
X63073294Y-129474746D01*
X63073290Y-129474744D01*
X62942419Y-129414976D01*
X62942414Y-129414975D01*
X62800000Y-129394500D01*
X59800000Y-129394500D01*
X59799997Y-129394500D01*
X59728059Y-129399644D01*
X59590005Y-129440182D01*
X59468969Y-129517967D01*
X59468965Y-129517971D01*
X59374750Y-129626700D01*
X59374744Y-129626709D01*
X59314976Y-129757580D01*
X59314975Y-129757585D01*
X59294500Y-129899999D01*
X51800000Y-129899999D01*
X51800000Y-121912135D01*
X54379500Y-121912135D01*
X54379500Y-127007870D01*
X54379501Y-127007876D01*
X54385908Y-127067483D01*
X54436202Y-127202328D01*
X54436206Y-127202335D01*
X54522452Y-127317544D01*
X54522455Y-127317547D01*
X54637664Y-127403793D01*
X54637671Y-127403797D01*
X54772517Y-127454091D01*
X54772516Y-127454091D01*
X54779444Y-127454835D01*
X54832127Y-127460500D01*
X55885349Y-127460499D01*
X55902996Y-127461761D01*
X55904130Y-127461924D01*
X55929000Y-127465500D01*
X55929001Y-127465500D01*
X76131002Y-127465500D01*
X76185040Y-127462603D01*
X76324450Y-127427020D01*
X76359098Y-127412668D01*
X76370967Y-127406186D01*
X76439239Y-127391334D01*
X76493669Y-127408377D01*
X76500893Y-127412663D01*
X76500895Y-127412663D01*
X76500902Y-127412668D01*
X76535550Y-127427020D01*
X76586584Y-127445024D01*
X76729000Y-127465500D01*
X76729003Y-127465500D01*
X93931002Y-127465500D01*
X93937492Y-127465151D01*
X93985040Y-127462603D01*
X93985044Y-127462602D01*
X93989485Y-127461924D01*
X94008227Y-127460499D01*
X95027871Y-127460499D01*
X95027872Y-127460499D01*
X95087483Y-127454091D01*
X95222331Y-127403796D01*
X95337546Y-127317546D01*
X95423796Y-127202331D01*
X95474091Y-127067483D01*
X95480500Y-127007873D01*
X95480499Y-121912135D01*
X97559500Y-121912135D01*
X97559500Y-127007870D01*
X97559501Y-127007876D01*
X97565908Y-127067483D01*
X97616202Y-127202328D01*
X97616206Y-127202335D01*
X97702452Y-127317544D01*
X97702455Y-127317547D01*
X97817664Y-127403793D01*
X97817671Y-127403797D01*
X97952517Y-127454091D01*
X97952516Y-127454091D01*
X97959444Y-127454835D01*
X98012127Y-127460500D01*
X99065349Y-127460499D01*
X99082996Y-127461761D01*
X99084130Y-127461924D01*
X99109000Y-127465500D01*
X99109001Y-127465500D01*
X134571002Y-127465500D01*
X134577492Y-127465151D01*
X134625040Y-127462603D01*
X134625044Y-127462602D01*
X134629485Y-127461924D01*
X134648227Y-127460499D01*
X135667871Y-127460499D01*
X135667872Y-127460499D01*
X135727483Y-127454091D01*
X135862331Y-127403796D01*
X135977546Y-127317546D01*
X136063796Y-127202331D01*
X136114091Y-127067483D01*
X136120500Y-127007873D01*
X136120499Y-124599999D01*
X138794500Y-124599999D01*
X138794500Y-127600002D01*
X138799644Y-127671940D01*
X138840182Y-127809994D01*
X138917967Y-127931030D01*
X138917971Y-127931034D01*
X139026700Y-128025249D01*
X139026706Y-128025254D01*
X139067174Y-128043735D01*
X139157580Y-128085023D01*
X139157583Y-128085023D01*
X139157584Y-128085024D01*
X139300000Y-128105500D01*
X139300003Y-128105500D01*
X142300000Y-128105500D01*
X142371940Y-128100355D01*
X142509992Y-128059819D01*
X142631032Y-127982031D01*
X142725254Y-127873294D01*
X142785024Y-127742416D01*
X142805500Y-127600000D01*
X142805500Y-124600000D01*
X142800355Y-124528060D01*
X142759819Y-124390008D01*
X142682031Y-124268968D01*
X142623173Y-124217967D01*
X142573299Y-124174750D01*
X142573297Y-124174748D01*
X142573294Y-124174746D01*
X142573290Y-124174744D01*
X142442419Y-124114976D01*
X142442414Y-124114975D01*
X142300000Y-124094500D01*
X139300000Y-124094500D01*
X139299997Y-124094500D01*
X139228059Y-124099644D01*
X139090005Y-124140182D01*
X138968969Y-124217967D01*
X138968965Y-124217971D01*
X138874750Y-124326700D01*
X138874744Y-124326709D01*
X138814976Y-124457580D01*
X138814975Y-124457585D01*
X138794500Y-124599999D01*
X136120499Y-124599999D01*
X136120499Y-124457585D01*
X136120499Y-121912129D01*
X136120498Y-121912123D01*
X136120497Y-121912116D01*
X136114091Y-121852517D01*
X136063796Y-121717669D01*
X136063795Y-121717668D01*
X136063793Y-121717664D01*
X135977547Y-121602455D01*
X135977544Y-121602452D01*
X135862335Y-121516206D01*
X135862328Y-121516202D01*
X135727482Y-121465908D01*
X135727483Y-121465908D01*
X135667883Y-121459501D01*
X135667881Y-121459500D01*
X135667873Y-121459500D01*
X135667865Y-121459500D01*
X134614646Y-121459500D01*
X134597001Y-121458238D01*
X134571002Y-121454500D01*
X134571000Y-121454500D01*
X122669500Y-121454500D01*
X122602461Y-121434815D01*
X122556706Y-121382011D01*
X122545500Y-121330500D01*
X122545500Y-120804499D01*
X122565185Y-120737460D01*
X122617989Y-120691705D01*
X122669500Y-120680499D01*
X122767871Y-120680499D01*
X122767872Y-120680499D01*
X122827483Y-120674091D01*
X122962331Y-120623796D01*
X123077546Y-120537546D01*
X123163796Y-120422331D01*
X123214091Y-120287483D01*
X123220500Y-120227873D01*
X123220499Y-118532128D01*
X123214091Y-118472517D01*
X123163796Y-118337669D01*
X123163795Y-118337668D01*
X123163793Y-118337664D01*
X123077547Y-118222455D01*
X123077544Y-118222452D01*
X122962335Y-118136206D01*
X122962328Y-118136202D01*
X122827482Y-118085908D01*
X122827483Y-118085908D01*
X122767883Y-118079501D01*
X122767881Y-118079500D01*
X122767873Y-118079500D01*
X122767864Y-118079500D01*
X121072129Y-118079500D01*
X121072123Y-118079501D01*
X121012516Y-118085908D01*
X120877671Y-118136202D01*
X120877664Y-118136206D01*
X120762455Y-118222452D01*
X120762452Y-118222455D01*
X120676206Y-118337664D01*
X120676202Y-118337671D01*
X120625908Y-118472517D01*
X120619501Y-118532116D01*
X120619501Y-118532123D01*
X120619500Y-118532135D01*
X120619500Y-120227870D01*
X120619501Y-120227876D01*
X120625908Y-120287483D01*
X120676202Y-120422328D01*
X120676206Y-120422335D01*
X120762452Y-120537544D01*
X120762455Y-120537547D01*
X120877664Y-120623793D01*
X120877671Y-120623797D01*
X120922618Y-120640561D01*
X121012517Y-120674091D01*
X121072127Y-120680500D01*
X121170500Y-120680499D01*
X121237538Y-120700183D01*
X121283294Y-120752986D01*
X121294500Y-120804499D01*
X121294500Y-121330500D01*
X121274815Y-121397539D01*
X121222011Y-121443294D01*
X121170500Y-121454500D01*
X112509500Y-121454500D01*
X112442461Y-121434815D01*
X112396706Y-121382011D01*
X112385500Y-121330500D01*
X112385500Y-120804499D01*
X112405185Y-120737460D01*
X112457989Y-120691705D01*
X112509500Y-120680499D01*
X112607871Y-120680499D01*
X112607872Y-120680499D01*
X112667483Y-120674091D01*
X112802331Y-120623796D01*
X112917546Y-120537546D01*
X113003796Y-120422331D01*
X113054091Y-120287483D01*
X113060500Y-120227873D01*
X113060499Y-118532128D01*
X113054091Y-118472517D01*
X113003796Y-118337669D01*
X113003795Y-118337668D01*
X113003793Y-118337664D01*
X112917547Y-118222455D01*
X112917544Y-118222452D01*
X112802335Y-118136206D01*
X112802328Y-118136202D01*
X112667482Y-118085908D01*
X112667483Y-118085908D01*
X112607883Y-118079501D01*
X112607881Y-118079500D01*
X112607873Y-118079500D01*
X112607864Y-118079500D01*
X110912129Y-118079500D01*
X110912123Y-118079501D01*
X110852516Y-118085908D01*
X110717671Y-118136202D01*
X110717664Y-118136206D01*
X110602455Y-118222452D01*
X110602452Y-118222455D01*
X110516206Y-118337664D01*
X110516202Y-118337671D01*
X110465908Y-118472517D01*
X110459501Y-118532116D01*
X110459501Y-118532123D01*
X110459500Y-118532135D01*
X110459500Y-120227870D01*
X110459501Y-120227876D01*
X110465908Y-120287483D01*
X110516202Y-120422328D01*
X110516206Y-120422335D01*
X110602452Y-120537544D01*
X110602455Y-120537547D01*
X110717664Y-120623793D01*
X110717671Y-120623797D01*
X110762618Y-120640561D01*
X110852517Y-120674091D01*
X110912127Y-120680500D01*
X111010500Y-120680499D01*
X111077538Y-120700183D01*
X111123294Y-120752986D01*
X111134500Y-120804499D01*
X111134500Y-121330500D01*
X111114815Y-121397539D01*
X111062011Y-121443294D01*
X111010500Y-121454500D01*
X99108998Y-121454500D01*
X99054961Y-121457396D01*
X99050512Y-121458077D01*
X99031779Y-121459500D01*
X98012129Y-121459500D01*
X98012123Y-121459501D01*
X97952516Y-121465908D01*
X97817671Y-121516202D01*
X97817664Y-121516206D01*
X97702455Y-121602452D01*
X97702452Y-121602455D01*
X97616206Y-121717664D01*
X97616202Y-121717671D01*
X97565908Y-121852517D01*
X97559501Y-121912116D01*
X97559501Y-121912123D01*
X97559500Y-121912135D01*
X95480499Y-121912135D01*
X95480499Y-121912128D01*
X95474091Y-121852517D01*
X95423796Y-121717669D01*
X95423795Y-121717668D01*
X95423793Y-121717664D01*
X95337547Y-121602455D01*
X95337544Y-121602452D01*
X95222335Y-121516206D01*
X95222328Y-121516202D01*
X95087482Y-121465908D01*
X95087483Y-121465908D01*
X95027883Y-121459501D01*
X95027881Y-121459500D01*
X95027873Y-121459500D01*
X95027865Y-121459500D01*
X93974646Y-121459500D01*
X93957001Y-121458238D01*
X93931002Y-121454500D01*
X93931000Y-121454500D01*
X82029500Y-121454500D01*
X81962461Y-121434815D01*
X81916706Y-121382011D01*
X81905500Y-121330500D01*
X81905500Y-120804499D01*
X81925185Y-120737460D01*
X81977989Y-120691705D01*
X82029500Y-120680499D01*
X82127871Y-120680499D01*
X82127872Y-120680499D01*
X82187483Y-120674091D01*
X82322331Y-120623796D01*
X82437546Y-120537546D01*
X82523796Y-120422331D01*
X82574091Y-120287483D01*
X82580500Y-120227873D01*
X82580499Y-118532128D01*
X82574091Y-118472517D01*
X82523796Y-118337669D01*
X82523795Y-118337668D01*
X82523793Y-118337664D01*
X82437547Y-118222455D01*
X82437544Y-118222452D01*
X82322335Y-118136206D01*
X82322328Y-118136202D01*
X82187482Y-118085908D01*
X82187483Y-118085908D01*
X82127883Y-118079501D01*
X82127881Y-118079500D01*
X82127873Y-118079500D01*
X82127864Y-118079500D01*
X80432129Y-118079500D01*
X80432123Y-118079501D01*
X80372516Y-118085908D01*
X80237671Y-118136202D01*
X80237664Y-118136206D01*
X80122455Y-118222452D01*
X80122452Y-118222455D01*
X80036206Y-118337664D01*
X80036202Y-118337671D01*
X79985908Y-118472517D01*
X79979501Y-118532116D01*
X79979501Y-118532123D01*
X79979500Y-118532135D01*
X79979500Y-120227870D01*
X79979501Y-120227876D01*
X79985908Y-120287483D01*
X80036202Y-120422328D01*
X80036206Y-120422335D01*
X80122452Y-120537544D01*
X80122455Y-120537547D01*
X80237664Y-120623793D01*
X80237671Y-120623797D01*
X80282618Y-120640561D01*
X80372517Y-120674091D01*
X80432127Y-120680500D01*
X80530500Y-120680499D01*
X80597538Y-120700183D01*
X80643294Y-120752986D01*
X80654500Y-120804499D01*
X80654500Y-121330500D01*
X80634815Y-121397539D01*
X80582011Y-121443294D01*
X80530500Y-121454500D01*
X73728998Y-121454500D01*
X73674959Y-121457396D01*
X73674958Y-121457397D01*
X73535550Y-121492979D01*
X73535545Y-121492981D01*
X73500905Y-121507330D01*
X73489027Y-121513816D01*
X73420753Y-121528665D01*
X73366333Y-121511624D01*
X73359106Y-121507336D01*
X73359101Y-121507334D01*
X73359098Y-121507332D01*
X73324450Y-121492980D01*
X73273416Y-121474976D01*
X73273414Y-121474975D01*
X73273412Y-121474975D01*
X73188477Y-121462763D01*
X73131000Y-121454500D01*
X73130998Y-121454500D01*
X69329500Y-121454500D01*
X69262461Y-121434815D01*
X69216706Y-121382011D01*
X69205500Y-121330500D01*
X69205500Y-120804499D01*
X69225185Y-120737460D01*
X69277989Y-120691705D01*
X69329500Y-120680499D01*
X69427871Y-120680499D01*
X69427872Y-120680499D01*
X69487483Y-120674091D01*
X69622331Y-120623796D01*
X69737546Y-120537546D01*
X69823796Y-120422331D01*
X69874091Y-120287483D01*
X69880500Y-120227873D01*
X69880499Y-118532128D01*
X69874091Y-118472517D01*
X69823796Y-118337669D01*
X69823795Y-118337668D01*
X69823793Y-118337664D01*
X69737547Y-118222455D01*
X69737544Y-118222452D01*
X69622335Y-118136206D01*
X69622328Y-118136202D01*
X69487482Y-118085908D01*
X69487483Y-118085908D01*
X69427883Y-118079501D01*
X69427881Y-118079500D01*
X69427873Y-118079500D01*
X69427864Y-118079500D01*
X67732129Y-118079500D01*
X67732123Y-118079501D01*
X67672516Y-118085908D01*
X67537671Y-118136202D01*
X67537664Y-118136206D01*
X67422455Y-118222452D01*
X67422452Y-118222455D01*
X67336206Y-118337664D01*
X67336202Y-118337671D01*
X67285908Y-118472517D01*
X67279501Y-118532116D01*
X67279501Y-118532123D01*
X67279500Y-118532135D01*
X67279500Y-120227870D01*
X67279501Y-120227876D01*
X67285908Y-120287483D01*
X67336202Y-120422328D01*
X67336206Y-120422335D01*
X67422452Y-120537544D01*
X67422455Y-120537547D01*
X67537664Y-120623793D01*
X67537671Y-120623797D01*
X67582618Y-120640561D01*
X67672517Y-120674091D01*
X67732127Y-120680500D01*
X67830500Y-120680499D01*
X67897538Y-120700183D01*
X67943294Y-120752986D01*
X67954500Y-120804499D01*
X67954500Y-121330500D01*
X67934815Y-121397539D01*
X67882011Y-121443294D01*
X67830500Y-121454500D01*
X55928998Y-121454500D01*
X55874961Y-121457396D01*
X55870512Y-121458077D01*
X55851779Y-121459500D01*
X54832129Y-121459500D01*
X54832123Y-121459501D01*
X54772516Y-121465908D01*
X54637671Y-121516202D01*
X54637664Y-121516206D01*
X54522455Y-121602452D01*
X54522452Y-121602455D01*
X54436206Y-121717664D01*
X54436202Y-121717671D01*
X54385908Y-121852517D01*
X54379501Y-121912116D01*
X54379501Y-121912123D01*
X54379500Y-121912135D01*
X51800000Y-121912135D01*
X51800000Y-95472135D01*
X54379500Y-95472135D01*
X54379500Y-97567870D01*
X54379501Y-97567876D01*
X54385908Y-97627483D01*
X54436202Y-97762328D01*
X54436206Y-97762335D01*
X54522452Y-97877544D01*
X54522455Y-97877547D01*
X54637664Y-97963793D01*
X54637671Y-97963797D01*
X54682618Y-97980561D01*
X54772517Y-98014091D01*
X54832127Y-98020500D01*
X55250500Y-98020499D01*
X55317539Y-98040183D01*
X55363294Y-98092987D01*
X55374500Y-98144499D01*
X55374500Y-98471002D01*
X55377396Y-98525040D01*
X55377397Y-98525041D01*
X55412979Y-98664449D01*
X55412981Y-98664454D01*
X55427332Y-98699099D01*
X55427332Y-98699100D01*
X55479119Y-98793941D01*
X55479122Y-98793944D01*
X55577161Y-98899247D01*
X55577165Y-98899251D01*
X55700893Y-98972663D01*
X55700895Y-98972663D01*
X55700902Y-98972668D01*
X55735550Y-98987020D01*
X55786584Y-99005024D01*
X55929000Y-99025500D01*
X64190500Y-99025500D01*
X64257539Y-99045185D01*
X64303294Y-99097989D01*
X64314500Y-99149500D01*
X64314500Y-115471002D01*
X64317396Y-115525040D01*
X64317397Y-115525041D01*
X64352979Y-115664449D01*
X64352981Y-115664454D01*
X64367332Y-115699099D01*
X64367332Y-115699100D01*
X64419119Y-115793941D01*
X64419122Y-115793944D01*
X64517161Y-115899247D01*
X64517165Y-115899251D01*
X64640893Y-115972663D01*
X64640895Y-115972663D01*
X64640902Y-115972668D01*
X64675550Y-115987020D01*
X64726584Y-116005024D01*
X64869000Y-116025500D01*
X64869003Y-116025500D01*
X102771002Y-116025500D01*
X102825040Y-116022603D01*
X102964450Y-115987020D01*
X102999098Y-115972668D01*
X103093943Y-115920879D01*
X103199249Y-115822837D01*
X103212503Y-115800500D01*
X103272663Y-115699106D01*
X103272668Y-115699098D01*
X103287020Y-115664450D01*
X103305024Y-115613416D01*
X103325500Y-115471000D01*
X103325500Y-113252135D01*
X115339500Y-113252135D01*
X115339500Y-115347870D01*
X115339501Y-115347876D01*
X115345908Y-115407483D01*
X115396202Y-115542328D01*
X115396206Y-115542335D01*
X115482452Y-115657544D01*
X115482455Y-115657547D01*
X115597664Y-115743793D01*
X115597671Y-115743797D01*
X115732517Y-115794091D01*
X115732516Y-115794091D01*
X115739444Y-115794835D01*
X115792127Y-115800500D01*
X117887872Y-115800499D01*
X117947483Y-115794091D01*
X118082331Y-115743796D01*
X118197546Y-115657546D01*
X118283796Y-115542331D01*
X118334091Y-115407483D01*
X118340500Y-115347873D01*
X118340500Y-115179500D01*
X118360185Y-115112461D01*
X118412989Y-115066706D01*
X118464500Y-115055500D01*
X140615501Y-115055500D01*
X140682540Y-115075185D01*
X140728295Y-115127989D01*
X140739501Y-115179500D01*
X140739501Y-115347876D01*
X140745908Y-115407483D01*
X140796202Y-115542328D01*
X140796206Y-115542335D01*
X140882452Y-115657544D01*
X140882455Y-115657547D01*
X140997664Y-115743793D01*
X140997671Y-115743797D01*
X141132517Y-115794091D01*
X141132516Y-115794091D01*
X141139444Y-115794835D01*
X141192127Y-115800500D01*
X143287872Y-115800499D01*
X143347483Y-115794091D01*
X143482331Y-115743796D01*
X143597546Y-115657546D01*
X143683796Y-115542331D01*
X143734091Y-115407483D01*
X143740500Y-115347873D01*
X143740499Y-113252128D01*
X143734091Y-113192517D01*
X143731100Y-113184499D01*
X143683797Y-113057671D01*
X143683793Y-113057664D01*
X143597547Y-112942455D01*
X143597544Y-112942452D01*
X143482335Y-112856206D01*
X143482328Y-112856202D01*
X143347482Y-112805908D01*
X143347483Y-112805908D01*
X143287883Y-112799501D01*
X143287881Y-112799500D01*
X143287873Y-112799500D01*
X143287864Y-112799500D01*
X141192129Y-112799500D01*
X141192123Y-112799501D01*
X141132516Y-112805908D01*
X140997671Y-112856202D01*
X140997664Y-112856206D01*
X140882455Y-112942452D01*
X140882452Y-112942455D01*
X140796206Y-113057664D01*
X140796202Y-113057671D01*
X140745908Y-113192517D01*
X140739501Y-113252116D01*
X140739501Y-113252123D01*
X140739500Y-113252135D01*
X140739500Y-113420500D01*
X140719815Y-113487539D01*
X140667011Y-113533294D01*
X140615500Y-113544500D01*
X137909500Y-113544500D01*
X137900814Y-113541949D01*
X137891853Y-113543238D01*
X137867812Y-113532259D01*
X137842461Y-113524815D01*
X137836533Y-113517974D01*
X137828297Y-113514213D01*
X137814007Y-113491978D01*
X137796706Y-113472011D01*
X137794418Y-113461496D01*
X137790523Y-113455435D01*
X137785500Y-113420500D01*
X137785500Y-113184499D01*
X137805185Y-113117460D01*
X137857989Y-113071705D01*
X137909500Y-113060499D01*
X138007871Y-113060499D01*
X138007872Y-113060499D01*
X138067483Y-113054091D01*
X138202331Y-113003796D01*
X138317546Y-112917546D01*
X138403796Y-112802331D01*
X138454091Y-112667483D01*
X138460500Y-112607873D01*
X138460499Y-110912128D01*
X138454091Y-110852517D01*
X138403796Y-110717669D01*
X138403795Y-110717668D01*
X138403793Y-110717664D01*
X138317547Y-110602455D01*
X138317544Y-110602452D01*
X138202335Y-110516206D01*
X138202328Y-110516202D01*
X138067482Y-110465908D01*
X138067483Y-110465908D01*
X138007883Y-110459501D01*
X138007881Y-110459500D01*
X138007873Y-110459500D01*
X138007864Y-110459500D01*
X136312129Y-110459500D01*
X136312123Y-110459501D01*
X136252516Y-110465908D01*
X136117671Y-110516202D01*
X136117664Y-110516206D01*
X136002455Y-110602452D01*
X136002452Y-110602455D01*
X135916206Y-110717664D01*
X135916202Y-110717671D01*
X135865908Y-110852517D01*
X135859501Y-110912116D01*
X135859501Y-110912123D01*
X135859500Y-110912135D01*
X135859500Y-112607870D01*
X135859501Y-112607876D01*
X135865908Y-112667483D01*
X135916202Y-112802328D01*
X135916206Y-112802335D01*
X136002452Y-112917544D01*
X136002455Y-112917547D01*
X136117664Y-113003793D01*
X136117671Y-113003797D01*
X136162618Y-113020561D01*
X136252517Y-113054091D01*
X136312127Y-113060500D01*
X136410500Y-113060499D01*
X136419185Y-113063049D01*
X136428147Y-113061761D01*
X136452185Y-113072738D01*
X136477538Y-113080183D01*
X136483466Y-113087024D01*
X136491703Y-113090786D01*
X136505989Y-113113016D01*
X136523294Y-113132986D01*
X136525581Y-113143502D01*
X136529477Y-113149564D01*
X136534500Y-113184499D01*
X136534500Y-113420500D01*
X136514815Y-113487539D01*
X136462011Y-113533294D01*
X136410500Y-113544500D01*
X122669500Y-113544500D01*
X122602461Y-113524815D01*
X122556706Y-113472011D01*
X122545500Y-113420500D01*
X122545500Y-113184499D01*
X122565185Y-113117460D01*
X122617989Y-113071705D01*
X122669500Y-113060499D01*
X122767871Y-113060499D01*
X122767872Y-113060499D01*
X122827483Y-113054091D01*
X122962331Y-113003796D01*
X123077546Y-112917546D01*
X123163796Y-112802331D01*
X123214091Y-112667483D01*
X123220500Y-112607873D01*
X123220499Y-110912128D01*
X123214091Y-110852517D01*
X123163796Y-110717669D01*
X123163795Y-110717668D01*
X123163793Y-110717664D01*
X123077547Y-110602455D01*
X123077544Y-110602452D01*
X122962335Y-110516206D01*
X122962328Y-110516202D01*
X122827482Y-110465908D01*
X122827483Y-110465908D01*
X122767883Y-110459501D01*
X122767881Y-110459500D01*
X122767873Y-110459500D01*
X122767864Y-110459500D01*
X121072129Y-110459500D01*
X121072123Y-110459501D01*
X121012516Y-110465908D01*
X120877671Y-110516202D01*
X120877664Y-110516206D01*
X120762455Y-110602452D01*
X120762452Y-110602455D01*
X120676206Y-110717664D01*
X120676202Y-110717671D01*
X120625908Y-110852517D01*
X120619501Y-110912116D01*
X120619501Y-110912123D01*
X120619500Y-110912135D01*
X120619500Y-112607870D01*
X120619501Y-112607876D01*
X120625908Y-112667483D01*
X120676202Y-112802328D01*
X120676206Y-112802335D01*
X120762452Y-112917544D01*
X120762455Y-112917547D01*
X120877664Y-113003793D01*
X120877671Y-113003797D01*
X120922618Y-113020561D01*
X121012517Y-113054091D01*
X121072127Y-113060500D01*
X121170500Y-113060499D01*
X121179185Y-113063049D01*
X121188147Y-113061761D01*
X121212185Y-113072738D01*
X121237538Y-113080183D01*
X121243466Y-113087024D01*
X121251703Y-113090786D01*
X121265989Y-113113016D01*
X121283294Y-113132986D01*
X121285581Y-113143502D01*
X121289477Y-113149564D01*
X121294500Y-113184499D01*
X121294500Y-113420500D01*
X121274815Y-113487539D01*
X121222011Y-113533294D01*
X121170500Y-113544500D01*
X118464499Y-113544500D01*
X118397460Y-113524815D01*
X118351705Y-113472011D01*
X118340499Y-113420500D01*
X118340499Y-113252129D01*
X118340498Y-113252123D01*
X118340497Y-113252116D01*
X118334091Y-113192517D01*
X118331100Y-113184499D01*
X118283797Y-113057671D01*
X118283793Y-113057664D01*
X118197547Y-112942455D01*
X118197544Y-112942452D01*
X118082335Y-112856206D01*
X118082328Y-112856202D01*
X117947482Y-112805908D01*
X117947483Y-112805908D01*
X117887883Y-112799501D01*
X117887881Y-112799500D01*
X117887873Y-112799500D01*
X117887864Y-112799500D01*
X115792129Y-112799500D01*
X115792123Y-112799501D01*
X115732516Y-112805908D01*
X115597671Y-112856202D01*
X115597664Y-112856206D01*
X115482455Y-112942452D01*
X115482452Y-112942455D01*
X115396206Y-113057664D01*
X115396202Y-113057671D01*
X115345908Y-113192517D01*
X115339501Y-113252116D01*
X115339501Y-113252123D01*
X115339500Y-113252135D01*
X103325500Y-113252135D01*
X103325500Y-99149500D01*
X103345185Y-99082461D01*
X103397989Y-99036706D01*
X103449500Y-99025500D01*
X111711002Y-99025500D01*
X111765040Y-99022603D01*
X111904450Y-98987020D01*
X111939098Y-98972668D01*
X112033943Y-98920879D01*
X112139249Y-98822837D01*
X112212668Y-98699098D01*
X112227020Y-98664450D01*
X112245024Y-98613416D01*
X112265500Y-98471000D01*
X112265500Y-98212135D01*
X115539500Y-98212135D01*
X115539500Y-99907870D01*
X115539501Y-99907876D01*
X115545908Y-99967483D01*
X115596202Y-100102328D01*
X115596206Y-100102335D01*
X115682452Y-100217544D01*
X115682455Y-100217547D01*
X115797664Y-100303793D01*
X115797671Y-100303797D01*
X115932517Y-100354091D01*
X115932516Y-100354091D01*
X115939444Y-100354835D01*
X115992127Y-100360500D01*
X117687872Y-100360499D01*
X117747483Y-100354091D01*
X117882331Y-100303796D01*
X117997546Y-100217546D01*
X118074171Y-100115188D01*
X118130104Y-100073318D01*
X118173437Y-100065500D01*
X120790500Y-100065500D01*
X120857539Y-100085185D01*
X120903294Y-100137989D01*
X120914500Y-100189500D01*
X120914500Y-102806562D01*
X120894815Y-102873601D01*
X120864812Y-102905828D01*
X120762452Y-102982455D01*
X120676206Y-103097664D01*
X120676202Y-103097671D01*
X120625908Y-103232517D01*
X120619501Y-103292116D01*
X120619501Y-103292123D01*
X120619500Y-103292135D01*
X120619500Y-104987870D01*
X120619501Y-104987876D01*
X120625908Y-105047483D01*
X120676202Y-105182328D01*
X120676206Y-105182335D01*
X120762452Y-105297544D01*
X120762455Y-105297547D01*
X120877664Y-105383793D01*
X120877671Y-105383797D01*
X121012517Y-105434091D01*
X121012516Y-105434091D01*
X121019444Y-105434835D01*
X121072127Y-105440500D01*
X122767872Y-105440499D01*
X122827483Y-105434091D01*
X122962331Y-105383796D01*
X123077546Y-105297546D01*
X123163796Y-105182331D01*
X123214091Y-105047483D01*
X123220500Y-104987873D01*
X123220499Y-103292128D01*
X123214091Y-103232517D01*
X123163796Y-103097669D01*
X123163795Y-103097668D01*
X123163793Y-103097664D01*
X123077547Y-102982455D01*
X122975188Y-102905828D01*
X122933318Y-102849894D01*
X122925500Y-102806562D01*
X122925500Y-100752135D01*
X130779500Y-100752135D01*
X130779500Y-102447870D01*
X130779501Y-102447876D01*
X130785908Y-102507483D01*
X130836202Y-102642328D01*
X130836206Y-102642335D01*
X130922452Y-102757544D01*
X130922455Y-102757547D01*
X131037664Y-102843793D01*
X131037671Y-102843797D01*
X131172517Y-102894091D01*
X131172516Y-102894091D01*
X131179444Y-102894835D01*
X131232127Y-102900500D01*
X132927872Y-102900499D01*
X132987483Y-102894091D01*
X133122331Y-102843796D01*
X133237546Y-102757546D01*
X133314171Y-102655188D01*
X133370104Y-102613318D01*
X133413437Y-102605500D01*
X136030500Y-102605500D01*
X136097539Y-102625185D01*
X136143294Y-102677989D01*
X136154500Y-102729500D01*
X136154500Y-105346562D01*
X136134815Y-105413601D01*
X136104812Y-105445828D01*
X136002452Y-105522455D01*
X135916206Y-105637664D01*
X135916202Y-105637671D01*
X135865908Y-105772517D01*
X135859501Y-105832116D01*
X135859501Y-105832123D01*
X135859500Y-105832135D01*
X135859500Y-107527870D01*
X135859501Y-107527876D01*
X135865908Y-107587483D01*
X135916202Y-107722328D01*
X135916206Y-107722335D01*
X136002452Y-107837544D01*
X136002455Y-107837547D01*
X136117664Y-107923793D01*
X136117671Y-107923797D01*
X136252517Y-107974091D01*
X136252516Y-107974091D01*
X136259444Y-107974835D01*
X136312127Y-107980500D01*
X138007872Y-107980499D01*
X138067483Y-107974091D01*
X138202331Y-107923796D01*
X138317546Y-107837546D01*
X138403796Y-107722331D01*
X138454091Y-107587483D01*
X138460500Y-107527873D01*
X138460499Y-105832128D01*
X138454091Y-105772517D01*
X138403796Y-105637669D01*
X138403795Y-105637668D01*
X138403793Y-105637664D01*
X138317547Y-105522455D01*
X138215188Y-105445828D01*
X138173318Y-105389894D01*
X138165500Y-105346562D01*
X138165500Y-102729500D01*
X138185185Y-102662461D01*
X138237989Y-102616706D01*
X138289500Y-102605500D01*
X140906563Y-102605500D01*
X140973602Y-102625185D01*
X141005828Y-102655187D01*
X141082454Y-102757546D01*
X141128643Y-102792123D01*
X141197664Y-102843793D01*
X141197671Y-102843797D01*
X141332517Y-102894091D01*
X141332516Y-102894091D01*
X141339444Y-102894835D01*
X141392127Y-102900500D01*
X143087872Y-102900499D01*
X143147483Y-102894091D01*
X143282331Y-102843796D01*
X143397546Y-102757546D01*
X143483796Y-102642331D01*
X143534091Y-102507483D01*
X143540500Y-102447873D01*
X143540499Y-100752128D01*
X143534091Y-100692517D01*
X143493353Y-100583294D01*
X143483797Y-100557671D01*
X143483793Y-100557664D01*
X143397547Y-100442455D01*
X143397544Y-100442452D01*
X143282335Y-100356206D01*
X143282328Y-100356202D01*
X143147482Y-100305908D01*
X143147483Y-100305908D01*
X143087883Y-100299501D01*
X143087881Y-100299500D01*
X143087873Y-100299500D01*
X143087864Y-100299500D01*
X141392129Y-100299500D01*
X141392123Y-100299501D01*
X141332516Y-100305908D01*
X141197671Y-100356202D01*
X141197664Y-100356206D01*
X141082456Y-100442452D01*
X141082455Y-100442453D01*
X141082454Y-100442454D01*
X141005830Y-100544811D01*
X140949896Y-100586682D01*
X140906563Y-100594500D01*
X138289500Y-100594500D01*
X138222461Y-100574815D01*
X138176706Y-100522011D01*
X138165500Y-100470500D01*
X138165500Y-97853437D01*
X138185185Y-97786398D01*
X138215187Y-97754171D01*
X138317546Y-97677546D01*
X138403796Y-97562331D01*
X138454091Y-97427483D01*
X138460500Y-97367873D01*
X138460499Y-95672128D01*
X138454091Y-95612517D01*
X138403796Y-95477669D01*
X138403795Y-95477668D01*
X138403793Y-95477664D01*
X138317547Y-95362455D01*
X138317544Y-95362452D01*
X138202335Y-95276206D01*
X138202328Y-95276202D01*
X138067482Y-95225908D01*
X138067483Y-95225908D01*
X138007883Y-95219501D01*
X138007881Y-95219500D01*
X138007873Y-95219500D01*
X138007864Y-95219500D01*
X136312129Y-95219500D01*
X136312123Y-95219501D01*
X136252516Y-95225908D01*
X136117671Y-95276202D01*
X136117664Y-95276206D01*
X136002455Y-95362452D01*
X136002452Y-95362455D01*
X135916206Y-95477664D01*
X135916202Y-95477671D01*
X135865908Y-95612517D01*
X135859501Y-95672116D01*
X135859501Y-95672123D01*
X135859500Y-95672135D01*
X135859500Y-97367870D01*
X135859501Y-97367876D01*
X135865908Y-97427483D01*
X135916202Y-97562328D01*
X135916206Y-97562335D01*
X135964976Y-97627482D01*
X136002454Y-97677546D01*
X136104811Y-97754171D01*
X136146682Y-97810104D01*
X136154500Y-97853437D01*
X136154500Y-100470500D01*
X136134815Y-100537539D01*
X136082011Y-100583294D01*
X136030500Y-100594500D01*
X133413437Y-100594500D01*
X133346398Y-100574815D01*
X133314170Y-100544811D01*
X133237546Y-100442454D01*
X133214709Y-100425358D01*
X133122335Y-100356206D01*
X133122328Y-100356202D01*
X132987482Y-100305908D01*
X132987483Y-100305908D01*
X132927883Y-100299501D01*
X132927881Y-100299500D01*
X132927873Y-100299500D01*
X132927864Y-100299500D01*
X131232129Y-100299500D01*
X131232123Y-100299501D01*
X131172516Y-100305908D01*
X131037671Y-100356202D01*
X131037664Y-100356206D01*
X130922455Y-100442452D01*
X130922452Y-100442455D01*
X130836206Y-100557664D01*
X130836202Y-100557671D01*
X130785908Y-100692517D01*
X130779501Y-100752116D01*
X130779501Y-100752123D01*
X130779500Y-100752135D01*
X122925500Y-100752135D01*
X122925500Y-100189500D01*
X122945185Y-100122461D01*
X122997989Y-100076706D01*
X123049500Y-100065500D01*
X125666563Y-100065500D01*
X125733602Y-100085185D01*
X125765828Y-100115187D01*
X125842454Y-100217546D01*
X125888643Y-100252123D01*
X125957664Y-100303793D01*
X125957671Y-100303797D01*
X126092517Y-100354091D01*
X126092516Y-100354091D01*
X126099444Y-100354835D01*
X126152127Y-100360500D01*
X127847872Y-100360499D01*
X127907483Y-100354091D01*
X128042331Y-100303796D01*
X128157546Y-100217546D01*
X128243796Y-100102331D01*
X128294091Y-99967483D01*
X128300500Y-99907873D01*
X128300499Y-98212128D01*
X128294091Y-98152517D01*
X128291100Y-98144499D01*
X128243797Y-98017671D01*
X128243793Y-98017664D01*
X128157547Y-97902455D01*
X128157544Y-97902452D01*
X128042335Y-97816206D01*
X128042328Y-97816202D01*
X127907482Y-97765908D01*
X127907483Y-97765908D01*
X127847883Y-97759501D01*
X127847881Y-97759500D01*
X127847873Y-97759500D01*
X127847864Y-97759500D01*
X126152129Y-97759500D01*
X126152123Y-97759501D01*
X126092516Y-97765908D01*
X125957671Y-97816202D01*
X125957664Y-97816206D01*
X125842456Y-97902452D01*
X125842455Y-97902453D01*
X125842454Y-97902454D01*
X125765830Y-98004811D01*
X125709896Y-98046682D01*
X125666563Y-98054500D01*
X123049500Y-98054500D01*
X122982461Y-98034815D01*
X122936706Y-97982011D01*
X122925500Y-97930500D01*
X122925500Y-95313437D01*
X122945185Y-95246398D01*
X122975187Y-95214171D01*
X123077546Y-95137546D01*
X123163796Y-95022331D01*
X123214091Y-94887483D01*
X123220500Y-94827873D01*
X123220499Y-93132128D01*
X123214091Y-93072517D01*
X123163796Y-92937669D01*
X123163795Y-92937668D01*
X123163793Y-92937664D01*
X123077547Y-92822455D01*
X123077544Y-92822452D01*
X122962335Y-92736206D01*
X122962328Y-92736202D01*
X122827482Y-92685908D01*
X122827483Y-92685908D01*
X122767883Y-92679501D01*
X122767881Y-92679500D01*
X122767873Y-92679500D01*
X122767864Y-92679500D01*
X121072129Y-92679500D01*
X121072123Y-92679501D01*
X121012516Y-92685908D01*
X120877671Y-92736202D01*
X120877664Y-92736206D01*
X120762455Y-92822452D01*
X120762452Y-92822455D01*
X120676206Y-92937664D01*
X120676202Y-92937671D01*
X120625908Y-93072517D01*
X120619501Y-93132116D01*
X120619501Y-93132123D01*
X120619500Y-93132135D01*
X120619500Y-94827870D01*
X120619501Y-94827876D01*
X120625908Y-94887483D01*
X120676202Y-95022328D01*
X120676206Y-95022335D01*
X120745358Y-95114709D01*
X120762454Y-95137546D01*
X120864811Y-95214171D01*
X120906682Y-95270104D01*
X120914500Y-95313437D01*
X120914500Y-97930500D01*
X120894815Y-97997539D01*
X120842011Y-98043294D01*
X120790500Y-98054500D01*
X118173437Y-98054500D01*
X118106398Y-98034815D01*
X118074170Y-98004811D01*
X117997546Y-97902454D01*
X117932068Y-97853437D01*
X117882335Y-97816206D01*
X117882328Y-97816202D01*
X117747482Y-97765908D01*
X117747483Y-97765908D01*
X117687883Y-97759501D01*
X117687881Y-97759500D01*
X117687873Y-97759500D01*
X117687864Y-97759500D01*
X115992129Y-97759500D01*
X115992123Y-97759501D01*
X115932516Y-97765908D01*
X115797671Y-97816202D01*
X115797664Y-97816206D01*
X115682455Y-97902452D01*
X115682452Y-97902455D01*
X115596206Y-98017664D01*
X115596202Y-98017671D01*
X115545908Y-98152517D01*
X115539501Y-98212116D01*
X115539501Y-98212123D01*
X115539500Y-98212135D01*
X112265500Y-98212135D01*
X112265500Y-98144499D01*
X112285185Y-98077460D01*
X112337989Y-98031705D01*
X112389500Y-98020499D01*
X112807871Y-98020499D01*
X112807872Y-98020499D01*
X112867483Y-98014091D01*
X113002331Y-97963796D01*
X113117546Y-97877546D01*
X113203796Y-97762331D01*
X113254091Y-97627483D01*
X113260500Y-97567873D01*
X113260499Y-95472128D01*
X113254091Y-95412517D01*
X113203796Y-95277669D01*
X113203795Y-95277668D01*
X113203793Y-95277664D01*
X113117547Y-95162455D01*
X113117544Y-95162452D01*
X113002335Y-95076206D01*
X113002328Y-95076202D01*
X112867482Y-95025908D01*
X112867483Y-95025908D01*
X112807883Y-95019501D01*
X112807881Y-95019500D01*
X112807873Y-95019500D01*
X112807865Y-95019500D01*
X112389500Y-95019500D01*
X112322461Y-94999815D01*
X112276706Y-94947011D01*
X112265500Y-94895500D01*
X112265500Y-94568997D01*
X112262603Y-94514959D01*
X112262602Y-94514958D01*
X112227020Y-94375550D01*
X112227018Y-94375545D01*
X112212667Y-94340900D01*
X112212667Y-94340899D01*
X112160880Y-94246058D01*
X112160877Y-94246055D01*
X112062838Y-94140752D01*
X112062834Y-94140748D01*
X111939106Y-94067336D01*
X111939101Y-94067334D01*
X111939098Y-94067332D01*
X111904450Y-94052980D01*
X111853416Y-94034976D01*
X111853414Y-94034975D01*
X111853412Y-94034975D01*
X111768477Y-94022763D01*
X111711000Y-94014500D01*
X111710998Y-94014500D01*
X103449500Y-94014500D01*
X103382461Y-93994815D01*
X103336706Y-93942011D01*
X103325500Y-93890500D01*
X103325500Y-82972135D01*
X115539500Y-82972135D01*
X115539500Y-84667870D01*
X115539501Y-84667876D01*
X115545908Y-84727483D01*
X115596202Y-84862328D01*
X115596206Y-84862335D01*
X115682452Y-84977544D01*
X115682455Y-84977547D01*
X115797664Y-85063793D01*
X115797671Y-85063797D01*
X115932517Y-85114091D01*
X115932516Y-85114091D01*
X115939444Y-85114835D01*
X115992127Y-85120500D01*
X117687872Y-85120499D01*
X117747483Y-85114091D01*
X117882331Y-85063796D01*
X117997546Y-84977546D01*
X118074171Y-84875188D01*
X118130104Y-84833318D01*
X118173437Y-84825500D01*
X120790500Y-84825500D01*
X120857539Y-84845185D01*
X120903294Y-84897989D01*
X120914500Y-84949500D01*
X120914500Y-87566562D01*
X120894815Y-87633601D01*
X120864812Y-87665828D01*
X120762452Y-87742455D01*
X120676206Y-87857664D01*
X120676202Y-87857671D01*
X120625908Y-87992517D01*
X120620784Y-88040185D01*
X120619501Y-88052123D01*
X120619500Y-88052135D01*
X120619500Y-89747870D01*
X120619501Y-89747876D01*
X120625908Y-89807483D01*
X120676202Y-89942328D01*
X120676206Y-89942335D01*
X120762452Y-90057544D01*
X120762455Y-90057547D01*
X120877664Y-90143793D01*
X120877671Y-90143797D01*
X121012517Y-90194091D01*
X121012516Y-90194091D01*
X121019444Y-90194835D01*
X121072127Y-90200500D01*
X122767872Y-90200499D01*
X122827483Y-90194091D01*
X122962331Y-90143796D01*
X123077546Y-90057546D01*
X123163796Y-89942331D01*
X123214091Y-89807483D01*
X123220500Y-89747873D01*
X123220499Y-88052128D01*
X123214091Y-87992517D01*
X123197976Y-87949311D01*
X123163797Y-87857671D01*
X123163793Y-87857664D01*
X123077547Y-87742455D01*
X122975188Y-87665828D01*
X122933318Y-87609894D01*
X122925500Y-87566562D01*
X122925500Y-84949500D01*
X122945185Y-84882461D01*
X122997989Y-84836706D01*
X123049500Y-84825500D01*
X125666563Y-84825500D01*
X125733602Y-84845185D01*
X125765828Y-84875187D01*
X125842454Y-84977546D01*
X125888643Y-85012123D01*
X125957664Y-85063793D01*
X125957671Y-85063797D01*
X126092517Y-85114091D01*
X126092516Y-85114091D01*
X126099444Y-85114835D01*
X126152127Y-85120500D01*
X127847872Y-85120499D01*
X127907483Y-85114091D01*
X128042331Y-85063796D01*
X128157546Y-84977546D01*
X128243796Y-84862331D01*
X128294091Y-84727483D01*
X128300500Y-84667873D01*
X128300499Y-82972128D01*
X128294091Y-82912517D01*
X128256804Y-82812546D01*
X128243797Y-82777671D01*
X128243793Y-82777664D01*
X128157547Y-82662455D01*
X128157544Y-82662452D01*
X128042335Y-82576206D01*
X128042328Y-82576202D01*
X127907482Y-82525908D01*
X127907483Y-82525908D01*
X127847883Y-82519501D01*
X127847881Y-82519500D01*
X127847873Y-82519500D01*
X127847864Y-82519500D01*
X126152129Y-82519500D01*
X126152123Y-82519501D01*
X126092516Y-82525908D01*
X125957671Y-82576202D01*
X125957664Y-82576206D01*
X125842456Y-82662452D01*
X125842455Y-82662453D01*
X125842454Y-82662454D01*
X125765830Y-82764811D01*
X125709896Y-82806682D01*
X125666563Y-82814500D01*
X123049500Y-82814500D01*
X122982461Y-82794815D01*
X122936706Y-82742011D01*
X122925500Y-82690500D01*
X122925500Y-80073437D01*
X122945185Y-80006398D01*
X122975187Y-79974171D01*
X123077546Y-79897546D01*
X123163796Y-79782331D01*
X123214091Y-79647483D01*
X123220500Y-79587873D01*
X123220499Y-77892128D01*
X123214091Y-77832517D01*
X123214091Y-77832516D01*
X123176653Y-77732139D01*
X123163797Y-77697671D01*
X123163793Y-77697664D01*
X123159654Y-77692135D01*
X130579500Y-77692135D01*
X130579500Y-79787870D01*
X130579501Y-79787876D01*
X130585908Y-79847483D01*
X130636202Y-79982328D01*
X130636206Y-79982335D01*
X130722452Y-80097544D01*
X130722455Y-80097547D01*
X130837664Y-80183793D01*
X130837671Y-80183797D01*
X130882618Y-80200561D01*
X130972517Y-80234091D01*
X131032127Y-80240500D01*
X131339586Y-80240499D01*
X131406625Y-80260183D01*
X131452380Y-80312987D01*
X131461203Y-80340308D01*
X131478535Y-80427444D01*
X131478538Y-80427454D01*
X131525687Y-80541283D01*
X131525692Y-80541292D01*
X131594141Y-80643732D01*
X131594144Y-80643736D01*
X131681263Y-80730855D01*
X131681267Y-80730858D01*
X131783707Y-80799307D01*
X131783713Y-80799310D01*
X131783714Y-80799311D01*
X131897548Y-80846463D01*
X132018389Y-80870499D01*
X132018393Y-80870500D01*
X132018394Y-80870500D01*
X132141606Y-80870500D01*
X132322269Y-80870500D01*
X132389308Y-80890185D01*
X132435063Y-80942989D01*
X132445007Y-81012147D01*
X132435063Y-81046012D01*
X132374976Y-81177580D01*
X132374975Y-81177585D01*
X132354500Y-81319999D01*
X132354500Y-86320002D01*
X132359644Y-86391940D01*
X132380338Y-86462414D01*
X132400181Y-86529992D01*
X132418177Y-86557994D01*
X132431330Y-86578461D01*
X132451014Y-86645501D01*
X132431329Y-86712540D01*
X132378525Y-86758295D01*
X132327014Y-86769500D01*
X132018389Y-86769500D01*
X131897555Y-86793535D01*
X131897545Y-86793538D01*
X131783716Y-86840687D01*
X131783707Y-86840692D01*
X131681267Y-86909141D01*
X131681263Y-86909144D01*
X131594144Y-86996263D01*
X131594141Y-86996267D01*
X131525692Y-87098707D01*
X131525687Y-87098716D01*
X131478538Y-87212545D01*
X131478535Y-87212555D01*
X131461203Y-87299691D01*
X131428818Y-87361602D01*
X131368103Y-87396176D01*
X131339586Y-87399500D01*
X131032130Y-87399500D01*
X131032123Y-87399501D01*
X130972516Y-87405908D01*
X130837671Y-87456202D01*
X130837664Y-87456206D01*
X130722455Y-87542452D01*
X130722452Y-87542455D01*
X130636206Y-87657664D01*
X130636202Y-87657671D01*
X130585908Y-87792517D01*
X130579501Y-87852116D01*
X130579500Y-87852135D01*
X130579500Y-89947870D01*
X130579501Y-89947876D01*
X130585908Y-90007483D01*
X130636202Y-90142328D01*
X130636206Y-90142335D01*
X130722452Y-90257544D01*
X130722455Y-90257547D01*
X130837664Y-90343793D01*
X130837671Y-90343797D01*
X130972517Y-90394091D01*
X130972516Y-90394091D01*
X130979444Y-90394835D01*
X131032127Y-90400500D01*
X133127872Y-90400499D01*
X133187483Y-90394091D01*
X133322331Y-90343796D01*
X133437546Y-90257546D01*
X133523796Y-90142331D01*
X133574091Y-90007483D01*
X133580500Y-89947873D01*
X133580499Y-88144499D01*
X133600184Y-88077461D01*
X133652987Y-88031706D01*
X133704499Y-88020500D01*
X135735500Y-88020500D01*
X135802539Y-88040185D01*
X135848294Y-88092989D01*
X135859500Y-88144500D01*
X135859500Y-89747870D01*
X135859501Y-89747876D01*
X135865908Y-89807483D01*
X135916202Y-89942328D01*
X135916206Y-89942335D01*
X136002452Y-90057544D01*
X136002455Y-90057547D01*
X136117664Y-90143793D01*
X136117671Y-90143797D01*
X136252517Y-90194091D01*
X136252516Y-90194091D01*
X136259444Y-90194835D01*
X136312127Y-90200500D01*
X138007872Y-90200499D01*
X138067483Y-90194091D01*
X138202331Y-90143796D01*
X138317546Y-90057546D01*
X138403796Y-89942331D01*
X138454091Y-89807483D01*
X138460500Y-89747873D01*
X138460499Y-88144499D01*
X138480184Y-88077461D01*
X138532987Y-88031706D01*
X138584499Y-88020500D01*
X145221607Y-88020500D01*
X145221608Y-88020499D01*
X145342452Y-87996463D01*
X145456286Y-87949311D01*
X145558733Y-87880858D01*
X145645858Y-87793733D01*
X145714311Y-87691286D01*
X145761463Y-87577452D01*
X145785500Y-87456606D01*
X145785500Y-86783394D01*
X145761463Y-86662548D01*
X145754401Y-86645500D01*
X145742784Y-86617454D01*
X145735314Y-86547985D01*
X145742784Y-86522546D01*
X145761460Y-86477459D01*
X145761459Y-86477459D01*
X145761463Y-86477452D01*
X145785500Y-86356606D01*
X145785500Y-85683394D01*
X145761463Y-85562548D01*
X145742783Y-85517453D01*
X145735314Y-85447985D01*
X145742784Y-85422546D01*
X145761460Y-85377459D01*
X145761459Y-85377459D01*
X145761463Y-85377452D01*
X145785500Y-85256606D01*
X145785500Y-84583394D01*
X145761463Y-84462548D01*
X145742783Y-84417453D01*
X145735314Y-84347985D01*
X145742784Y-84322546D01*
X145761460Y-84277459D01*
X145761459Y-84277459D01*
X145761463Y-84277452D01*
X145785500Y-84156606D01*
X145785500Y-83483394D01*
X145761463Y-83362548D01*
X145742783Y-83317453D01*
X145735314Y-83247985D01*
X145742784Y-83222546D01*
X145761460Y-83177459D01*
X145761459Y-83177459D01*
X145761463Y-83177452D01*
X145785500Y-83056606D01*
X145785500Y-82383394D01*
X145761463Y-82262548D01*
X145742783Y-82217453D01*
X145735314Y-82147985D01*
X145742784Y-82122546D01*
X145761460Y-82077459D01*
X145761459Y-82077459D01*
X145761463Y-82077452D01*
X145785500Y-81956606D01*
X145785500Y-81283394D01*
X145761463Y-81162548D01*
X145742783Y-81117453D01*
X145735314Y-81047985D01*
X145742784Y-81022546D01*
X145747092Y-81012147D01*
X145761463Y-80977452D01*
X145785500Y-80856606D01*
X145785500Y-80183394D01*
X145761463Y-80062548D01*
X145714311Y-79948714D01*
X145714310Y-79948713D01*
X145714307Y-79948707D01*
X145645858Y-79846267D01*
X145645855Y-79846263D01*
X145558736Y-79759144D01*
X145558732Y-79759141D01*
X145456292Y-79690692D01*
X145456283Y-79690687D01*
X145342454Y-79643538D01*
X145342455Y-79643538D01*
X145342452Y-79643537D01*
X145342448Y-79643536D01*
X145342444Y-79643535D01*
X145221610Y-79619500D01*
X145221606Y-79619500D01*
X138584500Y-79619500D01*
X138517461Y-79599815D01*
X138471706Y-79547011D01*
X138460500Y-79495500D01*
X138460499Y-77892129D01*
X138460498Y-77892123D01*
X138460497Y-77892116D01*
X138454091Y-77832517D01*
X138416652Y-77732139D01*
X138403797Y-77697671D01*
X138403793Y-77697664D01*
X138317547Y-77582455D01*
X138317544Y-77582452D01*
X138202335Y-77496206D01*
X138202328Y-77496202D01*
X138067482Y-77445908D01*
X138067483Y-77445908D01*
X138007883Y-77439501D01*
X138007881Y-77439500D01*
X138007873Y-77439500D01*
X138007864Y-77439500D01*
X136312129Y-77439500D01*
X136312123Y-77439501D01*
X136252516Y-77445908D01*
X136117671Y-77496202D01*
X136117664Y-77496206D01*
X136002455Y-77582452D01*
X136002452Y-77582455D01*
X135916206Y-77697664D01*
X135916202Y-77697671D01*
X135865908Y-77832517D01*
X135859501Y-77892116D01*
X135859501Y-77892123D01*
X135859500Y-77892135D01*
X135859501Y-79495500D01*
X135839816Y-79562539D01*
X135787013Y-79608294D01*
X135735501Y-79619500D01*
X133704500Y-79619500D01*
X133637461Y-79599815D01*
X133591706Y-79547011D01*
X133580500Y-79495500D01*
X133580499Y-77692129D01*
X133580498Y-77692123D01*
X133580497Y-77692116D01*
X133574091Y-77632517D01*
X133530244Y-77514958D01*
X133523797Y-77497671D01*
X133523793Y-77497664D01*
X133437547Y-77382455D01*
X133437544Y-77382452D01*
X133322335Y-77296206D01*
X133322328Y-77296202D01*
X133187482Y-77245908D01*
X133187483Y-77245908D01*
X133127883Y-77239501D01*
X133127881Y-77239500D01*
X133127873Y-77239500D01*
X133127864Y-77239500D01*
X131032129Y-77239500D01*
X131032123Y-77239501D01*
X130972516Y-77245908D01*
X130837671Y-77296202D01*
X130837664Y-77296206D01*
X130722455Y-77382452D01*
X130722452Y-77382455D01*
X130636206Y-77497664D01*
X130636202Y-77497671D01*
X130585908Y-77632517D01*
X130579501Y-77692116D01*
X130579501Y-77692123D01*
X130579500Y-77692135D01*
X123159654Y-77692135D01*
X123077547Y-77582455D01*
X123077544Y-77582452D01*
X122962335Y-77496206D01*
X122962328Y-77496202D01*
X122827482Y-77445908D01*
X122827483Y-77445908D01*
X122767883Y-77439501D01*
X122767881Y-77439500D01*
X122767873Y-77439500D01*
X122767864Y-77439500D01*
X121072129Y-77439500D01*
X121072123Y-77439501D01*
X121012516Y-77445908D01*
X120877671Y-77496202D01*
X120877664Y-77496206D01*
X120762455Y-77582452D01*
X120762452Y-77582455D01*
X120676206Y-77697664D01*
X120676202Y-77697671D01*
X120625908Y-77832517D01*
X120619501Y-77892116D01*
X120619501Y-77892123D01*
X120619500Y-77892135D01*
X120619500Y-79587870D01*
X120619501Y-79587876D01*
X120625908Y-79647483D01*
X120676202Y-79782328D01*
X120676206Y-79782335D01*
X120724977Y-79847483D01*
X120762454Y-79897546D01*
X120864811Y-79974171D01*
X120906682Y-80030104D01*
X120914500Y-80073437D01*
X120914500Y-82690500D01*
X120894815Y-82757539D01*
X120842011Y-82803294D01*
X120790500Y-82814500D01*
X118173437Y-82814500D01*
X118106398Y-82794815D01*
X118074170Y-82764811D01*
X117997546Y-82662454D01*
X117950791Y-82627453D01*
X117882335Y-82576206D01*
X117882328Y-82576202D01*
X117747482Y-82525908D01*
X117747483Y-82525908D01*
X117687883Y-82519501D01*
X117687881Y-82519500D01*
X117687873Y-82519500D01*
X117687864Y-82519500D01*
X115992129Y-82519500D01*
X115992123Y-82519501D01*
X115932516Y-82525908D01*
X115797671Y-82576202D01*
X115797664Y-82576206D01*
X115682455Y-82662452D01*
X115682452Y-82662455D01*
X115596206Y-82777664D01*
X115596202Y-82777671D01*
X115545908Y-82912517D01*
X115543664Y-82933394D01*
X115539501Y-82972123D01*
X115539500Y-82972135D01*
X103325500Y-82972135D01*
X103325500Y-77568997D01*
X103322603Y-77514959D01*
X103322602Y-77514958D01*
X103318189Y-77497669D01*
X103287020Y-77375550D01*
X103272668Y-77340902D01*
X103272667Y-77340900D01*
X103272667Y-77340899D01*
X103220880Y-77246058D01*
X103220877Y-77246055D01*
X103122838Y-77140752D01*
X103122834Y-77140748D01*
X102999106Y-77067336D01*
X102999101Y-77067334D01*
X102999098Y-77067332D01*
X102964450Y-77052980D01*
X102913416Y-77034976D01*
X102913414Y-77034975D01*
X102913412Y-77034975D01*
X102828477Y-77022763D01*
X102771000Y-77014500D01*
X64869000Y-77014500D01*
X64868998Y-77014500D01*
X64814959Y-77017396D01*
X64814958Y-77017397D01*
X64675550Y-77052979D01*
X64675545Y-77052981D01*
X64640900Y-77067332D01*
X64640899Y-77067332D01*
X64546058Y-77119119D01*
X64546055Y-77119122D01*
X64440752Y-77217161D01*
X64440748Y-77217165D01*
X64367336Y-77340893D01*
X64367333Y-77340900D01*
X64352981Y-77375547D01*
X64334975Y-77426587D01*
X64324755Y-77497671D01*
X64314501Y-77568997D01*
X64314500Y-77569001D01*
X64314500Y-93890500D01*
X64294815Y-93957539D01*
X64242011Y-94003294D01*
X64190500Y-94014500D01*
X55928998Y-94014500D01*
X55874959Y-94017396D01*
X55874958Y-94017397D01*
X55735550Y-94052979D01*
X55735545Y-94052981D01*
X55700900Y-94067332D01*
X55700899Y-94067332D01*
X55606058Y-94119119D01*
X55606055Y-94119122D01*
X55500752Y-94217161D01*
X55500748Y-94217165D01*
X55427336Y-94340893D01*
X55427333Y-94340900D01*
X55412981Y-94375547D01*
X55394975Y-94426587D01*
X55382270Y-94514958D01*
X55374501Y-94568997D01*
X55374500Y-94569001D01*
X55374500Y-94895500D01*
X55354815Y-94962539D01*
X55302011Y-95008294D01*
X55250500Y-95019500D01*
X54832129Y-95019500D01*
X54832123Y-95019501D01*
X54772516Y-95025908D01*
X54637671Y-95076202D01*
X54637664Y-95076206D01*
X54522455Y-95162452D01*
X54522452Y-95162455D01*
X54436206Y-95277664D01*
X54436202Y-95277671D01*
X54385908Y-95412517D01*
X54379501Y-95472116D01*
X54379501Y-95472123D01*
X54379500Y-95472135D01*
X51800000Y-95472135D01*
X51800000Y-71218543D01*
X98059499Y-71218543D01*
X98097947Y-71411829D01*
X98097950Y-71411839D01*
X98173364Y-71593907D01*
X98173371Y-71593920D01*
X98282860Y-71757781D01*
X98282863Y-71757785D01*
X98422214Y-71897136D01*
X98422218Y-71897139D01*
X98586079Y-72006628D01*
X98586092Y-72006635D01*
X98768160Y-72082049D01*
X98768165Y-72082051D01*
X98768169Y-72082051D01*
X98768170Y-72082052D01*
X98961456Y-72120500D01*
X98961459Y-72120500D01*
X100428543Y-72120500D01*
X100558582Y-72094632D01*
X100621835Y-72082051D01*
X100803914Y-72006632D01*
X100896109Y-71945029D01*
X100962786Y-71924151D01*
X101030166Y-71942635D01*
X101033891Y-71945029D01*
X101126086Y-72006632D01*
X101126088Y-72006633D01*
X101126092Y-72006635D01*
X101308160Y-72082049D01*
X101308165Y-72082051D01*
X101308169Y-72082051D01*
X101308170Y-72082052D01*
X101501456Y-72120500D01*
X101501459Y-72120500D01*
X102968543Y-72120500D01*
X103098582Y-72094632D01*
X103161835Y-72082051D01*
X103343914Y-72006632D01*
X103436109Y-71945029D01*
X103502786Y-71924151D01*
X103570166Y-71942635D01*
X103573891Y-71945029D01*
X103666086Y-72006632D01*
X103666088Y-72006633D01*
X103666092Y-72006635D01*
X103848160Y-72082049D01*
X103848165Y-72082051D01*
X103848169Y-72082051D01*
X103848170Y-72082052D01*
X104041456Y-72120500D01*
X104041459Y-72120500D01*
X105508543Y-72120500D01*
X105638582Y-72094632D01*
X105701835Y-72082051D01*
X105883914Y-72006632D01*
X105976109Y-71945029D01*
X106042786Y-71924151D01*
X106110166Y-71942635D01*
X106113891Y-71945029D01*
X106206086Y-72006632D01*
X106206088Y-72006633D01*
X106206092Y-72006635D01*
X106388160Y-72082049D01*
X106388165Y-72082051D01*
X106388169Y-72082051D01*
X106388170Y-72082052D01*
X106581456Y-72120500D01*
X106581459Y-72120500D01*
X108048543Y-72120500D01*
X108178582Y-72094632D01*
X108241835Y-72082051D01*
X108423914Y-72006632D01*
X108516109Y-71945029D01*
X108582786Y-71924151D01*
X108650166Y-71942635D01*
X108653891Y-71945029D01*
X108746086Y-72006632D01*
X108746088Y-72006633D01*
X108746092Y-72006635D01*
X108928160Y-72082049D01*
X108928165Y-72082051D01*
X108928169Y-72082051D01*
X108928170Y-72082052D01*
X109121456Y-72120500D01*
X109121459Y-72120500D01*
X110588543Y-72120500D01*
X110718582Y-72094632D01*
X110781835Y-72082051D01*
X110963914Y-72006632D01*
X111056109Y-71945029D01*
X111122786Y-71924151D01*
X111190166Y-71942635D01*
X111193891Y-71945029D01*
X111286086Y-72006632D01*
X111286088Y-72006633D01*
X111286092Y-72006635D01*
X111468160Y-72082049D01*
X111468165Y-72082051D01*
X111468169Y-72082051D01*
X111468170Y-72082052D01*
X111661456Y-72120500D01*
X111661459Y-72120500D01*
X113128543Y-72120500D01*
X113258582Y-72094632D01*
X113321835Y-72082051D01*
X113503914Y-72006632D01*
X113596109Y-71945029D01*
X113662786Y-71924151D01*
X113730166Y-71942635D01*
X113733891Y-71945029D01*
X113826086Y-72006632D01*
X113826088Y-72006633D01*
X113826092Y-72006635D01*
X114008160Y-72082049D01*
X114008165Y-72082051D01*
X114008169Y-72082051D01*
X114008170Y-72082052D01*
X114201456Y-72120500D01*
X114201459Y-72120500D01*
X115668543Y-72120500D01*
X115798582Y-72094632D01*
X115861835Y-72082051D01*
X116043914Y-72006632D01*
X116136109Y-71945029D01*
X116202786Y-71924151D01*
X116270166Y-71942635D01*
X116273891Y-71945029D01*
X116366086Y-72006632D01*
X116366088Y-72006633D01*
X116366092Y-72006635D01*
X116548160Y-72082049D01*
X116548165Y-72082051D01*
X116548169Y-72082051D01*
X116548170Y-72082052D01*
X116741456Y-72120500D01*
X116741459Y-72120500D01*
X118208543Y-72120500D01*
X118338582Y-72094632D01*
X118401835Y-72082051D01*
X118583914Y-72006632D01*
X118676109Y-71945029D01*
X118742786Y-71924151D01*
X118810166Y-71942635D01*
X118813891Y-71945029D01*
X118906086Y-72006632D01*
X118906088Y-72006633D01*
X118906092Y-72006635D01*
X119088160Y-72082049D01*
X119088165Y-72082051D01*
X119088169Y-72082051D01*
X119088170Y-72082052D01*
X119281456Y-72120500D01*
X119281459Y-72120500D01*
X120748543Y-72120500D01*
X120878582Y-72094632D01*
X120941835Y-72082051D01*
X121123914Y-72006632D01*
X121216109Y-71945029D01*
X121282786Y-71924151D01*
X121350166Y-71942635D01*
X121353891Y-71945029D01*
X121446086Y-72006632D01*
X121446088Y-72006633D01*
X121446092Y-72006635D01*
X121628160Y-72082049D01*
X121628165Y-72082051D01*
X121628169Y-72082051D01*
X121628170Y-72082052D01*
X121821456Y-72120500D01*
X121821459Y-72120500D01*
X123288543Y-72120500D01*
X123418582Y-72094632D01*
X123481835Y-72082051D01*
X123663914Y-72006632D01*
X123827782Y-71897139D01*
X123967139Y-71757782D01*
X124076632Y-71593914D01*
X124152051Y-71411835D01*
X124190500Y-71218541D01*
X124190500Y-71021459D01*
X124190500Y-71021456D01*
X124152052Y-70828170D01*
X124152051Y-70828169D01*
X124152051Y-70828165D01*
X124152049Y-70828160D01*
X124076635Y-70646092D01*
X124076628Y-70646079D01*
X123967139Y-70482218D01*
X123967136Y-70482214D01*
X123827785Y-70342863D01*
X123827781Y-70342860D01*
X123663920Y-70233371D01*
X123663907Y-70233364D01*
X123481839Y-70157950D01*
X123481829Y-70157947D01*
X123288543Y-70119500D01*
X123288541Y-70119500D01*
X122018541Y-70119500D01*
X121821459Y-70119500D01*
X121821457Y-70119500D01*
X121628170Y-70157947D01*
X121628160Y-70157950D01*
X121446089Y-70233366D01*
X121353890Y-70294971D01*
X121287213Y-70315848D01*
X121219833Y-70297363D01*
X121216110Y-70294971D01*
X121189740Y-70277352D01*
X121123914Y-70233368D01*
X121123911Y-70233366D01*
X121123910Y-70233366D01*
X120941839Y-70157950D01*
X120941829Y-70157947D01*
X120748543Y-70119500D01*
X120748541Y-70119500D01*
X119478541Y-70119500D01*
X119281459Y-70119500D01*
X119281457Y-70119500D01*
X119088170Y-70157947D01*
X119088160Y-70157950D01*
X118906089Y-70233366D01*
X118813890Y-70294971D01*
X118747213Y-70315848D01*
X118679833Y-70297363D01*
X118676110Y-70294971D01*
X118649740Y-70277352D01*
X118583914Y-70233368D01*
X118583911Y-70233366D01*
X118583910Y-70233366D01*
X118401839Y-70157950D01*
X118401829Y-70157947D01*
X118208543Y-70119500D01*
X118208541Y-70119500D01*
X116938541Y-70119500D01*
X116741459Y-70119500D01*
X116741457Y-70119500D01*
X116548170Y-70157947D01*
X116548160Y-70157950D01*
X116366089Y-70233366D01*
X116273890Y-70294971D01*
X116207213Y-70315848D01*
X116139833Y-70297363D01*
X116136110Y-70294971D01*
X116109740Y-70277352D01*
X116043914Y-70233368D01*
X116043911Y-70233366D01*
X116043910Y-70233366D01*
X115861839Y-70157950D01*
X115861829Y-70157947D01*
X115668543Y-70119500D01*
X115668541Y-70119500D01*
X114398541Y-70119500D01*
X114201459Y-70119500D01*
X114201457Y-70119500D01*
X114008170Y-70157947D01*
X114008160Y-70157950D01*
X113826089Y-70233366D01*
X113733890Y-70294971D01*
X113667213Y-70315848D01*
X113599833Y-70297363D01*
X113596110Y-70294971D01*
X113569740Y-70277352D01*
X113503914Y-70233368D01*
X113503911Y-70233366D01*
X113503910Y-70233366D01*
X113321839Y-70157950D01*
X113321829Y-70157947D01*
X113128543Y-70119500D01*
X113128541Y-70119500D01*
X111858541Y-70119500D01*
X111661459Y-70119500D01*
X111661457Y-70119500D01*
X111468170Y-70157947D01*
X111468160Y-70157950D01*
X111286089Y-70233366D01*
X111193890Y-70294971D01*
X111127213Y-70315848D01*
X111059833Y-70297363D01*
X111056110Y-70294971D01*
X111029740Y-70277352D01*
X110963914Y-70233368D01*
X110963911Y-70233366D01*
X110963910Y-70233366D01*
X110781839Y-70157950D01*
X110781829Y-70157947D01*
X110588543Y-70119500D01*
X110588541Y-70119500D01*
X109318541Y-70119500D01*
X109121459Y-70119500D01*
X109121457Y-70119500D01*
X108928170Y-70157947D01*
X108928160Y-70157950D01*
X108746089Y-70233366D01*
X108653890Y-70294971D01*
X108587213Y-70315848D01*
X108519833Y-70297363D01*
X108516110Y-70294971D01*
X108489740Y-70277352D01*
X108423914Y-70233368D01*
X108423911Y-70233366D01*
X108423910Y-70233366D01*
X108241839Y-70157950D01*
X108241829Y-70157947D01*
X108048543Y-70119500D01*
X108048541Y-70119500D01*
X106778541Y-70119500D01*
X106581459Y-70119500D01*
X106581457Y-70119500D01*
X106388170Y-70157947D01*
X106388160Y-70157950D01*
X106206089Y-70233366D01*
X106113890Y-70294971D01*
X106047213Y-70315848D01*
X105979833Y-70297363D01*
X105976110Y-70294971D01*
X105949740Y-70277352D01*
X105883914Y-70233368D01*
X105883911Y-70233366D01*
X105883910Y-70233366D01*
X105701839Y-70157950D01*
X105701829Y-70157947D01*
X105508543Y-70119500D01*
X105508541Y-70119500D01*
X104238541Y-70119500D01*
X104041459Y-70119500D01*
X104041457Y-70119500D01*
X103848170Y-70157947D01*
X103848160Y-70157950D01*
X103666089Y-70233366D01*
X103573890Y-70294971D01*
X103507213Y-70315848D01*
X103439833Y-70297363D01*
X103436110Y-70294971D01*
X103409740Y-70277352D01*
X103343914Y-70233368D01*
X103343911Y-70233366D01*
X103343910Y-70233366D01*
X103161839Y-70157950D01*
X103161829Y-70157947D01*
X102968543Y-70119500D01*
X102968541Y-70119500D01*
X101698541Y-70119500D01*
X101501459Y-70119500D01*
X101501457Y-70119500D01*
X101308170Y-70157947D01*
X101308160Y-70157950D01*
X101126089Y-70233366D01*
X101033890Y-70294971D01*
X100967213Y-70315848D01*
X100899833Y-70297363D01*
X100896110Y-70294971D01*
X100869740Y-70277352D01*
X100803914Y-70233368D01*
X100803911Y-70233366D01*
X100803910Y-70233366D01*
X100621839Y-70157950D01*
X100621829Y-70157947D01*
X100428543Y-70119500D01*
X100428541Y-70119500D01*
X99158541Y-70119500D01*
X98961459Y-70119500D01*
X98961457Y-70119500D01*
X98768170Y-70157947D01*
X98768160Y-70157950D01*
X98586092Y-70233364D01*
X98586079Y-70233371D01*
X98422218Y-70342860D01*
X98422214Y-70342863D01*
X98282863Y-70482214D01*
X98282860Y-70482218D01*
X98173371Y-70646079D01*
X98173364Y-70646092D01*
X98097950Y-70828160D01*
X98097947Y-70828170D01*
X98059500Y-71021456D01*
X98059500Y-71021459D01*
X98059500Y-71218541D01*
X98059500Y-71218543D01*
X98059499Y-71218543D01*
X51800000Y-71218543D01*
X51800000Y-62109001D01*
X59454500Y-62109001D01*
X59454500Y-63011002D01*
X59457396Y-63065040D01*
X59457397Y-63065041D01*
X59492979Y-63204449D01*
X59492981Y-63204454D01*
X59507332Y-63239099D01*
X59507332Y-63239100D01*
X59559119Y-63333941D01*
X59559122Y-63333944D01*
X59657161Y-63439247D01*
X59657165Y-63439251D01*
X59780893Y-63512663D01*
X59780895Y-63512663D01*
X59780902Y-63512668D01*
X59815550Y-63527020D01*
X59866584Y-63545024D01*
X59978148Y-63561064D01*
X60041702Y-63590087D01*
X60079477Y-63648865D01*
X60084500Y-63683801D01*
X60084500Y-66126233D01*
X60118143Y-66295366D01*
X60118146Y-66295378D01*
X60184138Y-66454698D01*
X60184145Y-66454711D01*
X60279954Y-66598098D01*
X60279956Y-66598101D01*
X60298179Y-66616323D01*
X60331666Y-66677645D01*
X60334500Y-66704006D01*
X60334500Y-69055993D01*
X60314815Y-69123032D01*
X60298181Y-69143674D01*
X60279957Y-69161897D01*
X60279954Y-69161901D01*
X60184145Y-69305288D01*
X60184138Y-69305301D01*
X60118146Y-69464621D01*
X60118143Y-69464633D01*
X60084500Y-69633766D01*
X60084500Y-69806233D01*
X60118143Y-69975366D01*
X60118146Y-69975378D01*
X60184138Y-70134698D01*
X60184145Y-70134711D01*
X60279954Y-70278098D01*
X60279957Y-70278102D01*
X60401897Y-70400042D01*
X60401901Y-70400045D01*
X60545288Y-70495854D01*
X60545301Y-70495861D01*
X60704621Y-70561853D01*
X60704626Y-70561855D01*
X60873766Y-70595499D01*
X60873769Y-70595500D01*
X60873771Y-70595500D01*
X61046231Y-70595500D01*
X61046232Y-70595499D01*
X61215374Y-70561855D01*
X61374705Y-70495858D01*
X61518099Y-70400045D01*
X61640045Y-70278099D01*
X61735858Y-70134705D01*
X61801855Y-69975374D01*
X61835500Y-69806229D01*
X61835500Y-69633771D01*
X61835500Y-69633768D01*
X61835499Y-69633766D01*
X61825898Y-69585500D01*
X61801855Y-69464626D01*
X61786633Y-69427876D01*
X61735861Y-69305301D01*
X61735854Y-69305288D01*
X61640045Y-69161901D01*
X61640042Y-69161897D01*
X61621819Y-69143674D01*
X61588334Y-69082351D01*
X61585500Y-69055993D01*
X61585500Y-66704006D01*
X61605185Y-66636967D01*
X61621821Y-66616323D01*
X61640043Y-66598101D01*
X61640045Y-66598099D01*
X61735858Y-66454705D01*
X61801855Y-66295374D01*
X61835500Y-66126229D01*
X61835500Y-65953771D01*
X61835500Y-63687077D01*
X61855185Y-63620038D01*
X61907989Y-63574283D01*
X61952860Y-63563255D01*
X61965040Y-63562603D01*
X62104450Y-63527020D01*
X62139098Y-63512668D01*
X62233943Y-63460879D01*
X62339249Y-63362837D01*
X62412668Y-63239098D01*
X62427020Y-63204450D01*
X62445024Y-63153416D01*
X62465500Y-63011000D01*
X62465500Y-62109001D01*
X77234500Y-62109001D01*
X77234500Y-63011002D01*
X77237396Y-63065040D01*
X77237397Y-63065041D01*
X77272979Y-63204449D01*
X77272981Y-63204454D01*
X77287332Y-63239099D01*
X77287332Y-63239100D01*
X77339119Y-63333941D01*
X77339122Y-63333944D01*
X77437161Y-63439247D01*
X77437165Y-63439251D01*
X77560893Y-63512663D01*
X77560895Y-63512663D01*
X77560902Y-63512668D01*
X77595550Y-63527020D01*
X77646584Y-63545024D01*
X77646587Y-63545024D01*
X77652329Y-63547050D01*
X77651797Y-63548556D01*
X77705494Y-63579768D01*
X77737327Y-63641964D01*
X77739500Y-63665074D01*
X77739500Y-65941459D01*
X77739500Y-66138541D01*
X77739500Y-66138543D01*
X77739499Y-66138543D01*
X77777947Y-66331829D01*
X77777950Y-66331839D01*
X77853364Y-66513907D01*
X77853371Y-66513920D01*
X77962859Y-66677780D01*
X77962860Y-66677781D01*
X77962861Y-66677782D01*
X78078182Y-66793103D01*
X78111666Y-66854424D01*
X78114500Y-66880783D01*
X78114500Y-69055993D01*
X78094815Y-69123032D01*
X78078181Y-69143674D01*
X78059957Y-69161897D01*
X78059954Y-69161901D01*
X77964145Y-69305288D01*
X77964138Y-69305301D01*
X77898146Y-69464621D01*
X77898143Y-69464633D01*
X77864500Y-69633766D01*
X77864500Y-69806233D01*
X77898143Y-69975366D01*
X77898146Y-69975378D01*
X77964138Y-70134698D01*
X77964145Y-70134711D01*
X78059954Y-70278098D01*
X78059957Y-70278102D01*
X78181897Y-70400042D01*
X78181901Y-70400045D01*
X78325288Y-70495854D01*
X78325301Y-70495861D01*
X78484621Y-70561853D01*
X78484626Y-70561855D01*
X78653766Y-70595499D01*
X78653769Y-70595500D01*
X78653771Y-70595500D01*
X78826231Y-70595500D01*
X78826232Y-70595499D01*
X78995374Y-70561855D01*
X79154705Y-70495858D01*
X79298099Y-70400045D01*
X79420045Y-70278099D01*
X79515858Y-70134705D01*
X79581855Y-69975374D01*
X79615500Y-69806229D01*
X79615500Y-69633771D01*
X79615500Y-69633768D01*
X79615499Y-69633766D01*
X79605898Y-69585500D01*
X79581855Y-69464626D01*
X79566633Y-69427876D01*
X79515861Y-69305301D01*
X79515854Y-69305288D01*
X79420045Y-69161901D01*
X79420042Y-69161897D01*
X79401819Y-69143674D01*
X79368334Y-69082351D01*
X79365500Y-69055993D01*
X79365500Y-67732135D01*
X133319500Y-67732135D01*
X133319500Y-69427870D01*
X133319501Y-69427876D01*
X133325908Y-69487483D01*
X133376202Y-69622328D01*
X133376206Y-69622335D01*
X133462452Y-69737544D01*
X133462455Y-69737547D01*
X133577664Y-69823793D01*
X133577671Y-69823797D01*
X133712517Y-69874091D01*
X133712516Y-69874091D01*
X133719444Y-69874835D01*
X133772127Y-69880500D01*
X135467872Y-69880499D01*
X135527483Y-69874091D01*
X135662331Y-69823796D01*
X135777546Y-69737546D01*
X135854171Y-69635188D01*
X135910104Y-69593318D01*
X135953437Y-69585500D01*
X138570500Y-69585500D01*
X138637539Y-69605185D01*
X138683294Y-69657989D01*
X138694500Y-69709500D01*
X138694500Y-72326562D01*
X138674815Y-72393601D01*
X138644812Y-72425828D01*
X138542452Y-72502455D01*
X138456206Y-72617664D01*
X138456202Y-72617671D01*
X138405908Y-72752517D01*
X138399501Y-72812116D01*
X138399501Y-72812123D01*
X138399500Y-72812135D01*
X138399500Y-74507870D01*
X138399501Y-74507876D01*
X138405908Y-74567483D01*
X138456202Y-74702328D01*
X138456206Y-74702335D01*
X138542452Y-74817544D01*
X138542455Y-74817547D01*
X138657664Y-74903793D01*
X138657671Y-74903797D01*
X138792517Y-74954091D01*
X138792516Y-74954091D01*
X138799444Y-74954835D01*
X138852127Y-74960500D01*
X140547872Y-74960499D01*
X140607483Y-74954091D01*
X140742331Y-74903796D01*
X140857546Y-74817546D01*
X140943796Y-74702331D01*
X140994091Y-74567483D01*
X141000500Y-74507873D01*
X141000499Y-72812128D01*
X140994091Y-72752517D01*
X140943796Y-72617669D01*
X140943795Y-72617668D01*
X140943793Y-72617664D01*
X140857547Y-72502455D01*
X140755188Y-72425828D01*
X140713318Y-72369894D01*
X140705500Y-72326562D01*
X140705500Y-69709500D01*
X140725185Y-69642461D01*
X140777989Y-69596706D01*
X140829500Y-69585500D01*
X143446563Y-69585500D01*
X143513602Y-69605185D01*
X143545828Y-69635187D01*
X143622454Y-69737546D01*
X143668643Y-69772123D01*
X143737664Y-69823793D01*
X143737671Y-69823797D01*
X143872517Y-69874091D01*
X143872516Y-69874091D01*
X143879444Y-69874835D01*
X143932127Y-69880500D01*
X145627872Y-69880499D01*
X145687483Y-69874091D01*
X145822331Y-69823796D01*
X145937546Y-69737546D01*
X146023796Y-69622331D01*
X146074091Y-69487483D01*
X146080500Y-69427873D01*
X146080499Y-67732128D01*
X146074091Y-67672517D01*
X146033353Y-67563294D01*
X146023797Y-67537671D01*
X146023793Y-67537664D01*
X145937547Y-67422455D01*
X145937544Y-67422452D01*
X145822335Y-67336206D01*
X145822328Y-67336202D01*
X145687482Y-67285908D01*
X145687483Y-67285908D01*
X145627883Y-67279501D01*
X145627881Y-67279500D01*
X145627873Y-67279500D01*
X145627864Y-67279500D01*
X143932129Y-67279500D01*
X143932123Y-67279501D01*
X143872516Y-67285908D01*
X143737671Y-67336202D01*
X143737664Y-67336206D01*
X143622456Y-67422452D01*
X143622455Y-67422453D01*
X143622454Y-67422454D01*
X143545830Y-67524811D01*
X143489896Y-67566682D01*
X143446563Y-67574500D01*
X140829500Y-67574500D01*
X140762461Y-67554815D01*
X140716706Y-67502011D01*
X140705500Y-67450500D01*
X140705500Y-64833437D01*
X140725185Y-64766398D01*
X140755187Y-64734171D01*
X140857546Y-64657546D01*
X140943796Y-64542331D01*
X140994091Y-64407483D01*
X141000500Y-64347873D01*
X141000499Y-62652128D01*
X140994091Y-62592517D01*
X140943796Y-62457669D01*
X140943795Y-62457668D01*
X140943793Y-62457664D01*
X140857547Y-62342455D01*
X140857544Y-62342452D01*
X140742335Y-62256206D01*
X140742328Y-62256202D01*
X140607482Y-62205908D01*
X140607483Y-62205908D01*
X140547883Y-62199501D01*
X140547881Y-62199500D01*
X140547873Y-62199500D01*
X140547864Y-62199500D01*
X138852129Y-62199500D01*
X138852123Y-62199501D01*
X138792516Y-62205908D01*
X138657671Y-62256202D01*
X138657664Y-62256206D01*
X138542455Y-62342452D01*
X138542452Y-62342455D01*
X138456206Y-62457664D01*
X138456202Y-62457671D01*
X138405908Y-62592517D01*
X138402470Y-62624500D01*
X138399501Y-62652123D01*
X138399500Y-62652135D01*
X138399500Y-64347870D01*
X138399501Y-64347876D01*
X138405908Y-64407483D01*
X138456202Y-64542328D01*
X138456206Y-64542335D01*
X138525358Y-64634709D01*
X138542454Y-64657546D01*
X138644811Y-64734171D01*
X138686682Y-64790104D01*
X138694500Y-64833437D01*
X138694500Y-67450500D01*
X138674815Y-67517539D01*
X138622011Y-67563294D01*
X138570500Y-67574500D01*
X135953437Y-67574500D01*
X135886398Y-67554815D01*
X135854170Y-67524811D01*
X135777546Y-67422454D01*
X135754709Y-67405358D01*
X135662335Y-67336206D01*
X135662328Y-67336202D01*
X135527482Y-67285908D01*
X135527483Y-67285908D01*
X135467883Y-67279501D01*
X135467881Y-67279500D01*
X135467873Y-67279500D01*
X135467864Y-67279500D01*
X133772129Y-67279500D01*
X133772123Y-67279501D01*
X133712516Y-67285908D01*
X133577671Y-67336202D01*
X133577664Y-67336206D01*
X133462455Y-67422452D01*
X133462452Y-67422455D01*
X133376206Y-67537664D01*
X133376202Y-67537671D01*
X133325908Y-67672517D01*
X133319501Y-67732116D01*
X133319501Y-67732123D01*
X133319500Y-67732135D01*
X79365500Y-67732135D01*
X79365500Y-66880783D01*
X79385185Y-66813744D01*
X79401814Y-66793106D01*
X79517139Y-66677782D01*
X79626632Y-66513914D01*
X79702051Y-66331835D01*
X79740500Y-66138541D01*
X79740500Y-65941459D01*
X79740500Y-63660087D01*
X79760185Y-63593048D01*
X79812989Y-63547293D01*
X79833835Y-63539939D01*
X79884443Y-63527022D01*
X79884444Y-63527021D01*
X79884450Y-63527020D01*
X79919098Y-63512668D01*
X80013943Y-63460879D01*
X80064547Y-63413766D01*
X98184500Y-63413766D01*
X98184500Y-63586233D01*
X98218143Y-63755366D01*
X98218146Y-63755378D01*
X98284138Y-63914698D01*
X98284145Y-63914711D01*
X98379954Y-64058098D01*
X98379957Y-64058102D01*
X98501897Y-64180042D01*
X98501901Y-64180045D01*
X98645288Y-64275854D01*
X98645301Y-64275861D01*
X98804621Y-64341853D01*
X98804626Y-64341855D01*
X98973766Y-64375499D01*
X98973769Y-64375500D01*
X98973771Y-64375500D01*
X100416231Y-64375500D01*
X100416232Y-64375499D01*
X100585374Y-64341855D01*
X100744705Y-64275858D01*
X100888099Y-64180045D01*
X100888098Y-64180045D01*
X100893164Y-64176661D01*
X100894169Y-64178165D01*
X100950643Y-64154180D01*
X101019510Y-64165970D01*
X101036628Y-64176971D01*
X101036836Y-64176661D01*
X101185288Y-64275854D01*
X101185301Y-64275861D01*
X101344621Y-64341853D01*
X101344626Y-64341855D01*
X101513766Y-64375499D01*
X101513769Y-64375500D01*
X101513771Y-64375500D01*
X102956231Y-64375500D01*
X102956232Y-64375499D01*
X103125374Y-64341855D01*
X103284705Y-64275858D01*
X103428099Y-64180045D01*
X103428098Y-64180045D01*
X103433164Y-64176661D01*
X103434169Y-64178165D01*
X103490643Y-64154180D01*
X103559510Y-64165970D01*
X103576628Y-64176971D01*
X103576836Y-64176661D01*
X103725288Y-64275854D01*
X103725301Y-64275861D01*
X103884621Y-64341853D01*
X103884626Y-64341855D01*
X104053766Y-64375499D01*
X104053769Y-64375500D01*
X104053771Y-64375500D01*
X105496231Y-64375500D01*
X105496232Y-64375499D01*
X105665374Y-64341855D01*
X105824705Y-64275858D01*
X105968099Y-64180045D01*
X105968098Y-64180045D01*
X105973164Y-64176661D01*
X105974169Y-64178165D01*
X106030643Y-64154180D01*
X106099510Y-64165970D01*
X106116628Y-64176971D01*
X106116836Y-64176661D01*
X106265288Y-64275854D01*
X106265301Y-64275861D01*
X106424621Y-64341853D01*
X106424626Y-64341855D01*
X106593766Y-64375499D01*
X106593769Y-64375500D01*
X106593771Y-64375500D01*
X108036231Y-64375500D01*
X108036232Y-64375499D01*
X108205374Y-64341855D01*
X108364705Y-64275858D01*
X108508099Y-64180045D01*
X108508098Y-64180045D01*
X108513164Y-64176661D01*
X108514169Y-64178165D01*
X108570643Y-64154180D01*
X108639510Y-64165970D01*
X108656628Y-64176971D01*
X108656836Y-64176661D01*
X108805288Y-64275854D01*
X108805301Y-64275861D01*
X108964621Y-64341853D01*
X108964626Y-64341855D01*
X109133766Y-64375499D01*
X109133769Y-64375500D01*
X109133771Y-64375500D01*
X110576231Y-64375500D01*
X110576232Y-64375499D01*
X110745374Y-64341855D01*
X110904705Y-64275858D01*
X111048099Y-64180045D01*
X111048098Y-64180045D01*
X111053164Y-64176661D01*
X111054169Y-64178165D01*
X111110643Y-64154180D01*
X111179510Y-64165970D01*
X111196628Y-64176971D01*
X111196836Y-64176661D01*
X111345288Y-64275854D01*
X111345301Y-64275861D01*
X111504621Y-64341853D01*
X111504626Y-64341855D01*
X111673766Y-64375499D01*
X111673769Y-64375500D01*
X111673771Y-64375500D01*
X113116231Y-64375500D01*
X113116232Y-64375499D01*
X113285374Y-64341855D01*
X113444705Y-64275858D01*
X113588099Y-64180045D01*
X113588098Y-64180045D01*
X113593164Y-64176661D01*
X113594169Y-64178165D01*
X113650643Y-64154180D01*
X113719510Y-64165970D01*
X113736628Y-64176971D01*
X113736836Y-64176661D01*
X113885288Y-64275854D01*
X113885301Y-64275861D01*
X114044621Y-64341853D01*
X114044626Y-64341855D01*
X114213766Y-64375499D01*
X114213769Y-64375500D01*
X114213771Y-64375500D01*
X115656231Y-64375500D01*
X115656232Y-64375499D01*
X115825374Y-64341855D01*
X115984705Y-64275858D01*
X116128099Y-64180045D01*
X116128098Y-64180045D01*
X116133164Y-64176661D01*
X116134169Y-64178165D01*
X116190643Y-64154180D01*
X116259510Y-64165970D01*
X116276628Y-64176971D01*
X116276836Y-64176661D01*
X116425288Y-64275854D01*
X116425301Y-64275861D01*
X116584621Y-64341853D01*
X116584626Y-64341855D01*
X116753766Y-64375499D01*
X116753769Y-64375500D01*
X116753771Y-64375500D01*
X118196231Y-64375500D01*
X118196232Y-64375499D01*
X118365374Y-64341855D01*
X118524705Y-64275858D01*
X118668099Y-64180045D01*
X118668098Y-64180045D01*
X118673164Y-64176661D01*
X118674169Y-64178165D01*
X118730643Y-64154180D01*
X118799510Y-64165970D01*
X118816628Y-64176971D01*
X118816836Y-64176661D01*
X118965288Y-64275854D01*
X118965301Y-64275861D01*
X119124621Y-64341853D01*
X119124626Y-64341855D01*
X119293766Y-64375499D01*
X119293769Y-64375500D01*
X119293771Y-64375500D01*
X120736231Y-64375500D01*
X120736232Y-64375499D01*
X120905374Y-64341855D01*
X121064705Y-64275858D01*
X121208099Y-64180045D01*
X121208098Y-64180045D01*
X121213164Y-64176661D01*
X121214169Y-64178165D01*
X121270643Y-64154180D01*
X121339510Y-64165970D01*
X121356628Y-64176971D01*
X121356836Y-64176661D01*
X121505288Y-64275854D01*
X121505301Y-64275861D01*
X121664621Y-64341853D01*
X121664626Y-64341855D01*
X121833766Y-64375499D01*
X121833769Y-64375500D01*
X121833771Y-64375500D01*
X123276231Y-64375500D01*
X123276232Y-64375499D01*
X123445374Y-64341855D01*
X123604705Y-64275858D01*
X123748099Y-64180045D01*
X123870045Y-64058099D01*
X123965858Y-63914705D01*
X124031855Y-63755374D01*
X124065500Y-63586229D01*
X124065500Y-63413771D01*
X124065500Y-63413768D01*
X124065499Y-63413766D01*
X124055369Y-63362838D01*
X124031855Y-63244626D01*
X124015215Y-63204454D01*
X123965861Y-63085301D01*
X123965854Y-63085288D01*
X123870045Y-62941901D01*
X123870042Y-62941897D01*
X123748102Y-62819957D01*
X123748098Y-62819954D01*
X123604711Y-62724145D01*
X123604698Y-62724138D01*
X123445378Y-62658146D01*
X123445366Y-62658143D01*
X123276232Y-62624500D01*
X123276229Y-62624500D01*
X122006229Y-62624500D01*
X121833771Y-62624500D01*
X121833768Y-62624500D01*
X121664633Y-62658143D01*
X121664621Y-62658146D01*
X121505301Y-62724138D01*
X121505288Y-62724145D01*
X121356836Y-62823339D01*
X121355833Y-62821837D01*
X121299332Y-62845822D01*
X121230467Y-62834018D01*
X121213370Y-62823030D01*
X121213164Y-62823339D01*
X121064711Y-62724145D01*
X121064698Y-62724138D01*
X120905378Y-62658146D01*
X120905366Y-62658143D01*
X120736232Y-62624500D01*
X120736229Y-62624500D01*
X119466229Y-62624500D01*
X119293771Y-62624500D01*
X119293768Y-62624500D01*
X119124633Y-62658143D01*
X119124621Y-62658146D01*
X118965301Y-62724138D01*
X118965288Y-62724145D01*
X118816836Y-62823339D01*
X118815833Y-62821837D01*
X118759332Y-62845822D01*
X118690467Y-62834018D01*
X118673370Y-62823030D01*
X118673164Y-62823339D01*
X118524711Y-62724145D01*
X118524698Y-62724138D01*
X118365378Y-62658146D01*
X118365366Y-62658143D01*
X118196232Y-62624500D01*
X118196229Y-62624500D01*
X116926229Y-62624500D01*
X116753771Y-62624500D01*
X116753768Y-62624500D01*
X116584633Y-62658143D01*
X116584621Y-62658146D01*
X116425301Y-62724138D01*
X116425288Y-62724145D01*
X116276836Y-62823339D01*
X116275833Y-62821837D01*
X116219332Y-62845822D01*
X116150467Y-62834018D01*
X116133370Y-62823030D01*
X116133164Y-62823339D01*
X115984711Y-62724145D01*
X115984698Y-62724138D01*
X115825378Y-62658146D01*
X115825366Y-62658143D01*
X115656232Y-62624500D01*
X115656229Y-62624500D01*
X114386229Y-62624500D01*
X114213771Y-62624500D01*
X114213768Y-62624500D01*
X114044633Y-62658143D01*
X114044621Y-62658146D01*
X113885301Y-62724138D01*
X113885288Y-62724145D01*
X113736836Y-62823339D01*
X113735833Y-62821837D01*
X113679332Y-62845822D01*
X113610467Y-62834018D01*
X113593370Y-62823030D01*
X113593164Y-62823339D01*
X113444711Y-62724145D01*
X113444698Y-62724138D01*
X113285378Y-62658146D01*
X113285366Y-62658143D01*
X113116232Y-62624500D01*
X113116229Y-62624500D01*
X111846229Y-62624500D01*
X111673771Y-62624500D01*
X111673768Y-62624500D01*
X111504633Y-62658143D01*
X111504621Y-62658146D01*
X111345301Y-62724138D01*
X111345288Y-62724145D01*
X111196836Y-62823339D01*
X111195833Y-62821837D01*
X111139332Y-62845822D01*
X111070467Y-62834018D01*
X111053370Y-62823030D01*
X111053164Y-62823339D01*
X110904711Y-62724145D01*
X110904698Y-62724138D01*
X110745378Y-62658146D01*
X110745366Y-62658143D01*
X110576232Y-62624500D01*
X110576229Y-62624500D01*
X109306229Y-62624500D01*
X109133771Y-62624500D01*
X109133768Y-62624500D01*
X108964633Y-62658143D01*
X108964621Y-62658146D01*
X108805301Y-62724138D01*
X108805288Y-62724145D01*
X108656836Y-62823339D01*
X108655833Y-62821837D01*
X108599332Y-62845822D01*
X108530467Y-62834018D01*
X108513370Y-62823030D01*
X108513164Y-62823339D01*
X108364711Y-62724145D01*
X108364698Y-62724138D01*
X108205378Y-62658146D01*
X108205366Y-62658143D01*
X108036232Y-62624500D01*
X108036229Y-62624500D01*
X106766229Y-62624500D01*
X106593771Y-62624500D01*
X106593768Y-62624500D01*
X106424633Y-62658143D01*
X106424621Y-62658146D01*
X106265301Y-62724138D01*
X106265288Y-62724145D01*
X106116836Y-62823339D01*
X106115833Y-62821837D01*
X106059332Y-62845822D01*
X105990467Y-62834018D01*
X105973370Y-62823030D01*
X105973164Y-62823339D01*
X105824711Y-62724145D01*
X105824698Y-62724138D01*
X105665378Y-62658146D01*
X105665366Y-62658143D01*
X105496232Y-62624500D01*
X105496229Y-62624500D01*
X104226229Y-62624500D01*
X104053771Y-62624500D01*
X104053768Y-62624500D01*
X103884633Y-62658143D01*
X103884621Y-62658146D01*
X103725301Y-62724138D01*
X103725288Y-62724145D01*
X103576836Y-62823339D01*
X103575833Y-62821837D01*
X103519332Y-62845822D01*
X103450467Y-62834018D01*
X103433370Y-62823030D01*
X103433164Y-62823339D01*
X103284711Y-62724145D01*
X103284698Y-62724138D01*
X103125378Y-62658146D01*
X103125366Y-62658143D01*
X102956232Y-62624500D01*
X102956229Y-62624500D01*
X101686229Y-62624500D01*
X101513771Y-62624500D01*
X101513768Y-62624500D01*
X101344633Y-62658143D01*
X101344621Y-62658146D01*
X101185301Y-62724138D01*
X101185288Y-62724145D01*
X101036836Y-62823339D01*
X101035833Y-62821837D01*
X100979332Y-62845822D01*
X100910467Y-62834018D01*
X100893370Y-62823030D01*
X100893164Y-62823339D01*
X100744711Y-62724145D01*
X100744698Y-62724138D01*
X100585378Y-62658146D01*
X100585366Y-62658143D01*
X100416232Y-62624500D01*
X100416229Y-62624500D01*
X99146229Y-62624500D01*
X98973771Y-62624500D01*
X98973768Y-62624500D01*
X98804633Y-62658143D01*
X98804621Y-62658146D01*
X98645301Y-62724138D01*
X98645288Y-62724145D01*
X98501901Y-62819954D01*
X98501897Y-62819957D01*
X98379957Y-62941897D01*
X98379954Y-62941901D01*
X98284145Y-63085288D01*
X98284138Y-63085301D01*
X98218146Y-63244621D01*
X98218143Y-63244633D01*
X98184500Y-63413766D01*
X80064547Y-63413766D01*
X80119249Y-63362837D01*
X80192668Y-63239098D01*
X80207020Y-63204450D01*
X80225024Y-63153416D01*
X80245500Y-63011000D01*
X80245500Y-62109000D01*
X80245499Y-62108989D01*
X80242603Y-62054959D01*
X80242602Y-62054958D01*
X80207020Y-61915550D01*
X80207018Y-61915545D01*
X80192667Y-61880900D01*
X80192667Y-61880899D01*
X80140880Y-61786058D01*
X80140877Y-61786055D01*
X80042838Y-61680752D01*
X80042834Y-61680748D01*
X79919106Y-61607336D01*
X79919101Y-61607334D01*
X79919098Y-61607332D01*
X79884450Y-61592980D01*
X79833416Y-61574976D01*
X79833414Y-61574975D01*
X79833412Y-61574975D01*
X79748477Y-61562763D01*
X79691000Y-61554500D01*
X77789000Y-61554500D01*
X77788998Y-61554500D01*
X77734959Y-61557396D01*
X77734958Y-61557397D01*
X77595550Y-61592979D01*
X77595545Y-61592981D01*
X77560900Y-61607332D01*
X77560899Y-61607332D01*
X77466058Y-61659119D01*
X77466055Y-61659122D01*
X77360752Y-61757161D01*
X77360748Y-61757165D01*
X77287336Y-61880893D01*
X77287333Y-61880900D01*
X77272981Y-61915547D01*
X77254975Y-61966587D01*
X77242270Y-62054958D01*
X77234501Y-62108997D01*
X77234500Y-62109001D01*
X62465500Y-62109001D01*
X62465500Y-62109000D01*
X62462603Y-62054960D01*
X62427020Y-61915550D01*
X62412668Y-61880902D01*
X62412667Y-61880900D01*
X62412667Y-61880899D01*
X62360880Y-61786058D01*
X62360877Y-61786055D01*
X62262838Y-61680752D01*
X62262834Y-61680748D01*
X62139106Y-61607336D01*
X62139101Y-61607334D01*
X62139098Y-61607332D01*
X62104450Y-61592980D01*
X62053416Y-61574976D01*
X62053414Y-61574975D01*
X62053412Y-61574975D01*
X61968477Y-61562763D01*
X61911000Y-61554500D01*
X60009000Y-61554500D01*
X60008998Y-61554500D01*
X59954959Y-61557396D01*
X59954958Y-61557397D01*
X59815550Y-61592979D01*
X59815545Y-61592981D01*
X59780900Y-61607332D01*
X59780899Y-61607332D01*
X59686058Y-61659119D01*
X59686055Y-61659122D01*
X59580752Y-61757161D01*
X59580748Y-61757165D01*
X59507336Y-61880893D01*
X59507333Y-61880900D01*
X59492981Y-61915547D01*
X59474975Y-61966587D01*
X59462270Y-62054958D01*
X59454501Y-62108997D01*
X59454500Y-62109001D01*
X51800000Y-62109001D01*
X51800000Y-42100000D01*
X52200000Y-42100000D01*
X52212520Y-42354845D01*
X52212520Y-42354851D01*
X52212521Y-42354853D01*
X52249959Y-42607241D01*
X52311958Y-42854750D01*
X52397905Y-43094957D01*
X52397913Y-43094977D01*
X52507005Y-43325632D01*
X52520012Y-43347333D01*
X52627135Y-43526058D01*
X52638179Y-43544483D01*
X52720548Y-43655545D01*
X52790177Y-43749428D01*
X52961521Y-43938478D01*
X53150571Y-44109822D01*
X53150577Y-44109827D01*
X53355517Y-44261821D01*
X53574368Y-44392995D01*
X53805023Y-44502087D01*
X53805037Y-44502092D01*
X53805042Y-44502094D01*
X53926103Y-44545410D01*
X54045260Y-44588045D01*
X54292765Y-44650042D01*
X54545155Y-44687480D01*
X54800000Y-44700000D01*
X55054845Y-44687480D01*
X55307235Y-44650042D01*
X55554740Y-44588045D01*
X55794977Y-44502087D01*
X56025632Y-44392995D01*
X56244483Y-44261821D01*
X56449423Y-44109827D01*
X56638478Y-43938478D01*
X56719575Y-43849001D01*
X61074500Y-43849001D01*
X61074500Y-57751002D01*
X61077396Y-57805040D01*
X61077397Y-57805041D01*
X61112979Y-57944449D01*
X61112981Y-57944454D01*
X61127332Y-57979099D01*
X61127332Y-57979100D01*
X61179119Y-58073941D01*
X61179122Y-58073944D01*
X61277161Y-58179247D01*
X61277165Y-58179251D01*
X61400893Y-58252663D01*
X61400895Y-58252663D01*
X61400902Y-58252668D01*
X61435550Y-58267020D01*
X61486584Y-58285024D01*
X61629000Y-58305500D01*
X61629003Y-58305500D01*
X75531002Y-58305500D01*
X75585040Y-58302603D01*
X75724450Y-58267020D01*
X75759098Y-58252668D01*
X75853943Y-58200879D01*
X75959249Y-58102837D01*
X76032668Y-57979098D01*
X76047020Y-57944450D01*
X76065024Y-57893416D01*
X76085500Y-57751000D01*
X76085500Y-53429500D01*
X76105185Y-53362461D01*
X76157989Y-53316706D01*
X76209500Y-53305500D01*
X80131002Y-53305500D01*
X80185040Y-53302603D01*
X80324450Y-53267020D01*
X80359098Y-53252668D01*
X80453943Y-53200879D01*
X80559249Y-53102837D01*
X80632668Y-52979098D01*
X80647020Y-52944450D01*
X80665024Y-52893416D01*
X80685500Y-52751000D01*
X80685500Y-48849000D01*
X80682603Y-48794960D01*
X80647020Y-48655550D01*
X80632668Y-48620902D01*
X80632667Y-48620900D01*
X80632667Y-48620899D01*
X80580880Y-48526058D01*
X80580877Y-48526055D01*
X80569061Y-48513364D01*
X80515517Y-48455853D01*
X80482838Y-48420752D01*
X80482834Y-48420748D01*
X80359106Y-48347336D01*
X80359101Y-48347334D01*
X80359098Y-48347332D01*
X80324450Y-48332980D01*
X80273416Y-48314976D01*
X80273414Y-48314975D01*
X80273412Y-48314975D01*
X80188477Y-48302763D01*
X80131000Y-48294500D01*
X80130998Y-48294500D01*
X76209500Y-48294500D01*
X76142461Y-48274815D01*
X76096706Y-48222011D01*
X76085500Y-48170500D01*
X76085500Y-43849006D01*
X76085500Y-43849001D01*
X91554500Y-43849001D01*
X91554500Y-57751002D01*
X91557396Y-57805040D01*
X91557397Y-57805041D01*
X91592979Y-57944449D01*
X91592981Y-57944454D01*
X91607332Y-57979099D01*
X91607332Y-57979100D01*
X91659119Y-58073941D01*
X91659122Y-58073944D01*
X91757161Y-58179247D01*
X91757165Y-58179251D01*
X91880893Y-58252663D01*
X91880895Y-58252663D01*
X91880902Y-58252668D01*
X91915550Y-58267020D01*
X91966584Y-58285024D01*
X92109000Y-58305500D01*
X92109003Y-58305500D01*
X106011002Y-58305500D01*
X106065040Y-58302603D01*
X106204450Y-58267020D01*
X106239098Y-58252668D01*
X106333943Y-58200879D01*
X106439249Y-58102837D01*
X106512668Y-57979098D01*
X106527020Y-57944450D01*
X106545024Y-57893416D01*
X106565500Y-57751000D01*
X106565500Y-53429500D01*
X106585185Y-53362461D01*
X106637989Y-53316706D01*
X106689500Y-53305500D01*
X110611002Y-53305500D01*
X110665040Y-53302603D01*
X110804450Y-53267020D01*
X110839098Y-53252668D01*
X110933943Y-53200879D01*
X111039249Y-53102837D01*
X111112668Y-52979098D01*
X111127020Y-52944450D01*
X111145024Y-52893416D01*
X111165500Y-52751000D01*
X111165500Y-48849000D01*
X111162603Y-48794960D01*
X111127020Y-48655550D01*
X111112668Y-48620902D01*
X111112667Y-48620900D01*
X111112667Y-48620899D01*
X111060880Y-48526058D01*
X111060877Y-48526055D01*
X111049061Y-48513364D01*
X110995517Y-48455853D01*
X110962838Y-48420752D01*
X110962834Y-48420748D01*
X110839106Y-48347336D01*
X110839101Y-48347334D01*
X110839098Y-48347332D01*
X110804450Y-48332980D01*
X110753416Y-48314976D01*
X110753414Y-48314975D01*
X110753412Y-48314975D01*
X110668477Y-48302763D01*
X110611000Y-48294500D01*
X110610998Y-48294500D01*
X106689500Y-48294500D01*
X106622461Y-48274815D01*
X106576706Y-48222011D01*
X106565500Y-48170500D01*
X106565500Y-43849006D01*
X106565500Y-43849001D01*
X122034500Y-43849001D01*
X122034500Y-57751002D01*
X122037396Y-57805040D01*
X122037397Y-57805041D01*
X122072979Y-57944449D01*
X122072981Y-57944454D01*
X122087332Y-57979099D01*
X122087332Y-57979100D01*
X122139119Y-58073941D01*
X122139122Y-58073944D01*
X122237161Y-58179247D01*
X122237165Y-58179251D01*
X122360893Y-58252663D01*
X122360895Y-58252663D01*
X122360902Y-58252668D01*
X122395550Y-58267020D01*
X122446584Y-58285024D01*
X122589000Y-58305500D01*
X122589003Y-58305500D01*
X136491002Y-58305500D01*
X136545040Y-58302603D01*
X136684450Y-58267020D01*
X136719098Y-58252668D01*
X136813943Y-58200879D01*
X136919249Y-58102837D01*
X136992668Y-57979098D01*
X137007020Y-57944450D01*
X137025024Y-57893416D01*
X137045500Y-57751000D01*
X137045500Y-53899999D01*
X143294500Y-53899999D01*
X143294500Y-56900002D01*
X143299644Y-56971940D01*
X143340182Y-57109994D01*
X143417967Y-57231030D01*
X143417971Y-57231034D01*
X143526700Y-57325249D01*
X143526706Y-57325254D01*
X143567174Y-57343735D01*
X143657580Y-57385023D01*
X143657583Y-57385023D01*
X143657584Y-57385024D01*
X143800000Y-57405500D01*
X143800003Y-57405500D01*
X146800000Y-57405500D01*
X146871940Y-57400355D01*
X147009992Y-57359819D01*
X147131032Y-57282031D01*
X147225254Y-57173294D01*
X147285024Y-57042416D01*
X147305500Y-56900000D01*
X147305500Y-53900000D01*
X147300355Y-53828060D01*
X147259819Y-53690008D01*
X147182031Y-53568968D01*
X147123173Y-53517967D01*
X147073299Y-53474750D01*
X147073297Y-53474748D01*
X147073294Y-53474746D01*
X147073290Y-53474744D01*
X146942419Y-53414976D01*
X146942414Y-53414975D01*
X146800000Y-53394500D01*
X143800000Y-53394500D01*
X143799997Y-53394500D01*
X143728059Y-53399644D01*
X143590005Y-53440182D01*
X143468969Y-53517967D01*
X143468965Y-53517971D01*
X143374750Y-53626700D01*
X143374744Y-53626709D01*
X143314976Y-53757580D01*
X143314975Y-53757585D01*
X143294500Y-53899999D01*
X137045500Y-53899999D01*
X137045500Y-53429500D01*
X137065185Y-53362461D01*
X137117989Y-53316706D01*
X137169500Y-53305500D01*
X141091002Y-53305500D01*
X141145040Y-53302603D01*
X141284450Y-53267020D01*
X141319098Y-53252668D01*
X141413943Y-53200879D01*
X141519249Y-53102837D01*
X141592668Y-52979098D01*
X141607020Y-52944450D01*
X141625024Y-52893416D01*
X141645500Y-52751000D01*
X141645500Y-49498543D01*
X145099499Y-49498543D01*
X145137947Y-49691829D01*
X145137950Y-49691839D01*
X145213364Y-49873907D01*
X145213371Y-49873920D01*
X145322860Y-50037781D01*
X145322863Y-50037785D01*
X145462214Y-50177136D01*
X145462218Y-50177139D01*
X145626079Y-50286628D01*
X145631456Y-50289502D01*
X145630490Y-50291308D01*
X145677612Y-50329285D01*
X145699673Y-50395580D01*
X145682391Y-50463279D01*
X145631251Y-50510887D01*
X145627660Y-50512526D01*
X145626079Y-50513371D01*
X145462218Y-50622860D01*
X145462214Y-50622863D01*
X145322863Y-50762214D01*
X145322860Y-50762218D01*
X145213371Y-50926079D01*
X145213364Y-50926092D01*
X145137950Y-51108160D01*
X145137947Y-51108170D01*
X145099500Y-51301456D01*
X145099500Y-51301459D01*
X145099500Y-51498541D01*
X145099500Y-51498543D01*
X145099499Y-51498543D01*
X145137947Y-51691829D01*
X145137950Y-51691839D01*
X145213364Y-51873907D01*
X145213371Y-51873920D01*
X145322860Y-52037781D01*
X145322863Y-52037785D01*
X145462214Y-52177136D01*
X145462218Y-52177139D01*
X145626079Y-52286628D01*
X145626092Y-52286635D01*
X145808160Y-52362049D01*
X145808165Y-52362051D01*
X145808169Y-52362051D01*
X145808170Y-52362052D01*
X146001456Y-52400500D01*
X146001459Y-52400500D01*
X146198543Y-52400500D01*
X146328582Y-52374632D01*
X146391835Y-52362051D01*
X146573914Y-52286632D01*
X146737782Y-52177139D01*
X146877139Y-52037782D01*
X146986632Y-51873914D01*
X147062051Y-51691835D01*
X147100500Y-51498541D01*
X147100500Y-51301459D01*
X147100500Y-51301456D01*
X147062052Y-51108170D01*
X147062051Y-51108169D01*
X147062051Y-51108165D01*
X147062049Y-51108160D01*
X146986635Y-50926092D01*
X146986628Y-50926079D01*
X146877139Y-50762218D01*
X146877136Y-50762214D01*
X146737785Y-50622863D01*
X146737781Y-50622860D01*
X146573920Y-50513371D01*
X146568544Y-50510498D01*
X146569510Y-50508689D01*
X146522397Y-50470728D01*
X146500326Y-50404436D01*
X146517600Y-50336735D01*
X146568734Y-50289121D01*
X146572331Y-50287477D01*
X146573907Y-50286634D01*
X146573914Y-50286632D01*
X146737782Y-50177139D01*
X146877139Y-50037782D01*
X146986632Y-49873914D01*
X147062051Y-49691835D01*
X147100500Y-49498541D01*
X147100500Y-49301459D01*
X147100500Y-49301456D01*
X147062052Y-49108170D01*
X147062051Y-49108169D01*
X147062051Y-49108165D01*
X147062049Y-49108160D01*
X146986635Y-48926092D01*
X146986628Y-48926079D01*
X146877139Y-48762218D01*
X146877136Y-48762214D01*
X146737785Y-48622863D01*
X146737781Y-48622860D01*
X146573920Y-48513371D01*
X146573907Y-48513364D01*
X146413473Y-48446911D01*
X146359069Y-48403070D01*
X146337004Y-48336776D01*
X146354283Y-48269077D01*
X146405420Y-48221466D01*
X146413434Y-48217805D01*
X146514705Y-48175858D01*
X146658099Y-48080045D01*
X146780045Y-47958099D01*
X146875858Y-47814705D01*
X146941855Y-47655374D01*
X146975500Y-47486229D01*
X146975500Y-47313771D01*
X146975500Y-47313768D01*
X146975499Y-47313766D01*
X146941856Y-47144633D01*
X146941855Y-47144626D01*
X146941853Y-47144621D01*
X146875861Y-46985301D01*
X146875854Y-46985288D01*
X146780045Y-46841901D01*
X146780042Y-46841897D01*
X146658102Y-46719957D01*
X146658098Y-46719954D01*
X146514711Y-46624145D01*
X146514698Y-46624138D01*
X146355378Y-46558146D01*
X146355366Y-46558143D01*
X146186232Y-46524500D01*
X146186229Y-46524500D01*
X146013771Y-46524500D01*
X146013768Y-46524500D01*
X145844633Y-46558143D01*
X145844621Y-46558146D01*
X145685301Y-46624138D01*
X145685288Y-46624145D01*
X145541901Y-46719954D01*
X145541897Y-46719957D01*
X145419957Y-46841897D01*
X145419954Y-46841901D01*
X145324145Y-46985288D01*
X145324138Y-46985301D01*
X145258146Y-47144621D01*
X145258143Y-47144633D01*
X145224500Y-47313766D01*
X145224500Y-47486233D01*
X145258143Y-47655366D01*
X145258146Y-47655378D01*
X145324138Y-47814698D01*
X145324145Y-47814711D01*
X145419954Y-47958098D01*
X145419957Y-47958102D01*
X145541897Y-48080042D01*
X145541901Y-48080045D01*
X145685288Y-48175854D01*
X145685301Y-48175861D01*
X145756769Y-48205463D01*
X145786526Y-48217789D01*
X145840930Y-48261629D01*
X145862995Y-48327923D01*
X145845716Y-48395623D01*
X145794579Y-48443234D01*
X145786527Y-48446911D01*
X145626088Y-48513366D01*
X145626079Y-48513371D01*
X145462218Y-48622860D01*
X145462214Y-48622863D01*
X145322863Y-48762214D01*
X145322860Y-48762218D01*
X145213371Y-48926079D01*
X145213364Y-48926092D01*
X145137950Y-49108160D01*
X145137947Y-49108170D01*
X145099500Y-49301456D01*
X145099500Y-49301459D01*
X145099500Y-49498541D01*
X145099500Y-49498543D01*
X145099499Y-49498543D01*
X141645500Y-49498543D01*
X141645500Y-48849000D01*
X141642603Y-48794960D01*
X141607020Y-48655550D01*
X141592668Y-48620902D01*
X141592667Y-48620900D01*
X141592667Y-48620899D01*
X141540880Y-48526058D01*
X141540877Y-48526055D01*
X141529061Y-48513364D01*
X141475517Y-48455853D01*
X141442838Y-48420752D01*
X141442834Y-48420748D01*
X141319106Y-48347336D01*
X141319101Y-48347334D01*
X141319098Y-48347332D01*
X141284450Y-48332980D01*
X141233416Y-48314976D01*
X141233414Y-48314975D01*
X141233412Y-48314975D01*
X141148477Y-48302763D01*
X141091000Y-48294500D01*
X141090998Y-48294500D01*
X137169500Y-48294500D01*
X137102461Y-48274815D01*
X137056706Y-48222011D01*
X137045500Y-48170500D01*
X137045500Y-43848997D01*
X137042603Y-43794959D01*
X137042602Y-43794958D01*
X137034502Y-43763224D01*
X137007020Y-43655550D01*
X136992668Y-43620902D01*
X136992667Y-43620900D01*
X136992667Y-43620899D01*
X136940880Y-43526058D01*
X136940877Y-43526055D01*
X136842838Y-43420752D01*
X136842834Y-43420748D01*
X136719106Y-43347336D01*
X136719101Y-43347334D01*
X136719098Y-43347332D01*
X136684450Y-43332980D01*
X136633416Y-43314976D01*
X136633414Y-43314975D01*
X136633412Y-43314975D01*
X136548477Y-43302763D01*
X136491000Y-43294500D01*
X122589000Y-43294500D01*
X122588998Y-43294500D01*
X122534959Y-43297396D01*
X122534958Y-43297397D01*
X122395550Y-43332979D01*
X122395545Y-43332981D01*
X122360900Y-43347332D01*
X122360899Y-43347332D01*
X122266058Y-43399119D01*
X122266055Y-43399122D01*
X122160752Y-43497161D01*
X122160748Y-43497165D01*
X122087336Y-43620893D01*
X122087333Y-43620900D01*
X122072981Y-43655547D01*
X122054975Y-43706587D01*
X122042270Y-43794958D01*
X122034501Y-43848997D01*
X122034500Y-43849001D01*
X106565500Y-43849001D01*
X106565500Y-43849000D01*
X106562603Y-43794960D01*
X106527020Y-43655550D01*
X106512668Y-43620902D01*
X106512667Y-43620900D01*
X106512667Y-43620899D01*
X106460880Y-43526058D01*
X106460877Y-43526055D01*
X106362838Y-43420752D01*
X106362834Y-43420748D01*
X106239106Y-43347336D01*
X106239101Y-43347334D01*
X106239098Y-43347332D01*
X106204450Y-43332980D01*
X106153416Y-43314976D01*
X106153414Y-43314975D01*
X106153412Y-43314975D01*
X106068477Y-43302763D01*
X106011000Y-43294500D01*
X92109000Y-43294500D01*
X92108998Y-43294500D01*
X92054959Y-43297396D01*
X92054958Y-43297397D01*
X91915550Y-43332979D01*
X91915545Y-43332981D01*
X91880900Y-43347332D01*
X91880899Y-43347332D01*
X91786058Y-43399119D01*
X91786055Y-43399122D01*
X91680752Y-43497161D01*
X91680748Y-43497165D01*
X91607336Y-43620893D01*
X91607333Y-43620900D01*
X91592981Y-43655547D01*
X91574975Y-43706587D01*
X91562270Y-43794958D01*
X91554501Y-43848997D01*
X91554500Y-43849001D01*
X76085500Y-43849001D01*
X76085500Y-43849000D01*
X76082603Y-43794960D01*
X76047020Y-43655550D01*
X76032668Y-43620902D01*
X76032667Y-43620900D01*
X76032667Y-43620899D01*
X75980880Y-43526058D01*
X75980877Y-43526055D01*
X75882838Y-43420752D01*
X75882834Y-43420748D01*
X75759106Y-43347336D01*
X75759101Y-43347334D01*
X75759098Y-43347332D01*
X75724450Y-43332980D01*
X75673416Y-43314976D01*
X75673414Y-43314975D01*
X75673412Y-43314975D01*
X75588477Y-43302763D01*
X75531000Y-43294500D01*
X61629000Y-43294500D01*
X61628998Y-43294500D01*
X61574959Y-43297396D01*
X61574958Y-43297397D01*
X61435550Y-43332979D01*
X61435545Y-43332981D01*
X61400900Y-43347332D01*
X61400899Y-43347332D01*
X61306058Y-43399119D01*
X61306055Y-43399122D01*
X61200752Y-43497161D01*
X61200748Y-43497165D01*
X61127336Y-43620893D01*
X61127333Y-43620900D01*
X61112981Y-43655547D01*
X61094975Y-43706587D01*
X61082270Y-43794958D01*
X61074501Y-43848997D01*
X61074500Y-43849001D01*
X56719575Y-43849001D01*
X56809827Y-43749423D01*
X56961821Y-43544483D01*
X57092995Y-43325632D01*
X57202087Y-43094977D01*
X57288045Y-42854740D01*
X57350042Y-42607235D01*
X57387480Y-42354845D01*
X57400000Y-42100000D01*
X143260000Y-42100000D01*
X143272520Y-42354845D01*
X143272520Y-42354851D01*
X143272521Y-42354853D01*
X143309959Y-42607241D01*
X143371958Y-42854750D01*
X143457905Y-43094957D01*
X143457913Y-43094977D01*
X143567005Y-43325632D01*
X143580012Y-43347333D01*
X143687135Y-43526058D01*
X143698179Y-43544483D01*
X143780548Y-43655545D01*
X143850177Y-43749428D01*
X144021521Y-43938478D01*
X144210571Y-44109822D01*
X144210577Y-44109827D01*
X144415517Y-44261821D01*
X144634368Y-44392995D01*
X144865023Y-44502087D01*
X144865037Y-44502092D01*
X144865042Y-44502094D01*
X144986103Y-44545410D01*
X145105260Y-44588045D01*
X145320387Y-44641931D01*
X145349347Y-44649186D01*
X145409594Y-44684570D01*
X145441147Y-44746910D01*
X145433989Y-44816411D01*
X145422319Y-44838360D01*
X145324148Y-44985283D01*
X145324138Y-44985301D01*
X145258146Y-45144621D01*
X145258143Y-45144633D01*
X145224500Y-45313766D01*
X145224500Y-45486233D01*
X145258143Y-45655366D01*
X145258146Y-45655378D01*
X145324138Y-45814698D01*
X145324145Y-45814711D01*
X145419954Y-45958098D01*
X145419957Y-45958102D01*
X145541897Y-46080042D01*
X145541901Y-46080045D01*
X145685288Y-46175854D01*
X145685301Y-46175861D01*
X145844621Y-46241853D01*
X145844626Y-46241855D01*
X146013766Y-46275499D01*
X146013769Y-46275500D01*
X146013771Y-46275500D01*
X146186231Y-46275500D01*
X146186232Y-46275499D01*
X146355374Y-46241855D01*
X146514705Y-46175858D01*
X146658099Y-46080045D01*
X146780045Y-45958099D01*
X146875858Y-45814705D01*
X146941855Y-45655374D01*
X146975500Y-45486229D01*
X146975500Y-45313771D01*
X146975500Y-45313768D01*
X146975499Y-45313766D01*
X146941856Y-45144633D01*
X146941855Y-45144626D01*
X146941853Y-45144621D01*
X146875861Y-44985301D01*
X146875854Y-44985288D01*
X146780045Y-44841901D01*
X146780042Y-44841897D01*
X146687988Y-44749843D01*
X146654503Y-44688520D01*
X146659487Y-44618828D01*
X146701359Y-44562895D01*
X146733890Y-44545412D01*
X146854977Y-44502087D01*
X147085632Y-44392995D01*
X147304483Y-44261821D01*
X147509423Y-44109827D01*
X147698478Y-43938478D01*
X147869827Y-43749423D01*
X148021821Y-43544483D01*
X148152995Y-43325632D01*
X148262087Y-43094977D01*
X148348045Y-42854740D01*
X148410042Y-42607235D01*
X148447480Y-42354845D01*
X148460000Y-42100000D01*
X148447480Y-41845155D01*
X148410042Y-41592765D01*
X148348045Y-41345260D01*
X148262087Y-41105023D01*
X148152995Y-40874368D01*
X148021821Y-40655517D01*
X147869827Y-40450577D01*
X147869822Y-40450571D01*
X147698478Y-40261521D01*
X147509428Y-40090177D01*
X147304480Y-39938177D01*
X147085635Y-39807007D01*
X147085636Y-39807007D01*
X147085632Y-39807005D01*
X146854977Y-39697913D01*
X146854957Y-39697905D01*
X146614750Y-39611958D01*
X146614744Y-39611956D01*
X146614740Y-39611955D01*
X146491963Y-39581200D01*
X146367241Y-39549959D01*
X146367236Y-39549958D01*
X146367235Y-39549958D01*
X146273662Y-39536078D01*
X146114853Y-39512521D01*
X146114851Y-39512520D01*
X146114845Y-39512520D01*
X145860000Y-39500000D01*
X145605155Y-39512520D01*
X145605149Y-39512520D01*
X145605146Y-39512521D01*
X145352758Y-39549959D01*
X145165916Y-39596761D01*
X145105260Y-39611955D01*
X145105257Y-39611955D01*
X145105249Y-39611958D01*
X144865042Y-39697905D01*
X144865022Y-39697913D01*
X144634364Y-39807007D01*
X144415519Y-39938177D01*
X144210571Y-40090177D01*
X144021521Y-40261521D01*
X143850177Y-40450571D01*
X143698177Y-40655519D01*
X143567007Y-40874364D01*
X143457913Y-41105022D01*
X143457905Y-41105042D01*
X143371958Y-41345249D01*
X143309959Y-41592758D01*
X143309958Y-41592765D01*
X143272520Y-41845155D01*
X143260000Y-42100000D01*
X57400000Y-42100000D01*
X57387480Y-41845155D01*
X57350042Y-41592765D01*
X57288045Y-41345260D01*
X57202087Y-41105023D01*
X57092995Y-40874368D01*
X56961821Y-40655517D01*
X56809827Y-40450577D01*
X56809822Y-40450571D01*
X56638478Y-40261521D01*
X56449428Y-40090177D01*
X56244480Y-39938177D01*
X56025635Y-39807007D01*
X56025636Y-39807007D01*
X56025632Y-39807005D01*
X55794977Y-39697913D01*
X55794957Y-39697905D01*
X55554750Y-39611958D01*
X55554744Y-39611956D01*
X55554740Y-39611955D01*
X55431963Y-39581200D01*
X55307241Y-39549959D01*
X55307236Y-39549958D01*
X55307235Y-39549958D01*
X55213662Y-39536078D01*
X55054853Y-39512521D01*
X55054851Y-39512520D01*
X55054845Y-39512520D01*
X54800000Y-39500000D01*
X54545155Y-39512520D01*
X54545149Y-39512520D01*
X54545146Y-39512521D01*
X54292758Y-39549959D01*
X54105916Y-39596761D01*
X54045260Y-39611955D01*
X54045257Y-39611955D01*
X54045249Y-39611958D01*
X53805042Y-39697905D01*
X53805022Y-39697913D01*
X53574364Y-39807007D01*
X53355519Y-39938177D01*
X53150571Y-40090177D01*
X52961521Y-40261521D01*
X52790177Y-40450571D01*
X52638177Y-40655519D01*
X52507007Y-40874364D01*
X52397913Y-41105022D01*
X52397905Y-41105042D01*
X52311958Y-41345249D01*
X52249959Y-41592758D01*
X52249958Y-41592765D01*
X52212520Y-41845155D01*
X52200000Y-42100000D01*
X51800000Y-42100000D01*
X51800000Y-39224000D01*
X51819685Y-39156961D01*
X51872489Y-39111206D01*
X51924000Y-39100000D01*
X148736000Y-39100000D01*
X148803039Y-39119685D01*
G37*
%TD.AperFunction*%
%TA.AperFunction,NonConductor*%
G36*
X136477539Y-80890185D02*
G01*
X136523294Y-80942989D01*
X136534500Y-80994500D01*
X136534500Y-81406610D01*
X136558535Y-81527446D01*
X136558537Y-81527453D01*
X136577216Y-81572548D01*
X136584684Y-81642018D01*
X136577216Y-81667452D01*
X136558537Y-81712546D01*
X136558535Y-81712553D01*
X136534500Y-81833389D01*
X136534500Y-82506610D01*
X136558535Y-82627446D01*
X136558537Y-82627453D01*
X136577216Y-82672548D01*
X136584684Y-82742018D01*
X136577216Y-82767452D01*
X136558537Y-82812546D01*
X136558535Y-82812553D01*
X136534500Y-82933389D01*
X136534500Y-83606610D01*
X136558535Y-83727446D01*
X136558537Y-83727453D01*
X136577216Y-83772548D01*
X136584684Y-83842018D01*
X136577216Y-83867452D01*
X136558537Y-83912546D01*
X136558535Y-83912553D01*
X136534500Y-84033389D01*
X136534500Y-84706610D01*
X136558535Y-84827446D01*
X136558537Y-84827453D01*
X136577216Y-84872548D01*
X136584684Y-84942018D01*
X136577216Y-84967452D01*
X136558537Y-85012546D01*
X136558535Y-85012553D01*
X136534500Y-85133389D01*
X136534500Y-85806610D01*
X136558535Y-85927446D01*
X136558537Y-85927453D01*
X136577216Y-85972548D01*
X136584684Y-86042018D01*
X136577216Y-86067452D01*
X136558537Y-86112546D01*
X136558535Y-86112553D01*
X136534500Y-86233389D01*
X136534500Y-86645500D01*
X136531949Y-86654185D01*
X136533238Y-86663147D01*
X136522259Y-86687187D01*
X136514815Y-86712539D01*
X136507974Y-86718466D01*
X136504213Y-86726703D01*
X136481978Y-86740992D01*
X136462011Y-86758294D01*
X136451496Y-86760581D01*
X136445435Y-86764477D01*
X136410500Y-86769500D01*
X136197731Y-86769500D01*
X136130692Y-86749815D01*
X136084937Y-86697011D01*
X136074993Y-86627853D01*
X136084937Y-86593988D01*
X136145023Y-86462419D01*
X136145024Y-86462414D01*
X136165500Y-86320000D01*
X136165500Y-81320000D01*
X136160355Y-81248060D01*
X136119819Y-81110008D01*
X136088670Y-81061539D01*
X136068986Y-80994499D01*
X136088671Y-80927460D01*
X136141475Y-80881705D01*
X136192986Y-80870500D01*
X136410500Y-80870500D01*
X136477539Y-80890185D01*
G37*
%TD.AperFunction*%
M02*
