%TF.GenerationSoftware,KiCad,Pcbnew,9.0.9-9.0.9~ubuntu24.04.1*%
%TF.ProjectId,DC-A,44432d41-2e6b-4696-9361-645f70636258,C*%
%TF.SameCoordinates,Original*%
%TF.FileFunction,Soldermask,Top*%
%TF.FilePolarity,Negative*%
%FSLAX46Y46*%
G04 Gerber Fmt 4.6, Leading zero omitted, Abs format (unit mm)*
%MOMM*%
%LPD*%
G01*
G04 APERTURE LIST*
G04 Aperture macros list*
%AMFreePoly0*
4,1,5,1.500000,-1.500000,-1.500000,-1.500000,-1.500000,1.500000,1.500000,1.500000,1.500000,-1.500000,1.500000,-1.500000,$1*%
G04 Aperture macros list end*
%ADD10R,2.000000X4.000000*%
%ADD11C,1.600000*%
%ADD12R,2.000000X2.000000*%
%ADD13R,1.600000X1.600000*%
%ADD14R,2.000000X5.000000*%
%ADD15R,2.000000X3.000000*%
%ADD16R,3.000000X2.000000*%
%ADD17FreePoly0,0.000000*%
%ADD18C,3.200000*%
G04 APERTURE END LIST*
D10*
%TO.C,VA1_FP*%
X55880000Y-50800000D03*
%TD*%
%TO.C,VA1_FM*%
X81280000Y-50800000D03*
%TD*%
D11*
%TO.C,VA1_SP*%
X63500000Y-50800000D03*
%TD*%
%TO.C,VA1_SM*%
X73660000Y-50800000D03*
%TD*%
D10*
%TO.C,VA4_FP*%
X86360000Y-50800000D03*
%TD*%
%TO.C,VA4_FM*%
X111760000Y-50800000D03*
%TD*%
D11*
%TO.C,VA4_SP*%
X93980000Y-50800000D03*
%TD*%
%TO.C,VA4_SM*%
X104140000Y-50800000D03*
%TD*%
D10*
%TO.C,VA8_FP*%
X116840000Y-50800000D03*
%TD*%
%TO.C,VA8_FM*%
X142240000Y-50800000D03*
%TD*%
D11*
%TO.C,VA8_SP*%
X124460000Y-50800000D03*
%TD*%
%TO.C,VA8_SM*%
X134620000Y-50800000D03*
%TD*%
D12*
%TO.C,KV030_FP*%
X55880000Y-66040000D03*
%TD*%
D13*
%TO.C,KV030_SP*%
X66040000Y-66040000D03*
%TD*%
D12*
%TO.C,KV030_FM*%
X60960000Y-60960000D03*
%TD*%
D13*
%TO.C,KV030_SM*%
X60960000Y-71120000D03*
%TD*%
D12*
%TO.C,KV050_FP*%
X73660000Y-66040000D03*
%TD*%
D13*
%TO.C,KV050_SP*%
X83820000Y-66040000D03*
%TD*%
D12*
%TO.C,KV050_FM*%
X78740000Y-60960000D03*
%TD*%
D13*
%TO.C,KV050_SM*%
X78740000Y-71120000D03*
%TD*%
D12*
%TO.C,DC030W_FP*%
X91440000Y-63500000D03*
%TD*%
%TO.C,DC030W_FM*%
X129540000Y-63500000D03*
%TD*%
D13*
%TO.C,DC030W_SP*%
X96520000Y-60960000D03*
%TD*%
%TO.C,DC030W_SM*%
X127000000Y-60960000D03*
%TD*%
D12*
%TO.C,DC050W_FP*%
X91440000Y-71120000D03*
%TD*%
%TO.C,DC050W_FM*%
X129540000Y-71120000D03*
%TD*%
D13*
%TO.C,DC050W_SP*%
X96520000Y-68580000D03*
%TD*%
%TO.C,DC050W_SM*%
X127000000Y-68580000D03*
%TD*%
%TO.C,VDPF3_A*%
X144780000Y-68580000D03*
%TD*%
%TO.C,VDPF3_B*%
X139700000Y-63500000D03*
%TD*%
%TO.C,VDPF3_C*%
X134620000Y-68580000D03*
%TD*%
%TO.C,VDPF3_D*%
X139700000Y-73660000D03*
%TD*%
D12*
%TO.C,LBF100_FP*%
X55880000Y-81280000D03*
%TD*%
%TO.C,LBF100_FM*%
X144780000Y-81280000D03*
%TD*%
D13*
%TO.C,LBF100_SP*%
X60960000Y-78740000D03*
%TD*%
%TO.C,LBF100_SM*%
X139700000Y-78740000D03*
%TD*%
D14*
%TO.C,NK1_FP*%
X55880000Y-91440000D03*
%TD*%
%TO.C,NK1_FM*%
X93980000Y-91440000D03*
%TD*%
D13*
%TO.C,NK1_SP*%
X68580000Y-86360000D03*
%TD*%
%TO.C,NK1_SM*%
X81280000Y-86360000D03*
%TD*%
%TO.C,VDPF2_A*%
X109220000Y-93980000D03*
%TD*%
%TO.C,VDPF2_B*%
X104140000Y-88900000D03*
%TD*%
%TO.C,VDPF2_C*%
X99060000Y-93980000D03*
%TD*%
%TO.C,VDPF2_D*%
X104140000Y-99060000D03*
%TD*%
D12*
%TO.C,BRF100X_FP*%
X114300000Y-88900000D03*
%TD*%
%TO.C,BRF100X_FM*%
X139700000Y-88900000D03*
%TD*%
D13*
%TO.C,BRF100X_SP*%
X119380000Y-86360000D03*
%TD*%
%TO.C,BRF100X_SM*%
X134620000Y-86360000D03*
%TD*%
D15*
%TO.C,LC_FP*%
X55880000Y-109220000D03*
%TD*%
D16*
%TO.C,LC_FM*%
X71120000Y-124460000D03*
%TD*%
D13*
%TO.C,LC_SP*%
X63500000Y-104140000D03*
%TD*%
%TO.C,LC_SM*%
X76200000Y-116840000D03*
%TD*%
D12*
%TO.C,BRF050X_FP*%
X83820000Y-106680000D03*
%TD*%
%TO.C,BRF050X_FM*%
X109220000Y-106680000D03*
%TD*%
D13*
%TO.C,BRF050X_SP*%
X88900000Y-104140000D03*
%TD*%
%TO.C,BRF050X_SM*%
X104140000Y-104140000D03*
%TD*%
D12*
%TO.C,BRF200X_FP*%
X83820000Y-114300000D03*
%TD*%
%TO.C,BRF200X_FM*%
X109220000Y-114300000D03*
%TD*%
D13*
%TO.C,BRF200X_SP*%
X88900000Y-111760000D03*
%TD*%
%TO.C,BRF200X_SM*%
X104140000Y-111760000D03*
%TD*%
D12*
%TO.C,BRF050Y_FP*%
X116840000Y-127000000D03*
%TD*%
%TO.C,BRF050Y_FM*%
X116840000Y-104140000D03*
%TD*%
D13*
%TO.C,BRF050Y_SP*%
X114300000Y-121920000D03*
%TD*%
%TO.C,BRF050Y_SM*%
X114300000Y-109220000D03*
%TD*%
%TO.C,VDPF1_A*%
X137160000Y-109220000D03*
%TD*%
%TO.C,VDPF1_B*%
X132080000Y-104140000D03*
%TD*%
%TO.C,VDPF1_C*%
X127000000Y-109220000D03*
%TD*%
%TO.C,VDPF1_D*%
X132080000Y-114300000D03*
%TD*%
D17*
%TO.C,TK1_W1*%
X145300000Y-55400000D03*
%TD*%
%TO.C,TK2_W1*%
X140800000Y-126100000D03*
%TD*%
%TO.C,TK3_W1*%
X61300000Y-131400000D03*
%TD*%
D18*
%TO.C,H1*%
X54800000Y-42100000D03*
%TD*%
%TO.C,H2*%
X145860000Y-42100000D03*
%TD*%
%TO.C,H3*%
X54800000Y-133160000D03*
%TD*%
%TO.C,H4*%
X145860000Y-133160000D03*
%TD*%
M02*
