M48
; FORMAT={-:-/ absolute / metric / decimal}
; #@! TF.GenerationSoftware,Kicad,Pcbnew,9.0.9-9.0.9~ubuntu24.04.1
; #@! TF.FileFunction,Plated,1,2,PTH
FMAT,2
METRIC
; #@! TA.AperFunction,Plated,PTH,ViaDrill
T1C0.300
; #@! TA.AperFunction,Plated,PTH,ViaDrill
T2C0.500
%
G90
G05
T1
X60.435Y-62.56
X60.96Y-66.04
X60.96Y-69.72
X61.485Y-62.56
X68.58Y-50.8
X72.26Y-50.8
X78.215Y-62.56
X78.74Y-69.72
X79.265Y-62.56
X79.68Y-49.75
X79.68Y-50.8
X79.68Y-51.85
X98.56Y-50.3
X98.56Y-51.3
X99.06Y-63.5
X99.56Y-50.3
X99.56Y-51.3
X100.33Y-63.5
X101.6Y-63.5
X102.74Y-50.8
X102.87Y-63.5
X104.14Y-63.5
X105.41Y-63.5
X106.68Y-63.5
X107.95Y-63.5
X109.22Y-63.5
X110.16Y-49.75
X110.16Y-50.8
X110.16Y-51.85
X110.49Y-63.5
X111.76Y-63.5
X113.03Y-63.5
X114.3Y-63.5
X115.57Y-63.5
X116.84Y-63.5
X118.11Y-63.5
X119.38Y-63.5
X120.65Y-63.5
X121.92Y-63.5
X123.19Y-63.5
X129.04Y-49.3
X129.04Y-50.3
X129.04Y-51.3
X129.04Y-52.3
X130.04Y-49.3
X130.04Y-50.3
X130.04Y-51.3
X130.04Y-52.3
X133.22Y-50.8
X140.64Y-49.75
X140.64Y-50.8
X140.64Y-51.85
X146.1Y-45.4
X146.1Y-47.4
T2
X78.74Y-66.04
X99.06Y-71.12
X100.33Y-71.12
X101.6Y-71.12
X102.87Y-71.12
X104.14Y-71.12
X105.41Y-71.12
X106.68Y-71.12
X107.95Y-71.12
X109.22Y-71.12
X110.49Y-71.12
X111.76Y-71.12
X113.03Y-71.12
X114.3Y-71.12
X115.57Y-71.12
X116.84Y-71.12
X118.11Y-71.12
X119.38Y-71.12
X120.65Y-71.12
X121.92Y-71.12
X123.19Y-71.12
X146.1Y-49.4
X146.1Y-51.4
M30
