%TF.GenerationSoftware,KiCad,Pcbnew,9.0.9-9.0.9~ubuntu24.04.1*%
%TF.ProjectId,DC-A,44432d41-2e6b-4696-9361-645f70636258,C*%
%TF.SameCoordinates,Original*%
%TF.FileFunction,Legend,Top*%
%TF.FilePolarity,Positive*%
%FSLAX46Y46*%
G04 Gerber Fmt 4.6, Leading zero omitted, Abs format (unit mm)*
%MOMM*%
%LPD*%
G01*
G04 APERTURE LIST*
G04 Aperture macros list*
%AMFreePoly0*
4,1,5,1.500000,-1.500000,-1.500000,-1.500000,-1.500000,1.500000,1.500000,1.500000,1.500000,-1.500000,1.500000,-1.500000,$1*%
G04 Aperture macros list end*
%ADD10C,0.160000*%
%ADD11C,0.100000*%
%ADD12R,2.000000X4.000000*%
%ADD13C,1.600000*%
%ADD14R,2.000000X2.000000*%
%ADD15R,1.600000X1.600000*%
%ADD16R,2.000000X5.000000*%
%ADD17R,2.000000X3.000000*%
%ADD18R,3.000000X2.000000*%
%ADD19FreePoly0,0.000000*%
%ADD20C,3.200000*%
G04 APERTURE END LIST*
D10*
X69350000Y-134960000D02*
X70550000Y-134960000D01*
X70550000Y-136160000D01*
X69350000Y-136160000D01*
X69350000Y-134960000D01*
X75500000Y-134960000D02*
X76700000Y-134960000D01*
X76700000Y-136160000D01*
X75500000Y-136160000D01*
X75500000Y-134960000D01*
X85400000Y-134960000D02*
X86600000Y-134960000D01*
X86600000Y-136160000D01*
X85400000Y-136160000D01*
X85400000Y-134960000D01*
X91550000Y-134960000D02*
X92750000Y-134960000D01*
X92750000Y-136160000D01*
X91550000Y-136160000D01*
X91550000Y-134960000D01*
D11*
X94800000Y-39000000D02*
X104800000Y-39000000D01*
X104800000Y-41000000D01*
X94800000Y-41000000D01*
X94800000Y-39000000D01*
G36*
X94800000Y-39000000D02*
G01*
X104800000Y-39000000D01*
X104800000Y-41000000D01*
X94800000Y-41000000D01*
X94800000Y-39000000D01*
G37*
D10*
X55403809Y-47850489D02*
X55070476Y-47850489D01*
X55070476Y-48374299D02*
X55070476Y-47374299D01*
X55070476Y-47374299D02*
X55546666Y-47374299D01*
X55927619Y-47993346D02*
X56689524Y-47993346D01*
X56308571Y-48374299D02*
X56308571Y-47612394D01*
X80803809Y-47850489D02*
X80470476Y-47850489D01*
X80470476Y-48374299D02*
X80470476Y-47374299D01*
X80470476Y-47374299D02*
X80946666Y-47374299D01*
X81327619Y-47993346D02*
X82089524Y-47993346D01*
X62595238Y-49526680D02*
X62738095Y-49574299D01*
X62738095Y-49574299D02*
X62976190Y-49574299D01*
X62976190Y-49574299D02*
X63071428Y-49526680D01*
X63071428Y-49526680D02*
X63119047Y-49479060D01*
X63119047Y-49479060D02*
X63166666Y-49383822D01*
X63166666Y-49383822D02*
X63166666Y-49288584D01*
X63166666Y-49288584D02*
X63119047Y-49193346D01*
X63119047Y-49193346D02*
X63071428Y-49145727D01*
X63071428Y-49145727D02*
X62976190Y-49098108D01*
X62976190Y-49098108D02*
X62785714Y-49050489D01*
X62785714Y-49050489D02*
X62690476Y-49002870D01*
X62690476Y-49002870D02*
X62642857Y-48955251D01*
X62642857Y-48955251D02*
X62595238Y-48860013D01*
X62595238Y-48860013D02*
X62595238Y-48764775D01*
X62595238Y-48764775D02*
X62642857Y-48669537D01*
X62642857Y-48669537D02*
X62690476Y-48621918D01*
X62690476Y-48621918D02*
X62785714Y-48574299D01*
X62785714Y-48574299D02*
X63023809Y-48574299D01*
X63023809Y-48574299D02*
X63166666Y-48621918D01*
X63595238Y-49193346D02*
X64357143Y-49193346D01*
X63976190Y-49574299D02*
X63976190Y-48812394D01*
X72755238Y-49526680D02*
X72898095Y-49574299D01*
X72898095Y-49574299D02*
X73136190Y-49574299D01*
X73136190Y-49574299D02*
X73231428Y-49526680D01*
X73231428Y-49526680D02*
X73279047Y-49479060D01*
X73279047Y-49479060D02*
X73326666Y-49383822D01*
X73326666Y-49383822D02*
X73326666Y-49288584D01*
X73326666Y-49288584D02*
X73279047Y-49193346D01*
X73279047Y-49193346D02*
X73231428Y-49145727D01*
X73231428Y-49145727D02*
X73136190Y-49098108D01*
X73136190Y-49098108D02*
X72945714Y-49050489D01*
X72945714Y-49050489D02*
X72850476Y-49002870D01*
X72850476Y-49002870D02*
X72802857Y-48955251D01*
X72802857Y-48955251D02*
X72755238Y-48860013D01*
X72755238Y-48860013D02*
X72755238Y-48764775D01*
X72755238Y-48764775D02*
X72802857Y-48669537D01*
X72802857Y-48669537D02*
X72850476Y-48621918D01*
X72850476Y-48621918D02*
X72945714Y-48574299D01*
X72945714Y-48574299D02*
X73183809Y-48574299D01*
X73183809Y-48574299D02*
X73326666Y-48621918D01*
X73755238Y-49193346D02*
X74517143Y-49193346D01*
X67341905Y-42054299D02*
X67675238Y-43054299D01*
X67675238Y-43054299D02*
X68008571Y-42054299D01*
X68294286Y-42768584D02*
X68770476Y-42768584D01*
X68199048Y-43054299D02*
X68532381Y-42054299D01*
X68532381Y-42054299D02*
X68865714Y-43054299D01*
X69722857Y-43054299D02*
X69151429Y-43054299D01*
X69437143Y-43054299D02*
X69437143Y-42054299D01*
X69437143Y-42054299D02*
X69341905Y-42197156D01*
X69341905Y-42197156D02*
X69246667Y-42292394D01*
X69246667Y-42292394D02*
X69151429Y-42340013D01*
X85883809Y-47850489D02*
X85550476Y-47850489D01*
X85550476Y-48374299D02*
X85550476Y-47374299D01*
X85550476Y-47374299D02*
X86026666Y-47374299D01*
X86407619Y-47993346D02*
X87169524Y-47993346D01*
X86788571Y-48374299D02*
X86788571Y-47612394D01*
X111283809Y-47850489D02*
X110950476Y-47850489D01*
X110950476Y-48374299D02*
X110950476Y-47374299D01*
X110950476Y-47374299D02*
X111426666Y-47374299D01*
X111807619Y-47993346D02*
X112569524Y-47993346D01*
X93075238Y-49526680D02*
X93218095Y-49574299D01*
X93218095Y-49574299D02*
X93456190Y-49574299D01*
X93456190Y-49574299D02*
X93551428Y-49526680D01*
X93551428Y-49526680D02*
X93599047Y-49479060D01*
X93599047Y-49479060D02*
X93646666Y-49383822D01*
X93646666Y-49383822D02*
X93646666Y-49288584D01*
X93646666Y-49288584D02*
X93599047Y-49193346D01*
X93599047Y-49193346D02*
X93551428Y-49145727D01*
X93551428Y-49145727D02*
X93456190Y-49098108D01*
X93456190Y-49098108D02*
X93265714Y-49050489D01*
X93265714Y-49050489D02*
X93170476Y-49002870D01*
X93170476Y-49002870D02*
X93122857Y-48955251D01*
X93122857Y-48955251D02*
X93075238Y-48860013D01*
X93075238Y-48860013D02*
X93075238Y-48764775D01*
X93075238Y-48764775D02*
X93122857Y-48669537D01*
X93122857Y-48669537D02*
X93170476Y-48621918D01*
X93170476Y-48621918D02*
X93265714Y-48574299D01*
X93265714Y-48574299D02*
X93503809Y-48574299D01*
X93503809Y-48574299D02*
X93646666Y-48621918D01*
X94075238Y-49193346D02*
X94837143Y-49193346D01*
X94456190Y-49574299D02*
X94456190Y-48812394D01*
X103235238Y-49526680D02*
X103378095Y-49574299D01*
X103378095Y-49574299D02*
X103616190Y-49574299D01*
X103616190Y-49574299D02*
X103711428Y-49526680D01*
X103711428Y-49526680D02*
X103759047Y-49479060D01*
X103759047Y-49479060D02*
X103806666Y-49383822D01*
X103806666Y-49383822D02*
X103806666Y-49288584D01*
X103806666Y-49288584D02*
X103759047Y-49193346D01*
X103759047Y-49193346D02*
X103711428Y-49145727D01*
X103711428Y-49145727D02*
X103616190Y-49098108D01*
X103616190Y-49098108D02*
X103425714Y-49050489D01*
X103425714Y-49050489D02*
X103330476Y-49002870D01*
X103330476Y-49002870D02*
X103282857Y-48955251D01*
X103282857Y-48955251D02*
X103235238Y-48860013D01*
X103235238Y-48860013D02*
X103235238Y-48764775D01*
X103235238Y-48764775D02*
X103282857Y-48669537D01*
X103282857Y-48669537D02*
X103330476Y-48621918D01*
X103330476Y-48621918D02*
X103425714Y-48574299D01*
X103425714Y-48574299D02*
X103663809Y-48574299D01*
X103663809Y-48574299D02*
X103806666Y-48621918D01*
X104235238Y-49193346D02*
X104997143Y-49193346D01*
X97821905Y-42054299D02*
X98155238Y-43054299D01*
X98155238Y-43054299D02*
X98488571Y-42054299D01*
X98774286Y-42768584D02*
X99250476Y-42768584D01*
X98679048Y-43054299D02*
X99012381Y-42054299D01*
X99012381Y-42054299D02*
X99345714Y-43054299D01*
X100107619Y-42387632D02*
X100107619Y-43054299D01*
X99869524Y-42006680D02*
X99631429Y-42720965D01*
X99631429Y-42720965D02*
X100250476Y-42720965D01*
X116363809Y-47850489D02*
X116030476Y-47850489D01*
X116030476Y-48374299D02*
X116030476Y-47374299D01*
X116030476Y-47374299D02*
X116506666Y-47374299D01*
X116887619Y-47993346D02*
X117649524Y-47993346D01*
X117268571Y-48374299D02*
X117268571Y-47612394D01*
X141763809Y-47850489D02*
X141430476Y-47850489D01*
X141430476Y-48374299D02*
X141430476Y-47374299D01*
X141430476Y-47374299D02*
X141906666Y-47374299D01*
X142287619Y-47993346D02*
X143049524Y-47993346D01*
X123555238Y-49526680D02*
X123698095Y-49574299D01*
X123698095Y-49574299D02*
X123936190Y-49574299D01*
X123936190Y-49574299D02*
X124031428Y-49526680D01*
X124031428Y-49526680D02*
X124079047Y-49479060D01*
X124079047Y-49479060D02*
X124126666Y-49383822D01*
X124126666Y-49383822D02*
X124126666Y-49288584D01*
X124126666Y-49288584D02*
X124079047Y-49193346D01*
X124079047Y-49193346D02*
X124031428Y-49145727D01*
X124031428Y-49145727D02*
X123936190Y-49098108D01*
X123936190Y-49098108D02*
X123745714Y-49050489D01*
X123745714Y-49050489D02*
X123650476Y-49002870D01*
X123650476Y-49002870D02*
X123602857Y-48955251D01*
X123602857Y-48955251D02*
X123555238Y-48860013D01*
X123555238Y-48860013D02*
X123555238Y-48764775D01*
X123555238Y-48764775D02*
X123602857Y-48669537D01*
X123602857Y-48669537D02*
X123650476Y-48621918D01*
X123650476Y-48621918D02*
X123745714Y-48574299D01*
X123745714Y-48574299D02*
X123983809Y-48574299D01*
X123983809Y-48574299D02*
X124126666Y-48621918D01*
X124555238Y-49193346D02*
X125317143Y-49193346D01*
X124936190Y-49574299D02*
X124936190Y-48812394D01*
X133715238Y-49526680D02*
X133858095Y-49574299D01*
X133858095Y-49574299D02*
X134096190Y-49574299D01*
X134096190Y-49574299D02*
X134191428Y-49526680D01*
X134191428Y-49526680D02*
X134239047Y-49479060D01*
X134239047Y-49479060D02*
X134286666Y-49383822D01*
X134286666Y-49383822D02*
X134286666Y-49288584D01*
X134286666Y-49288584D02*
X134239047Y-49193346D01*
X134239047Y-49193346D02*
X134191428Y-49145727D01*
X134191428Y-49145727D02*
X134096190Y-49098108D01*
X134096190Y-49098108D02*
X133905714Y-49050489D01*
X133905714Y-49050489D02*
X133810476Y-49002870D01*
X133810476Y-49002870D02*
X133762857Y-48955251D01*
X133762857Y-48955251D02*
X133715238Y-48860013D01*
X133715238Y-48860013D02*
X133715238Y-48764775D01*
X133715238Y-48764775D02*
X133762857Y-48669537D01*
X133762857Y-48669537D02*
X133810476Y-48621918D01*
X133810476Y-48621918D02*
X133905714Y-48574299D01*
X133905714Y-48574299D02*
X134143809Y-48574299D01*
X134143809Y-48574299D02*
X134286666Y-48621918D01*
X134715238Y-49193346D02*
X135477143Y-49193346D01*
X128301905Y-42054299D02*
X128635238Y-43054299D01*
X128635238Y-43054299D02*
X128968571Y-42054299D01*
X129254286Y-42768584D02*
X129730476Y-42768584D01*
X129159048Y-43054299D02*
X129492381Y-42054299D01*
X129492381Y-42054299D02*
X129825714Y-43054299D01*
X130301905Y-42482870D02*
X130206667Y-42435251D01*
X130206667Y-42435251D02*
X130159048Y-42387632D01*
X130159048Y-42387632D02*
X130111429Y-42292394D01*
X130111429Y-42292394D02*
X130111429Y-42244775D01*
X130111429Y-42244775D02*
X130159048Y-42149537D01*
X130159048Y-42149537D02*
X130206667Y-42101918D01*
X130206667Y-42101918D02*
X130301905Y-42054299D01*
X130301905Y-42054299D02*
X130492381Y-42054299D01*
X130492381Y-42054299D02*
X130587619Y-42101918D01*
X130587619Y-42101918D02*
X130635238Y-42149537D01*
X130635238Y-42149537D02*
X130682857Y-42244775D01*
X130682857Y-42244775D02*
X130682857Y-42292394D01*
X130682857Y-42292394D02*
X130635238Y-42387632D01*
X130635238Y-42387632D02*
X130587619Y-42435251D01*
X130587619Y-42435251D02*
X130492381Y-42482870D01*
X130492381Y-42482870D02*
X130301905Y-42482870D01*
X130301905Y-42482870D02*
X130206667Y-42530489D01*
X130206667Y-42530489D02*
X130159048Y-42578108D01*
X130159048Y-42578108D02*
X130111429Y-42673346D01*
X130111429Y-42673346D02*
X130111429Y-42863822D01*
X130111429Y-42863822D02*
X130159048Y-42959060D01*
X130159048Y-42959060D02*
X130206667Y-43006680D01*
X130206667Y-43006680D02*
X130301905Y-43054299D01*
X130301905Y-43054299D02*
X130492381Y-43054299D01*
X130492381Y-43054299D02*
X130587619Y-43006680D01*
X130587619Y-43006680D02*
X130635238Y-42959060D01*
X130635238Y-42959060D02*
X130682857Y-42863822D01*
X130682857Y-42863822D02*
X130682857Y-42673346D01*
X130682857Y-42673346D02*
X130635238Y-42578108D01*
X130635238Y-42578108D02*
X130587619Y-42530489D01*
X130587619Y-42530489D02*
X130492381Y-42482870D01*
X55403809Y-64090489D02*
X55070476Y-64090489D01*
X55070476Y-64614299D02*
X55070476Y-63614299D01*
X55070476Y-63614299D02*
X55546666Y-63614299D01*
X55927619Y-64233346D02*
X56689524Y-64233346D01*
X56308571Y-64614299D02*
X56308571Y-63852394D01*
X67265238Y-66446680D02*
X67408095Y-66494299D01*
X67408095Y-66494299D02*
X67646190Y-66494299D01*
X67646190Y-66494299D02*
X67741428Y-66446680D01*
X67741428Y-66446680D02*
X67789047Y-66399060D01*
X67789047Y-66399060D02*
X67836666Y-66303822D01*
X67836666Y-66303822D02*
X67836666Y-66208584D01*
X67836666Y-66208584D02*
X67789047Y-66113346D01*
X67789047Y-66113346D02*
X67741428Y-66065727D01*
X67741428Y-66065727D02*
X67646190Y-66018108D01*
X67646190Y-66018108D02*
X67455714Y-65970489D01*
X67455714Y-65970489D02*
X67360476Y-65922870D01*
X67360476Y-65922870D02*
X67312857Y-65875251D01*
X67312857Y-65875251D02*
X67265238Y-65780013D01*
X67265238Y-65780013D02*
X67265238Y-65684775D01*
X67265238Y-65684775D02*
X67312857Y-65589537D01*
X67312857Y-65589537D02*
X67360476Y-65541918D01*
X67360476Y-65541918D02*
X67455714Y-65494299D01*
X67455714Y-65494299D02*
X67693809Y-65494299D01*
X67693809Y-65494299D02*
X67836666Y-65541918D01*
X68265238Y-66113346D02*
X69027143Y-66113346D01*
X68646190Y-66494299D02*
X68646190Y-65732394D01*
X58153809Y-60890489D02*
X57820476Y-60890489D01*
X57820476Y-61414299D02*
X57820476Y-60414299D01*
X57820476Y-60414299D02*
X58296666Y-60414299D01*
X58677619Y-61033346D02*
X59439524Y-61033346D01*
X62185238Y-71526680D02*
X62328095Y-71574299D01*
X62328095Y-71574299D02*
X62566190Y-71574299D01*
X62566190Y-71574299D02*
X62661428Y-71526680D01*
X62661428Y-71526680D02*
X62709047Y-71479060D01*
X62709047Y-71479060D02*
X62756666Y-71383822D01*
X62756666Y-71383822D02*
X62756666Y-71288584D01*
X62756666Y-71288584D02*
X62709047Y-71193346D01*
X62709047Y-71193346D02*
X62661428Y-71145727D01*
X62661428Y-71145727D02*
X62566190Y-71098108D01*
X62566190Y-71098108D02*
X62375714Y-71050489D01*
X62375714Y-71050489D02*
X62280476Y-71002870D01*
X62280476Y-71002870D02*
X62232857Y-70955251D01*
X62232857Y-70955251D02*
X62185238Y-70860013D01*
X62185238Y-70860013D02*
X62185238Y-70764775D01*
X62185238Y-70764775D02*
X62232857Y-70669537D01*
X62232857Y-70669537D02*
X62280476Y-70621918D01*
X62280476Y-70621918D02*
X62375714Y-70574299D01*
X62375714Y-70574299D02*
X62613809Y-70574299D01*
X62613809Y-70574299D02*
X62756666Y-70621918D01*
X63185238Y-71193346D02*
X63947143Y-71193346D01*
X58221905Y-73374299D02*
X58221905Y-72374299D01*
X58793333Y-73374299D02*
X58364762Y-72802870D01*
X58793333Y-72374299D02*
X58221905Y-72945727D01*
X59079048Y-72374299D02*
X59412381Y-73374299D01*
X59412381Y-73374299D02*
X59745714Y-72374299D01*
X60079048Y-72993346D02*
X60840953Y-72993346D01*
X61507619Y-72374299D02*
X61602857Y-72374299D01*
X61602857Y-72374299D02*
X61698095Y-72421918D01*
X61698095Y-72421918D02*
X61745714Y-72469537D01*
X61745714Y-72469537D02*
X61793333Y-72564775D01*
X61793333Y-72564775D02*
X61840952Y-72755251D01*
X61840952Y-72755251D02*
X61840952Y-72993346D01*
X61840952Y-72993346D02*
X61793333Y-73183822D01*
X61793333Y-73183822D02*
X61745714Y-73279060D01*
X61745714Y-73279060D02*
X61698095Y-73326680D01*
X61698095Y-73326680D02*
X61602857Y-73374299D01*
X61602857Y-73374299D02*
X61507619Y-73374299D01*
X61507619Y-73374299D02*
X61412381Y-73326680D01*
X61412381Y-73326680D02*
X61364762Y-73279060D01*
X61364762Y-73279060D02*
X61317143Y-73183822D01*
X61317143Y-73183822D02*
X61269524Y-72993346D01*
X61269524Y-72993346D02*
X61269524Y-72755251D01*
X61269524Y-72755251D02*
X61317143Y-72564775D01*
X61317143Y-72564775D02*
X61364762Y-72469537D01*
X61364762Y-72469537D02*
X61412381Y-72421918D01*
X61412381Y-72421918D02*
X61507619Y-72374299D01*
X62174286Y-72374299D02*
X62793333Y-72374299D01*
X62793333Y-72374299D02*
X62460000Y-72755251D01*
X62460000Y-72755251D02*
X62602857Y-72755251D01*
X62602857Y-72755251D02*
X62698095Y-72802870D01*
X62698095Y-72802870D02*
X62745714Y-72850489D01*
X62745714Y-72850489D02*
X62793333Y-72945727D01*
X62793333Y-72945727D02*
X62793333Y-73183822D01*
X62793333Y-73183822D02*
X62745714Y-73279060D01*
X62745714Y-73279060D02*
X62698095Y-73326680D01*
X62698095Y-73326680D02*
X62602857Y-73374299D01*
X62602857Y-73374299D02*
X62317143Y-73374299D01*
X62317143Y-73374299D02*
X62221905Y-73326680D01*
X62221905Y-73326680D02*
X62174286Y-73279060D01*
X63412381Y-72374299D02*
X63507619Y-72374299D01*
X63507619Y-72374299D02*
X63602857Y-72421918D01*
X63602857Y-72421918D02*
X63650476Y-72469537D01*
X63650476Y-72469537D02*
X63698095Y-72564775D01*
X63698095Y-72564775D02*
X63745714Y-72755251D01*
X63745714Y-72755251D02*
X63745714Y-72993346D01*
X63745714Y-72993346D02*
X63698095Y-73183822D01*
X63698095Y-73183822D02*
X63650476Y-73279060D01*
X63650476Y-73279060D02*
X63602857Y-73326680D01*
X63602857Y-73326680D02*
X63507619Y-73374299D01*
X63507619Y-73374299D02*
X63412381Y-73374299D01*
X63412381Y-73374299D02*
X63317143Y-73326680D01*
X63317143Y-73326680D02*
X63269524Y-73279060D01*
X63269524Y-73279060D02*
X63221905Y-73183822D01*
X63221905Y-73183822D02*
X63174286Y-72993346D01*
X63174286Y-72993346D02*
X63174286Y-72755251D01*
X63174286Y-72755251D02*
X63221905Y-72564775D01*
X63221905Y-72564775D02*
X63269524Y-72469537D01*
X63269524Y-72469537D02*
X63317143Y-72421918D01*
X63317143Y-72421918D02*
X63412381Y-72374299D01*
X73183809Y-64090489D02*
X72850476Y-64090489D01*
X72850476Y-64614299D02*
X72850476Y-63614299D01*
X72850476Y-63614299D02*
X73326666Y-63614299D01*
X73707619Y-64233346D02*
X74469524Y-64233346D01*
X74088571Y-64614299D02*
X74088571Y-63852394D01*
X85045238Y-66446680D02*
X85188095Y-66494299D01*
X85188095Y-66494299D02*
X85426190Y-66494299D01*
X85426190Y-66494299D02*
X85521428Y-66446680D01*
X85521428Y-66446680D02*
X85569047Y-66399060D01*
X85569047Y-66399060D02*
X85616666Y-66303822D01*
X85616666Y-66303822D02*
X85616666Y-66208584D01*
X85616666Y-66208584D02*
X85569047Y-66113346D01*
X85569047Y-66113346D02*
X85521428Y-66065727D01*
X85521428Y-66065727D02*
X85426190Y-66018108D01*
X85426190Y-66018108D02*
X85235714Y-65970489D01*
X85235714Y-65970489D02*
X85140476Y-65922870D01*
X85140476Y-65922870D02*
X85092857Y-65875251D01*
X85092857Y-65875251D02*
X85045238Y-65780013D01*
X85045238Y-65780013D02*
X85045238Y-65684775D01*
X85045238Y-65684775D02*
X85092857Y-65589537D01*
X85092857Y-65589537D02*
X85140476Y-65541918D01*
X85140476Y-65541918D02*
X85235714Y-65494299D01*
X85235714Y-65494299D02*
X85473809Y-65494299D01*
X85473809Y-65494299D02*
X85616666Y-65541918D01*
X86045238Y-66113346D02*
X86807143Y-66113346D01*
X86426190Y-66494299D02*
X86426190Y-65732394D01*
X75933809Y-60890489D02*
X75600476Y-60890489D01*
X75600476Y-61414299D02*
X75600476Y-60414299D01*
X75600476Y-60414299D02*
X76076666Y-60414299D01*
X76457619Y-61033346D02*
X77219524Y-61033346D01*
X79965238Y-71526680D02*
X80108095Y-71574299D01*
X80108095Y-71574299D02*
X80346190Y-71574299D01*
X80346190Y-71574299D02*
X80441428Y-71526680D01*
X80441428Y-71526680D02*
X80489047Y-71479060D01*
X80489047Y-71479060D02*
X80536666Y-71383822D01*
X80536666Y-71383822D02*
X80536666Y-71288584D01*
X80536666Y-71288584D02*
X80489047Y-71193346D01*
X80489047Y-71193346D02*
X80441428Y-71145727D01*
X80441428Y-71145727D02*
X80346190Y-71098108D01*
X80346190Y-71098108D02*
X80155714Y-71050489D01*
X80155714Y-71050489D02*
X80060476Y-71002870D01*
X80060476Y-71002870D02*
X80012857Y-70955251D01*
X80012857Y-70955251D02*
X79965238Y-70860013D01*
X79965238Y-70860013D02*
X79965238Y-70764775D01*
X79965238Y-70764775D02*
X80012857Y-70669537D01*
X80012857Y-70669537D02*
X80060476Y-70621918D01*
X80060476Y-70621918D02*
X80155714Y-70574299D01*
X80155714Y-70574299D02*
X80393809Y-70574299D01*
X80393809Y-70574299D02*
X80536666Y-70621918D01*
X80965238Y-71193346D02*
X81727143Y-71193346D01*
X76001905Y-73374299D02*
X76001905Y-72374299D01*
X76573333Y-73374299D02*
X76144762Y-72802870D01*
X76573333Y-72374299D02*
X76001905Y-72945727D01*
X76859048Y-72374299D02*
X77192381Y-73374299D01*
X77192381Y-73374299D02*
X77525714Y-72374299D01*
X77859048Y-72993346D02*
X78620953Y-72993346D01*
X79287619Y-72374299D02*
X79382857Y-72374299D01*
X79382857Y-72374299D02*
X79478095Y-72421918D01*
X79478095Y-72421918D02*
X79525714Y-72469537D01*
X79525714Y-72469537D02*
X79573333Y-72564775D01*
X79573333Y-72564775D02*
X79620952Y-72755251D01*
X79620952Y-72755251D02*
X79620952Y-72993346D01*
X79620952Y-72993346D02*
X79573333Y-73183822D01*
X79573333Y-73183822D02*
X79525714Y-73279060D01*
X79525714Y-73279060D02*
X79478095Y-73326680D01*
X79478095Y-73326680D02*
X79382857Y-73374299D01*
X79382857Y-73374299D02*
X79287619Y-73374299D01*
X79287619Y-73374299D02*
X79192381Y-73326680D01*
X79192381Y-73326680D02*
X79144762Y-73279060D01*
X79144762Y-73279060D02*
X79097143Y-73183822D01*
X79097143Y-73183822D02*
X79049524Y-72993346D01*
X79049524Y-72993346D02*
X79049524Y-72755251D01*
X79049524Y-72755251D02*
X79097143Y-72564775D01*
X79097143Y-72564775D02*
X79144762Y-72469537D01*
X79144762Y-72469537D02*
X79192381Y-72421918D01*
X79192381Y-72421918D02*
X79287619Y-72374299D01*
X80525714Y-72374299D02*
X80049524Y-72374299D01*
X80049524Y-72374299D02*
X80001905Y-72850489D01*
X80001905Y-72850489D02*
X80049524Y-72802870D01*
X80049524Y-72802870D02*
X80144762Y-72755251D01*
X80144762Y-72755251D02*
X80382857Y-72755251D01*
X80382857Y-72755251D02*
X80478095Y-72802870D01*
X80478095Y-72802870D02*
X80525714Y-72850489D01*
X80525714Y-72850489D02*
X80573333Y-72945727D01*
X80573333Y-72945727D02*
X80573333Y-73183822D01*
X80573333Y-73183822D02*
X80525714Y-73279060D01*
X80525714Y-73279060D02*
X80478095Y-73326680D01*
X80478095Y-73326680D02*
X80382857Y-73374299D01*
X80382857Y-73374299D02*
X80144762Y-73374299D01*
X80144762Y-73374299D02*
X80049524Y-73326680D01*
X80049524Y-73326680D02*
X80001905Y-73279060D01*
X81192381Y-72374299D02*
X81287619Y-72374299D01*
X81287619Y-72374299D02*
X81382857Y-72421918D01*
X81382857Y-72421918D02*
X81430476Y-72469537D01*
X81430476Y-72469537D02*
X81478095Y-72564775D01*
X81478095Y-72564775D02*
X81525714Y-72755251D01*
X81525714Y-72755251D02*
X81525714Y-72993346D01*
X81525714Y-72993346D02*
X81478095Y-73183822D01*
X81478095Y-73183822D02*
X81430476Y-73279060D01*
X81430476Y-73279060D02*
X81382857Y-73326680D01*
X81382857Y-73326680D02*
X81287619Y-73374299D01*
X81287619Y-73374299D02*
X81192381Y-73374299D01*
X81192381Y-73374299D02*
X81097143Y-73326680D01*
X81097143Y-73326680D02*
X81049524Y-73279060D01*
X81049524Y-73279060D02*
X81001905Y-73183822D01*
X81001905Y-73183822D02*
X80954286Y-72993346D01*
X80954286Y-72993346D02*
X80954286Y-72755251D01*
X80954286Y-72755251D02*
X81001905Y-72564775D01*
X81001905Y-72564775D02*
X81049524Y-72469537D01*
X81049524Y-72469537D02*
X81097143Y-72421918D01*
X81097143Y-72421918D02*
X81192381Y-72374299D01*
X90963809Y-65310489D02*
X90630476Y-65310489D01*
X90630476Y-65834299D02*
X90630476Y-64834299D01*
X90630476Y-64834299D02*
X91106666Y-64834299D01*
X91487619Y-65453346D02*
X92249524Y-65453346D01*
X91868571Y-65834299D02*
X91868571Y-65072394D01*
X129063809Y-65310489D02*
X128730476Y-65310489D01*
X128730476Y-65834299D02*
X128730476Y-64834299D01*
X128730476Y-64834299D02*
X129206666Y-64834299D01*
X129587619Y-65453346D02*
X130349524Y-65453346D01*
X93485238Y-61366680D02*
X93628095Y-61414299D01*
X93628095Y-61414299D02*
X93866190Y-61414299D01*
X93866190Y-61414299D02*
X93961428Y-61366680D01*
X93961428Y-61366680D02*
X94009047Y-61319060D01*
X94009047Y-61319060D02*
X94056666Y-61223822D01*
X94056666Y-61223822D02*
X94056666Y-61128584D01*
X94056666Y-61128584D02*
X94009047Y-61033346D01*
X94009047Y-61033346D02*
X93961428Y-60985727D01*
X93961428Y-60985727D02*
X93866190Y-60938108D01*
X93866190Y-60938108D02*
X93675714Y-60890489D01*
X93675714Y-60890489D02*
X93580476Y-60842870D01*
X93580476Y-60842870D02*
X93532857Y-60795251D01*
X93532857Y-60795251D02*
X93485238Y-60700013D01*
X93485238Y-60700013D02*
X93485238Y-60604775D01*
X93485238Y-60604775D02*
X93532857Y-60509537D01*
X93532857Y-60509537D02*
X93580476Y-60461918D01*
X93580476Y-60461918D02*
X93675714Y-60414299D01*
X93675714Y-60414299D02*
X93913809Y-60414299D01*
X93913809Y-60414299D02*
X94056666Y-60461918D01*
X94485238Y-61033346D02*
X95247143Y-61033346D01*
X94866190Y-61414299D02*
X94866190Y-60652394D01*
X128225238Y-61366680D02*
X128368095Y-61414299D01*
X128368095Y-61414299D02*
X128606190Y-61414299D01*
X128606190Y-61414299D02*
X128701428Y-61366680D01*
X128701428Y-61366680D02*
X128749047Y-61319060D01*
X128749047Y-61319060D02*
X128796666Y-61223822D01*
X128796666Y-61223822D02*
X128796666Y-61128584D01*
X128796666Y-61128584D02*
X128749047Y-61033346D01*
X128749047Y-61033346D02*
X128701428Y-60985727D01*
X128701428Y-60985727D02*
X128606190Y-60938108D01*
X128606190Y-60938108D02*
X128415714Y-60890489D01*
X128415714Y-60890489D02*
X128320476Y-60842870D01*
X128320476Y-60842870D02*
X128272857Y-60795251D01*
X128272857Y-60795251D02*
X128225238Y-60700013D01*
X128225238Y-60700013D02*
X128225238Y-60604775D01*
X128225238Y-60604775D02*
X128272857Y-60509537D01*
X128272857Y-60509537D02*
X128320476Y-60461918D01*
X128320476Y-60461918D02*
X128415714Y-60414299D01*
X128415714Y-60414299D02*
X128653809Y-60414299D01*
X128653809Y-60414299D02*
X128796666Y-60461918D01*
X129225238Y-61033346D02*
X129987143Y-61033346D01*
X107744048Y-65629299D02*
X107744048Y-64629299D01*
X107744048Y-64629299D02*
X107982143Y-64629299D01*
X107982143Y-64629299D02*
X108125000Y-64676918D01*
X108125000Y-64676918D02*
X108220238Y-64772156D01*
X108220238Y-64772156D02*
X108267857Y-64867394D01*
X108267857Y-64867394D02*
X108315476Y-65057870D01*
X108315476Y-65057870D02*
X108315476Y-65200727D01*
X108315476Y-65200727D02*
X108267857Y-65391203D01*
X108267857Y-65391203D02*
X108220238Y-65486441D01*
X108220238Y-65486441D02*
X108125000Y-65581680D01*
X108125000Y-65581680D02*
X107982143Y-65629299D01*
X107982143Y-65629299D02*
X107744048Y-65629299D01*
X109315476Y-65534060D02*
X109267857Y-65581680D01*
X109267857Y-65581680D02*
X109125000Y-65629299D01*
X109125000Y-65629299D02*
X109029762Y-65629299D01*
X109029762Y-65629299D02*
X108886905Y-65581680D01*
X108886905Y-65581680D02*
X108791667Y-65486441D01*
X108791667Y-65486441D02*
X108744048Y-65391203D01*
X108744048Y-65391203D02*
X108696429Y-65200727D01*
X108696429Y-65200727D02*
X108696429Y-65057870D01*
X108696429Y-65057870D02*
X108744048Y-64867394D01*
X108744048Y-64867394D02*
X108791667Y-64772156D01*
X108791667Y-64772156D02*
X108886905Y-64676918D01*
X108886905Y-64676918D02*
X109029762Y-64629299D01*
X109029762Y-64629299D02*
X109125000Y-64629299D01*
X109125000Y-64629299D02*
X109267857Y-64676918D01*
X109267857Y-64676918D02*
X109315476Y-64724537D01*
X109744048Y-65248346D02*
X110505953Y-65248346D01*
X111172619Y-64629299D02*
X111267857Y-64629299D01*
X111267857Y-64629299D02*
X111363095Y-64676918D01*
X111363095Y-64676918D02*
X111410714Y-64724537D01*
X111410714Y-64724537D02*
X111458333Y-64819775D01*
X111458333Y-64819775D02*
X111505952Y-65010251D01*
X111505952Y-65010251D02*
X111505952Y-65248346D01*
X111505952Y-65248346D02*
X111458333Y-65438822D01*
X111458333Y-65438822D02*
X111410714Y-65534060D01*
X111410714Y-65534060D02*
X111363095Y-65581680D01*
X111363095Y-65581680D02*
X111267857Y-65629299D01*
X111267857Y-65629299D02*
X111172619Y-65629299D01*
X111172619Y-65629299D02*
X111077381Y-65581680D01*
X111077381Y-65581680D02*
X111029762Y-65534060D01*
X111029762Y-65534060D02*
X110982143Y-65438822D01*
X110982143Y-65438822D02*
X110934524Y-65248346D01*
X110934524Y-65248346D02*
X110934524Y-65010251D01*
X110934524Y-65010251D02*
X110982143Y-64819775D01*
X110982143Y-64819775D02*
X111029762Y-64724537D01*
X111029762Y-64724537D02*
X111077381Y-64676918D01*
X111077381Y-64676918D02*
X111172619Y-64629299D01*
X111839286Y-64629299D02*
X112458333Y-64629299D01*
X112458333Y-64629299D02*
X112125000Y-65010251D01*
X112125000Y-65010251D02*
X112267857Y-65010251D01*
X112267857Y-65010251D02*
X112363095Y-65057870D01*
X112363095Y-65057870D02*
X112410714Y-65105489D01*
X112410714Y-65105489D02*
X112458333Y-65200727D01*
X112458333Y-65200727D02*
X112458333Y-65438822D01*
X112458333Y-65438822D02*
X112410714Y-65534060D01*
X112410714Y-65534060D02*
X112363095Y-65581680D01*
X112363095Y-65581680D02*
X112267857Y-65629299D01*
X112267857Y-65629299D02*
X111982143Y-65629299D01*
X111982143Y-65629299D02*
X111886905Y-65581680D01*
X111886905Y-65581680D02*
X111839286Y-65534060D01*
X113077381Y-64629299D02*
X113172619Y-64629299D01*
X113172619Y-64629299D02*
X113267857Y-64676918D01*
X113267857Y-64676918D02*
X113315476Y-64724537D01*
X113315476Y-64724537D02*
X113363095Y-64819775D01*
X113363095Y-64819775D02*
X113410714Y-65010251D01*
X113410714Y-65010251D02*
X113410714Y-65248346D01*
X113410714Y-65248346D02*
X113363095Y-65438822D01*
X113363095Y-65438822D02*
X113315476Y-65534060D01*
X113315476Y-65534060D02*
X113267857Y-65581680D01*
X113267857Y-65581680D02*
X113172619Y-65629299D01*
X113172619Y-65629299D02*
X113077381Y-65629299D01*
X113077381Y-65629299D02*
X112982143Y-65581680D01*
X112982143Y-65581680D02*
X112934524Y-65534060D01*
X112934524Y-65534060D02*
X112886905Y-65438822D01*
X112886905Y-65438822D02*
X112839286Y-65248346D01*
X112839286Y-65248346D02*
X112839286Y-65010251D01*
X112839286Y-65010251D02*
X112886905Y-64819775D01*
X112886905Y-64819775D02*
X112934524Y-64724537D01*
X112934524Y-64724537D02*
X112982143Y-64676918D01*
X112982143Y-64676918D02*
X113077381Y-64629299D01*
X113744048Y-64629299D02*
X113982143Y-65629299D01*
X113982143Y-65629299D02*
X114172619Y-64915013D01*
X114172619Y-64915013D02*
X114363095Y-65629299D01*
X114363095Y-65629299D02*
X114601191Y-64629299D01*
X90963809Y-72930489D02*
X90630476Y-72930489D01*
X90630476Y-73454299D02*
X90630476Y-72454299D01*
X90630476Y-72454299D02*
X91106666Y-72454299D01*
X91487619Y-73073346D02*
X92249524Y-73073346D01*
X91868571Y-73454299D02*
X91868571Y-72692394D01*
X129063809Y-72930489D02*
X128730476Y-72930489D01*
X128730476Y-73454299D02*
X128730476Y-72454299D01*
X128730476Y-72454299D02*
X129206666Y-72454299D01*
X129587619Y-73073346D02*
X130349524Y-73073346D01*
X93485238Y-68986680D02*
X93628095Y-69034299D01*
X93628095Y-69034299D02*
X93866190Y-69034299D01*
X93866190Y-69034299D02*
X93961428Y-68986680D01*
X93961428Y-68986680D02*
X94009047Y-68939060D01*
X94009047Y-68939060D02*
X94056666Y-68843822D01*
X94056666Y-68843822D02*
X94056666Y-68748584D01*
X94056666Y-68748584D02*
X94009047Y-68653346D01*
X94009047Y-68653346D02*
X93961428Y-68605727D01*
X93961428Y-68605727D02*
X93866190Y-68558108D01*
X93866190Y-68558108D02*
X93675714Y-68510489D01*
X93675714Y-68510489D02*
X93580476Y-68462870D01*
X93580476Y-68462870D02*
X93532857Y-68415251D01*
X93532857Y-68415251D02*
X93485238Y-68320013D01*
X93485238Y-68320013D02*
X93485238Y-68224775D01*
X93485238Y-68224775D02*
X93532857Y-68129537D01*
X93532857Y-68129537D02*
X93580476Y-68081918D01*
X93580476Y-68081918D02*
X93675714Y-68034299D01*
X93675714Y-68034299D02*
X93913809Y-68034299D01*
X93913809Y-68034299D02*
X94056666Y-68081918D01*
X94485238Y-68653346D02*
X95247143Y-68653346D01*
X94866190Y-69034299D02*
X94866190Y-68272394D01*
X128225238Y-68986680D02*
X128368095Y-69034299D01*
X128368095Y-69034299D02*
X128606190Y-69034299D01*
X128606190Y-69034299D02*
X128701428Y-68986680D01*
X128701428Y-68986680D02*
X128749047Y-68939060D01*
X128749047Y-68939060D02*
X128796666Y-68843822D01*
X128796666Y-68843822D02*
X128796666Y-68748584D01*
X128796666Y-68748584D02*
X128749047Y-68653346D01*
X128749047Y-68653346D02*
X128701428Y-68605727D01*
X128701428Y-68605727D02*
X128606190Y-68558108D01*
X128606190Y-68558108D02*
X128415714Y-68510489D01*
X128415714Y-68510489D02*
X128320476Y-68462870D01*
X128320476Y-68462870D02*
X128272857Y-68415251D01*
X128272857Y-68415251D02*
X128225238Y-68320013D01*
X128225238Y-68320013D02*
X128225238Y-68224775D01*
X128225238Y-68224775D02*
X128272857Y-68129537D01*
X128272857Y-68129537D02*
X128320476Y-68081918D01*
X128320476Y-68081918D02*
X128415714Y-68034299D01*
X128415714Y-68034299D02*
X128653809Y-68034299D01*
X128653809Y-68034299D02*
X128796666Y-68081918D01*
X129225238Y-68653346D02*
X129987143Y-68653346D01*
X107744048Y-73374299D02*
X107744048Y-72374299D01*
X107744048Y-72374299D02*
X107982143Y-72374299D01*
X107982143Y-72374299D02*
X108125000Y-72421918D01*
X108125000Y-72421918D02*
X108220238Y-72517156D01*
X108220238Y-72517156D02*
X108267857Y-72612394D01*
X108267857Y-72612394D02*
X108315476Y-72802870D01*
X108315476Y-72802870D02*
X108315476Y-72945727D01*
X108315476Y-72945727D02*
X108267857Y-73136203D01*
X108267857Y-73136203D02*
X108220238Y-73231441D01*
X108220238Y-73231441D02*
X108125000Y-73326680D01*
X108125000Y-73326680D02*
X107982143Y-73374299D01*
X107982143Y-73374299D02*
X107744048Y-73374299D01*
X109315476Y-73279060D02*
X109267857Y-73326680D01*
X109267857Y-73326680D02*
X109125000Y-73374299D01*
X109125000Y-73374299D02*
X109029762Y-73374299D01*
X109029762Y-73374299D02*
X108886905Y-73326680D01*
X108886905Y-73326680D02*
X108791667Y-73231441D01*
X108791667Y-73231441D02*
X108744048Y-73136203D01*
X108744048Y-73136203D02*
X108696429Y-72945727D01*
X108696429Y-72945727D02*
X108696429Y-72802870D01*
X108696429Y-72802870D02*
X108744048Y-72612394D01*
X108744048Y-72612394D02*
X108791667Y-72517156D01*
X108791667Y-72517156D02*
X108886905Y-72421918D01*
X108886905Y-72421918D02*
X109029762Y-72374299D01*
X109029762Y-72374299D02*
X109125000Y-72374299D01*
X109125000Y-72374299D02*
X109267857Y-72421918D01*
X109267857Y-72421918D02*
X109315476Y-72469537D01*
X109744048Y-72993346D02*
X110505953Y-72993346D01*
X111172619Y-72374299D02*
X111267857Y-72374299D01*
X111267857Y-72374299D02*
X111363095Y-72421918D01*
X111363095Y-72421918D02*
X111410714Y-72469537D01*
X111410714Y-72469537D02*
X111458333Y-72564775D01*
X111458333Y-72564775D02*
X111505952Y-72755251D01*
X111505952Y-72755251D02*
X111505952Y-72993346D01*
X111505952Y-72993346D02*
X111458333Y-73183822D01*
X111458333Y-73183822D02*
X111410714Y-73279060D01*
X111410714Y-73279060D02*
X111363095Y-73326680D01*
X111363095Y-73326680D02*
X111267857Y-73374299D01*
X111267857Y-73374299D02*
X111172619Y-73374299D01*
X111172619Y-73374299D02*
X111077381Y-73326680D01*
X111077381Y-73326680D02*
X111029762Y-73279060D01*
X111029762Y-73279060D02*
X110982143Y-73183822D01*
X110982143Y-73183822D02*
X110934524Y-72993346D01*
X110934524Y-72993346D02*
X110934524Y-72755251D01*
X110934524Y-72755251D02*
X110982143Y-72564775D01*
X110982143Y-72564775D02*
X111029762Y-72469537D01*
X111029762Y-72469537D02*
X111077381Y-72421918D01*
X111077381Y-72421918D02*
X111172619Y-72374299D01*
X112410714Y-72374299D02*
X111934524Y-72374299D01*
X111934524Y-72374299D02*
X111886905Y-72850489D01*
X111886905Y-72850489D02*
X111934524Y-72802870D01*
X111934524Y-72802870D02*
X112029762Y-72755251D01*
X112029762Y-72755251D02*
X112267857Y-72755251D01*
X112267857Y-72755251D02*
X112363095Y-72802870D01*
X112363095Y-72802870D02*
X112410714Y-72850489D01*
X112410714Y-72850489D02*
X112458333Y-72945727D01*
X112458333Y-72945727D02*
X112458333Y-73183822D01*
X112458333Y-73183822D02*
X112410714Y-73279060D01*
X112410714Y-73279060D02*
X112363095Y-73326680D01*
X112363095Y-73326680D02*
X112267857Y-73374299D01*
X112267857Y-73374299D02*
X112029762Y-73374299D01*
X112029762Y-73374299D02*
X111934524Y-73326680D01*
X111934524Y-73326680D02*
X111886905Y-73279060D01*
X113077381Y-72374299D02*
X113172619Y-72374299D01*
X113172619Y-72374299D02*
X113267857Y-72421918D01*
X113267857Y-72421918D02*
X113315476Y-72469537D01*
X113315476Y-72469537D02*
X113363095Y-72564775D01*
X113363095Y-72564775D02*
X113410714Y-72755251D01*
X113410714Y-72755251D02*
X113410714Y-72993346D01*
X113410714Y-72993346D02*
X113363095Y-73183822D01*
X113363095Y-73183822D02*
X113315476Y-73279060D01*
X113315476Y-73279060D02*
X113267857Y-73326680D01*
X113267857Y-73326680D02*
X113172619Y-73374299D01*
X113172619Y-73374299D02*
X113077381Y-73374299D01*
X113077381Y-73374299D02*
X112982143Y-73326680D01*
X112982143Y-73326680D02*
X112934524Y-73279060D01*
X112934524Y-73279060D02*
X112886905Y-73183822D01*
X112886905Y-73183822D02*
X112839286Y-72993346D01*
X112839286Y-72993346D02*
X112839286Y-72755251D01*
X112839286Y-72755251D02*
X112886905Y-72564775D01*
X112886905Y-72564775D02*
X112934524Y-72469537D01*
X112934524Y-72469537D02*
X112982143Y-72421918D01*
X112982143Y-72421918D02*
X113077381Y-72374299D01*
X113744048Y-72374299D02*
X113982143Y-73374299D01*
X113982143Y-73374299D02*
X114172619Y-72660013D01*
X114172619Y-72660013D02*
X114363095Y-73374299D01*
X114363095Y-73374299D02*
X114601191Y-72374299D01*
X144541905Y-70428584D02*
X145018095Y-70428584D01*
X144446667Y-70714299D02*
X144780000Y-69714299D01*
X144780000Y-69714299D02*
X145113333Y-70714299D01*
X141426428Y-63430489D02*
X141569285Y-63478108D01*
X141569285Y-63478108D02*
X141616904Y-63525727D01*
X141616904Y-63525727D02*
X141664523Y-63620965D01*
X141664523Y-63620965D02*
X141664523Y-63763822D01*
X141664523Y-63763822D02*
X141616904Y-63859060D01*
X141616904Y-63859060D02*
X141569285Y-63906680D01*
X141569285Y-63906680D02*
X141474047Y-63954299D01*
X141474047Y-63954299D02*
X141093095Y-63954299D01*
X141093095Y-63954299D02*
X141093095Y-62954299D01*
X141093095Y-62954299D02*
X141426428Y-62954299D01*
X141426428Y-62954299D02*
X141521666Y-63001918D01*
X141521666Y-63001918D02*
X141569285Y-63049537D01*
X141569285Y-63049537D02*
X141616904Y-63144775D01*
X141616904Y-63144775D02*
X141616904Y-63240013D01*
X141616904Y-63240013D02*
X141569285Y-63335251D01*
X141569285Y-63335251D02*
X141521666Y-63382870D01*
X141521666Y-63382870D02*
X141426428Y-63430489D01*
X141426428Y-63430489D02*
X141093095Y-63430489D01*
X134929523Y-67259060D02*
X134881904Y-67306680D01*
X134881904Y-67306680D02*
X134739047Y-67354299D01*
X134739047Y-67354299D02*
X134643809Y-67354299D01*
X134643809Y-67354299D02*
X134500952Y-67306680D01*
X134500952Y-67306680D02*
X134405714Y-67211441D01*
X134405714Y-67211441D02*
X134358095Y-67116203D01*
X134358095Y-67116203D02*
X134310476Y-66925727D01*
X134310476Y-66925727D02*
X134310476Y-66782870D01*
X134310476Y-66782870D02*
X134358095Y-66592394D01*
X134358095Y-66592394D02*
X134405714Y-66497156D01*
X134405714Y-66497156D02*
X134500952Y-66401918D01*
X134500952Y-66401918D02*
X134643809Y-66354299D01*
X134643809Y-66354299D02*
X134739047Y-66354299D01*
X134739047Y-66354299D02*
X134881904Y-66401918D01*
X134881904Y-66401918D02*
X134929523Y-66449537D01*
X137783095Y-74114299D02*
X137783095Y-73114299D01*
X137783095Y-73114299D02*
X138021190Y-73114299D01*
X138021190Y-73114299D02*
X138164047Y-73161918D01*
X138164047Y-73161918D02*
X138259285Y-73257156D01*
X138259285Y-73257156D02*
X138306904Y-73352394D01*
X138306904Y-73352394D02*
X138354523Y-73542870D01*
X138354523Y-73542870D02*
X138354523Y-73685727D01*
X138354523Y-73685727D02*
X138306904Y-73876203D01*
X138306904Y-73876203D02*
X138259285Y-73971441D01*
X138259285Y-73971441D02*
X138164047Y-74066680D01*
X138164047Y-74066680D02*
X138021190Y-74114299D01*
X138021190Y-74114299D02*
X137783095Y-74114299D01*
X136842857Y-61354299D02*
X137176190Y-62354299D01*
X137176190Y-62354299D02*
X137509523Y-61354299D01*
X137842857Y-62354299D02*
X137842857Y-61354299D01*
X137842857Y-61354299D02*
X138080952Y-61354299D01*
X138080952Y-61354299D02*
X138223809Y-61401918D01*
X138223809Y-61401918D02*
X138319047Y-61497156D01*
X138319047Y-61497156D02*
X138366666Y-61592394D01*
X138366666Y-61592394D02*
X138414285Y-61782870D01*
X138414285Y-61782870D02*
X138414285Y-61925727D01*
X138414285Y-61925727D02*
X138366666Y-62116203D01*
X138366666Y-62116203D02*
X138319047Y-62211441D01*
X138319047Y-62211441D02*
X138223809Y-62306680D01*
X138223809Y-62306680D02*
X138080952Y-62354299D01*
X138080952Y-62354299D02*
X137842857Y-62354299D01*
X138842857Y-62354299D02*
X138842857Y-61354299D01*
X138842857Y-61354299D02*
X139223809Y-61354299D01*
X139223809Y-61354299D02*
X139319047Y-61401918D01*
X139319047Y-61401918D02*
X139366666Y-61449537D01*
X139366666Y-61449537D02*
X139414285Y-61544775D01*
X139414285Y-61544775D02*
X139414285Y-61687632D01*
X139414285Y-61687632D02*
X139366666Y-61782870D01*
X139366666Y-61782870D02*
X139319047Y-61830489D01*
X139319047Y-61830489D02*
X139223809Y-61878108D01*
X139223809Y-61878108D02*
X138842857Y-61878108D01*
X139842857Y-61973346D02*
X140604762Y-61973346D01*
X141414285Y-61830489D02*
X141080952Y-61830489D01*
X141080952Y-62354299D02*
X141080952Y-61354299D01*
X141080952Y-61354299D02*
X141557142Y-61354299D01*
X141842857Y-61354299D02*
X142461904Y-61354299D01*
X142461904Y-61354299D02*
X142128571Y-61735251D01*
X142128571Y-61735251D02*
X142271428Y-61735251D01*
X142271428Y-61735251D02*
X142366666Y-61782870D01*
X142366666Y-61782870D02*
X142414285Y-61830489D01*
X142414285Y-61830489D02*
X142461904Y-61925727D01*
X142461904Y-61925727D02*
X142461904Y-62163822D01*
X142461904Y-62163822D02*
X142414285Y-62259060D01*
X142414285Y-62259060D02*
X142366666Y-62306680D01*
X142366666Y-62306680D02*
X142271428Y-62354299D01*
X142271428Y-62354299D02*
X141985714Y-62354299D01*
X141985714Y-62354299D02*
X141890476Y-62306680D01*
X141890476Y-62306680D02*
X141842857Y-62259060D01*
X55403809Y-79330489D02*
X55070476Y-79330489D01*
X55070476Y-79854299D02*
X55070476Y-78854299D01*
X55070476Y-78854299D02*
X55546666Y-78854299D01*
X55927619Y-79473346D02*
X56689524Y-79473346D01*
X56308571Y-79854299D02*
X56308571Y-79092394D01*
X144303809Y-79330489D02*
X143970476Y-79330489D01*
X143970476Y-79854299D02*
X143970476Y-78854299D01*
X143970476Y-78854299D02*
X144446666Y-78854299D01*
X144827619Y-79473346D02*
X145589524Y-79473346D01*
X57925238Y-79146680D02*
X58068095Y-79194299D01*
X58068095Y-79194299D02*
X58306190Y-79194299D01*
X58306190Y-79194299D02*
X58401428Y-79146680D01*
X58401428Y-79146680D02*
X58449047Y-79099060D01*
X58449047Y-79099060D02*
X58496666Y-79003822D01*
X58496666Y-79003822D02*
X58496666Y-78908584D01*
X58496666Y-78908584D02*
X58449047Y-78813346D01*
X58449047Y-78813346D02*
X58401428Y-78765727D01*
X58401428Y-78765727D02*
X58306190Y-78718108D01*
X58306190Y-78718108D02*
X58115714Y-78670489D01*
X58115714Y-78670489D02*
X58020476Y-78622870D01*
X58020476Y-78622870D02*
X57972857Y-78575251D01*
X57972857Y-78575251D02*
X57925238Y-78480013D01*
X57925238Y-78480013D02*
X57925238Y-78384775D01*
X57925238Y-78384775D02*
X57972857Y-78289537D01*
X57972857Y-78289537D02*
X58020476Y-78241918D01*
X58020476Y-78241918D02*
X58115714Y-78194299D01*
X58115714Y-78194299D02*
X58353809Y-78194299D01*
X58353809Y-78194299D02*
X58496666Y-78241918D01*
X58925238Y-78813346D02*
X59687143Y-78813346D01*
X59306190Y-79194299D02*
X59306190Y-78432394D01*
X140925238Y-79146680D02*
X141068095Y-79194299D01*
X141068095Y-79194299D02*
X141306190Y-79194299D01*
X141306190Y-79194299D02*
X141401428Y-79146680D01*
X141401428Y-79146680D02*
X141449047Y-79099060D01*
X141449047Y-79099060D02*
X141496666Y-79003822D01*
X141496666Y-79003822D02*
X141496666Y-78908584D01*
X141496666Y-78908584D02*
X141449047Y-78813346D01*
X141449047Y-78813346D02*
X141401428Y-78765727D01*
X141401428Y-78765727D02*
X141306190Y-78718108D01*
X141306190Y-78718108D02*
X141115714Y-78670489D01*
X141115714Y-78670489D02*
X141020476Y-78622870D01*
X141020476Y-78622870D02*
X140972857Y-78575251D01*
X140972857Y-78575251D02*
X140925238Y-78480013D01*
X140925238Y-78480013D02*
X140925238Y-78384775D01*
X140925238Y-78384775D02*
X140972857Y-78289537D01*
X140972857Y-78289537D02*
X141020476Y-78241918D01*
X141020476Y-78241918D02*
X141115714Y-78194299D01*
X141115714Y-78194299D02*
X141353809Y-78194299D01*
X141353809Y-78194299D02*
X141496666Y-78241918D01*
X141925238Y-78813346D02*
X142687143Y-78813346D01*
X97044285Y-83534299D02*
X96568095Y-83534299D01*
X96568095Y-83534299D02*
X96568095Y-82534299D01*
X97710952Y-83010489D02*
X97853809Y-83058108D01*
X97853809Y-83058108D02*
X97901428Y-83105727D01*
X97901428Y-83105727D02*
X97949047Y-83200965D01*
X97949047Y-83200965D02*
X97949047Y-83343822D01*
X97949047Y-83343822D02*
X97901428Y-83439060D01*
X97901428Y-83439060D02*
X97853809Y-83486680D01*
X97853809Y-83486680D02*
X97758571Y-83534299D01*
X97758571Y-83534299D02*
X97377619Y-83534299D01*
X97377619Y-83534299D02*
X97377619Y-82534299D01*
X97377619Y-82534299D02*
X97710952Y-82534299D01*
X97710952Y-82534299D02*
X97806190Y-82581918D01*
X97806190Y-82581918D02*
X97853809Y-82629537D01*
X97853809Y-82629537D02*
X97901428Y-82724775D01*
X97901428Y-82724775D02*
X97901428Y-82820013D01*
X97901428Y-82820013D02*
X97853809Y-82915251D01*
X97853809Y-82915251D02*
X97806190Y-82962870D01*
X97806190Y-82962870D02*
X97710952Y-83010489D01*
X97710952Y-83010489D02*
X97377619Y-83010489D01*
X98377619Y-83153346D02*
X99139524Y-83153346D01*
X99949047Y-83010489D02*
X99615714Y-83010489D01*
X99615714Y-83534299D02*
X99615714Y-82534299D01*
X99615714Y-82534299D02*
X100091904Y-82534299D01*
X100472857Y-83153346D02*
X101234762Y-83153346D01*
X102234761Y-83534299D02*
X101663333Y-83534299D01*
X101949047Y-83534299D02*
X101949047Y-82534299D01*
X101949047Y-82534299D02*
X101853809Y-82677156D01*
X101853809Y-82677156D02*
X101758571Y-82772394D01*
X101758571Y-82772394D02*
X101663333Y-82820013D01*
X102853809Y-82534299D02*
X102949047Y-82534299D01*
X102949047Y-82534299D02*
X103044285Y-82581918D01*
X103044285Y-82581918D02*
X103091904Y-82629537D01*
X103091904Y-82629537D02*
X103139523Y-82724775D01*
X103139523Y-82724775D02*
X103187142Y-82915251D01*
X103187142Y-82915251D02*
X103187142Y-83153346D01*
X103187142Y-83153346D02*
X103139523Y-83343822D01*
X103139523Y-83343822D02*
X103091904Y-83439060D01*
X103091904Y-83439060D02*
X103044285Y-83486680D01*
X103044285Y-83486680D02*
X102949047Y-83534299D01*
X102949047Y-83534299D02*
X102853809Y-83534299D01*
X102853809Y-83534299D02*
X102758571Y-83486680D01*
X102758571Y-83486680D02*
X102710952Y-83439060D01*
X102710952Y-83439060D02*
X102663333Y-83343822D01*
X102663333Y-83343822D02*
X102615714Y-83153346D01*
X102615714Y-83153346D02*
X102615714Y-82915251D01*
X102615714Y-82915251D02*
X102663333Y-82724775D01*
X102663333Y-82724775D02*
X102710952Y-82629537D01*
X102710952Y-82629537D02*
X102758571Y-82581918D01*
X102758571Y-82581918D02*
X102853809Y-82534299D01*
X103806190Y-82534299D02*
X103901428Y-82534299D01*
X103901428Y-82534299D02*
X103996666Y-82581918D01*
X103996666Y-82581918D02*
X104044285Y-82629537D01*
X104044285Y-82629537D02*
X104091904Y-82724775D01*
X104091904Y-82724775D02*
X104139523Y-82915251D01*
X104139523Y-82915251D02*
X104139523Y-83153346D01*
X104139523Y-83153346D02*
X104091904Y-83343822D01*
X104091904Y-83343822D02*
X104044285Y-83439060D01*
X104044285Y-83439060D02*
X103996666Y-83486680D01*
X103996666Y-83486680D02*
X103901428Y-83534299D01*
X103901428Y-83534299D02*
X103806190Y-83534299D01*
X103806190Y-83534299D02*
X103710952Y-83486680D01*
X103710952Y-83486680D02*
X103663333Y-83439060D01*
X103663333Y-83439060D02*
X103615714Y-83343822D01*
X103615714Y-83343822D02*
X103568095Y-83153346D01*
X103568095Y-83153346D02*
X103568095Y-82915251D01*
X103568095Y-82915251D02*
X103615714Y-82724775D01*
X103615714Y-82724775D02*
X103663333Y-82629537D01*
X103663333Y-82629537D02*
X103710952Y-82581918D01*
X103710952Y-82581918D02*
X103806190Y-82534299D01*
X55403809Y-87990489D02*
X55070476Y-87990489D01*
X55070476Y-88514299D02*
X55070476Y-87514299D01*
X55070476Y-87514299D02*
X55546666Y-87514299D01*
X55927619Y-88133346D02*
X56689524Y-88133346D01*
X56308571Y-88514299D02*
X56308571Y-87752394D01*
X93503809Y-87990489D02*
X93170476Y-87990489D01*
X93170476Y-88514299D02*
X93170476Y-87514299D01*
X93170476Y-87514299D02*
X93646666Y-87514299D01*
X94027619Y-88133346D02*
X94789524Y-88133346D01*
X65545238Y-86766680D02*
X65688095Y-86814299D01*
X65688095Y-86814299D02*
X65926190Y-86814299D01*
X65926190Y-86814299D02*
X66021428Y-86766680D01*
X66021428Y-86766680D02*
X66069047Y-86719060D01*
X66069047Y-86719060D02*
X66116666Y-86623822D01*
X66116666Y-86623822D02*
X66116666Y-86528584D01*
X66116666Y-86528584D02*
X66069047Y-86433346D01*
X66069047Y-86433346D02*
X66021428Y-86385727D01*
X66021428Y-86385727D02*
X65926190Y-86338108D01*
X65926190Y-86338108D02*
X65735714Y-86290489D01*
X65735714Y-86290489D02*
X65640476Y-86242870D01*
X65640476Y-86242870D02*
X65592857Y-86195251D01*
X65592857Y-86195251D02*
X65545238Y-86100013D01*
X65545238Y-86100013D02*
X65545238Y-86004775D01*
X65545238Y-86004775D02*
X65592857Y-85909537D01*
X65592857Y-85909537D02*
X65640476Y-85861918D01*
X65640476Y-85861918D02*
X65735714Y-85814299D01*
X65735714Y-85814299D02*
X65973809Y-85814299D01*
X65973809Y-85814299D02*
X66116666Y-85861918D01*
X66545238Y-86433346D02*
X67307143Y-86433346D01*
X66926190Y-86814299D02*
X66926190Y-86052394D01*
X82505238Y-86766680D02*
X82648095Y-86814299D01*
X82648095Y-86814299D02*
X82886190Y-86814299D01*
X82886190Y-86814299D02*
X82981428Y-86766680D01*
X82981428Y-86766680D02*
X83029047Y-86719060D01*
X83029047Y-86719060D02*
X83076666Y-86623822D01*
X83076666Y-86623822D02*
X83076666Y-86528584D01*
X83076666Y-86528584D02*
X83029047Y-86433346D01*
X83029047Y-86433346D02*
X82981428Y-86385727D01*
X82981428Y-86385727D02*
X82886190Y-86338108D01*
X82886190Y-86338108D02*
X82695714Y-86290489D01*
X82695714Y-86290489D02*
X82600476Y-86242870D01*
X82600476Y-86242870D02*
X82552857Y-86195251D01*
X82552857Y-86195251D02*
X82505238Y-86100013D01*
X82505238Y-86100013D02*
X82505238Y-86004775D01*
X82505238Y-86004775D02*
X82552857Y-85909537D01*
X82552857Y-85909537D02*
X82600476Y-85861918D01*
X82600476Y-85861918D02*
X82695714Y-85814299D01*
X82695714Y-85814299D02*
X82933809Y-85814299D01*
X82933809Y-85814299D02*
X83076666Y-85861918D01*
X83505238Y-86433346D02*
X84267143Y-86433346D01*
X73668095Y-95694299D02*
X73668095Y-94694299D01*
X73668095Y-94694299D02*
X74239523Y-95694299D01*
X74239523Y-95694299D02*
X74239523Y-94694299D01*
X74715714Y-95694299D02*
X74715714Y-94694299D01*
X75287142Y-95694299D02*
X74858571Y-95122870D01*
X75287142Y-94694299D02*
X74715714Y-95265727D01*
X76239523Y-95694299D02*
X75668095Y-95694299D01*
X75953809Y-95694299D02*
X75953809Y-94694299D01*
X75953809Y-94694299D02*
X75858571Y-94837156D01*
X75858571Y-94837156D02*
X75763333Y-94932394D01*
X75763333Y-94932394D02*
X75668095Y-94980013D01*
X108981905Y-95828584D02*
X109458095Y-95828584D01*
X108886667Y-96114299D02*
X109220000Y-95114299D01*
X109220000Y-95114299D02*
X109553333Y-96114299D01*
X105866428Y-88830489D02*
X106009285Y-88878108D01*
X106009285Y-88878108D02*
X106056904Y-88925727D01*
X106056904Y-88925727D02*
X106104523Y-89020965D01*
X106104523Y-89020965D02*
X106104523Y-89163822D01*
X106104523Y-89163822D02*
X106056904Y-89259060D01*
X106056904Y-89259060D02*
X106009285Y-89306680D01*
X106009285Y-89306680D02*
X105914047Y-89354299D01*
X105914047Y-89354299D02*
X105533095Y-89354299D01*
X105533095Y-89354299D02*
X105533095Y-88354299D01*
X105533095Y-88354299D02*
X105866428Y-88354299D01*
X105866428Y-88354299D02*
X105961666Y-88401918D01*
X105961666Y-88401918D02*
X106009285Y-88449537D01*
X106009285Y-88449537D02*
X106056904Y-88544775D01*
X106056904Y-88544775D02*
X106056904Y-88640013D01*
X106056904Y-88640013D02*
X106009285Y-88735251D01*
X106009285Y-88735251D02*
X105961666Y-88782870D01*
X105961666Y-88782870D02*
X105866428Y-88830489D01*
X105866428Y-88830489D02*
X105533095Y-88830489D01*
X99369523Y-92659060D02*
X99321904Y-92706680D01*
X99321904Y-92706680D02*
X99179047Y-92754299D01*
X99179047Y-92754299D02*
X99083809Y-92754299D01*
X99083809Y-92754299D02*
X98940952Y-92706680D01*
X98940952Y-92706680D02*
X98845714Y-92611441D01*
X98845714Y-92611441D02*
X98798095Y-92516203D01*
X98798095Y-92516203D02*
X98750476Y-92325727D01*
X98750476Y-92325727D02*
X98750476Y-92182870D01*
X98750476Y-92182870D02*
X98798095Y-91992394D01*
X98798095Y-91992394D02*
X98845714Y-91897156D01*
X98845714Y-91897156D02*
X98940952Y-91801918D01*
X98940952Y-91801918D02*
X99083809Y-91754299D01*
X99083809Y-91754299D02*
X99179047Y-91754299D01*
X99179047Y-91754299D02*
X99321904Y-91801918D01*
X99321904Y-91801918D02*
X99369523Y-91849537D01*
X102223095Y-99514299D02*
X102223095Y-98514299D01*
X102223095Y-98514299D02*
X102461190Y-98514299D01*
X102461190Y-98514299D02*
X102604047Y-98561918D01*
X102604047Y-98561918D02*
X102699285Y-98657156D01*
X102699285Y-98657156D02*
X102746904Y-98752394D01*
X102746904Y-98752394D02*
X102794523Y-98942870D01*
X102794523Y-98942870D02*
X102794523Y-99085727D01*
X102794523Y-99085727D02*
X102746904Y-99276203D01*
X102746904Y-99276203D02*
X102699285Y-99371441D01*
X102699285Y-99371441D02*
X102604047Y-99466680D01*
X102604047Y-99466680D02*
X102461190Y-99514299D01*
X102461190Y-99514299D02*
X102223095Y-99514299D01*
X101282857Y-86754299D02*
X101616190Y-87754299D01*
X101616190Y-87754299D02*
X101949523Y-86754299D01*
X102282857Y-87754299D02*
X102282857Y-86754299D01*
X102282857Y-86754299D02*
X102520952Y-86754299D01*
X102520952Y-86754299D02*
X102663809Y-86801918D01*
X102663809Y-86801918D02*
X102759047Y-86897156D01*
X102759047Y-86897156D02*
X102806666Y-86992394D01*
X102806666Y-86992394D02*
X102854285Y-87182870D01*
X102854285Y-87182870D02*
X102854285Y-87325727D01*
X102854285Y-87325727D02*
X102806666Y-87516203D01*
X102806666Y-87516203D02*
X102759047Y-87611441D01*
X102759047Y-87611441D02*
X102663809Y-87706680D01*
X102663809Y-87706680D02*
X102520952Y-87754299D01*
X102520952Y-87754299D02*
X102282857Y-87754299D01*
X103282857Y-87754299D02*
X103282857Y-86754299D01*
X103282857Y-86754299D02*
X103663809Y-86754299D01*
X103663809Y-86754299D02*
X103759047Y-86801918D01*
X103759047Y-86801918D02*
X103806666Y-86849537D01*
X103806666Y-86849537D02*
X103854285Y-86944775D01*
X103854285Y-86944775D02*
X103854285Y-87087632D01*
X103854285Y-87087632D02*
X103806666Y-87182870D01*
X103806666Y-87182870D02*
X103759047Y-87230489D01*
X103759047Y-87230489D02*
X103663809Y-87278108D01*
X103663809Y-87278108D02*
X103282857Y-87278108D01*
X104282857Y-87373346D02*
X105044762Y-87373346D01*
X105854285Y-87230489D02*
X105520952Y-87230489D01*
X105520952Y-87754299D02*
X105520952Y-86754299D01*
X105520952Y-86754299D02*
X105997142Y-86754299D01*
X106330476Y-86849537D02*
X106378095Y-86801918D01*
X106378095Y-86801918D02*
X106473333Y-86754299D01*
X106473333Y-86754299D02*
X106711428Y-86754299D01*
X106711428Y-86754299D02*
X106806666Y-86801918D01*
X106806666Y-86801918D02*
X106854285Y-86849537D01*
X106854285Y-86849537D02*
X106901904Y-86944775D01*
X106901904Y-86944775D02*
X106901904Y-87040013D01*
X106901904Y-87040013D02*
X106854285Y-87182870D01*
X106854285Y-87182870D02*
X106282857Y-87754299D01*
X106282857Y-87754299D02*
X106901904Y-87754299D01*
X113823809Y-86950489D02*
X113490476Y-86950489D01*
X113490476Y-87474299D02*
X113490476Y-86474299D01*
X113490476Y-86474299D02*
X113966666Y-86474299D01*
X114347619Y-87093346D02*
X115109524Y-87093346D01*
X114728571Y-87474299D02*
X114728571Y-86712394D01*
X139223809Y-86950489D02*
X138890476Y-86950489D01*
X138890476Y-87474299D02*
X138890476Y-86474299D01*
X138890476Y-86474299D02*
X139366666Y-86474299D01*
X139747619Y-87093346D02*
X140509524Y-87093346D01*
X116345238Y-86766680D02*
X116488095Y-86814299D01*
X116488095Y-86814299D02*
X116726190Y-86814299D01*
X116726190Y-86814299D02*
X116821428Y-86766680D01*
X116821428Y-86766680D02*
X116869047Y-86719060D01*
X116869047Y-86719060D02*
X116916666Y-86623822D01*
X116916666Y-86623822D02*
X116916666Y-86528584D01*
X116916666Y-86528584D02*
X116869047Y-86433346D01*
X116869047Y-86433346D02*
X116821428Y-86385727D01*
X116821428Y-86385727D02*
X116726190Y-86338108D01*
X116726190Y-86338108D02*
X116535714Y-86290489D01*
X116535714Y-86290489D02*
X116440476Y-86242870D01*
X116440476Y-86242870D02*
X116392857Y-86195251D01*
X116392857Y-86195251D02*
X116345238Y-86100013D01*
X116345238Y-86100013D02*
X116345238Y-86004775D01*
X116345238Y-86004775D02*
X116392857Y-85909537D01*
X116392857Y-85909537D02*
X116440476Y-85861918D01*
X116440476Y-85861918D02*
X116535714Y-85814299D01*
X116535714Y-85814299D02*
X116773809Y-85814299D01*
X116773809Y-85814299D02*
X116916666Y-85861918D01*
X117345238Y-86433346D02*
X118107143Y-86433346D01*
X117726190Y-86814299D02*
X117726190Y-86052394D01*
X135845238Y-86766680D02*
X135988095Y-86814299D01*
X135988095Y-86814299D02*
X136226190Y-86814299D01*
X136226190Y-86814299D02*
X136321428Y-86766680D01*
X136321428Y-86766680D02*
X136369047Y-86719060D01*
X136369047Y-86719060D02*
X136416666Y-86623822D01*
X136416666Y-86623822D02*
X136416666Y-86528584D01*
X136416666Y-86528584D02*
X136369047Y-86433346D01*
X136369047Y-86433346D02*
X136321428Y-86385727D01*
X136321428Y-86385727D02*
X136226190Y-86338108D01*
X136226190Y-86338108D02*
X136035714Y-86290489D01*
X136035714Y-86290489D02*
X135940476Y-86242870D01*
X135940476Y-86242870D02*
X135892857Y-86195251D01*
X135892857Y-86195251D02*
X135845238Y-86100013D01*
X135845238Y-86100013D02*
X135845238Y-86004775D01*
X135845238Y-86004775D02*
X135892857Y-85909537D01*
X135892857Y-85909537D02*
X135940476Y-85861918D01*
X135940476Y-85861918D02*
X136035714Y-85814299D01*
X136035714Y-85814299D02*
X136273809Y-85814299D01*
X136273809Y-85814299D02*
X136416666Y-85861918D01*
X136845238Y-86433346D02*
X137607143Y-86433346D01*
X123000000Y-90630489D02*
X123142857Y-90678108D01*
X123142857Y-90678108D02*
X123190476Y-90725727D01*
X123190476Y-90725727D02*
X123238095Y-90820965D01*
X123238095Y-90820965D02*
X123238095Y-90963822D01*
X123238095Y-90963822D02*
X123190476Y-91059060D01*
X123190476Y-91059060D02*
X123142857Y-91106680D01*
X123142857Y-91106680D02*
X123047619Y-91154299D01*
X123047619Y-91154299D02*
X122666667Y-91154299D01*
X122666667Y-91154299D02*
X122666667Y-90154299D01*
X122666667Y-90154299D02*
X123000000Y-90154299D01*
X123000000Y-90154299D02*
X123095238Y-90201918D01*
X123095238Y-90201918D02*
X123142857Y-90249537D01*
X123142857Y-90249537D02*
X123190476Y-90344775D01*
X123190476Y-90344775D02*
X123190476Y-90440013D01*
X123190476Y-90440013D02*
X123142857Y-90535251D01*
X123142857Y-90535251D02*
X123095238Y-90582870D01*
X123095238Y-90582870D02*
X123000000Y-90630489D01*
X123000000Y-90630489D02*
X122666667Y-90630489D01*
X124238095Y-91154299D02*
X123904762Y-90678108D01*
X123666667Y-91154299D02*
X123666667Y-90154299D01*
X123666667Y-90154299D02*
X124047619Y-90154299D01*
X124047619Y-90154299D02*
X124142857Y-90201918D01*
X124142857Y-90201918D02*
X124190476Y-90249537D01*
X124190476Y-90249537D02*
X124238095Y-90344775D01*
X124238095Y-90344775D02*
X124238095Y-90487632D01*
X124238095Y-90487632D02*
X124190476Y-90582870D01*
X124190476Y-90582870D02*
X124142857Y-90630489D01*
X124142857Y-90630489D02*
X124047619Y-90678108D01*
X124047619Y-90678108D02*
X123666667Y-90678108D01*
X124666667Y-90773346D02*
X125428572Y-90773346D01*
X126238095Y-90630489D02*
X125904762Y-90630489D01*
X125904762Y-91154299D02*
X125904762Y-90154299D01*
X125904762Y-90154299D02*
X126380952Y-90154299D01*
X126761905Y-90773346D02*
X127523810Y-90773346D01*
X128523809Y-91154299D02*
X127952381Y-91154299D01*
X128238095Y-91154299D02*
X128238095Y-90154299D01*
X128238095Y-90154299D02*
X128142857Y-90297156D01*
X128142857Y-90297156D02*
X128047619Y-90392394D01*
X128047619Y-90392394D02*
X127952381Y-90440013D01*
X129142857Y-90154299D02*
X129238095Y-90154299D01*
X129238095Y-90154299D02*
X129333333Y-90201918D01*
X129333333Y-90201918D02*
X129380952Y-90249537D01*
X129380952Y-90249537D02*
X129428571Y-90344775D01*
X129428571Y-90344775D02*
X129476190Y-90535251D01*
X129476190Y-90535251D02*
X129476190Y-90773346D01*
X129476190Y-90773346D02*
X129428571Y-90963822D01*
X129428571Y-90963822D02*
X129380952Y-91059060D01*
X129380952Y-91059060D02*
X129333333Y-91106680D01*
X129333333Y-91106680D02*
X129238095Y-91154299D01*
X129238095Y-91154299D02*
X129142857Y-91154299D01*
X129142857Y-91154299D02*
X129047619Y-91106680D01*
X129047619Y-91106680D02*
X129000000Y-91059060D01*
X129000000Y-91059060D02*
X128952381Y-90963822D01*
X128952381Y-90963822D02*
X128904762Y-90773346D01*
X128904762Y-90773346D02*
X128904762Y-90535251D01*
X128904762Y-90535251D02*
X128952381Y-90344775D01*
X128952381Y-90344775D02*
X129000000Y-90249537D01*
X129000000Y-90249537D02*
X129047619Y-90201918D01*
X129047619Y-90201918D02*
X129142857Y-90154299D01*
X130095238Y-90154299D02*
X130190476Y-90154299D01*
X130190476Y-90154299D02*
X130285714Y-90201918D01*
X130285714Y-90201918D02*
X130333333Y-90249537D01*
X130333333Y-90249537D02*
X130380952Y-90344775D01*
X130380952Y-90344775D02*
X130428571Y-90535251D01*
X130428571Y-90535251D02*
X130428571Y-90773346D01*
X130428571Y-90773346D02*
X130380952Y-90963822D01*
X130380952Y-90963822D02*
X130333333Y-91059060D01*
X130333333Y-91059060D02*
X130285714Y-91106680D01*
X130285714Y-91106680D02*
X130190476Y-91154299D01*
X130190476Y-91154299D02*
X130095238Y-91154299D01*
X130095238Y-91154299D02*
X130000000Y-91106680D01*
X130000000Y-91106680D02*
X129952381Y-91059060D01*
X129952381Y-91059060D02*
X129904762Y-90963822D01*
X129904762Y-90963822D02*
X129857143Y-90773346D01*
X129857143Y-90773346D02*
X129857143Y-90535251D01*
X129857143Y-90535251D02*
X129904762Y-90344775D01*
X129904762Y-90344775D02*
X129952381Y-90249537D01*
X129952381Y-90249537D02*
X130000000Y-90201918D01*
X130000000Y-90201918D02*
X130095238Y-90154299D01*
X130761905Y-90154299D02*
X131428571Y-91154299D01*
X131428571Y-90154299D02*
X130761905Y-91154299D01*
X55403809Y-106770489D02*
X55070476Y-106770489D01*
X55070476Y-107294299D02*
X55070476Y-106294299D01*
X55070476Y-106294299D02*
X55546666Y-106294299D01*
X55927619Y-106913346D02*
X56689524Y-106913346D01*
X56308571Y-107294299D02*
X56308571Y-106532394D01*
X67813809Y-124390489D02*
X67480476Y-124390489D01*
X67480476Y-124914299D02*
X67480476Y-123914299D01*
X67480476Y-123914299D02*
X67956666Y-123914299D01*
X68337619Y-124533346D02*
X69099524Y-124533346D01*
X62595238Y-102866680D02*
X62738095Y-102914299D01*
X62738095Y-102914299D02*
X62976190Y-102914299D01*
X62976190Y-102914299D02*
X63071428Y-102866680D01*
X63071428Y-102866680D02*
X63119047Y-102819060D01*
X63119047Y-102819060D02*
X63166666Y-102723822D01*
X63166666Y-102723822D02*
X63166666Y-102628584D01*
X63166666Y-102628584D02*
X63119047Y-102533346D01*
X63119047Y-102533346D02*
X63071428Y-102485727D01*
X63071428Y-102485727D02*
X62976190Y-102438108D01*
X62976190Y-102438108D02*
X62785714Y-102390489D01*
X62785714Y-102390489D02*
X62690476Y-102342870D01*
X62690476Y-102342870D02*
X62642857Y-102295251D01*
X62642857Y-102295251D02*
X62595238Y-102200013D01*
X62595238Y-102200013D02*
X62595238Y-102104775D01*
X62595238Y-102104775D02*
X62642857Y-102009537D01*
X62642857Y-102009537D02*
X62690476Y-101961918D01*
X62690476Y-101961918D02*
X62785714Y-101914299D01*
X62785714Y-101914299D02*
X63023809Y-101914299D01*
X63023809Y-101914299D02*
X63166666Y-101961918D01*
X63595238Y-102533346D02*
X64357143Y-102533346D01*
X63976190Y-102914299D02*
X63976190Y-102152394D01*
X77425238Y-117246680D02*
X77568095Y-117294299D01*
X77568095Y-117294299D02*
X77806190Y-117294299D01*
X77806190Y-117294299D02*
X77901428Y-117246680D01*
X77901428Y-117246680D02*
X77949047Y-117199060D01*
X77949047Y-117199060D02*
X77996666Y-117103822D01*
X77996666Y-117103822D02*
X77996666Y-117008584D01*
X77996666Y-117008584D02*
X77949047Y-116913346D01*
X77949047Y-116913346D02*
X77901428Y-116865727D01*
X77901428Y-116865727D02*
X77806190Y-116818108D01*
X77806190Y-116818108D02*
X77615714Y-116770489D01*
X77615714Y-116770489D02*
X77520476Y-116722870D01*
X77520476Y-116722870D02*
X77472857Y-116675251D01*
X77472857Y-116675251D02*
X77425238Y-116580013D01*
X77425238Y-116580013D02*
X77425238Y-116484775D01*
X77425238Y-116484775D02*
X77472857Y-116389537D01*
X77472857Y-116389537D02*
X77520476Y-116341918D01*
X77520476Y-116341918D02*
X77615714Y-116294299D01*
X77615714Y-116294299D02*
X77853809Y-116294299D01*
X77853809Y-116294299D02*
X77996666Y-116341918D01*
X78425238Y-116913346D02*
X79187143Y-116913346D01*
X65429523Y-114174299D02*
X64953333Y-114174299D01*
X64953333Y-114174299D02*
X64953333Y-113174299D01*
X66334285Y-114079060D02*
X66286666Y-114126680D01*
X66286666Y-114126680D02*
X66143809Y-114174299D01*
X66143809Y-114174299D02*
X66048571Y-114174299D01*
X66048571Y-114174299D02*
X65905714Y-114126680D01*
X65905714Y-114126680D02*
X65810476Y-114031441D01*
X65810476Y-114031441D02*
X65762857Y-113936203D01*
X65762857Y-113936203D02*
X65715238Y-113745727D01*
X65715238Y-113745727D02*
X65715238Y-113602870D01*
X65715238Y-113602870D02*
X65762857Y-113412394D01*
X65762857Y-113412394D02*
X65810476Y-113317156D01*
X65810476Y-113317156D02*
X65905714Y-113221918D01*
X65905714Y-113221918D02*
X66048571Y-113174299D01*
X66048571Y-113174299D02*
X66143809Y-113174299D01*
X66143809Y-113174299D02*
X66286666Y-113221918D01*
X66286666Y-113221918D02*
X66334285Y-113269537D01*
X83343809Y-104730489D02*
X83010476Y-104730489D01*
X83010476Y-105254299D02*
X83010476Y-104254299D01*
X83010476Y-104254299D02*
X83486666Y-104254299D01*
X83867619Y-104873346D02*
X84629524Y-104873346D01*
X84248571Y-105254299D02*
X84248571Y-104492394D01*
X108743809Y-104730489D02*
X108410476Y-104730489D01*
X108410476Y-105254299D02*
X108410476Y-104254299D01*
X108410476Y-104254299D02*
X108886666Y-104254299D01*
X109267619Y-104873346D02*
X110029524Y-104873346D01*
X85865238Y-104546680D02*
X86008095Y-104594299D01*
X86008095Y-104594299D02*
X86246190Y-104594299D01*
X86246190Y-104594299D02*
X86341428Y-104546680D01*
X86341428Y-104546680D02*
X86389047Y-104499060D01*
X86389047Y-104499060D02*
X86436666Y-104403822D01*
X86436666Y-104403822D02*
X86436666Y-104308584D01*
X86436666Y-104308584D02*
X86389047Y-104213346D01*
X86389047Y-104213346D02*
X86341428Y-104165727D01*
X86341428Y-104165727D02*
X86246190Y-104118108D01*
X86246190Y-104118108D02*
X86055714Y-104070489D01*
X86055714Y-104070489D02*
X85960476Y-104022870D01*
X85960476Y-104022870D02*
X85912857Y-103975251D01*
X85912857Y-103975251D02*
X85865238Y-103880013D01*
X85865238Y-103880013D02*
X85865238Y-103784775D01*
X85865238Y-103784775D02*
X85912857Y-103689537D01*
X85912857Y-103689537D02*
X85960476Y-103641918D01*
X85960476Y-103641918D02*
X86055714Y-103594299D01*
X86055714Y-103594299D02*
X86293809Y-103594299D01*
X86293809Y-103594299D02*
X86436666Y-103641918D01*
X86865238Y-104213346D02*
X87627143Y-104213346D01*
X87246190Y-104594299D02*
X87246190Y-103832394D01*
X105365238Y-104546680D02*
X105508095Y-104594299D01*
X105508095Y-104594299D02*
X105746190Y-104594299D01*
X105746190Y-104594299D02*
X105841428Y-104546680D01*
X105841428Y-104546680D02*
X105889047Y-104499060D01*
X105889047Y-104499060D02*
X105936666Y-104403822D01*
X105936666Y-104403822D02*
X105936666Y-104308584D01*
X105936666Y-104308584D02*
X105889047Y-104213346D01*
X105889047Y-104213346D02*
X105841428Y-104165727D01*
X105841428Y-104165727D02*
X105746190Y-104118108D01*
X105746190Y-104118108D02*
X105555714Y-104070489D01*
X105555714Y-104070489D02*
X105460476Y-104022870D01*
X105460476Y-104022870D02*
X105412857Y-103975251D01*
X105412857Y-103975251D02*
X105365238Y-103880013D01*
X105365238Y-103880013D02*
X105365238Y-103784775D01*
X105365238Y-103784775D02*
X105412857Y-103689537D01*
X105412857Y-103689537D02*
X105460476Y-103641918D01*
X105460476Y-103641918D02*
X105555714Y-103594299D01*
X105555714Y-103594299D02*
X105793809Y-103594299D01*
X105793809Y-103594299D02*
X105936666Y-103641918D01*
X106365238Y-104213346D02*
X107127143Y-104213346D01*
X92520000Y-108160489D02*
X92662857Y-108208108D01*
X92662857Y-108208108D02*
X92710476Y-108255727D01*
X92710476Y-108255727D02*
X92758095Y-108350965D01*
X92758095Y-108350965D02*
X92758095Y-108493822D01*
X92758095Y-108493822D02*
X92710476Y-108589060D01*
X92710476Y-108589060D02*
X92662857Y-108636680D01*
X92662857Y-108636680D02*
X92567619Y-108684299D01*
X92567619Y-108684299D02*
X92186667Y-108684299D01*
X92186667Y-108684299D02*
X92186667Y-107684299D01*
X92186667Y-107684299D02*
X92520000Y-107684299D01*
X92520000Y-107684299D02*
X92615238Y-107731918D01*
X92615238Y-107731918D02*
X92662857Y-107779537D01*
X92662857Y-107779537D02*
X92710476Y-107874775D01*
X92710476Y-107874775D02*
X92710476Y-107970013D01*
X92710476Y-107970013D02*
X92662857Y-108065251D01*
X92662857Y-108065251D02*
X92615238Y-108112870D01*
X92615238Y-108112870D02*
X92520000Y-108160489D01*
X92520000Y-108160489D02*
X92186667Y-108160489D01*
X93758095Y-108684299D02*
X93424762Y-108208108D01*
X93186667Y-108684299D02*
X93186667Y-107684299D01*
X93186667Y-107684299D02*
X93567619Y-107684299D01*
X93567619Y-107684299D02*
X93662857Y-107731918D01*
X93662857Y-107731918D02*
X93710476Y-107779537D01*
X93710476Y-107779537D02*
X93758095Y-107874775D01*
X93758095Y-107874775D02*
X93758095Y-108017632D01*
X93758095Y-108017632D02*
X93710476Y-108112870D01*
X93710476Y-108112870D02*
X93662857Y-108160489D01*
X93662857Y-108160489D02*
X93567619Y-108208108D01*
X93567619Y-108208108D02*
X93186667Y-108208108D01*
X94186667Y-108303346D02*
X94948572Y-108303346D01*
X95758095Y-108160489D02*
X95424762Y-108160489D01*
X95424762Y-108684299D02*
X95424762Y-107684299D01*
X95424762Y-107684299D02*
X95900952Y-107684299D01*
X96281905Y-108303346D02*
X97043810Y-108303346D01*
X97710476Y-107684299D02*
X97805714Y-107684299D01*
X97805714Y-107684299D02*
X97900952Y-107731918D01*
X97900952Y-107731918D02*
X97948571Y-107779537D01*
X97948571Y-107779537D02*
X97996190Y-107874775D01*
X97996190Y-107874775D02*
X98043809Y-108065251D01*
X98043809Y-108065251D02*
X98043809Y-108303346D01*
X98043809Y-108303346D02*
X97996190Y-108493822D01*
X97996190Y-108493822D02*
X97948571Y-108589060D01*
X97948571Y-108589060D02*
X97900952Y-108636680D01*
X97900952Y-108636680D02*
X97805714Y-108684299D01*
X97805714Y-108684299D02*
X97710476Y-108684299D01*
X97710476Y-108684299D02*
X97615238Y-108636680D01*
X97615238Y-108636680D02*
X97567619Y-108589060D01*
X97567619Y-108589060D02*
X97520000Y-108493822D01*
X97520000Y-108493822D02*
X97472381Y-108303346D01*
X97472381Y-108303346D02*
X97472381Y-108065251D01*
X97472381Y-108065251D02*
X97520000Y-107874775D01*
X97520000Y-107874775D02*
X97567619Y-107779537D01*
X97567619Y-107779537D02*
X97615238Y-107731918D01*
X97615238Y-107731918D02*
X97710476Y-107684299D01*
X98948571Y-107684299D02*
X98472381Y-107684299D01*
X98472381Y-107684299D02*
X98424762Y-108160489D01*
X98424762Y-108160489D02*
X98472381Y-108112870D01*
X98472381Y-108112870D02*
X98567619Y-108065251D01*
X98567619Y-108065251D02*
X98805714Y-108065251D01*
X98805714Y-108065251D02*
X98900952Y-108112870D01*
X98900952Y-108112870D02*
X98948571Y-108160489D01*
X98948571Y-108160489D02*
X98996190Y-108255727D01*
X98996190Y-108255727D02*
X98996190Y-108493822D01*
X98996190Y-108493822D02*
X98948571Y-108589060D01*
X98948571Y-108589060D02*
X98900952Y-108636680D01*
X98900952Y-108636680D02*
X98805714Y-108684299D01*
X98805714Y-108684299D02*
X98567619Y-108684299D01*
X98567619Y-108684299D02*
X98472381Y-108636680D01*
X98472381Y-108636680D02*
X98424762Y-108589060D01*
X99615238Y-107684299D02*
X99710476Y-107684299D01*
X99710476Y-107684299D02*
X99805714Y-107731918D01*
X99805714Y-107731918D02*
X99853333Y-107779537D01*
X99853333Y-107779537D02*
X99900952Y-107874775D01*
X99900952Y-107874775D02*
X99948571Y-108065251D01*
X99948571Y-108065251D02*
X99948571Y-108303346D01*
X99948571Y-108303346D02*
X99900952Y-108493822D01*
X99900952Y-108493822D02*
X99853333Y-108589060D01*
X99853333Y-108589060D02*
X99805714Y-108636680D01*
X99805714Y-108636680D02*
X99710476Y-108684299D01*
X99710476Y-108684299D02*
X99615238Y-108684299D01*
X99615238Y-108684299D02*
X99520000Y-108636680D01*
X99520000Y-108636680D02*
X99472381Y-108589060D01*
X99472381Y-108589060D02*
X99424762Y-108493822D01*
X99424762Y-108493822D02*
X99377143Y-108303346D01*
X99377143Y-108303346D02*
X99377143Y-108065251D01*
X99377143Y-108065251D02*
X99424762Y-107874775D01*
X99424762Y-107874775D02*
X99472381Y-107779537D01*
X99472381Y-107779537D02*
X99520000Y-107731918D01*
X99520000Y-107731918D02*
X99615238Y-107684299D01*
X100281905Y-107684299D02*
X100948571Y-108684299D01*
X100948571Y-107684299D02*
X100281905Y-108684299D01*
X83343809Y-112350489D02*
X83010476Y-112350489D01*
X83010476Y-112874299D02*
X83010476Y-111874299D01*
X83010476Y-111874299D02*
X83486666Y-111874299D01*
X83867619Y-112493346D02*
X84629524Y-112493346D01*
X84248571Y-112874299D02*
X84248571Y-112112394D01*
X108743809Y-112350489D02*
X108410476Y-112350489D01*
X108410476Y-112874299D02*
X108410476Y-111874299D01*
X108410476Y-111874299D02*
X108886666Y-111874299D01*
X109267619Y-112493346D02*
X110029524Y-112493346D01*
X85865238Y-112166680D02*
X86008095Y-112214299D01*
X86008095Y-112214299D02*
X86246190Y-112214299D01*
X86246190Y-112214299D02*
X86341428Y-112166680D01*
X86341428Y-112166680D02*
X86389047Y-112119060D01*
X86389047Y-112119060D02*
X86436666Y-112023822D01*
X86436666Y-112023822D02*
X86436666Y-111928584D01*
X86436666Y-111928584D02*
X86389047Y-111833346D01*
X86389047Y-111833346D02*
X86341428Y-111785727D01*
X86341428Y-111785727D02*
X86246190Y-111738108D01*
X86246190Y-111738108D02*
X86055714Y-111690489D01*
X86055714Y-111690489D02*
X85960476Y-111642870D01*
X85960476Y-111642870D02*
X85912857Y-111595251D01*
X85912857Y-111595251D02*
X85865238Y-111500013D01*
X85865238Y-111500013D02*
X85865238Y-111404775D01*
X85865238Y-111404775D02*
X85912857Y-111309537D01*
X85912857Y-111309537D02*
X85960476Y-111261918D01*
X85960476Y-111261918D02*
X86055714Y-111214299D01*
X86055714Y-111214299D02*
X86293809Y-111214299D01*
X86293809Y-111214299D02*
X86436666Y-111261918D01*
X86865238Y-111833346D02*
X87627143Y-111833346D01*
X87246190Y-112214299D02*
X87246190Y-111452394D01*
X105365238Y-112166680D02*
X105508095Y-112214299D01*
X105508095Y-112214299D02*
X105746190Y-112214299D01*
X105746190Y-112214299D02*
X105841428Y-112166680D01*
X105841428Y-112166680D02*
X105889047Y-112119060D01*
X105889047Y-112119060D02*
X105936666Y-112023822D01*
X105936666Y-112023822D02*
X105936666Y-111928584D01*
X105936666Y-111928584D02*
X105889047Y-111833346D01*
X105889047Y-111833346D02*
X105841428Y-111785727D01*
X105841428Y-111785727D02*
X105746190Y-111738108D01*
X105746190Y-111738108D02*
X105555714Y-111690489D01*
X105555714Y-111690489D02*
X105460476Y-111642870D01*
X105460476Y-111642870D02*
X105412857Y-111595251D01*
X105412857Y-111595251D02*
X105365238Y-111500013D01*
X105365238Y-111500013D02*
X105365238Y-111404775D01*
X105365238Y-111404775D02*
X105412857Y-111309537D01*
X105412857Y-111309537D02*
X105460476Y-111261918D01*
X105460476Y-111261918D02*
X105555714Y-111214299D01*
X105555714Y-111214299D02*
X105793809Y-111214299D01*
X105793809Y-111214299D02*
X105936666Y-111261918D01*
X106365238Y-111833346D02*
X107127143Y-111833346D01*
X92520000Y-116530489D02*
X92662857Y-116578108D01*
X92662857Y-116578108D02*
X92710476Y-116625727D01*
X92710476Y-116625727D02*
X92758095Y-116720965D01*
X92758095Y-116720965D02*
X92758095Y-116863822D01*
X92758095Y-116863822D02*
X92710476Y-116959060D01*
X92710476Y-116959060D02*
X92662857Y-117006680D01*
X92662857Y-117006680D02*
X92567619Y-117054299D01*
X92567619Y-117054299D02*
X92186667Y-117054299D01*
X92186667Y-117054299D02*
X92186667Y-116054299D01*
X92186667Y-116054299D02*
X92520000Y-116054299D01*
X92520000Y-116054299D02*
X92615238Y-116101918D01*
X92615238Y-116101918D02*
X92662857Y-116149537D01*
X92662857Y-116149537D02*
X92710476Y-116244775D01*
X92710476Y-116244775D02*
X92710476Y-116340013D01*
X92710476Y-116340013D02*
X92662857Y-116435251D01*
X92662857Y-116435251D02*
X92615238Y-116482870D01*
X92615238Y-116482870D02*
X92520000Y-116530489D01*
X92520000Y-116530489D02*
X92186667Y-116530489D01*
X93758095Y-117054299D02*
X93424762Y-116578108D01*
X93186667Y-117054299D02*
X93186667Y-116054299D01*
X93186667Y-116054299D02*
X93567619Y-116054299D01*
X93567619Y-116054299D02*
X93662857Y-116101918D01*
X93662857Y-116101918D02*
X93710476Y-116149537D01*
X93710476Y-116149537D02*
X93758095Y-116244775D01*
X93758095Y-116244775D02*
X93758095Y-116387632D01*
X93758095Y-116387632D02*
X93710476Y-116482870D01*
X93710476Y-116482870D02*
X93662857Y-116530489D01*
X93662857Y-116530489D02*
X93567619Y-116578108D01*
X93567619Y-116578108D02*
X93186667Y-116578108D01*
X94186667Y-116673346D02*
X94948572Y-116673346D01*
X95758095Y-116530489D02*
X95424762Y-116530489D01*
X95424762Y-117054299D02*
X95424762Y-116054299D01*
X95424762Y-116054299D02*
X95900952Y-116054299D01*
X96281905Y-116673346D02*
X97043810Y-116673346D01*
X97472381Y-116149537D02*
X97520000Y-116101918D01*
X97520000Y-116101918D02*
X97615238Y-116054299D01*
X97615238Y-116054299D02*
X97853333Y-116054299D01*
X97853333Y-116054299D02*
X97948571Y-116101918D01*
X97948571Y-116101918D02*
X97996190Y-116149537D01*
X97996190Y-116149537D02*
X98043809Y-116244775D01*
X98043809Y-116244775D02*
X98043809Y-116340013D01*
X98043809Y-116340013D02*
X97996190Y-116482870D01*
X97996190Y-116482870D02*
X97424762Y-117054299D01*
X97424762Y-117054299D02*
X98043809Y-117054299D01*
X98662857Y-116054299D02*
X98758095Y-116054299D01*
X98758095Y-116054299D02*
X98853333Y-116101918D01*
X98853333Y-116101918D02*
X98900952Y-116149537D01*
X98900952Y-116149537D02*
X98948571Y-116244775D01*
X98948571Y-116244775D02*
X98996190Y-116435251D01*
X98996190Y-116435251D02*
X98996190Y-116673346D01*
X98996190Y-116673346D02*
X98948571Y-116863822D01*
X98948571Y-116863822D02*
X98900952Y-116959060D01*
X98900952Y-116959060D02*
X98853333Y-117006680D01*
X98853333Y-117006680D02*
X98758095Y-117054299D01*
X98758095Y-117054299D02*
X98662857Y-117054299D01*
X98662857Y-117054299D02*
X98567619Y-117006680D01*
X98567619Y-117006680D02*
X98520000Y-116959060D01*
X98520000Y-116959060D02*
X98472381Y-116863822D01*
X98472381Y-116863822D02*
X98424762Y-116673346D01*
X98424762Y-116673346D02*
X98424762Y-116435251D01*
X98424762Y-116435251D02*
X98472381Y-116244775D01*
X98472381Y-116244775D02*
X98520000Y-116149537D01*
X98520000Y-116149537D02*
X98567619Y-116101918D01*
X98567619Y-116101918D02*
X98662857Y-116054299D01*
X99615238Y-116054299D02*
X99710476Y-116054299D01*
X99710476Y-116054299D02*
X99805714Y-116101918D01*
X99805714Y-116101918D02*
X99853333Y-116149537D01*
X99853333Y-116149537D02*
X99900952Y-116244775D01*
X99900952Y-116244775D02*
X99948571Y-116435251D01*
X99948571Y-116435251D02*
X99948571Y-116673346D01*
X99948571Y-116673346D02*
X99900952Y-116863822D01*
X99900952Y-116863822D02*
X99853333Y-116959060D01*
X99853333Y-116959060D02*
X99805714Y-117006680D01*
X99805714Y-117006680D02*
X99710476Y-117054299D01*
X99710476Y-117054299D02*
X99615238Y-117054299D01*
X99615238Y-117054299D02*
X99520000Y-117006680D01*
X99520000Y-117006680D02*
X99472381Y-116959060D01*
X99472381Y-116959060D02*
X99424762Y-116863822D01*
X99424762Y-116863822D02*
X99377143Y-116673346D01*
X99377143Y-116673346D02*
X99377143Y-116435251D01*
X99377143Y-116435251D02*
X99424762Y-116244775D01*
X99424762Y-116244775D02*
X99472381Y-116149537D01*
X99472381Y-116149537D02*
X99520000Y-116101918D01*
X99520000Y-116101918D02*
X99615238Y-116054299D01*
X100281905Y-116054299D02*
X100948571Y-117054299D01*
X100948571Y-116054299D02*
X100281905Y-117054299D01*
X114033809Y-126930489D02*
X113700476Y-126930489D01*
X113700476Y-127454299D02*
X113700476Y-126454299D01*
X113700476Y-126454299D02*
X114176666Y-126454299D01*
X114557619Y-127073346D02*
X115319524Y-127073346D01*
X114938571Y-127454299D02*
X114938571Y-126692394D01*
X114033809Y-104070489D02*
X113700476Y-104070489D01*
X113700476Y-104594299D02*
X113700476Y-103594299D01*
X113700476Y-103594299D02*
X114176666Y-103594299D01*
X114557619Y-104213346D02*
X115319524Y-104213346D01*
X113395238Y-124006680D02*
X113538095Y-124054299D01*
X113538095Y-124054299D02*
X113776190Y-124054299D01*
X113776190Y-124054299D02*
X113871428Y-124006680D01*
X113871428Y-124006680D02*
X113919047Y-123959060D01*
X113919047Y-123959060D02*
X113966666Y-123863822D01*
X113966666Y-123863822D02*
X113966666Y-123768584D01*
X113966666Y-123768584D02*
X113919047Y-123673346D01*
X113919047Y-123673346D02*
X113871428Y-123625727D01*
X113871428Y-123625727D02*
X113776190Y-123578108D01*
X113776190Y-123578108D02*
X113585714Y-123530489D01*
X113585714Y-123530489D02*
X113490476Y-123482870D01*
X113490476Y-123482870D02*
X113442857Y-123435251D01*
X113442857Y-123435251D02*
X113395238Y-123340013D01*
X113395238Y-123340013D02*
X113395238Y-123244775D01*
X113395238Y-123244775D02*
X113442857Y-123149537D01*
X113442857Y-123149537D02*
X113490476Y-123101918D01*
X113490476Y-123101918D02*
X113585714Y-123054299D01*
X113585714Y-123054299D02*
X113823809Y-123054299D01*
X113823809Y-123054299D02*
X113966666Y-123101918D01*
X114395238Y-123673346D02*
X115157143Y-123673346D01*
X114776190Y-124054299D02*
X114776190Y-123292394D01*
X113395238Y-107946680D02*
X113538095Y-107994299D01*
X113538095Y-107994299D02*
X113776190Y-107994299D01*
X113776190Y-107994299D02*
X113871428Y-107946680D01*
X113871428Y-107946680D02*
X113919047Y-107899060D01*
X113919047Y-107899060D02*
X113966666Y-107803822D01*
X113966666Y-107803822D02*
X113966666Y-107708584D01*
X113966666Y-107708584D02*
X113919047Y-107613346D01*
X113919047Y-107613346D02*
X113871428Y-107565727D01*
X113871428Y-107565727D02*
X113776190Y-107518108D01*
X113776190Y-107518108D02*
X113585714Y-107470489D01*
X113585714Y-107470489D02*
X113490476Y-107422870D01*
X113490476Y-107422870D02*
X113442857Y-107375251D01*
X113442857Y-107375251D02*
X113395238Y-107280013D01*
X113395238Y-107280013D02*
X113395238Y-107184775D01*
X113395238Y-107184775D02*
X113442857Y-107089537D01*
X113442857Y-107089537D02*
X113490476Y-107041918D01*
X113490476Y-107041918D02*
X113585714Y-106994299D01*
X113585714Y-106994299D02*
X113823809Y-106994299D01*
X113823809Y-106994299D02*
X113966666Y-107041918D01*
X114395238Y-107613346D02*
X115157143Y-107613346D01*
X114437619Y-115500489D02*
X114580476Y-115548108D01*
X114580476Y-115548108D02*
X114628095Y-115595727D01*
X114628095Y-115595727D02*
X114675714Y-115690965D01*
X114675714Y-115690965D02*
X114675714Y-115833822D01*
X114675714Y-115833822D02*
X114628095Y-115929060D01*
X114628095Y-115929060D02*
X114580476Y-115976680D01*
X114580476Y-115976680D02*
X114485238Y-116024299D01*
X114485238Y-116024299D02*
X114104286Y-116024299D01*
X114104286Y-116024299D02*
X114104286Y-115024299D01*
X114104286Y-115024299D02*
X114437619Y-115024299D01*
X114437619Y-115024299D02*
X114532857Y-115071918D01*
X114532857Y-115071918D02*
X114580476Y-115119537D01*
X114580476Y-115119537D02*
X114628095Y-115214775D01*
X114628095Y-115214775D02*
X114628095Y-115310013D01*
X114628095Y-115310013D02*
X114580476Y-115405251D01*
X114580476Y-115405251D02*
X114532857Y-115452870D01*
X114532857Y-115452870D02*
X114437619Y-115500489D01*
X114437619Y-115500489D02*
X114104286Y-115500489D01*
X115675714Y-116024299D02*
X115342381Y-115548108D01*
X115104286Y-116024299D02*
X115104286Y-115024299D01*
X115104286Y-115024299D02*
X115485238Y-115024299D01*
X115485238Y-115024299D02*
X115580476Y-115071918D01*
X115580476Y-115071918D02*
X115628095Y-115119537D01*
X115628095Y-115119537D02*
X115675714Y-115214775D01*
X115675714Y-115214775D02*
X115675714Y-115357632D01*
X115675714Y-115357632D02*
X115628095Y-115452870D01*
X115628095Y-115452870D02*
X115580476Y-115500489D01*
X115580476Y-115500489D02*
X115485238Y-115548108D01*
X115485238Y-115548108D02*
X115104286Y-115548108D01*
X116104286Y-115643346D02*
X116866191Y-115643346D01*
X117675714Y-115500489D02*
X117342381Y-115500489D01*
X117342381Y-116024299D02*
X117342381Y-115024299D01*
X117342381Y-115024299D02*
X117818571Y-115024299D01*
X118199524Y-115643346D02*
X118961429Y-115643346D01*
X119628095Y-115024299D02*
X119723333Y-115024299D01*
X119723333Y-115024299D02*
X119818571Y-115071918D01*
X119818571Y-115071918D02*
X119866190Y-115119537D01*
X119866190Y-115119537D02*
X119913809Y-115214775D01*
X119913809Y-115214775D02*
X119961428Y-115405251D01*
X119961428Y-115405251D02*
X119961428Y-115643346D01*
X119961428Y-115643346D02*
X119913809Y-115833822D01*
X119913809Y-115833822D02*
X119866190Y-115929060D01*
X119866190Y-115929060D02*
X119818571Y-115976680D01*
X119818571Y-115976680D02*
X119723333Y-116024299D01*
X119723333Y-116024299D02*
X119628095Y-116024299D01*
X119628095Y-116024299D02*
X119532857Y-115976680D01*
X119532857Y-115976680D02*
X119485238Y-115929060D01*
X119485238Y-115929060D02*
X119437619Y-115833822D01*
X119437619Y-115833822D02*
X119390000Y-115643346D01*
X119390000Y-115643346D02*
X119390000Y-115405251D01*
X119390000Y-115405251D02*
X119437619Y-115214775D01*
X119437619Y-115214775D02*
X119485238Y-115119537D01*
X119485238Y-115119537D02*
X119532857Y-115071918D01*
X119532857Y-115071918D02*
X119628095Y-115024299D01*
X120866190Y-115024299D02*
X120390000Y-115024299D01*
X120390000Y-115024299D02*
X120342381Y-115500489D01*
X120342381Y-115500489D02*
X120390000Y-115452870D01*
X120390000Y-115452870D02*
X120485238Y-115405251D01*
X120485238Y-115405251D02*
X120723333Y-115405251D01*
X120723333Y-115405251D02*
X120818571Y-115452870D01*
X120818571Y-115452870D02*
X120866190Y-115500489D01*
X120866190Y-115500489D02*
X120913809Y-115595727D01*
X120913809Y-115595727D02*
X120913809Y-115833822D01*
X120913809Y-115833822D02*
X120866190Y-115929060D01*
X120866190Y-115929060D02*
X120818571Y-115976680D01*
X120818571Y-115976680D02*
X120723333Y-116024299D01*
X120723333Y-116024299D02*
X120485238Y-116024299D01*
X120485238Y-116024299D02*
X120390000Y-115976680D01*
X120390000Y-115976680D02*
X120342381Y-115929060D01*
X121532857Y-115024299D02*
X121628095Y-115024299D01*
X121628095Y-115024299D02*
X121723333Y-115071918D01*
X121723333Y-115071918D02*
X121770952Y-115119537D01*
X121770952Y-115119537D02*
X121818571Y-115214775D01*
X121818571Y-115214775D02*
X121866190Y-115405251D01*
X121866190Y-115405251D02*
X121866190Y-115643346D01*
X121866190Y-115643346D02*
X121818571Y-115833822D01*
X121818571Y-115833822D02*
X121770952Y-115929060D01*
X121770952Y-115929060D02*
X121723333Y-115976680D01*
X121723333Y-115976680D02*
X121628095Y-116024299D01*
X121628095Y-116024299D02*
X121532857Y-116024299D01*
X121532857Y-116024299D02*
X121437619Y-115976680D01*
X121437619Y-115976680D02*
X121390000Y-115929060D01*
X121390000Y-115929060D02*
X121342381Y-115833822D01*
X121342381Y-115833822D02*
X121294762Y-115643346D01*
X121294762Y-115643346D02*
X121294762Y-115405251D01*
X121294762Y-115405251D02*
X121342381Y-115214775D01*
X121342381Y-115214775D02*
X121390000Y-115119537D01*
X121390000Y-115119537D02*
X121437619Y-115071918D01*
X121437619Y-115071918D02*
X121532857Y-115024299D01*
X122485238Y-115548108D02*
X122485238Y-116024299D01*
X122151905Y-115024299D02*
X122485238Y-115548108D01*
X122485238Y-115548108D02*
X122818571Y-115024299D01*
X136921905Y-111068584D02*
X137398095Y-111068584D01*
X136826667Y-111354299D02*
X137160000Y-110354299D01*
X137160000Y-110354299D02*
X137493333Y-111354299D01*
X133806428Y-104070489D02*
X133949285Y-104118108D01*
X133949285Y-104118108D02*
X133996904Y-104165727D01*
X133996904Y-104165727D02*
X134044523Y-104260965D01*
X134044523Y-104260965D02*
X134044523Y-104403822D01*
X134044523Y-104403822D02*
X133996904Y-104499060D01*
X133996904Y-104499060D02*
X133949285Y-104546680D01*
X133949285Y-104546680D02*
X133854047Y-104594299D01*
X133854047Y-104594299D02*
X133473095Y-104594299D01*
X133473095Y-104594299D02*
X133473095Y-103594299D01*
X133473095Y-103594299D02*
X133806428Y-103594299D01*
X133806428Y-103594299D02*
X133901666Y-103641918D01*
X133901666Y-103641918D02*
X133949285Y-103689537D01*
X133949285Y-103689537D02*
X133996904Y-103784775D01*
X133996904Y-103784775D02*
X133996904Y-103880013D01*
X133996904Y-103880013D02*
X133949285Y-103975251D01*
X133949285Y-103975251D02*
X133901666Y-104022870D01*
X133901666Y-104022870D02*
X133806428Y-104070489D01*
X133806428Y-104070489D02*
X133473095Y-104070489D01*
X127309523Y-107899060D02*
X127261904Y-107946680D01*
X127261904Y-107946680D02*
X127119047Y-107994299D01*
X127119047Y-107994299D02*
X127023809Y-107994299D01*
X127023809Y-107994299D02*
X126880952Y-107946680D01*
X126880952Y-107946680D02*
X126785714Y-107851441D01*
X126785714Y-107851441D02*
X126738095Y-107756203D01*
X126738095Y-107756203D02*
X126690476Y-107565727D01*
X126690476Y-107565727D02*
X126690476Y-107422870D01*
X126690476Y-107422870D02*
X126738095Y-107232394D01*
X126738095Y-107232394D02*
X126785714Y-107137156D01*
X126785714Y-107137156D02*
X126880952Y-107041918D01*
X126880952Y-107041918D02*
X127023809Y-106994299D01*
X127023809Y-106994299D02*
X127119047Y-106994299D01*
X127119047Y-106994299D02*
X127261904Y-107041918D01*
X127261904Y-107041918D02*
X127309523Y-107089537D01*
X130163095Y-114754299D02*
X130163095Y-113754299D01*
X130163095Y-113754299D02*
X130401190Y-113754299D01*
X130401190Y-113754299D02*
X130544047Y-113801918D01*
X130544047Y-113801918D02*
X130639285Y-113897156D01*
X130639285Y-113897156D02*
X130686904Y-113992394D01*
X130686904Y-113992394D02*
X130734523Y-114182870D01*
X130734523Y-114182870D02*
X130734523Y-114325727D01*
X130734523Y-114325727D02*
X130686904Y-114516203D01*
X130686904Y-114516203D02*
X130639285Y-114611441D01*
X130639285Y-114611441D02*
X130544047Y-114706680D01*
X130544047Y-114706680D02*
X130401190Y-114754299D01*
X130401190Y-114754299D02*
X130163095Y-114754299D01*
X129222857Y-101994299D02*
X129556190Y-102994299D01*
X129556190Y-102994299D02*
X129889523Y-101994299D01*
X130222857Y-102994299D02*
X130222857Y-101994299D01*
X130222857Y-101994299D02*
X130460952Y-101994299D01*
X130460952Y-101994299D02*
X130603809Y-102041918D01*
X130603809Y-102041918D02*
X130699047Y-102137156D01*
X130699047Y-102137156D02*
X130746666Y-102232394D01*
X130746666Y-102232394D02*
X130794285Y-102422870D01*
X130794285Y-102422870D02*
X130794285Y-102565727D01*
X130794285Y-102565727D02*
X130746666Y-102756203D01*
X130746666Y-102756203D02*
X130699047Y-102851441D01*
X130699047Y-102851441D02*
X130603809Y-102946680D01*
X130603809Y-102946680D02*
X130460952Y-102994299D01*
X130460952Y-102994299D02*
X130222857Y-102994299D01*
X131222857Y-102994299D02*
X131222857Y-101994299D01*
X131222857Y-101994299D02*
X131603809Y-101994299D01*
X131603809Y-101994299D02*
X131699047Y-102041918D01*
X131699047Y-102041918D02*
X131746666Y-102089537D01*
X131746666Y-102089537D02*
X131794285Y-102184775D01*
X131794285Y-102184775D02*
X131794285Y-102327632D01*
X131794285Y-102327632D02*
X131746666Y-102422870D01*
X131746666Y-102422870D02*
X131699047Y-102470489D01*
X131699047Y-102470489D02*
X131603809Y-102518108D01*
X131603809Y-102518108D02*
X131222857Y-102518108D01*
X132222857Y-102613346D02*
X132984762Y-102613346D01*
X133794285Y-102470489D02*
X133460952Y-102470489D01*
X133460952Y-102994299D02*
X133460952Y-101994299D01*
X133460952Y-101994299D02*
X133937142Y-101994299D01*
X134841904Y-102994299D02*
X134270476Y-102994299D01*
X134556190Y-102994299D02*
X134556190Y-101994299D01*
X134556190Y-101994299D02*
X134460952Y-102137156D01*
X134460952Y-102137156D02*
X134365714Y-102232394D01*
X134365714Y-102232394D02*
X134270476Y-102280013D01*
X144154299Y-50495237D02*
X145154299Y-50257142D01*
X145154299Y-50257142D02*
X144440013Y-50066666D01*
X144440013Y-50066666D02*
X145154299Y-49876190D01*
X145154299Y-49876190D02*
X144154299Y-49638095D01*
X145154299Y-49257142D02*
X144154299Y-49257142D01*
X144154299Y-48923809D02*
X144154299Y-48352381D01*
X145154299Y-48638095D02*
X144154299Y-48638095D01*
X144773346Y-48019047D02*
X144773346Y-47257143D01*
X144154299Y-46923809D02*
X145154299Y-46590476D01*
X145154299Y-46590476D02*
X144154299Y-46257143D01*
X144038095Y-57254299D02*
X144609523Y-57254299D01*
X144323809Y-58254299D02*
X144323809Y-57254299D01*
X144942857Y-58254299D02*
X144942857Y-57254299D01*
X145514285Y-58254299D02*
X145085714Y-57682870D01*
X145514285Y-57254299D02*
X144942857Y-57825727D01*
X146466666Y-58254299D02*
X145895238Y-58254299D01*
X146180952Y-58254299D02*
X146180952Y-57254299D01*
X146180952Y-57254299D02*
X146085714Y-57397156D01*
X146085714Y-57397156D02*
X145990476Y-57492394D01*
X145990476Y-57492394D02*
X145895238Y-57540013D01*
X139538095Y-127954299D02*
X140109523Y-127954299D01*
X139823809Y-128954299D02*
X139823809Y-127954299D01*
X140442857Y-128954299D02*
X140442857Y-127954299D01*
X141014285Y-128954299D02*
X140585714Y-128382870D01*
X141014285Y-127954299D02*
X140442857Y-128525727D01*
X141395238Y-128049537D02*
X141442857Y-128001918D01*
X141442857Y-128001918D02*
X141538095Y-127954299D01*
X141538095Y-127954299D02*
X141776190Y-127954299D01*
X141776190Y-127954299D02*
X141871428Y-128001918D01*
X141871428Y-128001918D02*
X141919047Y-128049537D01*
X141919047Y-128049537D02*
X141966666Y-128144775D01*
X141966666Y-128144775D02*
X141966666Y-128240013D01*
X141966666Y-128240013D02*
X141919047Y-128382870D01*
X141919047Y-128382870D02*
X141347619Y-128954299D01*
X141347619Y-128954299D02*
X141966666Y-128954299D01*
X60038095Y-128454299D02*
X60609523Y-128454299D01*
X60323809Y-129454299D02*
X60323809Y-128454299D01*
X60942857Y-129454299D02*
X60942857Y-128454299D01*
X61514285Y-129454299D02*
X61085714Y-128882870D01*
X61514285Y-128454299D02*
X60942857Y-129025727D01*
X61847619Y-128454299D02*
X62466666Y-128454299D01*
X62466666Y-128454299D02*
X62133333Y-128835251D01*
X62133333Y-128835251D02*
X62276190Y-128835251D01*
X62276190Y-128835251D02*
X62371428Y-128882870D01*
X62371428Y-128882870D02*
X62419047Y-128930489D01*
X62419047Y-128930489D02*
X62466666Y-129025727D01*
X62466666Y-129025727D02*
X62466666Y-129263822D01*
X62466666Y-129263822D02*
X62419047Y-129359060D01*
X62419047Y-129359060D02*
X62371428Y-129406680D01*
X62371428Y-129406680D02*
X62276190Y-129454299D01*
X62276190Y-129454299D02*
X61990476Y-129454299D01*
X61990476Y-129454299D02*
X61895238Y-129406680D01*
X61895238Y-129406680D02*
X61847619Y-129359060D01*
X52754299Y-96772856D02*
X51754299Y-96772856D01*
X51754299Y-96772856D02*
X51754299Y-96391904D01*
X51754299Y-96391904D02*
X51801918Y-96296666D01*
X51801918Y-96296666D02*
X51849537Y-96249047D01*
X51849537Y-96249047D02*
X51944775Y-96201428D01*
X51944775Y-96201428D02*
X52087632Y-96201428D01*
X52087632Y-96201428D02*
X52182870Y-96249047D01*
X52182870Y-96249047D02*
X52230489Y-96296666D01*
X52230489Y-96296666D02*
X52278108Y-96391904D01*
X52278108Y-96391904D02*
X52278108Y-96772856D01*
X52754299Y-95772856D02*
X51754299Y-95772856D01*
X51754299Y-95772856D02*
X51754299Y-95534761D01*
X51754299Y-95534761D02*
X51801918Y-95391904D01*
X51801918Y-95391904D02*
X51897156Y-95296666D01*
X51897156Y-95296666D02*
X51992394Y-95249047D01*
X51992394Y-95249047D02*
X52182870Y-95201428D01*
X52182870Y-95201428D02*
X52325727Y-95201428D01*
X52325727Y-95201428D02*
X52516203Y-95249047D01*
X52516203Y-95249047D02*
X52611441Y-95296666D01*
X52611441Y-95296666D02*
X52706680Y-95391904D01*
X52706680Y-95391904D02*
X52754299Y-95534761D01*
X52754299Y-95534761D02*
X52754299Y-95772856D01*
X52754299Y-94772856D02*
X51754299Y-94772856D01*
X51754299Y-94772856D02*
X52754299Y-94201428D01*
X52754299Y-94201428D02*
X51754299Y-94201428D01*
X52706680Y-93772856D02*
X52754299Y-93629999D01*
X52754299Y-93629999D02*
X52754299Y-93391904D01*
X52754299Y-93391904D02*
X52706680Y-93296666D01*
X52706680Y-93296666D02*
X52659060Y-93249047D01*
X52659060Y-93249047D02*
X52563822Y-93201428D01*
X52563822Y-93201428D02*
X52468584Y-93201428D01*
X52468584Y-93201428D02*
X52373346Y-93249047D01*
X52373346Y-93249047D02*
X52325727Y-93296666D01*
X52325727Y-93296666D02*
X52278108Y-93391904D01*
X52278108Y-93391904D02*
X52230489Y-93582380D01*
X52230489Y-93582380D02*
X52182870Y-93677618D01*
X52182870Y-93677618D02*
X52135251Y-93725237D01*
X52135251Y-93725237D02*
X52040013Y-93772856D01*
X52040013Y-93772856D02*
X51944775Y-93772856D01*
X51944775Y-93772856D02*
X51849537Y-93725237D01*
X51849537Y-93725237D02*
X51801918Y-93677618D01*
X51801918Y-93677618D02*
X51754299Y-93582380D01*
X51754299Y-93582380D02*
X51754299Y-93344285D01*
X51754299Y-93344285D02*
X51801918Y-93201428D01*
X52754299Y-92772856D02*
X51754299Y-92772856D01*
X52754299Y-92296666D02*
X51754299Y-92296666D01*
X51754299Y-92296666D02*
X52468584Y-91963333D01*
X52468584Y-91963333D02*
X51754299Y-91630000D01*
X51754299Y-91630000D02*
X52754299Y-91630000D01*
X52754299Y-90391904D02*
X51754299Y-90391904D01*
X52754299Y-89820476D02*
X52182870Y-90249047D01*
X51754299Y-89820476D02*
X52325727Y-90391904D01*
X52754299Y-89391904D02*
X51754299Y-89391904D01*
X51754299Y-89058571D02*
X51754299Y-88487143D01*
X52754299Y-88772857D02*
X51754299Y-88772857D01*
X52754299Y-87391904D02*
X51754299Y-87391904D01*
X51754299Y-87391904D02*
X51754299Y-87153809D01*
X51754299Y-87153809D02*
X51801918Y-87010952D01*
X51801918Y-87010952D02*
X51897156Y-86915714D01*
X51897156Y-86915714D02*
X51992394Y-86868095D01*
X51992394Y-86868095D02*
X52182870Y-86820476D01*
X52182870Y-86820476D02*
X52325727Y-86820476D01*
X52325727Y-86820476D02*
X52516203Y-86868095D01*
X52516203Y-86868095D02*
X52611441Y-86915714D01*
X52611441Y-86915714D02*
X52706680Y-87010952D01*
X52706680Y-87010952D02*
X52754299Y-87153809D01*
X52754299Y-87153809D02*
X52754299Y-87391904D01*
X52659060Y-85820476D02*
X52706680Y-85868095D01*
X52706680Y-85868095D02*
X52754299Y-86010952D01*
X52754299Y-86010952D02*
X52754299Y-86106190D01*
X52754299Y-86106190D02*
X52706680Y-86249047D01*
X52706680Y-86249047D02*
X52611441Y-86344285D01*
X52611441Y-86344285D02*
X52516203Y-86391904D01*
X52516203Y-86391904D02*
X52325727Y-86439523D01*
X52325727Y-86439523D02*
X52182870Y-86439523D01*
X52182870Y-86439523D02*
X51992394Y-86391904D01*
X51992394Y-86391904D02*
X51897156Y-86344285D01*
X51897156Y-86344285D02*
X51801918Y-86249047D01*
X51801918Y-86249047D02*
X51754299Y-86106190D01*
X51754299Y-86106190D02*
X51754299Y-86010952D01*
X51754299Y-86010952D02*
X51801918Y-85868095D01*
X51801918Y-85868095D02*
X51849537Y-85820476D01*
X52373346Y-85391904D02*
X52373346Y-84630000D01*
X52468584Y-84201428D02*
X52468584Y-83725238D01*
X52754299Y-84296666D02*
X51754299Y-83963333D01*
X51754299Y-83963333D02*
X52754299Y-83630000D01*
X52754299Y-81963333D02*
X52278108Y-82296666D01*
X52754299Y-82534761D02*
X51754299Y-82534761D01*
X51754299Y-82534761D02*
X51754299Y-82153809D01*
X51754299Y-82153809D02*
X51801918Y-82058571D01*
X51801918Y-82058571D02*
X51849537Y-82010952D01*
X51849537Y-82010952D02*
X51944775Y-81963333D01*
X51944775Y-81963333D02*
X52087632Y-81963333D01*
X52087632Y-81963333D02*
X52182870Y-82010952D01*
X52182870Y-82010952D02*
X52230489Y-82058571D01*
X52230489Y-82058571D02*
X52278108Y-82153809D01*
X52278108Y-82153809D02*
X52278108Y-82534761D01*
X52230489Y-81534761D02*
X52230489Y-81201428D01*
X52754299Y-81058571D02*
X52754299Y-81534761D01*
X52754299Y-81534761D02*
X51754299Y-81534761D01*
X51754299Y-81534761D02*
X51754299Y-81058571D01*
X51754299Y-80772856D02*
X52754299Y-80439523D01*
X52754299Y-80439523D02*
X51754299Y-80106190D01*
X52659060Y-78439523D02*
X52706680Y-78487142D01*
X52706680Y-78487142D02*
X52754299Y-78629999D01*
X52754299Y-78629999D02*
X52754299Y-78725237D01*
X52754299Y-78725237D02*
X52706680Y-78868094D01*
X52706680Y-78868094D02*
X52611441Y-78963332D01*
X52611441Y-78963332D02*
X52516203Y-79010951D01*
X52516203Y-79010951D02*
X52325727Y-79058570D01*
X52325727Y-79058570D02*
X52182870Y-79058570D01*
X52182870Y-79058570D02*
X51992394Y-79010951D01*
X51992394Y-79010951D02*
X51897156Y-78963332D01*
X51897156Y-78963332D02*
X51801918Y-78868094D01*
X51801918Y-78868094D02*
X51754299Y-78725237D01*
X51754299Y-78725237D02*
X51754299Y-78629999D01*
X51754299Y-78629999D02*
X51801918Y-78487142D01*
X51801918Y-78487142D02*
X51849537Y-78439523D01*
X63714786Y-135919060D02*
X63667167Y-135966680D01*
X63667167Y-135966680D02*
X63524310Y-136014299D01*
X63524310Y-136014299D02*
X63429072Y-136014299D01*
X63429072Y-136014299D02*
X63286215Y-135966680D01*
X63286215Y-135966680D02*
X63190977Y-135871441D01*
X63190977Y-135871441D02*
X63143358Y-135776203D01*
X63143358Y-135776203D02*
X63095739Y-135585727D01*
X63095739Y-135585727D02*
X63095739Y-135442870D01*
X63095739Y-135442870D02*
X63143358Y-135252394D01*
X63143358Y-135252394D02*
X63190977Y-135157156D01*
X63190977Y-135157156D02*
X63286215Y-135061918D01*
X63286215Y-135061918D02*
X63429072Y-135014299D01*
X63429072Y-135014299D02*
X63524310Y-135014299D01*
X63524310Y-135014299D02*
X63667167Y-135061918D01*
X63667167Y-135061918D02*
X63714786Y-135109537D01*
X64143358Y-135014299D02*
X64143358Y-135823822D01*
X64143358Y-135823822D02*
X64190977Y-135919060D01*
X64190977Y-135919060D02*
X64238596Y-135966680D01*
X64238596Y-135966680D02*
X64333834Y-136014299D01*
X64333834Y-136014299D02*
X64524310Y-136014299D01*
X64524310Y-136014299D02*
X64619548Y-135966680D01*
X64619548Y-135966680D02*
X64667167Y-135919060D01*
X64667167Y-135919060D02*
X64714786Y-135823822D01*
X64714786Y-135823822D02*
X64714786Y-135014299D01*
X66467167Y-136014299D02*
X65895739Y-136014299D01*
X66181453Y-136014299D02*
X66181453Y-135014299D01*
X66181453Y-135014299D02*
X66086215Y-135157156D01*
X66086215Y-135157156D02*
X65990977Y-135252394D01*
X65990977Y-135252394D02*
X65895739Y-135300013D01*
X67086215Y-135014299D02*
X67276691Y-135014299D01*
X67276691Y-135014299D02*
X67371929Y-135061918D01*
X67371929Y-135061918D02*
X67467167Y-135157156D01*
X67467167Y-135157156D02*
X67514786Y-135347632D01*
X67514786Y-135347632D02*
X67514786Y-135680965D01*
X67514786Y-135680965D02*
X67467167Y-135871441D01*
X67467167Y-135871441D02*
X67371929Y-135966680D01*
X67371929Y-135966680D02*
X67276691Y-136014299D01*
X67276691Y-136014299D02*
X67086215Y-136014299D01*
X67086215Y-136014299D02*
X66990977Y-135966680D01*
X66990977Y-135966680D02*
X66895739Y-135871441D01*
X66895739Y-135871441D02*
X66848120Y-135680965D01*
X66848120Y-135680965D02*
X66848120Y-135347632D01*
X66848120Y-135347632D02*
X66895739Y-135157156D01*
X66895739Y-135157156D02*
X66990977Y-135061918D01*
X66990977Y-135061918D02*
X67086215Y-135014299D01*
X67848120Y-135014299D02*
X68514786Y-135014299D01*
X68514786Y-135014299D02*
X67848120Y-136014299D01*
X67848120Y-136014299D02*
X68514786Y-136014299D01*
X72045739Y-135109537D02*
X72093358Y-135061918D01*
X72093358Y-135061918D02*
X72188596Y-135014299D01*
X72188596Y-135014299D02*
X72426691Y-135014299D01*
X72426691Y-135014299D02*
X72521929Y-135061918D01*
X72521929Y-135061918D02*
X72569548Y-135109537D01*
X72569548Y-135109537D02*
X72617167Y-135204775D01*
X72617167Y-135204775D02*
X72617167Y-135300013D01*
X72617167Y-135300013D02*
X72569548Y-135442870D01*
X72569548Y-135442870D02*
X71998120Y-136014299D01*
X71998120Y-136014299D02*
X72617167Y-136014299D01*
X73236215Y-135014299D02*
X73426691Y-135014299D01*
X73426691Y-135014299D02*
X73521929Y-135061918D01*
X73521929Y-135061918D02*
X73617167Y-135157156D01*
X73617167Y-135157156D02*
X73664786Y-135347632D01*
X73664786Y-135347632D02*
X73664786Y-135680965D01*
X73664786Y-135680965D02*
X73617167Y-135871441D01*
X73617167Y-135871441D02*
X73521929Y-135966680D01*
X73521929Y-135966680D02*
X73426691Y-136014299D01*
X73426691Y-136014299D02*
X73236215Y-136014299D01*
X73236215Y-136014299D02*
X73140977Y-135966680D01*
X73140977Y-135966680D02*
X73045739Y-135871441D01*
X73045739Y-135871441D02*
X72998120Y-135680965D01*
X72998120Y-135680965D02*
X72998120Y-135347632D01*
X72998120Y-135347632D02*
X73045739Y-135157156D01*
X73045739Y-135157156D02*
X73140977Y-135061918D01*
X73140977Y-135061918D02*
X73236215Y-135014299D01*
X73998120Y-135014299D02*
X74664786Y-135014299D01*
X74664786Y-135014299D02*
X73998120Y-136014299D01*
X73998120Y-136014299D02*
X74664786Y-136014299D01*
X78576691Y-135490489D02*
X78243358Y-135490489D01*
X78243358Y-136014299D02*
X78243358Y-135014299D01*
X78243358Y-135014299D02*
X78719548Y-135014299D01*
X79052882Y-135728584D02*
X79529072Y-135728584D01*
X78957644Y-136014299D02*
X79290977Y-135014299D01*
X79290977Y-135014299D02*
X79624310Y-136014299D01*
X80290977Y-135490489D02*
X80433834Y-135538108D01*
X80433834Y-135538108D02*
X80481453Y-135585727D01*
X80481453Y-135585727D02*
X80529072Y-135680965D01*
X80529072Y-135680965D02*
X80529072Y-135823822D01*
X80529072Y-135823822D02*
X80481453Y-135919060D01*
X80481453Y-135919060D02*
X80433834Y-135966680D01*
X80433834Y-135966680D02*
X80338596Y-136014299D01*
X80338596Y-136014299D02*
X79957644Y-136014299D01*
X79957644Y-136014299D02*
X79957644Y-135014299D01*
X79957644Y-135014299D02*
X80290977Y-135014299D01*
X80290977Y-135014299D02*
X80386215Y-135061918D01*
X80386215Y-135061918D02*
X80433834Y-135109537D01*
X80433834Y-135109537D02*
X80481453Y-135204775D01*
X80481453Y-135204775D02*
X80481453Y-135300013D01*
X80481453Y-135300013D02*
X80433834Y-135395251D01*
X80433834Y-135395251D02*
X80386215Y-135442870D01*
X80386215Y-135442870D02*
X80290977Y-135490489D01*
X80290977Y-135490489D02*
X79957644Y-135490489D01*
X82279072Y-135014299D02*
X82279072Y-135728584D01*
X82279072Y-135728584D02*
X82231453Y-135871441D01*
X82231453Y-135871441D02*
X82136215Y-135966680D01*
X82136215Y-135966680D02*
X81993358Y-136014299D01*
X81993358Y-136014299D02*
X81898120Y-136014299D01*
X83231453Y-136014299D02*
X82755263Y-136014299D01*
X82755263Y-136014299D02*
X82755263Y-135014299D01*
X84136215Y-135919060D02*
X84088596Y-135966680D01*
X84088596Y-135966680D02*
X83945739Y-136014299D01*
X83945739Y-136014299D02*
X83850501Y-136014299D01*
X83850501Y-136014299D02*
X83707644Y-135966680D01*
X83707644Y-135966680D02*
X83612406Y-135871441D01*
X83612406Y-135871441D02*
X83564787Y-135776203D01*
X83564787Y-135776203D02*
X83517168Y-135585727D01*
X83517168Y-135585727D02*
X83517168Y-135442870D01*
X83517168Y-135442870D02*
X83564787Y-135252394D01*
X83564787Y-135252394D02*
X83612406Y-135157156D01*
X83612406Y-135157156D02*
X83707644Y-135061918D01*
X83707644Y-135061918D02*
X83850501Y-135014299D01*
X83850501Y-135014299D02*
X83945739Y-135014299D01*
X83945739Y-135014299D02*
X84088596Y-135061918D01*
X84088596Y-135061918D02*
X84136215Y-135109537D01*
X88333834Y-135014299D02*
X88524310Y-135014299D01*
X88524310Y-135014299D02*
X88619548Y-135061918D01*
X88619548Y-135061918D02*
X88714786Y-135157156D01*
X88714786Y-135157156D02*
X88762405Y-135347632D01*
X88762405Y-135347632D02*
X88762405Y-135680965D01*
X88762405Y-135680965D02*
X88714786Y-135871441D01*
X88714786Y-135871441D02*
X88619548Y-135966680D01*
X88619548Y-135966680D02*
X88524310Y-136014299D01*
X88524310Y-136014299D02*
X88333834Y-136014299D01*
X88333834Y-136014299D02*
X88238596Y-135966680D01*
X88238596Y-135966680D02*
X88143358Y-135871441D01*
X88143358Y-135871441D02*
X88095739Y-135680965D01*
X88095739Y-135680965D02*
X88095739Y-135347632D01*
X88095739Y-135347632D02*
X88143358Y-135157156D01*
X88143358Y-135157156D02*
X88238596Y-135061918D01*
X88238596Y-135061918D02*
X88333834Y-135014299D01*
X89143358Y-135966680D02*
X89286215Y-136014299D01*
X89286215Y-136014299D02*
X89524310Y-136014299D01*
X89524310Y-136014299D02*
X89619548Y-135966680D01*
X89619548Y-135966680D02*
X89667167Y-135919060D01*
X89667167Y-135919060D02*
X89714786Y-135823822D01*
X89714786Y-135823822D02*
X89714786Y-135728584D01*
X89714786Y-135728584D02*
X89667167Y-135633346D01*
X89667167Y-135633346D02*
X89619548Y-135585727D01*
X89619548Y-135585727D02*
X89524310Y-135538108D01*
X89524310Y-135538108D02*
X89333834Y-135490489D01*
X89333834Y-135490489D02*
X89238596Y-135442870D01*
X89238596Y-135442870D02*
X89190977Y-135395251D01*
X89190977Y-135395251D02*
X89143358Y-135300013D01*
X89143358Y-135300013D02*
X89143358Y-135204775D01*
X89143358Y-135204775D02*
X89190977Y-135109537D01*
X89190977Y-135109537D02*
X89238596Y-135061918D01*
X89238596Y-135061918D02*
X89333834Y-135014299D01*
X89333834Y-135014299D02*
X89571929Y-135014299D01*
X89571929Y-135014299D02*
X89714786Y-135061918D01*
X90143358Y-136014299D02*
X90143358Y-135014299D01*
X90143358Y-135490489D02*
X90714786Y-135490489D01*
X90714786Y-136014299D02*
X90714786Y-135014299D01*
X122992832Y-136014299D02*
X122992832Y-135014299D01*
X122992832Y-135014299D02*
X123373784Y-135014299D01*
X123373784Y-135014299D02*
X123469022Y-135061918D01*
X123469022Y-135061918D02*
X123516641Y-135109537D01*
X123516641Y-135109537D02*
X123564260Y-135204775D01*
X123564260Y-135204775D02*
X123564260Y-135347632D01*
X123564260Y-135347632D02*
X123516641Y-135442870D01*
X123516641Y-135442870D02*
X123469022Y-135490489D01*
X123469022Y-135490489D02*
X123373784Y-135538108D01*
X123373784Y-135538108D02*
X122992832Y-135538108D01*
X123945213Y-135728584D02*
X124421403Y-135728584D01*
X123849975Y-136014299D02*
X124183308Y-135014299D01*
X124183308Y-135014299D02*
X124516641Y-136014299D01*
X124849975Y-136014299D02*
X124849975Y-135014299D01*
X124849975Y-135014299D02*
X125088070Y-135014299D01*
X125088070Y-135014299D02*
X125230927Y-135061918D01*
X125230927Y-135061918D02*
X125326165Y-135157156D01*
X125326165Y-135157156D02*
X125373784Y-135252394D01*
X125373784Y-135252394D02*
X125421403Y-135442870D01*
X125421403Y-135442870D02*
X125421403Y-135585727D01*
X125421403Y-135585727D02*
X125373784Y-135776203D01*
X125373784Y-135776203D02*
X125326165Y-135871441D01*
X125326165Y-135871441D02*
X125230927Y-135966680D01*
X125230927Y-135966680D02*
X125088070Y-136014299D01*
X125088070Y-136014299D02*
X124849975Y-136014299D01*
X125802356Y-135966680D02*
X125945213Y-136014299D01*
X125945213Y-136014299D02*
X126183308Y-136014299D01*
X126183308Y-136014299D02*
X126278546Y-135966680D01*
X126278546Y-135966680D02*
X126326165Y-135919060D01*
X126326165Y-135919060D02*
X126373784Y-135823822D01*
X126373784Y-135823822D02*
X126373784Y-135728584D01*
X126373784Y-135728584D02*
X126326165Y-135633346D01*
X126326165Y-135633346D02*
X126278546Y-135585727D01*
X126278546Y-135585727D02*
X126183308Y-135538108D01*
X126183308Y-135538108D02*
X125992832Y-135490489D01*
X125992832Y-135490489D02*
X125897594Y-135442870D01*
X125897594Y-135442870D02*
X125849975Y-135395251D01*
X125849975Y-135395251D02*
X125802356Y-135300013D01*
X125802356Y-135300013D02*
X125802356Y-135204775D01*
X125802356Y-135204775D02*
X125849975Y-135109537D01*
X125849975Y-135109537D02*
X125897594Y-135061918D01*
X125897594Y-135061918D02*
X125992832Y-135014299D01*
X125992832Y-135014299D02*
X126230927Y-135014299D01*
X126230927Y-135014299D02*
X126373784Y-135061918D01*
X127754737Y-135014299D02*
X127945213Y-135014299D01*
X127945213Y-135014299D02*
X128040451Y-135061918D01*
X128040451Y-135061918D02*
X128135689Y-135157156D01*
X128135689Y-135157156D02*
X128183308Y-135347632D01*
X128183308Y-135347632D02*
X128183308Y-135680965D01*
X128183308Y-135680965D02*
X128135689Y-135871441D01*
X128135689Y-135871441D02*
X128040451Y-135966680D01*
X128040451Y-135966680D02*
X127945213Y-136014299D01*
X127945213Y-136014299D02*
X127754737Y-136014299D01*
X127754737Y-136014299D02*
X127659499Y-135966680D01*
X127659499Y-135966680D02*
X127564261Y-135871441D01*
X127564261Y-135871441D02*
X127516642Y-135680965D01*
X127516642Y-135680965D02*
X127516642Y-135347632D01*
X127516642Y-135347632D02*
X127564261Y-135157156D01*
X127564261Y-135157156D02*
X127659499Y-135061918D01*
X127659499Y-135061918D02*
X127754737Y-135014299D01*
X128611880Y-136014299D02*
X128611880Y-135014299D01*
X128611880Y-135014299D02*
X129183308Y-136014299D01*
X129183308Y-136014299D02*
X129183308Y-135014299D01*
X130373785Y-135109537D02*
X130421404Y-135061918D01*
X130421404Y-135061918D02*
X130516642Y-135014299D01*
X130516642Y-135014299D02*
X130754737Y-135014299D01*
X130754737Y-135014299D02*
X130849975Y-135061918D01*
X130849975Y-135061918D02*
X130897594Y-135109537D01*
X130897594Y-135109537D02*
X130945213Y-135204775D01*
X130945213Y-135204775D02*
X130945213Y-135300013D01*
X130945213Y-135300013D02*
X130897594Y-135442870D01*
X130897594Y-135442870D02*
X130326166Y-136014299D01*
X130326166Y-136014299D02*
X130945213Y-136014299D01*
X131373785Y-135919060D02*
X131421404Y-135966680D01*
X131421404Y-135966680D02*
X131373785Y-136014299D01*
X131373785Y-136014299D02*
X131326166Y-135966680D01*
X131326166Y-135966680D02*
X131373785Y-135919060D01*
X131373785Y-135919060D02*
X131373785Y-136014299D01*
X132326165Y-135014299D02*
X131849975Y-135014299D01*
X131849975Y-135014299D02*
X131802356Y-135490489D01*
X131802356Y-135490489D02*
X131849975Y-135442870D01*
X131849975Y-135442870D02*
X131945213Y-135395251D01*
X131945213Y-135395251D02*
X132183308Y-135395251D01*
X132183308Y-135395251D02*
X132278546Y-135442870D01*
X132278546Y-135442870D02*
X132326165Y-135490489D01*
X132326165Y-135490489D02*
X132373784Y-135585727D01*
X132373784Y-135585727D02*
X132373784Y-135823822D01*
X132373784Y-135823822D02*
X132326165Y-135919060D01*
X132326165Y-135919060D02*
X132278546Y-135966680D01*
X132278546Y-135966680D02*
X132183308Y-136014299D01*
X132183308Y-136014299D02*
X131945213Y-136014299D01*
X131945213Y-136014299D02*
X131849975Y-135966680D01*
X131849975Y-135966680D02*
X131802356Y-135919060D01*
X133230927Y-135347632D02*
X133230927Y-136014299D01*
X132992832Y-134966680D02*
X132754737Y-135680965D01*
X132754737Y-135680965D02*
X133373784Y-135680965D01*
X135040451Y-135061918D02*
X134945213Y-135014299D01*
X134945213Y-135014299D02*
X134802356Y-135014299D01*
X134802356Y-135014299D02*
X134659499Y-135061918D01*
X134659499Y-135061918D02*
X134564261Y-135157156D01*
X134564261Y-135157156D02*
X134516642Y-135252394D01*
X134516642Y-135252394D02*
X134469023Y-135442870D01*
X134469023Y-135442870D02*
X134469023Y-135585727D01*
X134469023Y-135585727D02*
X134516642Y-135776203D01*
X134516642Y-135776203D02*
X134564261Y-135871441D01*
X134564261Y-135871441D02*
X134659499Y-135966680D01*
X134659499Y-135966680D02*
X134802356Y-136014299D01*
X134802356Y-136014299D02*
X134897594Y-136014299D01*
X134897594Y-136014299D02*
X135040451Y-135966680D01*
X135040451Y-135966680D02*
X135088070Y-135919060D01*
X135088070Y-135919060D02*
X135088070Y-135585727D01*
X135088070Y-135585727D02*
X134897594Y-135585727D01*
X136088070Y-136014299D02*
X135754737Y-135538108D01*
X135516642Y-136014299D02*
X135516642Y-135014299D01*
X135516642Y-135014299D02*
X135897594Y-135014299D01*
X135897594Y-135014299D02*
X135992832Y-135061918D01*
X135992832Y-135061918D02*
X136040451Y-135109537D01*
X136040451Y-135109537D02*
X136088070Y-135204775D01*
X136088070Y-135204775D02*
X136088070Y-135347632D01*
X136088070Y-135347632D02*
X136040451Y-135442870D01*
X136040451Y-135442870D02*
X135992832Y-135490489D01*
X135992832Y-135490489D02*
X135897594Y-135538108D01*
X135897594Y-135538108D02*
X135516642Y-135538108D01*
X136516642Y-136014299D02*
X136516642Y-135014299D01*
X136992832Y-136014299D02*
X136992832Y-135014299D01*
X136992832Y-135014299D02*
X137230927Y-135014299D01*
X137230927Y-135014299D02*
X137373784Y-135061918D01*
X137373784Y-135061918D02*
X137469022Y-135157156D01*
X137469022Y-135157156D02*
X137516641Y-135252394D01*
X137516641Y-135252394D02*
X137564260Y-135442870D01*
X137564260Y-135442870D02*
X137564260Y-135585727D01*
X137564260Y-135585727D02*
X137516641Y-135776203D01*
X137516641Y-135776203D02*
X137469022Y-135871441D01*
X137469022Y-135871441D02*
X137373784Y-135966680D01*
X137373784Y-135966680D02*
X137230927Y-136014299D01*
X137230927Y-136014299D02*
X136992832Y-136014299D01*
X91237594Y-40406680D02*
X91380451Y-40454299D01*
X91380451Y-40454299D02*
X91618546Y-40454299D01*
X91618546Y-40454299D02*
X91713784Y-40406680D01*
X91713784Y-40406680D02*
X91761403Y-40359060D01*
X91761403Y-40359060D02*
X91809022Y-40263822D01*
X91809022Y-40263822D02*
X91809022Y-40168584D01*
X91809022Y-40168584D02*
X91761403Y-40073346D01*
X91761403Y-40073346D02*
X91713784Y-40025727D01*
X91713784Y-40025727D02*
X91618546Y-39978108D01*
X91618546Y-39978108D02*
X91428070Y-39930489D01*
X91428070Y-39930489D02*
X91332832Y-39882870D01*
X91332832Y-39882870D02*
X91285213Y-39835251D01*
X91285213Y-39835251D02*
X91237594Y-39740013D01*
X91237594Y-39740013D02*
X91237594Y-39644775D01*
X91237594Y-39644775D02*
X91285213Y-39549537D01*
X91285213Y-39549537D02*
X91332832Y-39501918D01*
X91332832Y-39501918D02*
X91428070Y-39454299D01*
X91428070Y-39454299D02*
X91666165Y-39454299D01*
X91666165Y-39454299D02*
X91809022Y-39501918D01*
X92951879Y-39406680D02*
X92094737Y-40692394D01*
X93285213Y-40454299D02*
X93285213Y-39454299D01*
X93285213Y-39454299D02*
X93856641Y-40454299D01*
X93856641Y-40454299D02*
X93856641Y-39454299D01*
%LPC*%
D12*
%TO.C,VA1_FP*%
X55880000Y-50800000D03*
%TD*%
%TO.C,VA1_FM*%
X81280000Y-50800000D03*
%TD*%
D13*
%TO.C,VA1_SP*%
X63500000Y-50800000D03*
%TD*%
%TO.C,VA1_SM*%
X73660000Y-50800000D03*
%TD*%
D12*
%TO.C,VA4_FP*%
X86360000Y-50800000D03*
%TD*%
%TO.C,VA4_FM*%
X111760000Y-50800000D03*
%TD*%
D13*
%TO.C,VA4_SP*%
X93980000Y-50800000D03*
%TD*%
%TO.C,VA4_SM*%
X104140000Y-50800000D03*
%TD*%
D12*
%TO.C,VA8_FP*%
X116840000Y-50800000D03*
%TD*%
%TO.C,VA8_FM*%
X142240000Y-50800000D03*
%TD*%
D13*
%TO.C,VA8_SP*%
X124460000Y-50800000D03*
%TD*%
%TO.C,VA8_SM*%
X134620000Y-50800000D03*
%TD*%
D14*
%TO.C,KV030_FP*%
X55880000Y-66040000D03*
%TD*%
D15*
%TO.C,KV030_SP*%
X66040000Y-66040000D03*
%TD*%
D14*
%TO.C,KV030_FM*%
X60960000Y-60960000D03*
%TD*%
D15*
%TO.C,KV030_SM*%
X60960000Y-71120000D03*
%TD*%
D14*
%TO.C,KV050_FP*%
X73660000Y-66040000D03*
%TD*%
D15*
%TO.C,KV050_SP*%
X83820000Y-66040000D03*
%TD*%
D14*
%TO.C,KV050_FM*%
X78740000Y-60960000D03*
%TD*%
D15*
%TO.C,KV050_SM*%
X78740000Y-71120000D03*
%TD*%
D14*
%TO.C,DC030W_FP*%
X91440000Y-63500000D03*
%TD*%
%TO.C,DC030W_FM*%
X129540000Y-63500000D03*
%TD*%
D15*
%TO.C,DC030W_SP*%
X96520000Y-60960000D03*
%TD*%
%TO.C,DC030W_SM*%
X127000000Y-60960000D03*
%TD*%
D14*
%TO.C,DC050W_FP*%
X91440000Y-71120000D03*
%TD*%
%TO.C,DC050W_FM*%
X129540000Y-71120000D03*
%TD*%
D15*
%TO.C,DC050W_SP*%
X96520000Y-68580000D03*
%TD*%
%TO.C,DC050W_SM*%
X127000000Y-68580000D03*
%TD*%
%TO.C,VDPF3_A*%
X144780000Y-68580000D03*
%TD*%
%TO.C,VDPF3_B*%
X139700000Y-63500000D03*
%TD*%
%TO.C,VDPF3_C*%
X134620000Y-68580000D03*
%TD*%
%TO.C,VDPF3_D*%
X139700000Y-73660000D03*
%TD*%
D14*
%TO.C,LBF100_FP*%
X55880000Y-81280000D03*
%TD*%
%TO.C,LBF100_FM*%
X144780000Y-81280000D03*
%TD*%
D15*
%TO.C,LBF100_SP*%
X60960000Y-78740000D03*
%TD*%
%TO.C,LBF100_SM*%
X139700000Y-78740000D03*
%TD*%
D16*
%TO.C,NK1_FP*%
X55880000Y-91440000D03*
%TD*%
%TO.C,NK1_FM*%
X93980000Y-91440000D03*
%TD*%
D15*
%TO.C,NK1_SP*%
X68580000Y-86360000D03*
%TD*%
%TO.C,NK1_SM*%
X81280000Y-86360000D03*
%TD*%
%TO.C,VDPF2_A*%
X109220000Y-93980000D03*
%TD*%
%TO.C,VDPF2_B*%
X104140000Y-88900000D03*
%TD*%
%TO.C,VDPF2_C*%
X99060000Y-93980000D03*
%TD*%
%TO.C,VDPF2_D*%
X104140000Y-99060000D03*
%TD*%
D14*
%TO.C,BRF100X_FP*%
X114300000Y-88900000D03*
%TD*%
%TO.C,BRF100X_FM*%
X139700000Y-88900000D03*
%TD*%
D15*
%TO.C,BRF100X_SP*%
X119380000Y-86360000D03*
%TD*%
%TO.C,BRF100X_SM*%
X134620000Y-86360000D03*
%TD*%
D17*
%TO.C,LC_FP*%
X55880000Y-109220000D03*
%TD*%
D18*
%TO.C,LC_FM*%
X71120000Y-124460000D03*
%TD*%
D15*
%TO.C,LC_SP*%
X63500000Y-104140000D03*
%TD*%
%TO.C,LC_SM*%
X76200000Y-116840000D03*
%TD*%
D14*
%TO.C,BRF050X_FP*%
X83820000Y-106680000D03*
%TD*%
%TO.C,BRF050X_FM*%
X109220000Y-106680000D03*
%TD*%
D15*
%TO.C,BRF050X_SP*%
X88900000Y-104140000D03*
%TD*%
%TO.C,BRF050X_SM*%
X104140000Y-104140000D03*
%TD*%
D14*
%TO.C,BRF200X_FP*%
X83820000Y-114300000D03*
%TD*%
%TO.C,BRF200X_FM*%
X109220000Y-114300000D03*
%TD*%
D15*
%TO.C,BRF200X_SP*%
X88900000Y-111760000D03*
%TD*%
%TO.C,BRF200X_SM*%
X104140000Y-111760000D03*
%TD*%
D14*
%TO.C,BRF050Y_FP*%
X116840000Y-127000000D03*
%TD*%
%TO.C,BRF050Y_FM*%
X116840000Y-104140000D03*
%TD*%
D15*
%TO.C,BRF050Y_SP*%
X114300000Y-121920000D03*
%TD*%
%TO.C,BRF050Y_SM*%
X114300000Y-109220000D03*
%TD*%
%TO.C,VDPF1_A*%
X137160000Y-109220000D03*
%TD*%
%TO.C,VDPF1_B*%
X132080000Y-104140000D03*
%TD*%
%TO.C,VDPF1_C*%
X127000000Y-109220000D03*
%TD*%
%TO.C,VDPF1_D*%
X132080000Y-114300000D03*
%TD*%
D19*
%TO.C,TK1_W1*%
X145300000Y-55400000D03*
%TD*%
%TO.C,TK2_W1*%
X140800000Y-126100000D03*
%TD*%
%TO.C,TK3_W1*%
X61300000Y-131400000D03*
%TD*%
D20*
%TO.C,H1*%
X54800000Y-42100000D03*
%TD*%
%TO.C,H2*%
X145860000Y-42100000D03*
%TD*%
%TO.C,H3*%
X54800000Y-133160000D03*
%TD*%
%TO.C,H4*%
X145860000Y-133160000D03*
%TD*%
%LPD*%
M02*
